<?xml version="1.0" encoding="UTF-8" standalone="no"?>
<!-- Created with Inkscape (http://www.inkscape.org/) -->

<svg
   xmlns:dc="http://purl.org/dc/elements/1.1/"
   xmlns:cc="http://creativecommons.org/ns#"
   xmlns:rdf="http://www.w3.org/1999/02/22-rdf-syntax-ns#"
   xmlns:svg="http://www.w3.org/2000/svg"
   xmlns="http://www.w3.org/2000/svg"
   xmlns:sodipodi="http://sodipodi.sourceforge.net/DTD/sodipodi-0.dtd"
   xmlns:inkscape="http://www.inkscape.org/namespaces/inkscape"
   width="97.312958"
   height="39.32"
   id="svg2"
   version="1.1"
   inkscape:version="0.91 r13725"
   sodipodi:docname="px4-text.svg"
   inkscape:export-filename="/Users/lorenzmeier/src/Devguide/book/images/px4-text.png"
   inkscape:export-xdpi="296.83377"
   inkscape:export-ydpi="296.83377">
  <defs
     id="defs4" />
  <sodipodi:namedview
     id="base"
     pagecolor="#99908e"
     bordercolor="#666666"
     borderopacity="1.0"
     inkscape:pageopacity="0"
     inkscape:pageshadow="2"
     inkscape:zoom="5.33"
     inkscape:cx="27.459647"
     inkscape:cy="14.828386"
     inkscape:document-units="px"
     inkscape:current-layer="layer1"
     showgrid="false"
     inkscape:window-width="1031"
     inkscape:window-height="699"
     inkscape:window-x="152"
     inkscape:window-y="4"
     inkscape:window-maximized="0"
     showguides="true"
     inkscape:guide-bbox="true"
     fit-margin-top="0"
     fit-margin-left="0"
     fit-margin-right="0"
     fit-margin-bottom="0" />
  <metadata
     id="metadata7">
    <rdf:RDF>
      <cc:Work
         rdf:about="">
        <dc:format>image/svg+xml</dc:format>
        <dc:type
           rdf:resource="http://purl.org/dc/dcmitype/StillImage" />
        <dc:title></dc:title>
        <cc:license
           rdf:resource="" />
      </cc:Work>
    </rdf:RDF>
  </metadata>
  <g
     inkscape:label="Ebene 1"
     inkscape:groupmode="layer"
     id="layer1"
     transform="translate(-91.884933,-141.95727)">
    <flowRoot
       xml:space="preserve"
       id="flowRoot2993"
       style="font-style:italic;font-variant:normal;font-weight:bold;font-stretch:normal;font-size:40px;line-height:125%;font-family:'Airbus Special';-inkscape-font-specification:'Airbus Special Bold Italic';letter-spacing:0px;word-spacing:0px;fill:#000000;fill-opacity:1;stroke:none"><flowRegion
         id="flowRegion2995"><rect
           id="rect2997"
           width="456.43564"
           height="208.91089"
           x="650.49506"
           y="332.56021" /></flowRegion><flowPara
         id="flowPara2999" /></flowRoot>    <text
       xml:space="preserve"
       style="font-style:normal;font-variant:normal;font-weight:normal;font-stretch:normal;font-size:24px;line-height:125%;font-family:Sans;-inkscape-font-specification:Helvetica;letter-spacing:0px;word-spacing:0px;fill:#000000;fill-opacity:1;stroke:none"
       x="39.796597"
       y="57.447254"
       id="text3974"
       sodipodi:linespacing="125%"><tspan
         sodipodi:role="line"
         id="tspan3976"
         x="39.796597"
         y="57.447254" /></text>
    <g
       id="text4163"
       style="font-style:italic;font-variant:normal;font-weight:bold;font-stretch:normal;font-size:40px;line-height:125%;font-family:'Airbus Special';-inkscape-font-specification:'Airbus Special Bold Italic';letter-spacing:0px;word-spacing:0px;fill:#ffffff;fill-opacity:1;stroke:none"
       transform="translate(-153.18412,-49.986397)"
       inkscape:export-xdpi="296.83377"
       inkscape:export-ydpi="296.83377">
      <path
         inkscape:connector-curvature="0"
         id="path3039"
         style="font-family:'Republika Exp';-inkscape-font-specification:'Republika Exp Bold Italic';fill:#ffffff;fill-opacity:1"
         d="m 271.89189,204.38367 c 0.45331,1e-5 0.73331,0.08 0.84,0.24 0.13331,0.16001 0.13331,0.50668 0,1.04 l -3.16,12.92 c -0.13335,0.53333 -0.29335,0.88 -0.48,1.04 -0.16002,0.16 -0.48002,0.24 -0.96,0.24 l -10.2,0 c -0.29334,0 -0.56001,0.08 -0.8,0.24 -0.21334,0.16 -0.34668,0.34666 -0.4,0.56 l -0.44,1.84 c -0.0533,0.21333 -0.0133,0.4 0.12,0.56 0.15999,0.16 0.38666,0.24 0.68,0.24 l 10.6,0 c 1.27998,0 2.37331,-0.0933 3.28,-0.28 0.93331,-0.18667 1.71998,-0.49334 2.36,-0.92 0.66664,-0.45334 1.21331,-1.04 1.64,-1.76 0.42664,-0.72 0.77331,-1.62667 1.04,-2.72 l 2.68,-11 c 0.26664,-1.09332 0.35997,-1.99999 0.28,-2.72 -0.08,-0.71998 -0.3467,-1.29332 -0.8,-1.72 -0.45336,-0.45332 -1.12003,-0.77332 -2,-0.96 -0.88003,-0.18665 -2.00003,-0.27998 -3.36,-0.28 l -19.44,0 c -0.29334,2e-5 -0.56,0.08 -0.8,0.24 -0.21334,0.16002 -0.34667,0.34668 -0.4,0.56 l -0.44,1.84 c -0.0533,0.21335 -0.0133,0.40001 0.12,0.56 0.16,0.16001 0.38666,0.24001 0.68,0.24 l 19.36,0 m -15.68,5.56 c 0.0533,-0.21332 -10e-6,-0.41332 -0.16,-0.6 -0.13334,-0.21332 -0.34667,-0.31999 -0.64,-0.32 l -4.12,0 c -0.29334,1e-5 -0.56,0.10668 -0.8,0.32 -0.21334,0.18668 -0.34667,0.38668 -0.4,0.6 l -5,20.52 c -0.0533,0.21332 -0.0133,0.39999 0.12,0.56 0.16,0.15999 0.38667,0.23999 0.68,0.24 l 4.12,0 c 0.29333,-1e-5 0.54666,-0.08 0.76,-0.24 0.24,-0.16001 0.38666,-0.34668 0.44,-0.56 l 5,-20.52" />
      <path
         inkscape:connector-curvature="0"
         id="path3041"
         style="font-family:'Republika Exp';-inkscape-font-specification:'Republika Exp Bold Italic';fill:#ffffff;fill-opacity:1"
         d="m 282.22439,223.30367 c 0.10667,0 0.25333,-0.0267 0.44,-0.08 0.18666,-0.08 0.30666,-0.14667 0.36,-0.2 l 9.68,-7.2 4.6,7.16 c 0.0533,0.08 0.14665,0.16 0.28,0.24 0.15998,0.0533 0.29332,0.08 0.4,0.08 l 5.36,0 c 0.45331,0 0.79998,-0.13334 1.04,-0.4 0.23998,-0.29334 0.25331,-0.58667 0.04,-0.88 l -7.12,-10.2 12.28,-9.52 c 0.3733,-0.29332 0.50664,-0.58665 0.4,-0.88 -0.1067,-0.29332 -0.3867,-0.43998 -0.84,-0.44 l -4.12,0 c -0.10669,2e-5 -0.24002,0.04 -0.4,0.12 -0.16002,0.0533 -0.29336,0.10668 -0.4,0.16 l -9.2,7.24 -4.92,-7.2 c -0.0533,-0.08 -0.17334,-0.14665 -0.36,-0.2 -0.16001,-0.08 -0.29334,-0.11998 -0.4,-0.12 l -5.56,0 c -0.45334,2e-5 -0.8,0.14668 -1.04,0.44 -0.24,0.26668 -0.25333,0.54668 -0.04,0.84 l 7.24,10.36 -9.56,7.28 -6.44,0 c -0.29333,0 -0.54666,0.08 -0.76,0.24 -0.23999,0.16 -0.38666,0.34666 -0.44,0.56 l -0.44,1.84 c -0.0533,0.21333 10e-6,0.4 0.16,0.56 0.13334,0.16 0.34667,0.24 0.64,0.24 l 9.12,-0.04" />
      <path
         inkscape:connector-curvature="0"
         id="path3043"
         style="font-family:'Republika Exp';-inkscape-font-specification:'Republika Exp Bold Italic';fill:#ffffff;fill-opacity:1"
         d="m 316.83127,208.50367 1.6,-6.56 c 0.0533,-0.21332 0.0133,-0.42665 -0.12,-0.64 -0.13335,-0.21332 -0.34668,-0.31998 -0.64,-0.32 l -4.24,0 c -0.29334,2e-5 -0.56001,0.10668 -0.8,0.32 -0.21334,0.21335 -0.34667,0.42668 -0.4,0.64 l -1.88,7.68 c -0.10667,0.42668 -0.16001,0.85334 -0.16,1.28 0.0267,0.42667 0.11999,0.81334 0.28,1.16 0.18666,0.34667 0.45333,0.64001 0.8,0.88 0.37333,0.21334 0.86666,0.32001 1.48,0.32 l 11.68,0 -2.24,9.24 c -0.0533,0.21333 -0.0134,0.4 0.12,0.56 0.15998,0.16 0.38665,0.24 0.68,0.24 l 4.24,0 c 0.29331,0 0.54664,-0.08 0.76,-0.24 0.23998,-0.16 0.38664,-0.34667 0.44,-0.56 l 2.24,-9.24 10.08,0 c 0.2133,1e-5 0.4133,-0.0533 0.6,-0.16 0.2133,-0.13333 0.3733,-0.26666 0.48,-0.4 l 0.4,-1.8 c 0.18663,-0.29333 0.19996,-0.53333 0.04,-0.72 -0.13337,-0.21332 -0.37337,-0.31999 -0.72,-0.32 l -10.08,0 1.96,-7.96 c 0.0533,-0.21332 -3e-5,-0.41332 -0.16,-0.6 -0.13336,-0.21332 -0.3467,-0.31998 -0.64,-0.32 l -4.24,0 c -0.29336,2e-5 -0.56002,0.10668 -0.8,0.32 -0.21336,0.18668 -0.34669,0.38668 -0.4,0.6 l -1.96,7.96 -7.6,0 c -0.37335,10e-6 -0.62668,-0.14666 -0.76,-0.44 -0.10668,-0.31999 -0.12001,-0.62666 -0.04,-0.92" />
    </g>
  </g>
</svg>
