<?xml version="1.0" encoding="utf-8"?>
<!-- Generator: Adobe Illustrator 23.0.3, SVG Export Plug-In . SVG Version: 6.00 Build 0)  -->
<svg version="1.1" id="draw" xmlns="http://www.w3.org/2000/svg" xmlns:xlink="http://www.w3.org/1999/xlink" x="0px" y="0px"
	 viewBox="0 0 288 288" style="enable-background:new 0 0 288 288;" xml:space="preserve">
<style type="text/css">
	.st0{fill:#FF442B;stroke:#000000;stroke-linejoin:round;stroke-miterlimit:10;}
	.st1{fill:#FF442B;stroke:#000000;stroke-miterlimit:10;}
</style>
<title>AirframeUnknown</title>
<g>
	<g>
		<path d="M144,229.8c-69.8,0-144-17.3-144-49.3c0-17.2,23.3-32.3,63.9-41.3c2.3-0.5,4.7,1,5.2,3.3c0.5,2.4-1,4.7-3.3,5.2
			c-34.7,7.7-57.1,20.5-57.1,32.8C8.7,199.7,64.3,221,144,221s135.3-21.4,135.3-40.5c0-12.2-22.4-25.1-57.1-32.8
			c-2.4-0.5-3.8-2.9-3.3-5.2c0.5-2.4,2.9-3.8,5.2-3.3c40.6,9,63.9,24.1,63.9,41.3C288,212.5,213.8,229.8,144,229.8z"/>
		<path d="M144,191.9c-41.3,0-85.1-10.6-85.1-30.3c0-2.4,2-4.4,4.4-4.4s4.4,2,4.4,4.4c0,9,29.1,21.6,76.4,21.6s76.4-12.6,76.4-21.6
			c0-2.4,2-4.4,4.4-4.4s4.4,2,4.4,4.4C229.1,181.2,185.2,191.9,144,191.9z"/>
		<path d="M225.2,165.9c-2.4,0-4.4-2-4.4-4.4c0-42.4-34.5-76.8-76.8-76.8c-42.4,0-76.8,34.5-76.8,76.8c0,2.4-0.5,4.1-2.9,4.1
			s-5.8-1.7-5.8-4.1C58.4,114.4,96.8,76,144,76s85.6,38.4,85.6,85.6C229.5,164,227.6,165.9,225.2,165.9z"/>
	</g>
	<g>
		<path d="M246.9,255.5h-13.6c-1.6,0-3.2-0.9-3.9-2.4l-16-31.6c-1.1-2.1-0.2-4.8,1.9-5.9c2.1-1.1,4.8-0.2,5.9,1.9l14.8,29.2h10.9
			c2.4,0,4.4,2,4.4,4.4C251.2,253.5,249.3,255.5,246.9,255.5z"/>
		<path d="M54.7,255.6H41.1c-2.4,0-4.4-2-4.4-4.4s2-4.4,4.4-4.4H52l14.8-29.2c1.1-2.1,3.7-3,5.9-1.9c2.2,1.1,3,3.7,1.9,5.9l-16,31.6
			C57.8,254.7,56.3,255.6,54.7,255.6z"/>
	</g>
	<path d="M144,84.7c-2.4,0-4.4-2-4.4-4.4v-24c0-2.4,2-4.4,4.4-4.4s4.4,2,4.4,4.4v24C148.3,82.8,146.4,84.7,144,84.7z"/>
	<path d="M144,60.7c-7.8,0-14.2-6.4-14.2-14.2s6.4-14.2,14.2-14.2s14.2,6.4,14.2,14.2S151.8,60.7,144,60.7z M144,41.1
		c-3,0-5.5,2.4-5.5,5.5c0,3,2.4,5.5,5.5,5.5s5.5-2.4,5.5-5.5C149.4,43.5,147,41.1,144,41.1z"/>
</g>
<path class="st0" d="M136.6,147v-3.6c-0.1-2.9,0.6-5.7,2-8.2c1.9-2.9,4.4-5.5,7.4-7.4c2.5-1.6,4.8-3.7,6.8-6
	c1.1-1.5,1.7-3.3,1.6-5.1c0.1-1.9-0.8-3.8-2.4-4.9c-2-1.2-4.3-1.8-6.6-1.7c-4.9,0-10.5,1.6-16.8,4.8l-5.3-10.7
	c7.1-4,15.1-6.1,23.2-6.1c6.7,0,12.1,1.6,16.1,4.9c3.9,3.1,6.1,7.9,6,13c0.1,3.3-0.8,6.5-2.5,9.3c-1.6,2.6-4.7,5.6-9.3,8.8
	c-2.2,1.5-4.2,3.3-6,5.3c-0.9,1.4-1.3,3.1-1.3,4.8v2.9L136.6,147L136.6,147z"/>
<path class="st1" d="M135,163.7c-0.2-2.3,0.6-4.6,2.2-6.2c1.8-1.5,4.1-2.3,6.4-2.1c2.3-0.1,4.6,0.6,6.3,2.2c3,3.6,3,8.7,0,12.3
	c-1.7,1.6-4,2.4-6.3,2.2c-2.3,0.1-4.6-0.6-6.4-2.2C135.7,168.2,134.9,166,135,163.7L135,163.7z"/>
</svg>
