<?xml version="1.0" encoding="UTF-8" standalone="no"?>
<!-- Generator: Adobe Illustrator 19.2.0, SVG Export Plug-In . SVG Version: 6.00 Build 0)  -->

<svg
   xmlns:dc="http://purl.org/dc/elements/1.1/"
   xmlns:cc="http://creativecommons.org/ns#"
   xmlns:rdf="http://www.w3.org/1999/02/22-rdf-syntax-ns#"
   xmlns:svg="http://www.w3.org/2000/svg"
   xmlns="http://www.w3.org/2000/svg"
   xmlns:sodipodi="http://sodipodi.sourceforge.net/DTD/sodipodi-0.dtd"
   xmlns:inkscape="http://www.inkscape.org/namespaces/inkscape"
   version="1.1"
   id="draw"
   x="0px"
   y="0px"
   viewBox="0 0 161.99399 305.80785"
   enable-background="new 0 0 387.573 271.669"
   xml:space="preserve"
   sodipodi:docname="Autogyro.svg"
   inkscape:version="0.92.3 (2405546, 2018-03-11)"
   width="161.99399"
   height="305.80786"><metadata
   id="metadata19"><rdf:RDF><cc:Work
       rdf:about=""><dc:format>image/svg+xml</dc:format><dc:type
         rdf:resource="http://purl.org/dc/dcmitype/StillImage" /><dc:title>Plane</dc:title></cc:Work></rdf:RDF></metadata><defs
   id="defs17" /><sodipodi:namedview
   pagecolor="#ffffff"
   bordercolor="#666666"
   borderopacity="1"
   objecttolerance="10"
   gridtolerance="10"
   guidetolerance="10"
   inkscape:pageopacity="0"
   inkscape:pageshadow="2"
   inkscape:window-width="1013"
   inkscape:window-height="1892"
   id="namedview15"
   showgrid="false"
   inkscape:zoom="1.7374083"
   inkscape:cx="108.92454"
   inkscape:cy="279.4358"
   inkscape:window-x="67"
   inkscape:window-y="0"
   inkscape:window-maximized="1"
   inkscape:current-layer="draw"
   fit-margin-top="0"
   fit-margin-left="0"
   fit-margin-right="0"
   fit-margin-bottom="0" />
<title
   id="title2">Plane</title>





<g
   id="g293"
   transform="translate(-112.7895,34.65236)" /><path
   id="path11108"
   style="fill:#4ec3e8;stroke:#000000;stroke-linecap:round;stroke-linejoin:round"
   d="m 50.274338,279.30496 c 0,0 -15.66603,0.669 -28.33203,26 l 59.05469,0.002 h 59.054682 c -12.667,-25.332 -28.33203,-26 -28.33203,-26 l -21.255852,-0.002 v -60.55469 c 0,-16.083 1.69956,-16.81682 2.97656,-19.04882 0.843,-1.477 27.941412,-30.73829 27.941412,-30.73829 V 59.750272 c 0,-47.25 -40.384772,-47.25781 -40.384772,-47.25781 0,0 -40.38476,0.0078 -40.38476,47.25781 V 168.96316 c 0,0 27.09845,29.26229 27.93945,30.73829 1.274,2.232 2.97852,2.96582 2.97852,19.04882 v 60.55469 z"
   inkscape:connector-curvature="0"
   sodipodi:nodetypes="ccccccsccscsccscc" /><g
   id="g47"
   transform="translate(-113.37719,22.134011)"><g
     transform="translate(113.37886,-20.70058)"
     id="g9800"
     style="opacity:0.8"><ellipse
       id="ellipse9798"
       ry="81.005997"
       rx="80.988998"
       cy="132.00999"
       cx="80.998001"
       transform="matrix(0.7091,-0.7051,0.7051,0.7091,-69.5206,95.5208)"
       style="fill:#159e1f" /></g><path
     id="path9802"
     d="m 202.31986,102.41542 c -4.374,-4.384 -11.473,-4.393 -15.858,-0.02 -4.384,4.374 -4.393,11.473 -0.02,15.857 4.365,4.376 11.447,4.395 15.835,0.042 4.396,-4.335 4.446,-11.414 0.111,-15.811 -0.022,-0.022 -0.045,-0.045 -0.068,-0.068 z"
     stroke-miterlimit="10"
     inkscape:connector-curvature="0"
     style="fill:#ffffff;stroke:#000000;stroke-miterlimit:10" /><path
     style="opacity:1;fill:#ffffff;fill-opacity:1;fill-rule:evenodd;stroke:none;stroke-width:1.58976662px;stroke-linecap:butt;stroke-linejoin:miter;stroke-opacity:1"
     d="m 254.33734,140.92851 c 11.44643,-12.15033 13.42003,-19.85004 15.45523,-30.20517 l -19.37431,-0.19872 c 4.08702,6.5021 5.27551,17.47103 3.91908,30.40389 z"
     id="path7676"
     inkscape:connector-curvature="0"
     sodipodi:nodetypes="cccc" /><path
     transform="matrix(0.69323829,-1.4306567,1.4306567,0.69323829,44.980225,381.54018)"
     d="m 223.94673,38.425681 c -3.13084,3.863564 -7.10954,7.019918 -11.58403,9.189766"
     sodipodi:t0="0.99130303"
     sodipodi:argument="-17.855951"
     sodipodi:radius="34.011444"
     sodipodi:revolution="8.0200005"
     sodipodi:expansion="0"
     sodipodi:cy="17.012539"
     sodipodi:cx="197.5222"
     id="path7711"
     style="opacity:1;fill:none;fill-opacity:1;fill-rule:evenodd;stroke:#ffffec;stroke-width:2.51338577;stroke-linecap:butt;stroke-linejoin:miter;stroke-miterlimit:4;stroke-dasharray:none;stroke-opacity:1"
     sodipodi:type="spiral" /><path
     sodipodi:nodetypes="cccc"
     inkscape:connector-curvature="0"
     id="path7831"
     d="m 133.22559,81.59943 c -11.44643,12.15033 -13.42003,19.85003 -15.45524,30.20517 l 19.37431,0.19873 c -4.08701,-6.50211 -5.27551,-17.47103 -3.91907,-30.4039 z"
     style="opacity:1;fill:#ffffff;fill-opacity:1;fill-rule:evenodd;stroke:none;stroke-width:1.58976662px;stroke-linecap:butt;stroke-linejoin:miter;stroke-opacity:1" /><path
     sodipodi:type="spiral"
     style="opacity:1;fill:none;fill-opacity:1;fill-rule:evenodd;stroke:#ffffec;stroke-width:2.51338577;stroke-linecap:butt;stroke-linejoin:miter;stroke-miterlimit:4;stroke-dasharray:none;stroke-opacity:1"
     id="path7833"
     sodipodi:cx="197.5222"
     sodipodi:cy="17.012539"
     sodipodi:expansion="0"
     sodipodi:revolution="8.0200005"
     sodipodi:radius="34.011444"
     sodipodi:argument="-17.855951"
     sodipodi:t0="0.99130303"
     d="m 223.94673,38.425681 c -3.13084,3.863564 -7.10954,7.019918 -11.58403,9.189766"
     transform="matrix(-0.69323831,1.4306567,-1.4306567,-0.69323831,342.58271,-159.01222)" /><g
     transform="translate(113.37886,-20.70058)"
     id="text7999"
     style="font-style:normal;font-variant:normal;font-weight:normal;font-stretch:normal;font-size:52.99222565px;line-height:125%;font-family:sans-serif;-inkscape-font-specification:sans-serif;letter-spacing:0px;word-spacing:0px;fill:#ffffff;fill-opacity:1;stroke:none;stroke-width:1.58976662px;stroke-linecap:butt;stroke-linejoin:miter;stroke-opacity:1"
     aria-label="1"><path
       id="path10409"
       style="font-style:normal;font-variant:normal;font-weight:normal;font-stretch:normal;font-size:52.99222565px;font-family:FreeSans;-inkscape-font-specification:FreeSans;fill:#ffffff;fill-opacity:1;stroke-width:1.58976662px"
       d="m 81.956066,73.258968 h -8.31978 v -3.33851 q 5.405207,-0.688899 6.994974,-1.90772 1.589767,-1.165829 2.702603,-4.928277 0.105985,-0.317953 0.211969,-0.635907 h 3.073549 v 37.571486 h -4.663315 z"
       inkscape:connector-curvature="0" /></g></g><g
   id="g973"
   transform="translate(-112.789,34.13875)"><polygon
     id="polygon10"
     points="154.731,258.153 232.841,258.153 232.841,271.153 154.731,271.169 "
     stroke-miterlimit="10"
     style="fill:#159e1f;stroke:#000000;stroke-miterlimit:10" /><polygon
     id="polygon12"
     points="191.395,270.987 189.395,245.32 198.228,245.32 196.228,270.987 "
     stroke-miterlimit="10"
     style="fill:#159e1f;stroke:#000000;stroke-miterlimit:10" /></g><ellipse
   style="opacity:0.8;fill:#4ec3e8;stroke-width:1.18758416"
   enable-background="new    "
   cx="80.996994"
   cy="6.0689998"
   rx="35.607258"
   ry="6.0689998"
   id="ellipse69" /><path
   style="opacity:1;fill:#4ec3e8;fill-opacity:1;stroke:none;stroke-width:0.11511399;stroke-linejoin:round;stroke-miterlimit:4;stroke-dasharray:none;stroke-opacity:1"
   d=""
   id="path969"
   inkscape:connector-curvature="0" /></svg>