<?xml version="1.0" encoding="UTF-8" standalone="no"?>
<!-- Generator: Adobe Illustrator 19.2.0, SVG Export Plug-In . SVG Version: 6.00 Build 0)  -->

<svg
   xmlns:dc="http://purl.org/dc/elements/1.1/"
   xmlns:cc="http://creativecommons.org/ns#"
   xmlns:rdf="http://www.w3.org/1999/02/22-rdf-syntax-ns#"
   xmlns:svg="http://www.w3.org/2000/svg"
   xmlns="http://www.w3.org/2000/svg"
   xmlns:sodipodi="http://sodipodi.sourceforge.net/DTD/sodipodi-0.dtd"
   xmlns:inkscape="http://www.inkscape.org/namespaces/inkscape"
   version="1.1"
   id="draw"
   x="0px"
   y="0px"
   viewBox="0 0 162 331.846"
   enable-background="new 0 0 162 331.846"
   xml:space="preserve"
   sodipodi:docname="Helicopter.svg"
   inkscape:version="0.92.1 r"><metadata
     id="metadata9809"><rdf:RDF><cc:Work
         rdf:about=""><dc:format>image/svg+xml</dc:format><dc:type
           rdf:resource="http://purl.org/dc/dcmitype/StillImage" /><dc:title>Helicopter</dc:title></cc:Work></rdf:RDF></metadata><defs
     id="defs9807" /><sodipodi:namedview
     pagecolor="#ffffff"
     bordercolor="#666666"
     borderopacity="1"
     objecttolerance="10"
     gridtolerance="10"
     guidetolerance="10"
     inkscape:pageopacity="0"
     inkscape:pageshadow="2"
     inkscape:window-width="1920"
     inkscape:window-height="1019"
     id="namedview9805"
     showgrid="false"
     inkscape:zoom="1.4223465"
     inkscape:cx="44.605183"
     inkscape:cy="152.17595"
     inkscape:window-x="1920"
     inkscape:window-y="0"
     inkscape:window-maximized="1"
     inkscape:current-layer="draw" /><title
     id="title9784">Helicopter</title><rect
     x="130.876"
     y="54.897"
     fill="#4EC3E8"
     stroke="#000000"
     stroke-linecap="round"
     stroke-linejoin="round"
     width="7"
     height="89.242"
     id="rect9786" /><rect
     x="23.876"
     y="54.897"
     fill="#4EC3E8"
     stroke="#000000"
     stroke-linecap="round"
     stroke-linejoin="round"
     width="7"
     height="89.242"
     id="rect9788" /><rect
     x="30.876"
     y="63.897"
     fill="#4EC3E8"
     stroke="#000000"
     stroke-linecap="round"
     stroke-linejoin="round"
     width="100"
     height="5"
     id="rect9790" /><rect
     x="30.876"
     y="130.139"
     fill="#4EC3E8"
     stroke="#000000"
     stroke-linecap="round"
     stroke-linejoin="round"
     width="100"
     height="5"
     id="rect9792" /><path
     fill="#4EC3E8"
     stroke="#000000"
     stroke-linecap="round"
     stroke-linejoin="round"
     d="M86,331.346  c4.938,0,4.463-6.183,4.463-6.183v-34.2c0,0,33.037,4,39.287,4c2.055,0.213,3.892-1.281,4.105-3.335  c0.03-0.29,0.026-0.583-0.012-0.872v-14.345c0-3.343-4.093-3.093-4.093-3.093l-39.283-4v-62.562c0-16.083,1.7-16.817,2.977-19.049  c0.843-1.477,27.941-30.738,27.941-30.738V47.759C121.385,0.509,81,0.5,81,0.5S40.615,0.509,40.615,47.759v109.213  c0,0,27.1,29.262,27.941,30.738c1.274,2.232,2.977,2.966,2.977,19.049v62.562l-39.283,4c0,0-4.093-0.249-4.093,3.093v14.345  c-0.269,2.048,1.173,3.926,3.221,4.195c0.289,0.038,0.582,0.042,0.872,0.012c6.25,0,39.287-4,39.287-4v34.2  c0,0-0.475,6.183,4.463,6.183h10V331.346z"
     id="path9794" /><path
     fill="#FFFFFF"
     stroke="#000000"
     stroke-miterlimit="10"
     d="M112.67,37.076C112.67,8.407,81,8.401,81,8.401  S49.33,8.406,49.33,37.076H112.67L112.67,37.076z"
     id="path9796" /><g
     opacity="0.8"
     id="g9800"><ellipse
       transform="matrix(0.7091 -0.7051 0.7051 0.7091 -69.5206 95.5208)"
       fill="#159E1F"
       cx="80.998"
       cy="132.01"
       rx="80.989"
       ry="81.006"
       id="ellipse9798" /></g><path
     fill="#FFFFFF"
     stroke="#000000"
     stroke-miterlimit="10"
     d="M88.941,123.116c-4.374-4.384-11.473-4.393-15.858-0.02  c-4.384,4.374-4.393,11.473-0.02,15.857c4.365,4.376,11.447,4.395,15.835,0.042c4.396-4.335,4.446-11.414,0.111-15.811  C88.987,123.162,88.964,123.139,88.941,123.116z"
     id="path9802" /><path
     sodipodi:nodetypes="cccc"
     inkscape:connector-curvature="0"
     id="path7676"
     d="m 140.95848,161.62909 c 11.44643,-12.15033 13.42003,-19.85004 15.45523,-30.20517 L 137.0394,131.2252 c 4.08702,6.5021 5.27551,17.47103 3.91908,30.40389 z"
     style="opacity:1;fill:#ffffff;fill-opacity:1;fill-rule:evenodd;stroke:none;stroke-width:1.58976662px;stroke-linecap:butt;stroke-linejoin:miter;stroke-opacity:1" /><path
     sodipodi:type="spiral"
     style="opacity:1;fill:none;fill-opacity:1;fill-rule:evenodd;stroke:#ffffec;stroke-width:2.51338577;stroke-linecap:butt;stroke-linejoin:miter;stroke-miterlimit:4;stroke-dasharray:none;stroke-opacity:1"
     id="path7711"
     sodipodi:cx="197.5222"
     sodipodi:cy="17.012539"
     sodipodi:expansion="0"
     sodipodi:revolution="8.0200005"
     sodipodi:radius="34.011444"
     sodipodi:argument="-17.855951"
     sodipodi:t0="0.99130303"
     d="m 223.94673,38.425681 c -3.13084,3.863564 -7.10954,7.019918 -11.58403,9.189766"
     transform="matrix(0.69323829,-1.4306567,1.4306567,0.69323829,-68.398635,402.24076)" /><path
     style="opacity:1;fill:#ffffff;fill-opacity:1;fill-rule:evenodd;stroke:none;stroke-width:1.58976662px;stroke-linecap:butt;stroke-linejoin:miter;stroke-opacity:1"
     d="M 19.846729,102.30001 C 8.4002976,114.45034 6.4266978,122.15004 4.3914945,132.50518 l 19.3743105,0.19873 c -4.087019,-6.50211 -5.275513,-17.47103 -3.919076,-30.4039 z"
     id="path7831"
     inkscape:connector-curvature="0"
     sodipodi:nodetypes="cccc" /><path
     transform="matrix(-0.69323831,1.4306567,-1.4306567,-0.69323831,229.20385,-138.31164)"
     d="m 223.94673,38.425681 c -3.13084,3.863564 -7.10954,7.019918 -11.58403,9.189766"
     sodipodi:t0="0.99130303"
     sodipodi:argument="-17.855951"
     sodipodi:radius="34.011444"
     sodipodi:revolution="8.0200005"
     sodipodi:expansion="0"
     sodipodi:cy="17.012539"
     sodipodi:cx="197.5222"
     id="path7833"
     style="opacity:1;fill:none;fill-opacity:1;fill-rule:evenodd;stroke:#ffffec;stroke-width:2.51338577;stroke-linecap:butt;stroke-linejoin:miter;stroke-miterlimit:4;stroke-dasharray:none;stroke-opacity:1"
     sodipodi:type="spiral" /><g
     aria-label="1"
     style="font-style:normal;font-variant:normal;font-weight:normal;font-stretch:normal;font-size:52.99222565px;line-height:125%;font-family:sans-serif;-inkscape-font-specification:sans-serif;letter-spacing:0px;word-spacing:0px;fill:#ffffff;fill-opacity:1;stroke:none;stroke-width:1.58976662px;stroke-linecap:butt;stroke-linejoin:miter;stroke-opacity:1"
     id="text7999"><path
       d="m 81.956066,73.258968 h -8.31978 v -3.33851 q 5.405207,-0.688899 6.994974,-1.90772 1.589767,-1.165829 2.702603,-4.928277 0.105985,-0.317953 0.211969,-0.635907 h 3.073549 v 37.571486 h -4.663315 z"
       style="font-style:normal;font-variant:normal;font-weight:normal;font-stretch:normal;font-size:52.99222565px;font-family:FreeSans;-inkscape-font-specification:FreeSans;fill:#ffffff;fill-opacity:1;stroke-width:1.58976662px"
       id="path10409" /></g></svg>