<?xml version="1.0" encoding="UTF-8" standalone="no"?>
<!-- Generator: Adobe Illustrator 19.2.0, SVG Export Plug-In . SVG Version: 6.00 Build 0)  -->

<svg
   xmlns:dc="http://purl.org/dc/elements/1.1/"
   xmlns:cc="http://creativecommons.org/ns#"
   xmlns:rdf="http://www.w3.org/1999/02/22-rdf-syntax-ns#"
   xmlns:svg="http://www.w3.org/2000/svg"
   xmlns="http://www.w3.org/2000/svg"
   xmlns:sodipodi="http://sodipodi.sourceforge.net/DTD/sodipodi-0.dtd"
   xmlns:inkscape="http://www.inkscape.org/namespaces/inkscape"
   version="1.1"
   id="draw"
   x="0px"
   y="0px"
   viewBox="0 0 369.157 333.567"
   enable-background="new 0 0 369.157 333.567"
   xml:space="preserve"
   sodipodi:docname="HexaRotorX.svg"
   inkscape:version="0.92.1 r"><metadata
     id="metadata20029"><rdf:RDF><cc:Work
         rdf:about=""><dc:format>image/svg+xml</dc:format><dc:type
           rdf:resource="http://purl.org/dc/dcmitype/StillImage" /><dc:title>HexaRotorX</dc:title></cc:Work></rdf:RDF></metadata><defs
     id="defs20027" /><sodipodi:namedview
     pagecolor="#ffffff"
     bordercolor="#666666"
     borderopacity="1"
     objecttolerance="10"
     gridtolerance="10"
     guidetolerance="10"
     inkscape:pageopacity="0"
     inkscape:pageshadow="2"
     inkscape:window-width="1920"
     inkscape:window-height="1019"
     id="namedview20025"
     showgrid="false"
     inkscape:zoom="1.4150081"
     inkscape:cx="181.31344"
     inkscape:cy="125.33588"
     inkscape:window-x="1920"
     inkscape:window-y="0"
     inkscape:window-maximized="1"
     inkscape:current-layer="draw"><inkscape:grid
       type="xygrid"
       id="grid21537" /></sodipodi:namedview><title
     id="title19976">HexaRotorX</title><rect
     x="181.192"
     y="33.161"
     transform="matrix(0.866 -0.5 0.5 0.866 -58.6372 114.6282)"
     fill="#FFFFFF"
     stroke="#000000"
     stroke-miterlimit="10"
     width="6.777"
     height="267.144"
     id="rect19978" /><rect
     x="51"
     y="163.344"
     fill="#FFFFFF"
     stroke="#000000"
     stroke-miterlimit="10"
     width="267.161"
     height="6.777"
     id="rect19980" /><rect
     x="51"
     y="163.344"
     transform="matrix(0.5 -0.866 0.866 0.5 -52.1046 243.2177)"
     fill="#FFFFFF"
     stroke="#000000"
     stroke-miterlimit="10"
     width="267.161"
     height="6.777"
     id="rect19982" /><path
     fill="#FFFFFF"
     stroke="#000000"
     stroke-miterlimit="10"
     d="M227.78,173.736l-36.195,36.195  c-3.869,3.869-10.141,3.869-14.009,0l-36.195-36.195c-3.869-3.869-3.869-10.141,0-14.009l36.195-36.195  c3.869-3.869,10.141-3.869,14.009,0l36.195,36.195C231.649,163.596,231.649,169.868,227.78,173.736z"
     id="path19984" /><polygon
     fill="#FF442B"
     stroke="#000000"
     stroke-miterlimit="10"
     points="166.403,188.733 184.58,137.733 202.758,188.733 "
     id="polygon19986" /><g
     opacity="0.8"
     id="g19990"><ellipse
       transform="matrix(0.7091 -0.7051 0.7051 0.7091 37.1586 192.1135)"
       fill="#4EC3E8"
       cx="251.394"
       cy="51.026"
       rx="50.993"
       ry="51.004"
       id="ellipse19988" /></g><path
     fill="#FFFFFF"
     stroke="#000000"
     stroke-miterlimit="10"
     d="M259.33,43.098c-4.374-4.384-11.473-4.393-15.858-0.019  c-4.384,4.374-4.393,11.473-0.019,15.858c4.365,4.375,11.447,4.394,15.835,0.042c4.397-4.335,4.446-11.414,0.111-15.811  C259.376,43.144,259.353,43.121,259.33,43.098z"
     id="path19992" /><g
     opacity="0.8"
     id="g19996"><ellipse
       transform="matrix(0.7091 -0.7051 0.7051 0.7091 -102.7393 84.4749)"
       fill="#4EC3E8"
       cx="51.002"
       cy="166.743"
       rx="50.993"
       ry="51.004"
       id="ellipse19994" /></g><path
     fill="#FFFFFF"
     stroke="#000000"
     stroke-miterlimit="10"
     d="M43.06,174.65c4.374,4.384,11.473,4.393,15.858,0.019  c4.384-4.374,4.393-11.473,0.019-15.858c-4.365-4.375-11.447-4.394-15.835-0.042c-4.397,4.335-4.446,11.414-0.111,15.811  C43.014,174.604,43.037,174.627,43.06,174.65z"
     id="path19998" /><g
     opacity="0.8"
     id="g20002"><ellipse
       transform="matrix(0.7051 -0.7091 0.7091 0.7051 -1.4326 98.5333)"
       fill="#159E1F"
       cx="117.759"
       cy="50.989"
       rx="50.993"
       ry="51.004"
       id="ellipse20000" /></g><path
     fill="#FFFFFF"
     stroke="#000000"
     stroke-miterlimit="10"
     d="M125.679,43.06c4.384,4.374,4.393,11.473,0.019,15.858  c-4.374,4.384-11.473,4.393-15.858,0.019c-4.375-4.365-4.394-11.447-0.042-15.835c4.335-4.397,11.414-4.446,15.811-0.111  C125.633,43.014,125.656,43.037,125.679,43.06z"
     id="path20004" /><g
     opacity="0.8"
     id="g20008"><ellipse
       transform="matrix(0.7051 -0.7091 0.7091 0.7051 -126.2072 261.6126)"
       fill="#4EC3E8"
       cx="251.456"
       cy="282.556"
       rx="50.993"
       ry="51.004"
       id="ellipse20006" /></g><path
     fill="#FFFFFF"
     stroke="#000000"
     stroke-miterlimit="10"
     d="M243.54,290.508c-4.384-4.374-4.393-11.473-0.02-15.858  c4.374-4.384,11.473-4.393,15.857-0.02c4.376,4.365,4.395,11.447,0.042,15.835c-4.335,4.397-11.414,4.446-15.811,0.111  C243.586,290.554,243.563,290.531,243.54,290.508z"
     id="path20010" /><g
     opacity="0.8"
     id="g20014"><ellipse
       transform="matrix(0.7051 -0.7091 0.7091 0.7051 -24.4052 274.7533)"
       fill="#159E1F"
       cx="318.157"
       cy="166.721"
       rx="50.993"
       ry="51.004"
       id="ellipse20012" /></g><path
     fill="#FFFFFF"
     stroke="#000000"
     stroke-miterlimit="10"
     d="M326.078,158.793c4.384,4.374,4.393,11.473,0.02,15.858  c-4.374,4.384-11.473,4.393-15.857,0.02c-4.376-4.365-4.395-11.447-0.042-15.835c4.335-4.397,11.414-4.446,15.811-0.111  C326.032,158.747,326.055,158.77,326.078,158.793z"
     id="path20016" /><g
     opacity="0.8"
     id="g20020"><ellipse
       transform="matrix(0.7051 -0.7091 0.7091 0.7051 -165.5563 166.7827)"
       fill="#159E1F"
       cx="117.759"
       cy="282.454"
       rx="50.993"
       ry="51.004"
       id="ellipse20018" /></g><path
     fill="#FFFFFF"
     stroke="#000000"
     stroke-miterlimit="10"
     d="M125.68,274.525c4.384,4.374,4.393,11.473,0.019,15.858  c-4.374,4.384-11.473,4.393-15.858,0.019c-4.375-4.365-4.394-11.447-0.042-15.835c4.335-4.397,11.414-4.446,15.811-0.111  C125.634,274.479,125.657,274.502,125.68,274.525z"
     id="path20022" /><path
     sodipodi:nodetypes="cccc"
     inkscape:connector-curvature="0"
     id="path7676"
     d="m 155.76393,69.460607 c 7.20007,-7.642838 8.44151,-12.48612 9.7217,-18.999748 l -12.18689,-0.125 c 2.57083,4.089977 3.31842,10.989681 2.46519,19.124748 z"
     style="opacity:1;fill:#ffffff;fill-opacity:1;fill-rule:evenodd;stroke:none;stroke-width:1px;stroke-linecap:butt;stroke-linejoin:miter;stroke-opacity:1" /><path
     sodipodi:type="spiral"
     style="opacity:1;fill:none;fill-opacity:1;fill-rule:evenodd;stroke:#ffffec;stroke-width:2.51338577;stroke-linecap:butt;stroke-linejoin:miter;stroke-miterlimit:4;stroke-dasharray:none;stroke-opacity:1"
     id="path7711"
     sodipodi:cx="197.5222"
     sodipodi:cy="17.012539"
     sodipodi:expansion="0"
     sodipodi:revolution="8.0200005"
     sodipodi:radius="34.011444"
     sodipodi:argument="-17.855951"
     sodipodi:t0="0.99130303"
     d="m 223.94673,38.425681 c -3.13084,3.863564 -7.10954,7.019918 -11.58403,9.189766"
     transform="rotate(-64.147051,188.2189,91.197547)" /><path
     style="opacity:1;fill:#ffffff;fill-opacity:1;fill-rule:evenodd;stroke:none;stroke-width:1px;stroke-linecap:butt;stroke-linejoin:miter;stroke-opacity:1"
     d="m 79.581848,32.141251 c -7.20007,7.642839 -8.44151,12.486121 -9.7217,18.99975 l 12.18689,0.125 c -2.57083,-4.089977 -3.31842,-10.989682 -2.46519,-19.12475 z"
     id="path7831"
     inkscape:connector-curvature="0"
     sodipodi:nodetypes="cccc" /><path
     transform="rotate(115.85295,142.98766,6.5929181)"
     d="m 223.94673,38.425681 c -3.13084,3.863564 -7.10954,7.019918 -11.58403,9.189766"
     sodipodi:t0="0.99130303"
     sodipodi:argument="-17.855951"
     sodipodi:radius="34.011444"
     sodipodi:revolution="8.0200005"
     sodipodi:expansion="0"
     sodipodi:cy="17.012539"
     sodipodi:cx="197.5222"
     id="path7833"
     style="opacity:1;fill:none;fill-opacity:1;fill-rule:evenodd;stroke:#ffffec;stroke-width:2.51338577;stroke-linecap:butt;stroke-linejoin:miter;stroke-miterlimit:4;stroke-dasharray:none;stroke-opacity:1"
     sodipodi:type="spiral" /><g
     aria-label="3"
     style="font-style:normal;font-variant:normal;font-weight:normal;font-stretch:normal;font-size:33.33333588px;line-height:125%;font-family:sans-serif;-inkscape-font-specification:sans-serif;letter-spacing:0px;word-spacing:0px;fill:#ffffff;fill-opacity:1;stroke:none;stroke-width:1px;stroke-linecap:butt;stroke-linejoin:miter;stroke-opacity:1"
     id="text7999"><path
       d="m 119.01674,9.6404316 q -3.8,0 -4.4,3.6666674 -0.0667,0.633333 -0.1,1.4 h -2.93333 q 0.13333,-7.0000008 6.33333,-7.6000009 0.53333,-0.033333 1.06667,-0.033333 4.66666,0 6.4,3.1333332 0.8,1.466667 0.8,3.366667 -0.0333,3.600001 -3.3,4.900001 3.1,1.066666 3.76666,3.6 0.23334,0.9 0.23334,2.033333 0,4.100001 -3.13334,6.100001 -2.03333,1.266667 -4.86666,1.266667 -6.53334,0 -7.63334,-6.133334 -0.1,-0.733334 -0.16666,-1.5 h 2.93333 q 0.26667,4.4 3.76667,4.933333 0.56666,0.1 1.2,0.1 3.46666,0 4.53333,-2.633333 0.36667,-0.966667 0.36667,-2.1 -0.0667,-4.266667 -4.9,-4.300001 l -1.23334,0.03333 h -0.36666 v -2.5 q 3.76666,-0.06667 4.9,-1.100001 0.9,-0.866666 0.9,-2.6 0,-2.833333 -2.33334,-3.7333333 -0.83333,-0.3000001 -1.83333,-0.3000001 z"
       style="font-style:normal;font-variant:normal;font-weight:normal;font-stretch:normal;font-size:33.33333588px;font-family:FreeSans;-inkscape-font-specification:FreeSans;fill:#ffffff;fill-opacity:1"
       id="path21573" /></g><path
     style="opacity:1;fill:#ffffff;fill-opacity:1;fill-rule:evenodd;stroke:none;stroke-width:1px;stroke-linecap:butt;stroke-linejoin:miter;stroke-opacity:1"
     d="m 155.76393,69.460607 c 7.20007,-7.642838 8.44151,-12.48612 9.7217,-18.999748 l -12.18689,-0.125 c 2.57083,4.089977 3.31842,10.989681 2.46519,19.124748 z"
     id="path14492"
     inkscape:connector-curvature="0"
     sodipodi:nodetypes="cccc" /><path
     transform="rotate(-64.147051,188.2189,91.197547)"
     d="m 223.94673,38.425681 c -3.13084,3.863564 -7.10954,7.019918 -11.58403,9.189766"
     sodipodi:t0="0.99130303"
     sodipodi:argument="-17.855951"
     sodipodi:radius="34.011444"
     sodipodi:revolution="8.0200005"
     sodipodi:expansion="0"
     sodipodi:cy="17.012539"
     sodipodi:cx="197.5222"
     id="path14494"
     style="opacity:1;fill:none;fill-opacity:1;fill-rule:evenodd;stroke:#ffffec;stroke-width:2.51338577;stroke-linecap:butt;stroke-linejoin:miter;stroke-miterlimit:4;stroke-dasharray:none;stroke-opacity:1"
     sodipodi:type="spiral" /><path
     sodipodi:nodetypes="cccc"
     inkscape:connector-curvature="0"
     id="path14496"
     d="m 79.581848,32.141251 c -7.20007,7.642839 -8.44151,12.486121 -9.7217,18.99975 l 12.18689,0.125 c -2.57083,-4.089977 -3.31842,-10.989682 -2.46519,-19.12475 z"
     style="opacity:1;fill:#ffffff;fill-opacity:1;fill-rule:evenodd;stroke:none;stroke-width:1px;stroke-linecap:butt;stroke-linejoin:miter;stroke-opacity:1" /><path
     sodipodi:type="spiral"
     style="opacity:1;fill:none;fill-opacity:1;fill-rule:evenodd;stroke:#ffffec;stroke-width:2.51338577;stroke-linecap:butt;stroke-linejoin:miter;stroke-miterlimit:4;stroke-dasharray:none;stroke-opacity:1"
     id="path14498"
     sodipodi:cx="197.5222"
     sodipodi:cy="17.012539"
     sodipodi:expansion="0"
     sodipodi:revolution="8.0200005"
     sodipodi:radius="34.011444"
     sodipodi:argument="-17.855951"
     sodipodi:t0="0.99130303"
     d="m 223.94673,38.425681 c -3.13084,3.863564 -7.10954,7.019918 -11.58403,9.189766"
     transform="rotate(115.85295,142.98766,6.5929181)" /><path
     sodipodi:nodetypes="cccc"
     inkscape:connector-curvature="0"
     id="path7676-2"
     d="m 155.41869,301.08644 c 7.20007,-7.64284 8.44151,-12.48612 9.7217,-18.99975 l -12.18689,-0.125 c 2.57083,4.08998 3.31842,10.98968 2.46519,19.12475 z"
     style="opacity:1;fill:#ffffff;fill-opacity:1;fill-rule:evenodd;stroke:none;stroke-width:1px;stroke-linecap:butt;stroke-linejoin:miter;stroke-opacity:1" /><path
     sodipodi:type="spiral"
     style="opacity:1;fill:none;fill-opacity:1;fill-rule:evenodd;stroke:#ffffec;stroke-width:2.51338577;stroke-linecap:butt;stroke-linejoin:miter;stroke-miterlimit:4;stroke-dasharray:none;stroke-opacity:1"
     id="path7711-9"
     sodipodi:cx="197.5222"
     sodipodi:cy="17.012539"
     sodipodi:expansion="0"
     sodipodi:revolution="8.0200005"
     sodipodi:radius="34.011444"
     sodipodi:argument="-17.855951"
     sodipodi:t0="0.99130303"
     d="m 223.94673,38.425681 c -3.13084,3.863564 -7.10954,7.019918 -11.58403,9.189766"
     transform="rotate(-64.147051,372.85753,207.28594)" /><path
     style="opacity:1;fill:#ffffff;fill-opacity:1;fill-rule:evenodd;stroke:none;stroke-width:1px;stroke-linecap:butt;stroke-linejoin:miter;stroke-opacity:1"
     d="m 79.236589,263.76708 c -7.20007,7.64284 -8.44151,12.48612 -9.7217,18.99975 l 12.18689,0.125 c -2.57083,-4.08998 -3.31842,-10.98968 -2.46519,-19.12475 z"
     id="path7831-7"
     inkscape:connector-curvature="0"
     sodipodi:nodetypes="cccc" /><path
     transform="rotate(115.85295,70.240281,122.29764)"
     d="m 223.94673,38.425681 c -3.13084,3.863564 -7.10954,7.019918 -11.58403,9.189766"
     sodipodi:t0="0.99130303"
     sodipodi:argument="-17.855951"
     sodipodi:radius="34.011444"
     sodipodi:revolution="8.0200005"
     sodipodi:expansion="0"
     sodipodi:cy="17.012539"
     sodipodi:cx="197.5222"
     id="path7833-9"
     style="opacity:1;fill:none;fill-opacity:1;fill-rule:evenodd;stroke:#ffffec;stroke-width:2.51338577;stroke-linecap:butt;stroke-linejoin:miter;stroke-miterlimit:4;stroke-dasharray:none;stroke-opacity:1"
     sodipodi:type="spiral" /><g
     aria-label="6"
     style="font-style:normal;font-variant:normal;font-weight:normal;font-stretch:normal;font-size:33.33333588px;line-height:125%;font-family:sans-serif;-inkscape-font-specification:sans-serif;letter-spacing:0px;word-spacing:0px;fill:#ffffff;fill-opacity:1;stroke:none;stroke-width:1px;stroke-linecap:butt;stroke-linejoin:miter;stroke-opacity:1"
     id="text7999-0"><path
       d="m 110.66772,315.82037 q 0,-10.3 5.7,-12.4 1.3,-0.46667 2.76666,-0.46667 3.83334,0 5.66667,3.1 0.76667,1.33333 1.03333,3.06667 h -2.93333 q -0.6,-2.93334 -3.03333,-3.46667 -0.46667,-0.1 -0.93334,-0.1 -3.7,0 -4.83333,4.8 -0.4,1.83334 -0.43333,4.16667 1.96666,-2.63333 5.43333,-2.63333 3.7,0 5.76667,2.76666 1.46666,2 1.46666,4.73334 0,3.96666 -2.73333,6.23333 -2.1,1.73333 -5,1.73333 -7.9,-0.0667 -7.93333,-11.53333 z m 8.06666,-1.33333 q -2.83333,0 -4.16666,2.2 -0.73334,1.2 -0.73334,2.76666 0,2.86667 2.03334,4.4 1.2,0.9 2.76666,0.9 2.53334,0 3.86667,-2.1 0.83333,-1.33333 0.83333,-3.03333 0,-3.4 -2.36666,-4.63333 -1,-0.5 -2.23334,-0.5 z"
       style="font-style:normal;font-variant:normal;font-weight:normal;font-stretch:normal;font-size:33.33333588px;font-family:FreeSans;-inkscape-font-specification:FreeSans;fill:#ffffff;fill-opacity:1"
       id="path21561" /></g><path
     style="opacity:1;fill:#ffffff;fill-opacity:1;fill-rule:evenodd;stroke:none;stroke-width:1px;stroke-linecap:butt;stroke-linejoin:miter;stroke-opacity:1"
     d="m 212.07911,69.841228 c -7.20006,-7.642839 -8.4415,-12.486119 -9.72169,-18.999749 l 12.18688,-0.125 c -2.57083,4.08998 -3.31842,10.98968 -2.46519,19.124749 z"
     id="path7870"
     inkscape:connector-curvature="0"
     sodipodi:nodetypes="cccc" /><path
     transform="matrix(-0.43606293,-0.89991617,-0.89991617,0.43606293,343.76961,221.19153)"
     d="m 223.94673,38.425681 c -3.13084,3.863564 -7.10954,7.019918 -11.58403,9.189766"
     sodipodi:t0="0.99130303"
     sodipodi:argument="-17.855951"
     sodipodi:radius="34.011444"
     sodipodi:revolution="8.0200005"
     sodipodi:expansion="0"
     sodipodi:cy="17.012539"
     sodipodi:cx="197.5222"
     id="path7872"
     style="opacity:1;fill:none;fill-opacity:1;fill-rule:evenodd;stroke:#ffffec;stroke-width:2.51338577;stroke-linecap:butt;stroke-linejoin:miter;stroke-miterlimit:4;stroke-dasharray:none;stroke-opacity:1"
     sodipodi:type="spiral" /><path
     sodipodi:nodetypes="cccc"
     inkscape:connector-curvature="0"
     id="path7874"
     d="m 288.26121,32.521868 c 7.20007,7.64284 8.44151,12.48613 9.7217,18.999751 l -12.18689,0.125 c 2.57083,-4.08997 3.31842,-10.989681 2.46519,-19.124751 z"
     style="opacity:1;fill:#ffffff;fill-opacity:1;fill-rule:evenodd;stroke:none;stroke-width:1px;stroke-linecap:butt;stroke-linejoin:miter;stroke-opacity:1" /><path
     sodipodi:type="spiral"
     style="opacity:1;fill:none;fill-opacity:1;fill-rule:evenodd;stroke:#ffffec;stroke-width:2.51338577;stroke-linecap:butt;stroke-linejoin:miter;stroke-miterlimit:4;stroke-dasharray:none;stroke-opacity:1"
     id="path7876"
     sodipodi:cx="197.5222"
     sodipodi:cy="17.012539"
     sodipodi:expansion="0"
     sodipodi:revolution="8.0200005"
     sodipodi:radius="34.011444"
     sodipodi:argument="-17.855951"
     sodipodi:t0="0.99130303"
     d="m 223.94673,38.425681 c -3.13084,3.863564 -7.10954,7.019918 -11.58403,9.189766"
     transform="matrix(0.43606294,0.89991617,0.89991617,-0.43606294,156.57073,-118.82844)" /><g
     aria-label="5"
     style="font-style:normal;font-variant:normal;font-weight:normal;font-stretch:normal;font-size:33.33333588px;line-height:125%;font-family:sans-serif;-inkscape-font-specification:sans-serif;letter-spacing:0px;word-spacing:0px;fill:#ffffff;fill-opacity:1;stroke:none;stroke-width:1px;stroke-linecap:butt;stroke-linejoin:miter;stroke-opacity:1"
     id="text7991"><path
       d="m 258.60742,6.5738354 v 2.9000002 h -9.83333 l -0.93334,6.6000004 q 2,-1.433333 4.36667,-1.433333 4,0 6.13333,2.9 1.5,2.066667 1.5,4.966667 0,4.3 -2.9,6.7 -2.16666,1.766667 -5.2,1.766667 -6.53333,0 -7.76666,-6.266667 -0.0333,-0.1 -0.0667,-0.3 h 2.93333 q 1.1,3.933334 4.83334,3.966667 3.36666,0 4.63333,-2.7 0.53333,-1.233334 0.53333,-2.766667 0,-3.633334 -2.53333,-5.033334 -1.16667,-0.633333 -2.63333,-0.633333 -2.13334,0 -3.63334,1.433333 -0.33333,0.366667 -0.7,0.766667 h -2.7 l 1.76667,-12.8666676 z"
       style="font-style:normal;font-variant:normal;font-weight:normal;font-stretch:normal;font-size:33.33333588px;font-family:FreeSans;-inkscape-font-specification:FreeSans;fill:#ffffff;fill-opacity:1"
       id="path21570" /></g><path
     style="opacity:1;fill:#ffffff;fill-opacity:1;fill-rule:evenodd;stroke:none;stroke-width:1px;stroke-linecap:butt;stroke-linejoin:miter;stroke-opacity:1"
     d="m 212.05266,300.95149 c -7.20007,-7.64284 -8.44151,-12.48612 -9.7217,-18.99975 l 12.18689,-0.125 c -2.57083,4.08998 -3.31842,10.98968 -2.46519,19.12475 z"
     id="path7870-5"
     inkscape:connector-curvature="0"
     sodipodi:nodetypes="cccc" /><path
     transform="matrix(-0.43606293,-0.89991617,-0.89991617,0.43606293,343.74313,452.3018)"
     d="m 223.94673,38.425681 c -3.13084,3.863564 -7.10954,7.019918 -11.58403,9.189766"
     sodipodi:t0="0.99130303"
     sodipodi:argument="-17.855951"
     sodipodi:radius="34.011444"
     sodipodi:revolution="8.0200005"
     sodipodi:expansion="0"
     sodipodi:cy="17.012539"
     sodipodi:cx="197.5222"
     id="path7872-2"
     style="opacity:1;fill:none;fill-opacity:1;fill-rule:evenodd;stroke:#ffffec;stroke-width:2.51338577;stroke-linecap:butt;stroke-linejoin:miter;stroke-miterlimit:4;stroke-dasharray:none;stroke-opacity:1"
     sodipodi:type="spiral" /><path
     sodipodi:nodetypes="cccc"
     inkscape:connector-curvature="0"
     id="path7874-1"
     d="m 288.23474,263.63213 c 7.20007,7.64284 8.44151,12.48613 9.7217,18.99975 l -12.18689,0.125 c 2.57083,-4.08997 3.31842,-10.98968 2.46519,-19.12475 z"
     style="opacity:1;fill:#ffffff;fill-opacity:1;fill-rule:evenodd;stroke:none;stroke-width:1px;stroke-linecap:butt;stroke-linejoin:miter;stroke-opacity:1" /><path
     sodipodi:type="spiral"
     style="opacity:1;fill:none;fill-opacity:1;fill-rule:evenodd;stroke:#ffffec;stroke-width:2.51338577;stroke-linecap:butt;stroke-linejoin:miter;stroke-miterlimit:4;stroke-dasharray:none;stroke-opacity:1"
     id="path7876-6"
     sodipodi:cx="197.5222"
     sodipodi:cy="17.012539"
     sodipodi:expansion="0"
     sodipodi:revolution="8.0200005"
     sodipodi:radius="34.011444"
     sodipodi:argument="-17.855951"
     sodipodi:t0="0.99130303"
     d="m 223.94673,38.425681 c -3.13084,3.863564 -7.10954,7.019918 -11.58403,9.189766"
     transform="matrix(0.43606294,0.89991617,0.89991617,-0.43606294,156.54428,112.28185)" /><g
     aria-label="4"
     style="font-style:normal;font-variant:normal;font-weight:normal;font-stretch:normal;font-size:33.33333588px;line-height:125%;font-family:sans-serif;-inkscape-font-specification:sans-serif;letter-spacing:0px;word-spacing:0px;fill:#ffffff;fill-opacity:1;stroke:none;stroke-width:1px;stroke-linecap:butt;stroke-linejoin:miter;stroke-opacity:1"
     id="text7991-1"><path
       d="m 253.44497,321.27535 h -9.96667 v -3.1 l 10.73334,-14.86667 h 2.16666 v 15.33334 h 3.5 v 2.63333 h -3.5 v 5.66667 h -2.93333 z m 0,-2.63333 v -10.33334 l -7.4,10.33334 z"
       style="font-style:normal;font-variant:normal;font-weight:normal;font-stretch:normal;font-size:33.33333588px;font-family:FreeSans;-inkscape-font-specification:FreeSans;fill:#ffffff;fill-opacity:1"
       id="path21564" /></g><path
     sodipodi:nodetypes="cccc"
     inkscape:connector-curvature="0"
     id="path7862"
     d="m 29.916144,128.54948 c 7.64284,-7.20007 12.48612,-8.44151 18.99975,-9.7217 l 0.125,12.18689 c -4.08998,-2.57083 -10.98968,-3.31842 -19.12475,-2.46519 z"
     style="opacity:1;fill:#ffffff;fill-opacity:1;fill-rule:evenodd;stroke:none;stroke-width:1px;stroke-linecap:butt;stroke-linejoin:miter;stroke-opacity:1" /><path
     sodipodi:type="spiral"
     style="opacity:1;fill:none;fill-opacity:1;fill-rule:evenodd;stroke:#ffffec;stroke-width:2.51338577;stroke-linecap:butt;stroke-linejoin:miter;stroke-miterlimit:4;stroke-dasharray:none;stroke-opacity:1"
     id="path7864"
     sodipodi:cx="197.5222"
     sodipodi:cy="17.012539"
     sodipodi:expansion="0"
     sodipodi:revolution="8.0200005"
     sodipodi:radius="34.011444"
     sodipodi:argument="-17.855951"
     sodipodi:t0="0.99130303"
     d="m 223.94673,38.425681 c -3.13084,3.863564 -7.10954,7.019918 -11.58403,9.189766"
     transform="matrix(0.89991617,-0.43606293,-0.43606293,-0.89991617,-121.43416,260.23996)" /><path
     style="opacity:1;fill:#ffffff;fill-opacity:1;fill-rule:evenodd;stroke:none;stroke-width:1px;stroke-linecap:butt;stroke-linejoin:miter;stroke-opacity:1"
     d="m 67.235504,204.73157 c -7.64284,7.20007 -12.48613,8.44151 -18.99975,9.7217 l -0.125,-12.18689 c 4.08997,2.57083 10.98968,3.31842 19.12475,2.46519 z"
     id="path7866"
     inkscape:connector-curvature="0"
     sodipodi:nodetypes="cccc" /><path
     transform="matrix(-0.89991617,0.43606294,0.43606294,0.89991617,218.5858,73.0411)"
     d="m 223.94673,38.425681 c -3.13084,3.863564 -7.10954,7.019918 -11.58403,9.189766"
     sodipodi:t0="0.99130303"
     sodipodi:argument="-17.855951"
     sodipodi:radius="34.011444"
     sodipodi:revolution="8.0200005"
     sodipodi:expansion="0"
     sodipodi:cy="17.012539"
     sodipodi:cx="197.5222"
     id="path7868"
     style="opacity:1;fill:none;fill-opacity:1;fill-rule:evenodd;stroke:#ffffec;stroke-width:2.51338577;stroke-linecap:butt;stroke-linejoin:miter;stroke-miterlimit:4;stroke-dasharray:none;stroke-opacity:1"
     sodipodi:type="spiral" /><path
     style="opacity:1;fill:#ffffff;fill-opacity:1;fill-rule:evenodd;stroke:none;stroke-width:1px;stroke-linecap:butt;stroke-linejoin:miter;stroke-opacity:1"
     d="m 335.61051,128.42448 c -7.64284,-7.20007 -12.48612,-8.44151 -18.99975,-9.7217 l -0.125,12.18689 c 4.08998,-2.57083 10.98968,-3.31842 19.12475,-2.46519 z"
     id="path7870-2"
     inkscape:connector-curvature="0"
     sodipodi:nodetypes="cccc" /><path
     transform="rotate(-154.14705,273.3308,74.174604)"
     d="m 223.94673,38.425681 c -3.13084,3.863564 -7.10954,7.019918 -11.58403,9.189766"
     sodipodi:t0="0.99130303"
     sodipodi:argument="-17.855951"
     sodipodi:radius="34.011444"
     sodipodi:revolution="8.0200005"
     sodipodi:expansion="0"
     sodipodi:cy="17.012539"
     sodipodi:cx="197.5222"
     id="path7872-0"
     style="opacity:1;fill:none;fill-opacity:1;fill-rule:evenodd;stroke:#ffffec;stroke-width:2.51338577;stroke-linecap:butt;stroke-linejoin:miter;stroke-miterlimit:4;stroke-dasharray:none;stroke-opacity:1"
     sodipodi:type="spiral" /><path
     sodipodi:nodetypes="cccc"
     inkscape:connector-curvature="0"
     id="path7874-7"
     d="m 298.29115,204.60657 c 7.64284,7.20007 12.48613,8.44151 18.99975,9.7217 l 0.125,-12.18689 c -4.08997,2.57083 -10.98968,3.31842 -19.12475,2.46519 z"
     style="opacity:1;fill:#ffffff;fill-opacity:1;fill-rule:evenodd;stroke:none;stroke-width:1px;stroke-linecap:butt;stroke-linejoin:miter;stroke-opacity:1" /><path
     sodipodi:type="spiral"
     style="opacity:1;fill:none;fill-opacity:1;fill-rule:evenodd;stroke:#ffffec;stroke-width:2.51338577;stroke-linecap:butt;stroke-linejoin:miter;stroke-miterlimit:4;stroke-dasharray:none;stroke-opacity:1"
     id="path7876-3"
     sodipodi:cx="197.5222"
     sodipodi:cy="17.012539"
     sodipodi:expansion="0"
     sodipodi:revolution="8.0200005"
     sodipodi:radius="34.011444"
     sodipodi:argument="-17.855951"
     sodipodi:t0="0.99130303"
     d="m 223.94673,38.425681 c -3.13084,3.863564 -7.10954,7.019918 -11.58403,9.189766"
     transform="rotate(25.85295,-85.376453,356.56702)" /><g
     aria-label="1"
     style="font-style:normal;font-variant:normal;font-weight:normal;font-stretch:normal;font-size:33.33333588px;line-height:125%;font-family:sans-serif;-inkscape-font-specification:sans-serif;letter-spacing:0px;word-spacing:0px;fill:#ffffff;fill-opacity:1;stroke:none;stroke-width:1px;stroke-linecap:butt;stroke-linejoin:miter;stroke-opacity:1"
     id="text7991-10"><path
       d="m 349.12903,161.54966 h -5.23333 v -2.1 q 3.4,-0.43333 4.4,-1.2 1,-0.73333 1.7,-3.1 0.0667,-0.2 0.13333,-0.4 h 1.93333 V 178.383 h -2.93333 z"
       style="font-style:normal;font-variant:normal;font-weight:normal;font-stretch:normal;font-size:33.33333588px;font-family:FreeSans;-inkscape-font-specification:FreeSans;fill:#ffffff;fill-opacity:1"
       id="path21567" /></g><g
     aria-label="2"
     style="font-style:normal;font-variant:normal;font-weight:normal;font-stretch:normal;font-size:33.33333588px;line-height:125%;font-family:sans-serif;-inkscape-font-specification:sans-serif;letter-spacing:0px;word-spacing:0px;fill:#ffffff;fill-opacity:1;stroke:none;stroke-width:1px;stroke-linecap:butt;stroke-linejoin:miter;stroke-opacity:1"
     id="text7995"><path
       d="m 13.412346,163.07466 q 0.266666,-8.16667 7.8,-8.2 4.033334,0 6.166667,2.66667 1.400001,1.83333 1.400001,4.26666 -0.03333,4.4 -5.000001,7.13334 l -3.333333,1.8 q -3.100001,1.66667 -3.900001,3.53333 -0.266666,0.6 -0.366666,1.33334 h 12.433334 v 2.9 H 12.879012 q 0.233334,-4.26667 1.9,-6.5 1.433334,-1.86667 4.733334,-3.73334 l 3.066667,-1.73333 q 3.166667,-1.86667 3.2,-4.66667 0,-2.4 -2,-3.7 -1.166667,-0.73333 -2.666667,-0.73333 -4.366667,0 -4.766667,5.43333 0,0.1 0,0.2 z"
       style="font-style:normal;font-variant:normal;font-weight:normal;font-stretch:normal;font-size:33.33333588px;font-family:FreeSans;-inkscape-font-specification:FreeSans;fill:#ffffff;fill-opacity:1"
       id="path21558" /></g></svg>