<?xml version="1.0" encoding="UTF-8" standalone="no"?>
<!-- Generator: Adobe Illustrator 19.2.0, SVG Export Plug-In . SVG Version: 6.00 Build 0)  -->

<svg
   xmlns:dc="http://purl.org/dc/elements/1.1/"
   xmlns:cc="http://creativecommons.org/ns#"
   xmlns:rdf="http://www.w3.org/1999/02/22-rdf-syntax-ns#"
   xmlns:svg="http://www.w3.org/2000/svg"
   xmlns="http://www.w3.org/2000/svg"
   xmlns:sodipodi="http://sodipodi.sourceforge.net/DTD/sodipodi-0.dtd"
   xmlns:inkscape="http://www.inkscape.org/namespaces/inkscape"
   version="1.1"
   id="draw"
   x="0px"
   y="0px"
   viewBox="0 0 292.891 321.77"
   enable-background="new 0 0 292.891 321.77"
   xml:space="preserve"
   sodipodi:docname="OctoRotorXCoaxial.svg"
   inkscape:version="0.92.1 r"><metadata
     id="metadata13199"><rdf:RDF><cc:Work
         rdf:about=""><dc:format>image/svg+xml</dc:format><dc:type
           rdf:resource="http://purl.org/dc/dcmitype/StillImage" /><dc:title>OctoRotorXCoaxial</dc:title></cc:Work></rdf:RDF></metadata><defs
     id="defs13197" /><sodipodi:namedview
     pagecolor="#ffffff"
     bordercolor="#666666"
     borderopacity="1"
     objecttolerance="10"
     gridtolerance="10"
     guidetolerance="10"
     inkscape:pageopacity="0"
     inkscape:pageshadow="2"
     inkscape:window-width="1920"
     inkscape:window-height="1019"
     id="namedview13195"
     showgrid="false"
     inkscape:zoom="2.0744905"
     inkscape:cx="108.47754"
     inkscape:cy="174.51965"
     inkscape:window-x="1920"
     inkscape:window-y="0"
     inkscape:window-maximized="1"
     inkscape:current-layer="draw" /><title
     id="title13144">OctoRotorXCoaxial</title><g
     opacity="0.8"
     id="g13148"><ellipse
       transform="matrix(0.7051 -0.7091 0.7091 0.7051 -42.389 60.0411)"
       fill="#4EC3E8"
       cx="50.998"
       cy="80.988"
       rx="50.993"
       ry="51.004"
       id="ellipse13146" /></g><g
     opacity="0.8"
     id="g13152"><ellipse
       transform="matrix(0.7091 -0.7051 0.7051 0.7091 -175.5156 116.1654)"
       fill="#159E1F"
       cx="53.018"
       cy="270.783"
       rx="50.993"
       ry="51.004"
       id="ellipse13150" /></g><g
     opacity="0.8"
     id="g13156"><ellipse
       transform="matrix(0.7051 -0.7091 0.7091 0.7051 -120.5748 251.2775)"
       fill="#4EC3E8"
       cx="241.845"
       cy="270.616"
       rx="50.993"
       ry="51.004"
       id="ellipse13154" /></g><g
     opacity="0.8"
     id="g13160"><ellipse
       transform="matrix(0.7091 -0.7051 0.7051 0.7091 12.8117 194.3173)"
       fill="#159E1F"
       cx="241.891"
       cy="81.633"
       rx="50.993"
       ry="51.004"
       id="ellipse13158" /></g><path
     style="opacity:1;fill:#ffffff;fill-opacity:1;fill-rule:evenodd;stroke:none;stroke-width:1.00172007px;stroke-linecap:butt;stroke-linejoin:miter;stroke-opacity:1"
     d="m 200.44017,94.702505 c 0.31363,10.513585 2.86489,14.823525 6.57185,20.344065 l 8.72081,-8.54371 c -4.71801,-1.07604 -10.13476,-5.43373 -15.29266,-11.800355 z"
     id="path7831-5"
     inkscape:connector-curvature="0"
     sodipodi:nodetypes="cccc" /><rect
     x="13.541"
     y="142.823"
     transform="matrix(0.7071 -0.7071 0.7071 0.7071 -60.2984 146.8492)"
     fill="#FFFFFF"
     stroke="#000000"
     stroke-miterlimit="10"
     width="267.144"
     height="6.777"
     id="rect13162" /><path
     sodipodi:nodetypes="cccc"
     inkscape:connector-curvature="0"
     id="path17111"
     d="m 91.968903,93.979436 c -0.31363,10.513584 -2.86489,14.823524 -6.57185,20.344064 l -8.72081,-8.54371 c 4.71801,-1.07604 10.13476,-5.43373 15.29266,-11.800354 z"
     style="opacity:1;fill:#ffffff;fill-opacity:1;fill-rule:evenodd;stroke:none;stroke-width:1.00172007px;stroke-linecap:butt;stroke-linejoin:miter;stroke-opacity:1" /><rect
     x="143.725"
     y="12.631"
     transform="matrix(0.7071 -0.7071 0.7071 0.7071 -60.2989 146.8491)"
     fill="#FFFFFF"
     stroke="#000000"
     stroke-miterlimit="10"
     width="6.777"
     height="267.161"
     id="rect13164" /><path
     fill="#FFFFFF"
     stroke="#000000"
     stroke-miterlimit="10"
     d="M190.313,153.216l-36.195,36.195  c-3.869,3.869-10.141,3.869-14.009,0l-36.195-36.195c-3.869-3.869-3.869-10.141,0-14.009l36.195-36.195  c3.869-3.869,10.141-3.869,14.009,0l36.195,36.195C194.182,143.075,194.182,149.347,190.313,153.216z"
     id="path13166" /><polygon
     fill="#FF442B"
     stroke="#000000"
     stroke-miterlimit="10"
     points="128.936,168.211 147.113,117.211 165.291,168.211 "
     id="polygon13168" /><g
     opacity="0.8"
     id="g13172"><ellipse
       transform="matrix(0.7091 -0.7051 0.7051 0.7091 33.9659 185.5891)"
       fill="#4EC3E8"
       cx="241.891"
       cy="51.633"
       rx="50.993"
       ry="51.004"
       id="ellipse13170" /></g><path
     fill="#FFFFFF"
     stroke="#000000"
     stroke-miterlimit="10"
     d="M249.832,43.704c-4.374-4.384-11.473-4.393-15.858-0.019  c-4.384,4.374-4.393,11.473-0.019,15.858c4.365,4.375,11.447,4.394,15.835,0.042c4.397-4.335,4.446-11.414,0.111-15.811  C249.878,43.75,249.855,43.727,249.832,43.704z"
     id="path13174" /><g
     opacity="0.8"
     id="g13178"><ellipse
       transform="matrix(0.7091 -0.7051 0.7051 0.7091 -154.3615 107.4372)"
       fill="#4EC3E8"
       cx="53.018"
       cy="240.783"
       rx="50.993"
       ry="51.004"
       id="ellipse13176" /></g><path
     fill="#FFFFFF"
     stroke="#000000"
     stroke-miterlimit="10"
     d="M45.08,248.69c4.374,4.384,11.473,4.393,15.858,0.019  c4.384-4.374,4.393-11.473,0.019-15.858c-4.365-4.375-11.447-4.394-15.835-0.042c-4.397,4.335-4.446,11.414-0.111,15.811  C45.034,248.644,45.057,248.667,45.08,248.69z"
     id="path13180" /><g
     opacity="0.8"
     id="g13184"><ellipse
       transform="matrix(0.7051 -0.7091 0.7091 0.7051 -20.6859 52.2355)"
       fill="#159E1F"
       cx="52.464"
       cy="50.99"
       rx="50.993"
       ry="51.004"
       id="ellipse13182" /></g><path
     fill="#FFFFFF"
     stroke="#000000"
     stroke-miterlimit="10"
     d="M60.382,43.059c4.384,4.374,4.393,11.473,0.019,15.858  c-4.374,4.384-11.473,4.393-15.858,0.019c-4.375-4.365-4.394-11.447-0.042-15.835c4.335-4.397,11.414-4.446,15.811-0.111  C60.336,43.013,60.359,43.036,60.382,43.059z"
     id="path13186" /><g
     opacity="0.8"
     id="g13190"><ellipse
       transform="matrix(0.7051 -0.7091 0.7091 0.7051 -99.3026 242.4316)"
       fill="#159E1F"
       cx="241.845"
       cy="240.616"
       rx="50.993"
       ry="51.004"
       id="ellipse13188" /></g><path
     fill="#FFFFFF"
     stroke="#000000"
     stroke-miterlimit="10"
     d="M233.927,248.565c-4.384-4.374-4.393-11.473-0.019-15.858  c4.374-4.384,11.473-4.393,15.858-0.019c4.375,4.365,4.394,11.447,0.042,15.835c-4.335,4.397-11.414,4.446-15.811,0.111  C233.973,248.611,233.95,248.588,233.927,248.565z"
     id="path13192" /><path
     sodipodi:nodetypes="cccc"
     inkscape:connector-curvature="0"
     id="path7676"
     d="m 90.195197,69.647319 c 7.20007,-7.64284 8.44151,-12.486122 9.7217,-18.99975 l -12.18689,-0.125 c 2.57083,4.089977 3.31842,10.989681 2.46519,19.12475 z"
     style="opacity:1;fill:#ffffff;fill-opacity:1;fill-rule:evenodd;stroke:none;stroke-width:1px;stroke-linecap:butt;stroke-linejoin:miter;stroke-opacity:1" /><path
     sodipodi:type="spiral"
     style="opacity:1;fill:none;fill-opacity:1;fill-rule:evenodd;stroke:#ffffec;stroke-width:2.51338577;stroke-linecap:butt;stroke-linejoin:miter;stroke-miterlimit:4;stroke-dasharray:none;stroke-opacity:1"
     id="path7711"
     sodipodi:cx="197.5222"
     sodipodi:cy="17.012539"
     sodipodi:expansion="0"
     sodipodi:revolution="8.0200005"
     sodipodi:radius="34.011444"
     sodipodi:argument="-17.855951"
     sodipodi:t0="0.99130303"
     d="m 223.94673,38.425681 c -3.13084,3.863564 -7.10954,7.019918 -11.58403,9.189766"
     transform="rotate(-64.147051,155.58351,143.60735)" /><path
     style="opacity:1;fill:#ffffff;fill-opacity:1;fill-rule:evenodd;stroke:none;stroke-width:1px;stroke-linecap:butt;stroke-linejoin:miter;stroke-opacity:1"
     d="M 14.013106,32.327962 C 6.8130363,39.970801 5.5715963,44.814083 4.2914063,51.327711 l 12.1868897,0.125 c -2.57083,-4.089977 -3.31842,-10.989681 -2.46519,-19.124749 z"
     id="path7831"
     inkscape:connector-curvature="0"
     sodipodi:nodetypes="cccc" /><path
     transform="rotate(115.85295,110.14477,-13.858221)"
     d="m 223.94673,38.425681 c -3.13084,3.863564 -7.10954,7.019918 -11.58403,9.189766"
     sodipodi:t0="0.99130303"
     sodipodi:argument="-17.855951"
     sodipodi:radius="34.011444"
     sodipodi:revolution="8.0200005"
     sodipodi:expansion="0"
     sodipodi:cy="17.012539"
     sodipodi:cx="197.5222"
     id="path7833"
     style="opacity:1;fill:none;fill-opacity:1;fill-rule:evenodd;stroke:#ffffec;stroke-width:2.51338577;stroke-linecap:butt;stroke-linejoin:miter;stroke-miterlimit:4;stroke-dasharray:none;stroke-opacity:1"
     sodipodi:type="spiral" /><path
     style="opacity:1;fill:#ffffff;fill-opacity:1;fill-rule:evenodd;stroke:none;stroke-width:1px;stroke-linecap:butt;stroke-linejoin:miter;stroke-opacity:1"
     d="m 90.195197,69.647319 c 7.20007,-7.64284 8.44151,-12.486122 9.7217,-18.99975 l -12.18689,-0.125 c 2.57083,4.089977 3.31842,10.989681 2.46519,19.12475 z"
     id="path14492"
     inkscape:connector-curvature="0"
     sodipodi:nodetypes="cccc" /><path
     transform="rotate(-64.147051,155.58351,143.60735)"
     d="m 223.94673,38.425681 c -3.13084,3.863564 -7.10954,7.019918 -11.58403,9.189766"
     sodipodi:t0="0.99130303"
     sodipodi:argument="-17.855951"
     sodipodi:radius="34.011444"
     sodipodi:revolution="8.0200005"
     sodipodi:expansion="0"
     sodipodi:cy="17.012539"
     sodipodi:cx="197.5222"
     id="path14494"
     style="opacity:1;fill:none;fill-opacity:1;fill-rule:evenodd;stroke:#ffffec;stroke-width:2.51338577;stroke-linecap:butt;stroke-linejoin:miter;stroke-miterlimit:4;stroke-dasharray:none;stroke-opacity:1"
     sodipodi:type="spiral" /><path
     sodipodi:nodetypes="cccc"
     inkscape:connector-curvature="0"
     id="path14496"
     d="M 14.013106,32.327962 C 6.8130363,39.970801 5.5715963,44.814083 4.2914063,51.327711 l 12.1868897,0.125 c -2.57083,-4.089977 -3.31842,-10.989681 -2.46519,-19.124749 z"
     style="opacity:1;fill:#ffffff;fill-opacity:1;fill-rule:evenodd;stroke:none;stroke-width:1px;stroke-linecap:butt;stroke-linejoin:miter;stroke-opacity:1" /><path
     sodipodi:type="spiral"
     style="opacity:1;fill:none;fill-opacity:1;fill-rule:evenodd;stroke:#ffffec;stroke-width:2.51338577;stroke-linecap:butt;stroke-linejoin:miter;stroke-miterlimit:4;stroke-dasharray:none;stroke-opacity:1"
     id="path14498"
     sodipodi:cx="197.5222"
     sodipodi:cy="17.012539"
     sodipodi:expansion="0"
     sodipodi:revolution="8.0200005"
     sodipodi:radius="34.011444"
     sodipodi:argument="-17.855951"
     sodipodi:t0="0.99130303"
     d="m 223.94673,38.425681 c -3.13084,3.863564 -7.10954,7.019918 -11.58403,9.189766"
     transform="rotate(115.85295,110.14477,-13.858221)" /><g
     aria-label="2"
     style="font-style:normal;font-variant:normal;font-weight:normal;font-stretch:normal;font-size:33.33333588px;line-height:125%;font-family:sans-serif;-inkscape-font-specification:sans-serif;letter-spacing:0px;word-spacing:0px;fill:#ffffff;fill-opacity:1;stroke:none;stroke-width:1px;stroke-linecap:butt;stroke-linejoin:miter;stroke-opacity:1"
     id="text14502"><path
       d="m 46.114657,15.460476 q 0.266667,-8.1666675 7.800001,-8.2000009 4.033333,0 6.166667,2.6666669 1.4,1.833333 1.4,4.266667 -0.03333,4.4 -5,7.133334 l -3.333334,1.8 q -3.1,1.666667 -3.9,3.533334 -0.266667,0.6 -0.366667,1.333333 h 12.433334 v 2.9 H 45.581324 q 0.233333,-4.266667 1.9,-6.5 1.433333,-1.866667 4.733334,-3.733334 l 3.066667,-1.733333 q 3.166666,-1.866667 3.2,-4.666667 0,-2.400001 -2,-3.700001 -1.166667,-0.733333 -2.666667,-0.733333 -4.366667,0 -4.766667,5.433334 0,0.1 0,0.2 z"
       style="font-style:normal;font-variant:normal;font-weight:normal;font-stretch:normal;font-size:33.33333588px;font-family:FreeSans;-inkscape-font-specification:FreeSans;fill:#ffffff;fill-opacity:1"
       id="path17162" /></g><path
     sodipodi:nodetypes="cccc"
     inkscape:connector-curvature="0"
     id="path7676-2"
     d="m 279.3948,259.3989 c 7.20007,-7.64284 8.44151,-12.48612 9.7217,-18.99975 l -12.18689,-0.125 c 2.57083,4.08998 3.31842,10.98968 2.46519,19.12475 z"
     style="opacity:1;fill:#ffffff;fill-opacity:1;fill-rule:evenodd;stroke:none;stroke-width:1px;stroke-linecap:butt;stroke-linejoin:miter;stroke-opacity:1" /><path
     sodipodi:type="spiral"
     style="opacity:1;fill:none;fill-opacity:1;fill-rule:evenodd;stroke:#ffffec;stroke-width:2.51338577;stroke-linecap:butt;stroke-linejoin:miter;stroke-miterlimit:4;stroke-dasharray:none;stroke-opacity:1"
     id="path7711-9"
     sodipodi:cx="197.5222"
     sodipodi:cy="17.012539"
     sodipodi:expansion="0"
     sodipodi:revolution="8.0200005"
     sodipodi:radius="34.011444"
     sodipodi:argument="-17.855951"
     sodipodi:t0="0.99130303"
     d="m 223.94673,38.425681 c -3.13084,3.863564 -7.10954,7.019918 -11.58403,9.189766"
     transform="rotate(-64.147051,401.58363,87.523231)" /><path
     style="opacity:1;fill:#ffffff;fill-opacity:1;fill-rule:evenodd;stroke:none;stroke-width:1px;stroke-linecap:butt;stroke-linejoin:miter;stroke-opacity:1"
     d="m 203.21271,222.07954 c -7.20007,7.64284 -8.44151,12.48612 -9.7217,18.99975 l 12.18689,0.125 c -2.57083,-4.08998 -3.31842,-10.98968 -2.46519,-19.12475 z"
     id="path7831-7"
     inkscape:connector-curvature="0"
     sodipodi:nodetypes="cccc" /><path
     transform="rotate(115.85295,145.29018,140.299)"
     d="m 223.94673,38.425681 c -3.13084,3.863564 -7.10954,7.019918 -11.58403,9.189766"
     sodipodi:t0="0.99130303"
     sodipodi:argument="-17.855951"
     sodipodi:radius="34.011444"
     sodipodi:revolution="8.0200005"
     sodipodi:expansion="0"
     sodipodi:cy="17.012539"
     sodipodi:cx="197.5222"
     id="path7833-9"
     style="opacity:1;fill:none;fill-opacity:1;fill-rule:evenodd;stroke:#ffffec;stroke-width:2.51338577;stroke-linecap:butt;stroke-linejoin:miter;stroke-miterlimit:4;stroke-dasharray:none;stroke-opacity:1"
     sodipodi:type="spiral" /><g
     aria-label="4"
     style="font-style:normal;font-variant:normal;font-weight:normal;font-stretch:normal;font-size:33.33333588px;line-height:125%;font-family:sans-serif;-inkscape-font-specification:sans-serif;letter-spacing:0px;word-spacing:0px;fill:#ffffff;fill-opacity:1;stroke:none;stroke-width:1px;stroke-linecap:butt;stroke-linejoin:miter;stroke-opacity:1"
     id="text7999-0"><path
       d="m 244.11048,279.23281 h -9.96667 v -3.1 l 10.73334,-14.86667 h 2.16666 v 15.33333 h 3.5 v 2.63334 h -3.5 v 5.66667 h -2.93333 z m 0,-2.63334 v -10.33333 l -7.4,10.33333 z"
       style="font-style:normal;font-variant:normal;font-weight:normal;font-stretch:normal;font-size:33.33333588px;font-family:FreeSans;-inkscape-font-specification:FreeSans;fill:#ffffff;fill-opacity:1"
       id="path17147" /></g><path
     style="opacity:1;fill:#ffffff;fill-opacity:1;fill-rule:evenodd;stroke:none;stroke-width:1px;stroke-linecap:butt;stroke-linejoin:miter;stroke-opacity:1"
     d="m 202.82342,70.14767 c -7.20006,-7.642841 -8.4415,-12.486121 -9.72169,-18.999751 l 12.18688,-0.125 c -2.57083,4.08998 -3.31842,10.98968 -2.46519,19.124751 z"
     id="path7870"
     inkscape:connector-curvature="0"
     sodipodi:nodetypes="cccc" /><path
     transform="matrix(-0.43606293,-0.89991617,-0.89991617,0.43606293,334.51391,221.49798)"
     d="m 223.94673,38.425681 c -3.13084,3.863564 -7.10954,7.019918 -11.58403,9.189766"
     sodipodi:t0="0.99130303"
     sodipodi:argument="-17.855951"
     sodipodi:radius="34.011444"
     sodipodi:revolution="8.0200005"
     sodipodi:expansion="0"
     sodipodi:cy="17.012539"
     sodipodi:cx="197.5222"
     id="path7872"
     style="opacity:1;fill:none;fill-opacity:1;fill-rule:evenodd;stroke:#ffffec;stroke-width:2.51338577;stroke-linecap:butt;stroke-linejoin:miter;stroke-miterlimit:4;stroke-dasharray:none;stroke-opacity:1"
     sodipodi:type="spiral" /><path
     sodipodi:nodetypes="cccc"
     inkscape:connector-curvature="0"
     id="path7874"
     d="m 279.00551,32.828309 c 7.20007,7.64284 8.44151,12.48613 9.7217,18.99975 l -12.18689,0.125 c 2.57083,-4.08997 3.31842,-10.98968 2.46519,-19.12475 z"
     style="opacity:1;fill:#ffffff;fill-opacity:1;fill-rule:evenodd;stroke:none;stroke-width:1px;stroke-linecap:butt;stroke-linejoin:miter;stroke-opacity:1" /><path
     sodipodi:type="spiral"
     style="opacity:1;fill:none;fill-opacity:1;fill-rule:evenodd;stroke:#ffffec;stroke-width:2.51338577;stroke-linecap:butt;stroke-linejoin:miter;stroke-miterlimit:4;stroke-dasharray:none;stroke-opacity:1"
     id="path7876"
     sodipodi:cx="197.5222"
     sodipodi:cy="17.012539"
     sodipodi:expansion="0"
     sodipodi:revolution="8.0200005"
     sodipodi:radius="34.011444"
     sodipodi:argument="-17.855951"
     sodipodi:t0="0.99130303"
     d="m 223.94673,38.425681 c -3.13084,3.863564 -7.10954,7.019918 -11.58403,9.189766"
     transform="matrix(0.43606294,0.89991617,0.89991617,-0.43606294,147.31504,-118.52199)" /><g
     aria-label="1"
     style="font-style:normal;font-variant:normal;font-weight:normal;font-stretch:normal;font-size:33.33333588px;line-height:125%;font-family:sans-serif;-inkscape-font-specification:sans-serif;letter-spacing:0px;word-spacing:0px;fill:#ffffff;fill-opacity:1;stroke:none;stroke-width:1px;stroke-linecap:butt;stroke-linejoin:miter;stroke-opacity:1"
     id="text7991"><path
       d="m 242.64841,13.680272 h -5.23333 v -2.1 q 3.4,-0.433333 4.4,-1.2 1,-0.7333332 1.7,-3.1000001 0.0667,-0.2 0.13333,-0.4 h 1.93333 V 30.513607 h -2.93333 z"
       style="font-style:normal;font-variant:normal;font-weight:normal;font-stretch:normal;font-size:33.33333588px;font-family:FreeSans;-inkscape-font-specification:FreeSans;fill:#ffffff;fill-opacity:1"
       id="path17156" /></g><path
     style="opacity:1;fill:#ffffff;fill-opacity:1;fill-rule:evenodd;stroke:none;stroke-width:1px;stroke-linecap:butt;stroke-linejoin:miter;stroke-opacity:1"
     d="M 13.592457,259.17561 C 6.3923873,251.53277 5.1509473,246.68949 3.8707573,240.17586 l 12.1868897,-0.125 c -2.57083,4.08998 -3.31842,10.98968 -2.46519,19.12475 z"
     id="path7870-5"
     inkscape:connector-curvature="0"
     sodipodi:nodetypes="cccc" /><path
     transform="matrix(-0.43606293,-0.89991617,-0.89991617,0.43606293,145.28294,410.52592)"
     d="m 223.94673,38.425681 c -3.13084,3.863564 -7.10954,7.019918 -11.58403,9.189766"
     sodipodi:t0="0.99130303"
     sodipodi:argument="-17.855951"
     sodipodi:radius="34.011444"
     sodipodi:revolution="8.0200005"
     sodipodi:expansion="0"
     sodipodi:cy="17.012539"
     sodipodi:cx="197.5222"
     id="path7872-2"
     style="opacity:1;fill:none;fill-opacity:1;fill-rule:evenodd;stroke:#ffffec;stroke-width:2.51338577;stroke-linecap:butt;stroke-linejoin:miter;stroke-miterlimit:4;stroke-dasharray:none;stroke-opacity:1"
     sodipodi:type="spiral" /><path
     sodipodi:nodetypes="cccc"
     inkscape:connector-curvature="0"
     id="path7874-1"
     d="m 89.774547,221.85625 c 7.20007,7.64284 8.44151,12.48613 9.7217,18.99975 l -12.18689,0.125 c 2.57083,-4.08997 3.31842,-10.98968 2.46519,-19.12475 z"
     style="opacity:1;fill:#ffffff;fill-opacity:1;fill-rule:evenodd;stroke:none;stroke-width:1px;stroke-linecap:butt;stroke-linejoin:miter;stroke-opacity:1" /><path
     sodipodi:type="spiral"
     style="opacity:1;fill:none;fill-opacity:1;fill-rule:evenodd;stroke:#ffffec;stroke-width:2.51338577;stroke-linecap:butt;stroke-linejoin:miter;stroke-miterlimit:4;stroke-dasharray:none;stroke-opacity:1"
     id="path7876-6"
     sodipodi:cx="197.5222"
     sodipodi:cy="17.012539"
     sodipodi:expansion="0"
     sodipodi:revolution="8.0200005"
     sodipodi:radius="34.011444"
     sodipodi:argument="-17.855951"
     sodipodi:t0="0.99130303"
     d="m 223.94673,38.425681 c -3.13084,3.863564 -7.10954,7.019918 -11.58403,9.189766"
     transform="matrix(0.43606294,0.89991617,0.89991617,-0.43606294,-41.915923,70.505958)" /><g
     aria-label="3"
     style="font-style:normal;font-variant:normal;font-weight:normal;font-stretch:normal;font-size:33.33333588px;line-height:125%;font-family:sans-serif;-inkscape-font-specification:sans-serif;letter-spacing:0px;word-spacing:0px;fill:#ffffff;fill-opacity:1;stroke:none;stroke-width:1px;stroke-linecap:butt;stroke-linejoin:miter;stroke-opacity:1"
     id="text7991-1"><path
       d="m 53.084771,264.09944 q -3.8,0 -4.4,3.66667 -0.06667,0.63333 -0.1,1.4 h -2.933334 q 0.133333,-7 6.333334,-7.6 0.533333,-0.0333 1.066667,-0.0333 4.666667,0 6.4,3.13334 0.8,1.46666 0.8,3.36666 -0.03333,3.6 -3.3,4.9 3.1,1.06667 3.766667,3.6 0.233333,0.9 0.233333,2.03334 0,4.1 -3.133333,6.1 -2.033334,1.26666 -4.866667,1.26666 -6.533334,0 -7.633334,-6.13333 -0.1,-0.73333 -0.166667,-1.5 h 2.933334 q 0.266666,4.4 3.766666,4.93333 0.566667,0.1 1.200001,0.1 3.466666,0 4.533333,-2.63333 0.366667,-0.96667 0.366667,-2.1 -0.06667,-4.26667 -4.9,-4.3 l -1.233334,0.0333 h -0.366667 v -2.5 q 3.766667,-0.0667 4.900001,-1.1 0.9,-0.86666 0.9,-2.6 0,-2.83333 -2.333334,-3.73333 -0.833333,-0.3 -1.833333,-0.3 z"
       style="font-style:normal;font-variant:normal;font-weight:normal;font-stretch:normal;font-size:33.33333588px;font-family:FreeSans;-inkscape-font-specification:FreeSans;fill:#ffffff;fill-opacity:1"
       id="path17144" /></g><path
     sodipodi:nodetypes="cccc"
     inkscape:connector-curvature="0"
     id="path7676-20"
     d="m 257.61263,120.57122 c 10.51357,-0.31363 14.82351,-2.8649 20.34406,-6.57187 l -8.54372,-8.7208 c -1.07604,4.71801 -5.43373,10.13477 -11.80034,15.29267 z"
     style="opacity:1;fill:#ffffff;fill-opacity:1;fill-rule:evenodd;stroke:none;stroke-width:1.00172007px;stroke-linecap:butt;stroke-linejoin:miter;stroke-opacity:1" /><path
     sodipodi:type="spiral"
     style="opacity:1;fill:none;fill-opacity:1;fill-rule:evenodd;stroke:#ffffec;stroke-width:2.51338577;stroke-linecap:butt;stroke-linejoin:miter;stroke-miterlimit:4;stroke-dasharray:none;stroke-opacity:1"
     id="path7711-8"
     sodipodi:cx="197.5222"
     sodipodi:cy="17.012539"
     sodipodi:expansion="0"
     sodipodi:revolution="8.0200005"
     sodipodi:radius="34.011444"
     sodipodi:argument="-17.855951"
     sodipodi:t0="0.99130303"
     d="m 223.94673,38.425681 c -3.13084,3.863564 -7.10954,7.019918 -11.58403,9.189766"
     transform="matrix(0.9463049,-0.32855798,0.32855798,0.9463049,57.128305,134.49674)" /><path
     transform="matrix(0.32855797,0.9463049,-0.9463049,0.32855797,186.51466,-105.78182)"
     d="m 223.94673,38.425681 c -3.13084,3.863564 -7.10954,7.019918 -11.58403,9.189766"
     sodipodi:t0="0.99130303"
     sodipodi:argument="-17.855951"
     sodipodi:radius="34.011444"
     sodipodi:revolution="8.0200005"
     sodipodi:expansion="0"
     sodipodi:cy="17.012539"
     sodipodi:cx="197.5222"
     id="path7833-2"
     style="opacity:1;fill:none;fill-opacity:1;fill-rule:evenodd;stroke:#ffffec;stroke-width:2.51338577;stroke-linecap:butt;stroke-linejoin:miter;stroke-miterlimit:4;stroke-dasharray:none;stroke-opacity:1"
     sodipodi:type="spiral" /><g
     aria-label="6"
     style="font-style:normal;font-variant:normal;font-weight:normal;font-stretch:normal;font-size:33.39067459px;line-height:125%;font-family:sans-serif;-inkscape-font-specification:sans-serif;letter-spacing:0px;word-spacing:0px;fill:#ffffff;fill-opacity:1;stroke:none;stroke-width:1.00172007px;stroke-linecap:butt;stroke-linejoin:miter;stroke-opacity:1"
     id="text11694"><path
       d="m 233.49104,118.73418 q 0,-10.31772 5.7098,-12.42134 1.30224,-0.46746 2.77143,-0.46746 3.83992,0 5.67641,3.10533 0.76799,1.33562 1.03511,3.07194 h -2.93838 q -0.60103,-2.93838 -3.03855,-3.47263 -0.46747,-0.10017 -0.93494,-0.10017 -3.70636,0 -4.84164,4.80825 -0.40069,1.83649 -0.43408,4.17384 1.97005,-2.63786 5.44268,-2.63786 3.70636,0 5.77658,2.77142 1.46919,2.00344 1.46919,4.74148 0,3.97349 -2.73803,6.24405 -2.10361,1.73632 -5.0086,1.73632 -7.91359,-0.0668 -7.94698,-11.55317 z m 8.08054,-1.33563 q -2.83821,0 -4.17384,2.20378 -0.73459,1.20207 -0.73459,2.77143 0,2.8716 2.03683,4.40757 1.20207,0.90155 2.77143,0.90155 2.53769,0 3.87332,-2.10362 0.83476,-1.33562 0.83476,-3.03855 0,-3.40585 -2.37074,-4.6413 -1.00172,-0.50086 -2.23717,-0.50086 z"
       style="font-style:normal;font-variant:normal;font-weight:normal;font-stretch:normal;font-size:33.39067459px;font-family:FreeSans;-inkscape-font-specification:FreeSans;fill:#ffffff;fill-opacity:1;stroke-width:1.00172007px"
       id="path17153" /></g><path
     style="opacity:1;fill:#ffffff;fill-opacity:1;fill-rule:evenodd;stroke:none;stroke-width:1.00172007px;stroke-linecap:butt;stroke-linejoin:miter;stroke-opacity:1"
     d="m 68.935459,309.50403 c 10.51357,-0.31363 14.82351,-2.8649 20.34406,-6.57187 l -8.54372,-8.7208 c -1.07604,4.71801 -5.43373,10.13477 -11.80034,15.29267 z"
     id="path17071"
     inkscape:connector-curvature="0"
     sodipodi:nodetypes="cccc" /><path
     transform="matrix(0.9463049,-0.32855798,0.32855798,0.9463049,-131.54887,323.42955)"
     d="m 223.94673,38.425681 c -3.13084,3.863564 -7.10954,7.019918 -11.58403,9.189766"
     sodipodi:t0="0.99130303"
     sodipodi:argument="-17.855951"
     sodipodi:radius="34.011444"
     sodipodi:revolution="8.0200005"
     sodipodi:expansion="0"
     sodipodi:cy="17.012539"
     sodipodi:cx="197.5222"
     id="path17073"
     style="opacity:1;fill:none;fill-opacity:1;fill-rule:evenodd;stroke:#ffffec;stroke-width:2.51338577;stroke-linecap:butt;stroke-linejoin:miter;stroke-miterlimit:4;stroke-dasharray:none;stroke-opacity:1"
     sodipodi:type="spiral" /><path
     sodipodi:nodetypes="cccc"
     inkscape:connector-curvature="0"
     id="path17075"
     d="m 11.762999,283.63532 c 0.31363,10.51358 2.86489,14.82352 6.57185,20.34406 l 8.72081,-8.54371 c -4.71801,-1.07604 -10.13476,-5.43373 -15.29266,-11.80035 z"
     style="opacity:1;fill:#ffffff;fill-opacity:1;fill-rule:evenodd;stroke:none;stroke-width:1.00172007px;stroke-linecap:butt;stroke-linejoin:miter;stroke-opacity:1" /><path
     sodipodi:type="spiral"
     style="opacity:1;fill:none;fill-opacity:1;fill-rule:evenodd;stroke:#ffffec;stroke-width:2.51338577;stroke-linecap:butt;stroke-linejoin:miter;stroke-miterlimit:4;stroke-dasharray:none;stroke-opacity:1"
     id="path17077"
     sodipodi:cx="197.5222"
     sodipodi:cy="17.012539"
     sodipodi:expansion="0"
     sodipodi:revolution="8.0200005"
     sodipodi:radius="34.011444"
     sodipodi:argument="-17.855951"
     sodipodi:t0="0.99130303"
     d="m 223.94673,38.425681 c -3.13084,3.863564 -7.10954,7.019918 -11.58403,9.189766"
     transform="matrix(0.32855797,0.9463049,-0.9463049,0.32855797,-2.1625119,83.150995)" /><g
     aria-label="8"
     style="font-style:normal;font-variant:normal;font-weight:normal;font-stretch:normal;font-size:33.39067459px;line-height:125%;font-family:sans-serif;-inkscape-font-specification:sans-serif;letter-spacing:0px;word-spacing:0px;fill:#ffffff;fill-opacity:1;stroke:none;stroke-width:1.00172007px;stroke-linecap:butt;stroke-linejoin:miter;stroke-opacity:1"
     id="text17081"><path
       d="m 56.433817,305.99746 q 4.040272,1.97005 4.073662,5.91015 0,3.73975 -2.871598,5.77658 -2.103612,1.53597 -5.075382,1.53597 -4.140444,0 -6.377619,-2.73803 -1.569362,-1.93666 -1.569362,-4.60791 0.03339,-3.9401 4.040272,-5.87676 -2.404129,-1.50258 -2.93838,-3.10534 -0.267125,-0.76798 -0.267125,-1.80309 0,-3.30568 2.704645,-5.07538 1.869877,-1.23546 4.407569,-1.23546 3.873318,0 5.843368,2.53769 1.268845,1.63614 1.268845,3.77315 0,2.27056 -1.50258,3.63958 -0.667813,0.63442 -1.736315,1.26885 z m -3.873318,-8.6148 q -2.704645,0 -3.706365,1.97005 -0.400688,0.80138 -0.400688,1.76971 0,2.33735 2.036831,3.27228 0.934939,0.43408 2.070222,0.43408 2.671254,0 3.672974,-1.90326 0.434079,-0.80138 0.434079,-1.76971 0,-2.5043 -2.170394,-3.40585 -0.868158,-0.3673 -1.936659,-0.3673 z m 0,9.91703 q -2.97177,0 -4.274007,2.13701 -0.667813,1.10189 -0.667813,2.5043 0,2.73803 2.203784,4.00688 1.168674,0.66781 2.671254,0.66781 3.038552,0 4.340788,-2.17039 0.667814,-1.10189 0.667814,-2.5043 0,-2.73804 -2.237176,-4.00688 -1.202064,-0.63443 -2.704644,-0.63443 z"
       style="font-style:normal;font-variant:normal;font-weight:normal;font-stretch:normal;font-size:33.39067459px;font-family:FreeSans;-inkscape-font-specification:FreeSans;fill:#ffffff;fill-opacity:1;stroke-width:1.00172007px"
       id="path17141" /></g><path
     style="opacity:1;fill:#ffffff;fill-opacity:1;fill-rule:evenodd;stroke:none;stroke-width:1.00172007px;stroke-linecap:butt;stroke-linejoin:miter;stroke-opacity:1"
     d="m 34.796443,119.84815 c -10.51357,-0.31363 -14.82351,-2.8649 -20.34406,-6.57187 l 8.54372,-8.7208 c 1.07604,4.71801 5.43373,10.13477 11.80034,15.29267 z"
     id="path17107"
     inkscape:connector-curvature="0"
     sodipodi:nodetypes="cccc" /><path
     transform="matrix(-0.9463049,-0.32855798,-0.32855798,0.9463049,235.28077,133.77367)"
     d="m 223.94673,38.425681 c -3.13084,3.863564 -7.10954,7.019918 -11.58403,9.189766"
     sodipodi:t0="0.99130303"
     sodipodi:argument="-17.855951"
     sodipodi:radius="34.011444"
     sodipodi:revolution="8.0200005"
     sodipodi:expansion="0"
     sodipodi:cy="17.012539"
     sodipodi:cx="197.5222"
     id="path17109"
     style="opacity:1;fill:none;fill-opacity:1;fill-rule:evenodd;stroke:#ffffec;stroke-width:2.51338577;stroke-linecap:butt;stroke-linejoin:miter;stroke-miterlimit:4;stroke-dasharray:none;stroke-opacity:1"
     sodipodi:type="spiral" /><path
     sodipodi:type="spiral"
     style="opacity:1;fill:none;fill-opacity:1;fill-rule:evenodd;stroke:#ffffec;stroke-width:2.51338577;stroke-linecap:butt;stroke-linejoin:miter;stroke-miterlimit:4;stroke-dasharray:none;stroke-opacity:1"
     id="path17113"
     sodipodi:cx="197.5222"
     sodipodi:cy="17.012539"
     sodipodi:expansion="0"
     sodipodi:revolution="8.0200005"
     sodipodi:radius="34.011444"
     sodipodi:argument="-17.855951"
     sodipodi:t0="0.99130303"
     d="m 223.94673,38.425681 c -3.13084,3.863564 -7.10954,7.019918 -11.58403,9.189766"
     transform="matrix(-0.32855797,0.9463049,0.9463049,0.32855797,105.89441,-106.50489)" /><g
     aria-label="5"
     style="font-style:normal;font-variant:normal;font-weight:normal;font-stretch:normal;font-size:33.39067459px;line-height:125%;font-family:sans-serif;-inkscape-font-specification:sans-serif;letter-spacing:0px;word-spacing:0px;fill:#ffffff;fill-opacity:1;stroke:none;stroke-width:1.00172007px;stroke-linecap:butt;stroke-linejoin:miter;stroke-opacity:1"
     id="text17117"><path
       d="m 57.058958,105.12231 v 2.90499 h -9.850249 l -0.934939,6.61135 q 2.003441,-1.4358 4.374179,-1.4358 4.006881,0 6.143884,2.90499 1.50258,2.07022 1.50258,4.97521 0,4.3074 -2.904989,6.71152 -2.170393,1.76971 -5.208945,1.76971 -6.544572,0 -7.780027,-6.27745 -0.03339,-0.10017 -0.06678,-0.30051 h 2.938379 q 1.101892,3.9401 4.841648,3.97349 3.372458,0 4.641304,-2.70465 0.53425,-1.23545 0.53425,-2.77142 0,-3.63959 -2.537691,-5.04199 -1.168673,-0.63443 -2.637863,-0.63443 -2.137003,0 -3.639584,1.4358 -0.333906,0.3673 -0.701204,0.76799 h -2.704644 l 1.769705,-12.8888 z"
       style="font-style:normal;font-variant:normal;font-weight:normal;font-stretch:normal;font-size:33.39067459px;font-family:FreeSans;-inkscape-font-specification:FreeSans;fill:#ffffff;fill-opacity:1;stroke-width:1.00172007px"
       id="path17159" /></g><path
     sodipodi:nodetypes="cccc"
     inkscape:connector-curvature="0"
     id="path17123"
     d="m 225.76216,309.02436 c -10.51357,-0.31363 -14.82351,-2.8649 -20.34406,-6.57187 l 8.54372,-8.7208 c 1.07604,4.71801 5.43373,10.13477 11.80034,15.29267 z"
     style="opacity:1;fill:#ffffff;fill-opacity:1;fill-rule:evenodd;stroke:none;stroke-width:1.00172007px;stroke-linecap:butt;stroke-linejoin:miter;stroke-opacity:1" /><path
     sodipodi:type="spiral"
     style="opacity:1;fill:none;fill-opacity:1;fill-rule:evenodd;stroke:#ffffec;stroke-width:2.51338577;stroke-linecap:butt;stroke-linejoin:miter;stroke-miterlimit:4;stroke-dasharray:none;stroke-opacity:1"
     id="path17125"
     sodipodi:cx="197.5222"
     sodipodi:cy="17.012539"
     sodipodi:expansion="0"
     sodipodi:revolution="8.0200005"
     sodipodi:radius="34.011444"
     sodipodi:argument="-17.855951"
     sodipodi:t0="0.99130303"
     d="m 223.94673,38.425681 c -3.13084,3.863564 -7.10954,7.019918 -11.58403,9.189766"
     transform="matrix(-0.9463049,-0.32855798,-0.32855798,0.9463049,426.24648,322.94988)" /><path
     style="opacity:1;fill:#ffffff;fill-opacity:1;fill-rule:evenodd;stroke:none;stroke-width:1.00172007px;stroke-linecap:butt;stroke-linejoin:miter;stroke-opacity:1"
     d="m 282.93462,283.15565 c -0.31363,10.51358 -2.86489,14.82352 -6.57185,20.34406 l -8.72081,-8.54371 c 4.71801,-1.07604 10.13476,-5.43373 15.29266,-11.80035 z"
     id="path17127"
     inkscape:connector-curvature="0"
     sodipodi:nodetypes="cccc" /><path
     transform="matrix(-0.32855797,0.9463049,0.9463049,0.32855797,296.86012,82.671322)"
     d="m 223.94673,38.425681 c -3.13084,3.863564 -7.10954,7.019918 -11.58403,9.189766"
     sodipodi:t0="0.99130303"
     sodipodi:argument="-17.855951"
     sodipodi:radius="34.011444"
     sodipodi:revolution="8.0200005"
     sodipodi:expansion="0"
     sodipodi:cy="17.012539"
     sodipodi:cx="197.5222"
     id="path17129"
     style="opacity:1;fill:none;fill-opacity:1;fill-rule:evenodd;stroke:#ffffec;stroke-width:2.51338577;stroke-linecap:butt;stroke-linejoin:miter;stroke-miterlimit:4;stroke-dasharray:none;stroke-opacity:1"
     sodipodi:type="spiral" /><g
     aria-label="7"
     style="font-style:normal;font-variant:normal;font-weight:normal;font-stretch:normal;font-size:33.39067459px;line-height:125%;font-family:sans-serif;-inkscape-font-specification:sans-serif;letter-spacing:0px;word-spacing:0px;fill:#ffffff;fill-opacity:1;stroke:none;stroke-width:1.00172007px;stroke-linecap:butt;stroke-linejoin:miter;stroke-opacity:1"
     id="text17133"><path
       d="m 249.49387,294.29852 v 2.47091 q -6.74491,8.98209 -8.9487,18.03096 -0.40069,1.56936 -0.66781,3.17211 h -3.13872 q 1.66953,-7.27916 4.77486,-12.98897 1.86988,-3.40585 4.94182,-7.78003 h -12.78863 v -2.90498 z"
       style="font-style:normal;font-variant:normal;font-weight:normal;font-stretch:normal;font-size:33.39067459px;font-family:FreeSans;-inkscape-font-specification:FreeSans;fill:#ffffff;fill-opacity:1;stroke-width:1.00172007px"
       id="path17150" /></g></svg>