<?xml version="1.0" encoding="utf-8"?>
<!-- Generator: Adobe Illustrator 19.2.0, SVG Export Plug-In . SVG Version: 6.00 Build 0)  -->
<!DOCTYPE svg PUBLIC "-//W3C//DTD SVG 1.1//EN" "http://www.w3.org/Graphics/SVG/1.1/DTD/svg11.dtd">
<svg version="1.1" id="draw" xmlns="http://www.w3.org/2000/svg" xmlns:xlink="http://www.w3.org/1999/xlink" x="0px" y="0px"
	 viewBox="0 0 420 229.815" enable-background="new 0 0 420 229.815" xml:space="preserve">
<title>PlaneATail</title>
<path fill="#4EC3E8" stroke="#000000" stroke-miterlimit="10" d="M405.817,54.537c-16.294-1.161-182.258,3.946-182.258,3.946
	s4.655-31.334-5.354-46.653c-5.75-8.8-7.236-10.936-7.67-11.16c-0.31-0.221-0.725-0.226-1.041-0.013
	c-0.393,0.137-1.809,2.157-7.7,11.173c-10.009,15.319-5.354,46.653-5.354,46.653S30.475,53.377,14.182,54.537
	s-13.5,21.121-13.5,21.121l201.113,22.746c0,0,3.957-0.7,3.957,5.8S210,119.756,210,119.756s4.248-9.052,4.248-15.551
	s3.957-5.8,3.957-5.8l201.113-22.746C419.318,75.658,422.111,55.698,405.817,54.537z"/>
<polygon fill="#4EC3E8" stroke="#000000" stroke-miterlimit="10" points="252.405,94.297 252.405,198.905 210,212.135 
	167.595,198.905 167.595,94.645 165.483,94.297 165.483,223.276 210,229.311 254.517,223.276 254.517,94.297 "/>
<polygon fill="#159E1F" stroke="#000000" stroke-miterlimit="10" points="387.889,79.213 387.889,73.685 284.544,80.996 
	284.544,90.901 "/>
<polygon fill="#159E1F" stroke="#000000" stroke-miterlimit="10" points="277.448,91.704 277.448,81.229 219.951,86.466 
	219.951,98.207 "/>
<path fill="#159E1F" stroke="#000000" stroke-miterlimit="10" d="M213.236,228.868v-8.783l38.372-8.883v12.466L213.236,228.868z"/>
<polygon fill="#159E1F" stroke="#000000" stroke-miterlimit="10" points="32.185,79.213 32.185,73.685 135.529,80.996 
	135.529,90.901 "/>
<polygon fill="#159E1F" stroke="#000000" stroke-miterlimit="10" points="142.625,91.704 142.625,81.229 200.123,86.466 
	200.123,98.207 "/>
<polygon fill="#159E1F" stroke="#000000" stroke-miterlimit="10" points="206.838,228.882 206.838,220.09 168.466,211.207 
	168.466,223.67 "/>
<ellipse opacity="0.8" fill="#4EC3E8" enable-background="new    " cx="209.869" cy="118.371" rx="25.247" ry="6.069"/>
</svg>
