<?xml version="1.0" encoding="utf-8"?>
<!-- Generator: Adobe Illustrator 19.2.0, SVG Export Plug-In . SVG Version: 6.00 Build 0)  -->
<!DOCTYPE svg PUBLIC "-//W3C//DTD SVG 1.1//EN" "http://www.w3.org/Graphics/SVG/1.1/DTD/svg11.dtd">
<svg version="1.1" id="draw" xmlns="http://www.w3.org/2000/svg" xmlns:xlink="http://www.w3.org/1999/xlink" x="0px" y="0px"
	 viewBox="0 0 387.573 271.669" enable-background="new 0 0 387.573 271.669" xml:space="preserve">
<title>Plane</title>
<path fill="#4EC3E8" stroke="#000000" stroke-miterlimit="10" d="M193.786,271.168h59.055c-12.667-25.332-28.333-26-28.333-26h-23
	l5.333-124.667c0,0,143-6.167,180-7.333c-17-42.167-70.667-43.833-70.667-43.833H211.341V32.002c0,0,0.663-31.681-15.167-31.5
	h-4.776c-15.811,0.236-15.167,31.5-15.167,31.5v37.333H71.398c0,0-53.668,1.666-70.668,43.832c37,1.167,180,7.333,180,7.333
	l5.333,124.667h-23c0,0-15.667,0.669-28.333,26L193.786,271.168"/>
<path fill="#159E1F" stroke="#000000" stroke-miterlimit="10" d="M51.153,115.073c38.73,1.558,86.711,3.593,112.028,4.675
	l0.24-11.262l-112-5C51.421,103.486,51.251,110.627,51.153,115.073z"/>
<path fill="#159E1F" stroke="#000000" stroke-miterlimit="10" d="M336.33,115.18c-38.73,1.558-86.711,3.593-112.028,4.675
	l-0.24-11.262l112-5C336.062,103.593,336.237,110.734,336.33,115.18z"/>
<polygon fill="#159E1F" stroke="#000000" stroke-miterlimit="10" points="154.731,271.169 154.731,258.153 232.841,258.153 
	232.841,271.153 "/>
<polygon fill="#159E1F" stroke="#000000" stroke-miterlimit="10" points="196.228,270.987 191.395,270.987 189.395,245.32 
	198.228,245.32 "/>
</svg>
