<?xml version="1.0" encoding="UTF-8" standalone="no"?>
<!-- Generator: Adobe Illustrator 19.2.0, SVG Export Plug-In . SVG Version: 6.00 Build 0)  -->

<svg
   xmlns:dc="http://purl.org/dc/elements/1.1/"
   xmlns:cc="http://creativecommons.org/ns#"
   xmlns:rdf="http://www.w3.org/1999/02/22-rdf-syntax-ns#"
   xmlns:svg="http://www.w3.org/2000/svg"
   xmlns="http://www.w3.org/2000/svg"
   xmlns:sodipodi="http://sodipodi.sourceforge.net/DTD/sodipodi-0.dtd"
   xmlns:inkscape="http://www.inkscape.org/namespaces/inkscape"
   version="1.1"
   id="draw"
   x="0px"
   y="0px"
   viewBox="0 0 369.161 369.857"
   enable-background="new 0 0 369.161 369.857"
   xml:space="preserve"
   sodipodi:docname="QuadRotorPlus.svg"
   inkscape:version="0.92.1 r"><metadata
     id="metadata7512"><rdf:RDF><cc:Work
         rdf:about=""><dc:format>image/svg+xml</dc:format><dc:type
           rdf:resource="http://purl.org/dc/dcmitype/StillImage" /><dc:title>QuadRotorPlus</dc:title></cc:Work></rdf:RDF></metadata><defs
     id="defs7510" /><sodipodi:namedview
     pagecolor="#ffffff"
     bordercolor="#666666"
     borderopacity="1"
     objecttolerance="10"
     gridtolerance="10"
     guidetolerance="10"
     inkscape:pageopacity="0"
     inkscape:pageshadow="2"
     inkscape:window-width="1920"
     inkscape:window-height="1019"
     id="namedview7508"
     showgrid="true"
     inkscape:zoom="2"
     inkscape:cx="179.28415"
     inkscape:cy="193.21557"
     inkscape:window-x="1920"
     inkscape:window-y="0"
     inkscape:window-maximized="1"
     inkscape:current-layer="draw"><inkscape:grid
       type="xygrid"
       id="grid8005" /></sodipodi:namedview><title
     id="title7473">QuadRotorPlus</title><rect
     x="181.192"
     y="51.713"
     fill="#FFFFFF"
     stroke="#000000"
     stroke-miterlimit="10"
     width="6.777"
     height="267.144"
     id="rect7475" /><rect
     x="50.999"
     y="181.896"
     fill="#FFFFFF"
     stroke="#000000"
     stroke-miterlimit="10"
     width="267.161"
     height="6.777"
     id="rect7477" /><path
     fill="#FFFFFF"
     stroke="#000000"
     stroke-miterlimit="10"
     d="M227.78,192.289l-36.195,36.195  c-3.869,3.869-10.141,3.869-14.009,0l-36.195-36.195c-3.869-3.869-3.869-10.141,0-14.009l36.195-36.195  c3.869-3.869,10.141-3.869,14.009,0l36.195,36.195C231.649,182.148,231.649,188.42,227.78,192.289z"
     id="path7479" /><polygon
     fill="#FF442B"
     stroke="#000000"
     stroke-miterlimit="10"
     points="166.403,207.285 184.58,156.285 202.758,207.285 "
     id="polygon7481" /><g
     opacity="0.8"
     id="g7485"><ellipse
       transform="matrix(0.7091 -0.7051 0.7051 0.7091 -38.092 278.2566)"
       fill="#4EC3E8"
       cx="318.162"
       cy="185.291"
       rx="50.993"
       ry="51.004"
       id="ellipse7483" /></g><path
     fill="#FFFFFF"
     stroke="#000000"
     stroke-miterlimit="10"
     d="M326.101,177.368c-4.374-4.384-11.473-4.393-15.858-0.019  c-4.384,4.374-4.393,11.473-0.019,15.858c4.365,4.375,11.447,4.394,15.835,0.042c4.397-4.335,4.446-11.414,0.111-15.811  C326.147,177.414,326.124,177.391,326.101,177.368z"
     id="path7487" /><g
     opacity="0.8"
     id="g7491"><ellipse
       transform="matrix(0.7091 -0.7051 0.7051 0.7091 -115.9983 89.944)"
       fill="#4EC3E8"
       cx="51"
       cy="185.546"
       rx="50.993"
       ry="51.004"
       id="ellipse7489" /></g><path
     fill="#FFFFFF"
     stroke="#000000"
     stroke-miterlimit="10"
     d="M43.059,193.459c4.374,4.384,11.473,4.393,15.858,0.019  c4.384-4.374,4.393-11.473,0.019-15.858c-4.365-4.375-11.447-4.394-15.835-0.042c-4.397,4.335-4.446,11.414-0.111,15.811  C43.013,193.413,43.036,193.436,43.059,193.459z"
     id="path7493" /><g
     opacity="0.8"
     id="g7497"><ellipse
       transform="matrix(0.7051 -0.7091 0.7091 0.7051 18.2994 145.9969)"
       fill="#159E1F"
       cx="184.694"
       cy="50.996"
       rx="50.993"
       ry="51.004"
       id="ellipse7495" /></g><path
     fill="#FFFFFF"
     stroke="#000000"
     stroke-miterlimit="10"
     d="M192.614,43.06c4.384,4.374,4.393,11.473,0.019,15.858  c-4.374,4.384-11.473,4.393-15.858,0.019c-4.375-4.365-4.394-11.447-0.042-15.835c4.335-4.397,11.414-4.446,15.811-0.111  C192.568,43.014,192.591,43.037,192.614,43.06z"
     id="path7499" /><g
     opacity="0.8"
     id="g7503"><ellipse
       transform="matrix(0.7051 -0.7091 0.7091 0.7051 -171.6616 224.8952)"
       fill="#159E1F"
       cx="184.58"
       cy="318.851"
       rx="50.993"
       ry="51.004"
       id="ellipse7501" /></g><path
     fill="#FFFFFF"
     stroke="#000000"
     stroke-miterlimit="10"
     d="M176.663,326.797c-4.384-4.374-4.393-11.473-0.019-15.858  c4.374-4.384,11.473-4.393,15.858-0.019c4.375,4.365,4.394,11.447,0.042,15.835c-4.335,4.397-11.414,4.446-15.811,0.111  C176.709,326.843,176.686,326.82,176.663,326.797z"
     id="path7505" /><path
     sodipodi:nodetypes="cccc"
     inkscape:connector-curvature="0"
     id="path7676"
     d="m 222.32718,69.684532 c 7.20007,-7.642839 8.44151,-12.486121 9.7217,-18.999749 l -12.18689,-0.125 c 2.57083,4.089977 3.31842,10.989681 2.46519,19.124749 z"
     style="opacity:1;fill:#ffffff;fill-opacity:1;fill-rule:evenodd;stroke:none;stroke-width:1px;stroke-linecap:butt;stroke-linejoin:miter;stroke-opacity:1" /><path
     sodipodi:type="spiral"
     style="opacity:1;fill:none;fill-opacity:1;fill-rule:evenodd;stroke:#ffffec;stroke-width:2.51338577;stroke-linecap:butt;stroke-linejoin:miter;stroke-miterlimit:4;stroke-dasharray:none;stroke-opacity:1"
     id="path7711"
     sodipodi:cx="197.5222"
     sodipodi:cy="17.012539"
     sodipodi:expansion="0"
     sodipodi:revolution="8.0200005"
     sodipodi:radius="34.011444"
     sodipodi:argument="-17.855951"
     sodipodi:t0="0.99130303"
     d="m 223.94673,38.425681 c -3.13084,3.863564 -7.10954,7.019918 -11.58403,9.189766"
     transform="rotate(-64.147051,221.67919,38.199567)" /><path
     style="opacity:1;fill:#ffffff;fill-opacity:1;fill-rule:evenodd;stroke:none;stroke-width:1px;stroke-linecap:butt;stroke-linejoin:miter;stroke-opacity:1"
     d="m 146.14509,32.365176 c -7.20007,7.642839 -8.44151,12.486121 -9.7217,18.999749 l 12.18689,0.125 c -2.57083,-4.089977 -3.31842,-10.989681 -2.46519,-19.124749 z"
     id="path7831"
     inkscape:connector-curvature="0"
     sodipodi:nodetypes="cccc" /><path
     transform="rotate(115.85295,176.1991,27.560976)"
     d="m 223.94673,38.425681 c -3.13084,3.863564 -7.10954,7.019918 -11.58403,9.189766"
     sodipodi:t0="0.99130303"
     sodipodi:argument="-17.855951"
     sodipodi:radius="34.011444"
     sodipodi:revolution="8.0200005"
     sodipodi:expansion="0"
     sodipodi:cy="17.012539"
     sodipodi:cx="197.5222"
     id="path7833"
     style="opacity:1;fill:none;fill-opacity:1;fill-rule:evenodd;stroke:#ffffec;stroke-width:2.51338577;stroke-linecap:butt;stroke-linejoin:miter;stroke-miterlimit:4;stroke-dasharray:none;stroke-opacity:1"
     sodipodi:type="spiral" /><path
     style="opacity:1;fill:#ffffff;fill-opacity:1;fill-rule:evenodd;stroke:none;stroke-width:1px;stroke-linecap:butt;stroke-linejoin:miter;stroke-opacity:1"
     d="m 222.85751,338.29284 c 7.20007,-7.64284 8.44151,-12.48612 9.7217,-18.99975 l -12.18689,-0.125 c 2.57083,4.08998 3.31842,10.98968 2.46519,19.12475 z"
     id="path7854"
     inkscape:connector-curvature="0"
     sodipodi:nodetypes="cccc" /><path
     transform="rotate(-64.147051,436.26345,172.08058)"
     d="m 223.94673,38.425681 c -3.13084,3.863564 -7.10954,7.019918 -11.58403,9.189766"
     sodipodi:t0="0.99130303"
     sodipodi:argument="-17.855951"
     sodipodi:radius="34.011444"
     sodipodi:revolution="8.0200005"
     sodipodi:expansion="0"
     sodipodi:cy="17.012539"
     sodipodi:cx="197.5222"
     id="path7856"
     style="opacity:1;fill:none;fill-opacity:1;fill-rule:evenodd;stroke:#ffffec;stroke-width:2.51338577;stroke-linecap:butt;stroke-linejoin:miter;stroke-miterlimit:4;stroke-dasharray:none;stroke-opacity:1"
     sodipodi:type="spiral" /><path
     sodipodi:nodetypes="cccc"
     inkscape:connector-curvature="0"
     id="path7858"
     d="m 146.67542,300.97348 c -7.20007,7.64284 -8.44151,12.48613 -9.7217,18.99975 l 12.18689,0.125 c -2.57083,-4.08997 -3.31842,-10.98968 -2.46519,-19.12475 z"
     style="opacity:1;fill:#ffffff;fill-opacity:1;fill-rule:evenodd;stroke:none;stroke-width:1px;stroke-linecap:butt;stroke-linejoin:miter;stroke-opacity:1" /><path
     sodipodi:type="spiral"
     style="opacity:1;fill:none;fill-opacity:1;fill-rule:evenodd;stroke:#ffffec;stroke-width:2.51338577;stroke-linecap:butt;stroke-linejoin:miter;stroke-miterlimit:4;stroke-dasharray:none;stroke-opacity:1"
     id="path7860"
     sodipodi:cx="197.5222"
     sodipodi:cy="17.012539"
     sodipodi:expansion="0"
     sodipodi:revolution="8.0200005"
     sodipodi:radius="34.011444"
     sodipodi:argument="-17.855951"
     sodipodi:t0="0.99130303"
     d="m 223.94673,38.425681 c -3.13084,3.863564 -7.10954,7.019918 -11.58403,9.189766"
     transform="rotate(115.85295,92.301882,162.0313)" /><path
     sodipodi:nodetypes="cccc"
     inkscape:connector-curvature="0"
     id="path7862"
     d="m 29.93915,147.12448 c 7.64284,-7.20007 12.48612,-8.44151 18.99975,-9.7217 l 0.125,12.18689 c -4.08998,-2.57083 -10.98968,-3.31842 -19.12475,-2.46519 z"
     style="opacity:1;fill:#ffffff;fill-opacity:1;fill-rule:evenodd;stroke:none;stroke-width:1px;stroke-linecap:butt;stroke-linejoin:miter;stroke-opacity:1" /><path
     sodipodi:type="spiral"
     style="opacity:1;fill:none;fill-opacity:1;fill-rule:evenodd;stroke:#ffffec;stroke-width:2.51338577;stroke-linecap:butt;stroke-linejoin:miter;stroke-miterlimit:4;stroke-dasharray:none;stroke-opacity:1"
     id="path7864"
     sodipodi:cx="197.5222"
     sodipodi:cy="17.012539"
     sodipodi:expansion="0"
     sodipodi:revolution="8.0200005"
     sodipodi:radius="34.011444"
     sodipodi:argument="-17.855951"
     sodipodi:t0="0.99130303"
     d="m 223.94673,38.425681 c -3.13084,3.863564 -7.10954,7.019918 -11.58403,9.189766"
     transform="matrix(0.89991617,-0.43606293,-0.43606293,-0.89991617,-121.41116,278.81496)" /><path
     style="opacity:1;fill:#ffffff;fill-opacity:1;fill-rule:evenodd;stroke:none;stroke-width:1px;stroke-linecap:butt;stroke-linejoin:miter;stroke-opacity:1"
     d="m 67.25851,223.30657 c -7.64284,7.20007 -12.48613,8.44151 -18.99975,9.7217 l -0.125,-12.18689 c 4.08997,2.57083 10.98968,3.31842 19.12475,2.46519 z"
     id="path7866"
     inkscape:connector-curvature="0"
     sodipodi:nodetypes="cccc" /><path
     transform="matrix(-0.89991617,0.43606294,0.43606294,0.89991617,218.6088,91.6161)"
     d="m 223.94673,38.425681 c -3.13084,3.863564 -7.10954,7.019918 -11.58403,9.189766"
     sodipodi:t0="0.99130303"
     sodipodi:argument="-17.855951"
     sodipodi:radius="34.011444"
     sodipodi:revolution="8.0200005"
     sodipodi:expansion="0"
     sodipodi:cy="17.012539"
     sodipodi:cx="197.5222"
     id="path7868"
     style="opacity:1;fill:none;fill-opacity:1;fill-rule:evenodd;stroke:#ffffec;stroke-width:2.51338577;stroke-linecap:butt;stroke-linejoin:miter;stroke-miterlimit:4;stroke-dasharray:none;stroke-opacity:1"
     sodipodi:type="spiral" /><path
     style="opacity:1;fill:#ffffff;fill-opacity:1;fill-rule:evenodd;stroke:none;stroke-width:1px;stroke-linecap:butt;stroke-linejoin:miter;stroke-opacity:1"
     d="m 298.31415,146.99948 c 7.64284,-7.20007 12.48612,-8.44151 18.99975,-9.7217 l 0.125,12.18689 c -4.08998,-2.57083 -10.98968,-3.31842 -19.12475,-2.46519 z"
     id="path7870"
     inkscape:connector-curvature="0"
     sodipodi:nodetypes="cccc" /><path
     transform="matrix(0.89991617,-0.43606293,-0.43606293,-0.89991617,146.96384,278.68996)"
     d="m 223.94673,38.425681 c -3.13084,3.863564 -7.10954,7.019918 -11.58403,9.189766"
     sodipodi:t0="0.99130303"
     sodipodi:argument="-17.855951"
     sodipodi:radius="34.011444"
     sodipodi:revolution="8.0200005"
     sodipodi:expansion="0"
     sodipodi:cy="17.012539"
     sodipodi:cx="197.5222"
     id="path7872"
     style="opacity:1;fill:none;fill-opacity:1;fill-rule:evenodd;stroke:#ffffec;stroke-width:2.51338577;stroke-linecap:butt;stroke-linejoin:miter;stroke-miterlimit:4;stroke-dasharray:none;stroke-opacity:1"
     sodipodi:type="spiral" /><path
     sodipodi:nodetypes="cccc"
     inkscape:connector-curvature="0"
     id="path7874"
     d="m 335.63351,223.18157 c -7.64284,7.20007 -12.48613,8.44151 -18.99975,9.7217 l -0.125,-12.18689 c 4.08997,2.57083 10.98968,3.31842 19.12475,2.46519 z"
     style="opacity:1;fill:#ffffff;fill-opacity:1;fill-rule:evenodd;stroke:none;stroke-width:1px;stroke-linecap:butt;stroke-linejoin:miter;stroke-opacity:1" /><path
     sodipodi:type="spiral"
     style="opacity:1;fill:none;fill-opacity:1;fill-rule:evenodd;stroke:#ffffec;stroke-width:2.51338577;stroke-linecap:butt;stroke-linejoin:miter;stroke-miterlimit:4;stroke-dasharray:none;stroke-opacity:1"
     id="path7876"
     sodipodi:cx="197.5222"
     sodipodi:cy="17.012539"
     sodipodi:expansion="0"
     sodipodi:revolution="8.0200005"
     sodipodi:radius="34.011444"
     sodipodi:argument="-17.855951"
     sodipodi:t0="0.99130303"
     d="m 223.94673,38.425681 c -3.13084,3.863564 -7.10954,7.019918 -11.58403,9.189766"
     transform="matrix(-0.89991617,0.43606294,0.43606294,0.89991617,486.9838,91.4911)" /><g
     aria-label="1"
     style="font-style:normal;font-variant:normal;font-weight:normal;font-stretch:normal;font-size:33.33333588px;line-height:125%;font-family:sans-serif;-inkscape-font-specification:sans-serif;letter-spacing:0px;word-spacing:0px;fill:#ffffff;fill-opacity:1;stroke:none;stroke-width:1px;stroke-linecap:butt;stroke-linejoin:miter;stroke-opacity:1"
     id="text7991"><path
       d="m 349.15201,180.12466 h -5.23333 v -2.1 q 3.4,-0.43334 4.4,-1.2 1,-0.73334 1.7,-3.1 0.0667,-0.2 0.13333,-0.4 h 1.93333 v 23.63333 h -2.93333 z"
       style="font-style:normal;font-variant:normal;font-weight:normal;font-stretch:normal;font-size:33.33333588px;font-family:FreeSans;-inkscape-font-specification:FreeSans;fill:#ffffff;fill-opacity:1"
       id="path8732" /></g><g
     aria-label="2"
     style="font-style:normal;font-variant:normal;font-weight:normal;font-stretch:normal;font-size:33.33333588px;line-height:125%;font-family:sans-serif;-inkscape-font-specification:sans-serif;letter-spacing:0px;word-spacing:0px;fill:#ffffff;fill-opacity:1;stroke:none;stroke-width:1px;stroke-linecap:butt;stroke-linejoin:miter;stroke-opacity:1"
     id="text7995"><path
       d="m 13.435345,181.64966 q 0.266666,-8.16667 7.8,-8.2 4.033334,0 6.166667,2.66666 1.4,1.83334 1.4,4.26667 -0.03333,4.4 -5,7.13334 l -3.333334,1.8 q -3.1,1.66666 -3.9,3.53333 -0.266667,0.6 -0.366667,1.33333 h 12.433335 v 2.9 H 12.902011 q 0.233333,-4.26666 1.9,-6.5 1.433334,-1.86666 4.733334,-3.73333 l 3.066667,-1.73334 q 3.166667,-1.86666 3.2,-4.66666 0,-2.4 -2,-3.7 -1.166667,-0.73334 -2.666667,-0.73334 -4.366667,0 -4.766667,5.43334 0,0.1 0,0.2 z"
       style="font-style:normal;font-variant:normal;font-weight:normal;font-stretch:normal;font-size:33.33333588px;font-family:FreeSans;-inkscape-font-specification:FreeSans;fill:#ffffff;fill-opacity:1"
       id="path8726" /></g><g
     aria-label="3"
     style="font-style:normal;font-variant:normal;font-weight:normal;font-stretch:normal;font-size:33.33333588px;line-height:125%;font-family:sans-serif;-inkscape-font-specification:sans-serif;letter-spacing:0px;word-spacing:0px;fill:#ffffff;fill-opacity:1;stroke:none;stroke-width:1px;stroke-linecap:butt;stroke-linejoin:miter;stroke-opacity:1"
     id="text7999"><path
       d="m 185.57997,9.8643582 q -3.8,0 -4.4,3.6666668 -0.0667,0.633334 -0.1,1.4 h -2.93333 q 0.13333,-7.0000003 6.33333,-7.6000003 0.53334,-0.033333 1.06667,-0.033333 4.66667,0 6.4,3.1333337 0.8,1.466667 0.8,3.366667 -0.0333,3.6 -3.3,4.9 3.1,1.066667 3.76667,3.6 0.23333,0.900001 0.23333,2.033334 0,4.1 -3.13333,6.1 -2.03334,1.266667 -4.86667,1.266667 -6.53334,0 -7.63334,-6.133334 -0.1,-0.733333 -0.16666,-1.5 h 2.93333 q 0.26667,4.400001 3.76667,4.933334 0.56667,0.1 1.2,0.1 3.46667,0 4.53333,-2.633334 0.36667,-0.966666 0.36667,-2.1 -0.0667,-4.266667 -4.9,-4.3 l -1.23333,0.03333 h -0.36667 v -2.5 q 3.76667,-0.06667 4.9,-1.1 0.9,-0.866667 0.9,-2.6 0,-2.833334 -2.33333,-3.733334 -0.83334,-0.2999998 -1.83334,-0.2999998 z"
       style="font-style:normal;font-variant:normal;font-weight:normal;font-stretch:normal;font-size:33.33333588px;font-family:FreeSans;-inkscape-font-specification:FreeSans;fill:#ffffff;fill-opacity:1"
       id="path8723" /></g><g
     aria-label="4"
     style="font-style:normal;font-variant:normal;font-weight:normal;font-stretch:normal;font-size:33.33333588px;line-height:125%;font-family:sans-serif;-inkscape-font-specification:sans-serif;letter-spacing:0px;word-spacing:0px;fill:#ffffff;fill-opacity:1;stroke:none;stroke-width:1px;stroke-linecap:butt;stroke-linejoin:miter;stroke-opacity:1"
     id="text8003"><path
       d="m 187.48118,356.35381 h -9.96667 v -3.1 l 10.73333,-14.86667 h 2.16667 v 15.33334 h 3.5 v 2.63333 h -3.5 v 5.66667 h -2.93333 z m 0,-2.63333 v -10.33334 l -7.4,10.33334 z"
       style="font-style:normal;font-variant:normal;font-weight:normal;font-stretch:normal;font-size:33.33333588px;font-family:FreeSans;-inkscape-font-specification:FreeSans;fill:#ffffff;fill-opacity:1"
       id="path8729" /></g></svg>