<?xml version="1.0" encoding="UTF-8" standalone="no"?>
<!-- Generator: Adobe Illustrator 19.2.0, SVG Export Plug-In . SVG Version: 6.00 Build 0)  -->

<svg
   xmlns:dc="http://purl.org/dc/elements/1.1/"
   xmlns:cc="http://creativecommons.org/ns#"
   xmlns:rdf="http://www.w3.org/1999/02/22-rdf-syntax-ns#"
   xmlns:svg="http://www.w3.org/2000/svg"
   xmlns="http://www.w3.org/2000/svg"
   xmlns:sodipodi="http://sodipodi.sourceforge.net/DTD/sodipodi-0.dtd"
   xmlns:inkscape="http://www.inkscape.org/namespaces/inkscape"
   version="1.1"
   id="draw"
   x="0px"
   y="0px"
   viewBox="0 0 369.157 369.144"
   enable-background="new 0 0 369.157 369.144"
   xml:space="preserve"
   sodipodi:docname="QuadRotorH.svg"
   inkscape:version="0.92.2 (5c3e80d, 2017-08-06)"><metadata
     id="metadata43"><rdf:RDF><cc:Work
         rdf:about=""><dc:format>image/svg+xml</dc:format><dc:type
           rdf:resource="http://purl.org/dc/dcmitype/StillImage" /><dc:title>QuadRotorH</dc:title></cc:Work></rdf:RDF></metadata><defs
     id="defs41" /><sodipodi:namedview
     pagecolor="#ffffff"
     bordercolor="#666666"
     borderopacity="1"
     objecttolerance="10"
     gridtolerance="10"
     guidetolerance="10"
     inkscape:pageopacity="0"
     inkscape:pageshadow="2"
     inkscape:window-width="1756"
     inkscape:window-height="1346"
     id="namedview39"
     showgrid="false"
     inkscape:zoom="1.8082612"
     inkscape:cx="266.71163"
     inkscape:cy="223.05313"
     inkscape:window-x="3673"
     inkscape:window-y="548"
     inkscape:window-maximized="0"
     inkscape:current-layer="draw" /><title
     id="title2">QuadRotorH</title><rect
     x="181.189"
     y="51"
     fill="#FFFFFF"
     stroke="#000000"
     stroke-miterlimit="10"
     width="6.777"
     height="267.144"
     id="rect4" /><rect
     x="50.997"
     y="47.611"
     fill="#FFFFFF"
     stroke="#000000"
     stroke-miterlimit="10"
     width="267.161"
     height="6.777"
     id="rect6" /><rect
     x="50.997"
     y="314.755"
     fill="#FFFFFF"
     stroke="#000000"
     stroke-miterlimit="10"
     width="267.161"
     height="6.777"
     id="rect8" /><path
     fill="#FFFFFF"
     stroke="#000000"
     stroke-miterlimit="10"
     d="M227.777,191.576l-36.195,36.195  c-3.869,3.869-10.141,3.869-14.009,0l-36.195-36.195c-3.869-3.869-3.869-10.141,0-14.009l36.195-36.195  c3.869-3.869,10.141-3.869,14.009,0l36.195,36.195C231.646,181.435,231.646,187.707,227.777,191.576z"
     id="path10" /><polygon
     fill="#FF442B"
     stroke="#000000"
     stroke-miterlimit="10"
     points="166.4,206.572 184.577,155.572 202.755,206.572 "
     id="polygon12" /><g
     opacity="0.8"
     id="g16"><ellipse
       transform="matrix(0.7091 -0.7051 0.7051 0.7091 -131.7794 316.9061)"
       fill="#4EC3E8"
       cx="318.156"
       cy="318.151"
       rx="50.993"
       ry="51.004"
       id="ellipse14" /></g><path
     fill="#FFFFFF"
     stroke="#000000"
     stroke-miterlimit="10"
     d="M326.098,310.226c-4.374-4.384-11.473-4.393-15.858-0.019  c-4.384,4.374-4.393,11.473-0.019,15.858c4.365,4.375,11.447,4.394,15.835,0.042c4.397-4.335,4.446-11.414,0.111-15.811  C326.144,310.272,326.121,310.249,326.098,310.226z"
     id="path18" /><g
     opacity="0.8"
     id="g22"><ellipse
       transform="matrix(0.7091 -0.7051 0.7051 0.7091 -20.9416 51.3481)"
       fill="#4EC3E8"
       cx="51.756"
       cy="51.052"
       rx="50.993"
       ry="51.004"
       id="ellipse20" /></g><path
     fill="#FFFFFF"
     stroke="#000000"
     stroke-miterlimit="10"
     d="M43.056,58.964c4.374,4.384,11.473,4.393,15.858,0.019  c4.384-4.374,4.393-11.473,0.019-15.858c-4.365-4.375-11.447-4.394-15.835-0.042c-4.397,4.335-4.446,11.414-0.111,15.811  C43.01,58.918,43.033,58.941,43.056,58.964z"
     id="path24" /><g
     opacity="0.8"
     id="g28"><ellipse
       transform="matrix(0.7051 -0.7091 0.7091 0.7051 57.6535 240.6302)"
       fill="#159E1F"
       cx="318.157"
       cy="50.993"
       rx="50.993"
       ry="51.004"
       id="ellipse26" /></g><path
     fill="#FFFFFF"
     stroke="#000000"
     stroke-miterlimit="10"
     d="M326.074,43.059c4.384,4.374,4.393,11.473,0.019,15.858  c-4.374,4.384-11.473,4.393-15.858,0.019c-4.375-4.365-4.394-11.447-0.042-15.835c4.335-4.397,11.414-4.446,15.811-0.111  C326.028,43.013,326.051,43.036,326.074,43.059z"
     id="path30" /><g
     opacity="0.8"
     id="g34"><ellipse
       transform="matrix(0.7051 -0.7091 0.7091 0.7051 -210.5423 129.9658)"
       fill="#159E1F"
       cx="50.998"
       cy="318.136"
       rx="50.993"
       ry="51.004"
       id="ellipse32" /></g><path
     fill="#FFFFFF"
     stroke="#000000"
     stroke-miterlimit="10"
     d="M43.079,326.084c-4.384-4.374-4.393-11.473-0.019-15.858  c4.374-4.384,11.473-4.393,15.858-0.019c4.375,4.365,4.394,11.447,0.042,15.835c-4.335,4.397-11.414,4.446-15.811,0.111  C43.125,326.13,43.102,326.107,43.079,326.084z"
     id="path36" /><path
     style="opacity:1;fill:#ffffff;fill-opacity:1;fill-rule:evenodd;stroke:none;stroke-width:0.97671419px;stroke-linecap:butt;stroke-linejoin:miter;stroke-opacity:1"
     d="M 16.289912,70.088217 C 9.5801094,62.264457 8.4231997,57.306516 7.2301782,50.638688 L 18.587247,50.51068 c -2.395782,4.186802 -3.092467,11.249841 -2.297335,19.577494 z"
     id="path7870-7-2"
     inkscape:connector-curvature="0"
     sodipodi:nodetypes="cccc" /><path
     sodipodi:nodetypes="cccc"
     inkscape:connector-curvature="0"
     id="path7874-3-7"
     d="m 87.28472,31.885385 c 6.709803,7.823776 7.866719,12.781717 9.059738,19.449544 l -11.357079,0.128009 c 2.395786,-4.186788 3.092475,-11.24984 2.297341,-19.577495 z"
     style="opacity:1;fill:#ffffff;fill-opacity:1;fill-rule:evenodd;stroke:none;stroke-width:0.97671419px;stroke-linecap:butt;stroke-linejoin:miter;stroke-opacity:1" /><path
     sodipodi:type="spiral"
     style="opacity:1;fill:none;fill-opacity:1;fill-rule:evenodd;stroke:#ffffec;stroke-width:2.51338577;stroke-linecap:butt;stroke-linejoin:miter;stroke-miterlimit:4;stroke-dasharray:none;stroke-opacity:1"
     id="path7876-5-5"
     sodipodi:cx="197.5222"
     sodipodi:cy="17.012539"
     sodipodi:expansion="0"
     sodipodi:revolution="8.0200005"
     sodipodi:radius="34.011444"
     sodipodi:argument="-17.855951"
     sodipodi:t0="0.99130303"
     d="m 223.94673,38.425681 c -3.13084,3.863564 -7.10954,7.019918 -11.58403,9.189766"
     transform="matrix(0.40637112,0.92121996,0.8386403,-0.4463859,-35.438866,-123.04785)" /><path
     style="opacity:1;fill:#ffffff;fill-opacity:1;fill-rule:evenodd;stroke:none;stroke-width:0.96619457px;stroke-linecap:butt;stroke-linejoin:miter;stroke-opacity:1"
     d="m 85.694079,336.67296 c 6.637551,-7.73951 7.781992,-12.64403 8.962162,-19.24005 l -11.234746,-0.12663 c 2.369968,4.14171 3.059154,11.12868 2.272584,19.36664 z"
     id="path14492-1"
     inkscape:connector-curvature="0"
     sodipodi:nodetypes="cccc" /><path
     transform="matrix(0.40199437,-0.91129813,0.82960786,0.44157817,-35.707725,489.93753)"
     d="m 223.94673,38.425681 c -3.13084,3.863564 -7.10954,7.019918 -11.58403,9.189766"
     sodipodi:t0="0.99130303"
     sodipodi:argument="-17.855951"
     sodipodi:radius="34.011444"
     sodipodi:revolution="8.0200005"
     sodipodi:expansion="0"
     sodipodi:cy="17.012539"
     sodipodi:cx="197.5222"
     id="path14494-8"
     style="opacity:1;fill:none;fill-opacity:1;fill-rule:evenodd;stroke:#ffffec;stroke-width:2.51338577;stroke-linecap:butt;stroke-linejoin:miter;stroke-miterlimit:4;stroke-dasharray:none;stroke-opacity:1"
     sodipodi:type="spiral" /><path
     sodipodi:nodetypes="cccc"
     inkscape:connector-curvature="0"
     id="path14496-7"
     d="m 15.463915,298.8816 c -6.6375408,7.7395 -7.7819903,12.64404 -8.9621625,19.24005 l 11.2347605,0.12663 c -2.369982,-4.14169 -3.059168,-11.12867 -2.272598,-19.36662 z"
     style="opacity:1;fill:#ffffff;fill-opacity:1;fill-rule:evenodd;stroke:none;stroke-width:0.96619457px;stroke-linecap:butt;stroke-linejoin:miter;stroke-opacity:1" /><path
     sodipodi:type="spiral"
     style="opacity:1;fill:none;fill-opacity:1;fill-rule:evenodd;stroke:#ffffec;stroke-width:2.51338577;stroke-linecap:butt;stroke-linejoin:miter;stroke-miterlimit:4;stroke-dasharray:none;stroke-opacity:1"
     id="path14498-9"
     sodipodi:cx="197.5222"
     sodipodi:cy="17.012539"
     sodipodi:expansion="0"
     sodipodi:revolution="8.0200005"
     sodipodi:radius="34.011444"
     sodipodi:argument="-17.855951"
     sodipodi:t0="0.99130303"
     d="m 223.94673,38.425681 c -3.13084,3.863564 -7.10954,7.019918 -11.58403,9.189766"
     transform="matrix(-0.40199439,0.91129812,-0.82960785,-0.44157818,136.86574,145.61707)" /><path
     style="opacity:1;fill:#ffffff;fill-opacity:1;fill-rule:evenodd;stroke:none;stroke-width:0.9341985px;stroke-linecap:butt;stroke-linejoin:miter;stroke-opacity:1"
     d="m 352.52684,68.985943 c 6.41774,-7.483211 7.5243,-12.225323 8.66538,-18.602906 L 350.3295,50.2606 c 2.29151,4.004555 2.95787,10.760144 2.19734,18.725302 z"
     id="path14492-3"
     inkscape:connector-curvature="0"
     sodipodi:nodetypes="cccc" /><path
     transform="matrix(0.38868211,-0.88111999,0.80213494,0.42695506,235.14532,217.17506)"
     d="m 223.94673,38.425681 c -3.13084,3.863564 -7.10954,7.019918 -11.58403,9.189766"
     sodipodi:t0="0.99130303"
     sodipodi:argument="-17.855951"
     sodipodi:radius="34.011444"
     sodipodi:revolution="8.0200005"
     sodipodi:expansion="0"
     sodipodi:cy="17.012539"
     sodipodi:cx="197.5222"
     id="path14494-6"
     style="opacity:1;fill:none;fill-opacity:1;fill-rule:evenodd;stroke:#ffffec;stroke-width:2.51338577;stroke-linecap:butt;stroke-linejoin:miter;stroke-miterlimit:4;stroke-dasharray:none;stroke-opacity:1"
     sodipodi:type="spiral" /><path
     sodipodi:nodetypes="cccc"
     inkscape:connector-curvature="0"
     id="path14496-0"
     d="m 284.62239,32.446078 c -6.41775,7.483198 -7.52431,12.225324 -8.66539,18.602907 l 10.86272,0.122437 c -2.29151,-4.004555 -2.95785,-10.760158 -2.19733,-18.725303 z"
     style="opacity:1;fill:#ffffff;fill-opacity:1;fill-rule:evenodd;stroke:none;stroke-width:0.9341985px;stroke-linecap:butt;stroke-linejoin:miter;stroke-opacity:1" /><path
     sodipodi:type="spiral"
     style="opacity:1;fill:none;fill-opacity:1;fill-rule:evenodd;stroke:#ffffec;stroke-width:2.51338577;stroke-linecap:butt;stroke-linejoin:miter;stroke-miterlimit:4;stroke-dasharray:none;stroke-opacity:1"
     id="path14498-6"
     sodipodi:cx="197.5222"
     sodipodi:cy="17.012539"
     sodipodi:expansion="0"
     sodipodi:revolution="8.0200005"
     sodipodi:radius="34.011444"
     sodipodi:argument="-17.855951"
     sodipodi:t0="0.99130303"
     d="m 223.94673,38.425681 c -3.13084,3.863564 -7.10954,7.019918 -11.58403,9.189766"
     transform="matrix(-0.38868212,0.88111998,-0.80213493,-0.42695507,402.00393,-115.74305)" /><path
     transform="matrix(-0.40637112,-0.92121996,-0.8386403,0.44638589,139.01352,225.02144)"
     d="m 223.94673,38.425681 c -3.13084,3.863564 -7.10954,7.019918 -11.58403,9.189766"
     sodipodi:t0="0.99130303"
     sodipodi:argument="-17.855951"
     sodipodi:radius="34.011444"
     sodipodi:revolution="8.0200005"
     sodipodi:expansion="0"
     sodipodi:cy="17.012539"
     sodipodi:cx="197.5222"
     id="path7872-1"
     style="opacity:1;fill:none;fill-opacity:1;fill-rule:evenodd;stroke:#ffffec;stroke-width:2.51338577;stroke-linecap:butt;stroke-linejoin:miter;stroke-miterlimit:4;stroke-dasharray:none;stroke-opacity:1"
     sodipodi:type="spiral" /><path
     style="opacity:1;fill:#ffffff;fill-opacity:1;fill-rule:evenodd;stroke:none;stroke-width:0.97623712px;stroke-linecap:butt;stroke-linejoin:miter;stroke-opacity:1"
     d="m 281.78757,336.85235 c -6.70653,-7.81995 -7.86288,-12.77546 -9.05531,-19.44003 l 11.35152,-0.12794 c -2.39461,4.18476 -3.09095,11.24434 -2.29621,19.56793 z"
     id="path7870-7"
     inkscape:connector-curvature="0"
     sodipodi:nodetypes="cccc" /><path
     transform="matrix(-0.40617267,-0.92077007,-0.83823073,0.44616789,404.45123,491.70992)"
     d="m 223.94673,38.425681 c -3.13084,3.863564 -7.10954,7.019918 -11.58403,9.189766"
     sodipodi:t0="0.99130303"
     sodipodi:argument="-17.855951"
     sodipodi:radius="34.011444"
     sodipodi:revolution="8.0200005"
     sodipodi:expansion="0"
     sodipodi:cy="17.012539"
     sodipodi:cx="197.5222"
     id="path7872-5"
     style="opacity:1;fill:none;fill-opacity:1;fill-rule:evenodd;stroke:#ffffec;stroke-width:2.51338577;stroke-linecap:butt;stroke-linejoin:miter;stroke-miterlimit:4;stroke-dasharray:none;stroke-opacity:1"
     sodipodi:type="spiral" /><path
     sodipodi:nodetypes="cccc"
     inkscape:connector-curvature="0"
     id="path7874-3"
     d="m 352.7477,298.66819 c 6.70653,7.81994 7.86288,12.77548 9.05531,19.44003 l -11.35153,0.12796 c 2.39462,-4.18475 3.09096,-11.24436 2.29622,-19.56793 z"
     style="opacity:1;fill:#ffffff;fill-opacity:1;fill-rule:evenodd;stroke:none;stroke-width:0.97623712px;stroke-linecap:butt;stroke-linejoin:miter;stroke-opacity:1" /><path
     sodipodi:type="spiral"
     style="opacity:1;fill:none;fill-opacity:1;fill-rule:evenodd;stroke:#ffffec;stroke-width:2.51338577;stroke-linecap:butt;stroke-linejoin:miter;stroke-miterlimit:4;stroke-dasharray:none;stroke-opacity:1"
     id="path7876-5"
     sodipodi:cx="197.5222"
     sodipodi:cy="17.012539"
     sodipodi:expansion="0"
     sodipodi:revolution="8.0200005"
     sodipodi:radius="34.011444"
     sodipodi:argument="-17.855951"
     sodipodi:t0="0.99130303"
     d="m 223.94673,38.425681 c -3.13084,3.863564 -7.10954,7.019918 -11.58403,9.189766"
     transform="matrix(0.40617267,0.92077007,0.83823073,-0.4461679,230.08405,143.81063)" /><g
     aria-label="3"
     transform="scale(0.95412701,1.0480785)"
     style="font-style:normal;font-variant:normal;font-weight:normal;font-stretch:normal;font-size:34.22340775px;line-height:125%;font-family:sans-serif;-inkscape-font-specification:sans-serif;letter-spacing:0px;word-spacing:0px;fill:#ffffff;fill-opacity:1;stroke:none;stroke-width:1.02670217px;stroke-linecap:butt;stroke-linejoin:miter;stroke-opacity:1"
     id="text14502"><path
       d="m 54.049795,8.0700766 q -3.901468,0 -4.51749,3.7645744 -0.06845,0.650245 -0.10267,1.437384 h -3.01166 q 0.136894,-7.1869161 6.502448,-7.8029374 0.547574,-0.034223 1.095149,-0.034223 4.791277,0 6.570894,3.2170003 0.821362,1.5058295 0.821362,3.4565645 -0.03422,3.696128 -3.388118,5.030841 3.182777,1.095149 3.867245,3.696128 0.239564,0.924032 0.239564,2.087628 0,4.209479 -3.217,6.262883 -2.087628,1.30049 -4.996618,1.30049 -6.707788,0 -7.83716,-6.297107 -0.10267,-0.752915 -0.171117,-1.540054 h 3.01166 q 0.273787,4.51749 3.867245,5.065065 0.581798,0.10267 1.232043,0.10267 3.559234,0 4.654383,-2.703649 0.376458,-0.992479 0.376458,-2.156075 -0.06845,-4.380596 -5.030841,-4.41482 l -1.266266,0.03422 h -0.376458 v -2.566756 q 3.867245,-0.06845 5.030841,-1.129372 0.924032,-0.889809 0.924032,-2.669426 0,-2.9089898 -2.395639,-3.8330218 -0.855585,-0.3080106 -1.882287,-0.3080106 z"
       style="font-style:normal;font-variant:normal;font-weight:normal;font-stretch:normal;font-size:34.22340775px;font-family:FreeSans;-inkscape-font-specification:FreeSans;fill:#ffffff;fill-opacity:1;stroke-width:1.02670217px"
       id="path4619" /></g><g
     aria-label="4"
     transform="scale(0.95412701,1.0480785)"
     style="font-style:normal;font-variant:normal;font-weight:normal;font-stretch:normal;font-size:32.54124069px;line-height:125%;font-family:sans-serif;-inkscape-font-specification:sans-serif;letter-spacing:0px;word-spacing:0px;fill:#ffffff;fill-opacity:1;stroke:none;stroke-width:0.97623712px;stroke-linecap:butt;stroke-linejoin:miter;stroke-opacity:1"
     id="text7999-0"><path
       d="m 335.6144,341.2219 h -9.72983 v -3.02634 l 10.47828,-14.51339 h 2.11518 v 14.96897 h 3.41683 v 2.57076 h -3.41683 v 5.53201 h -2.86363 z m 0,-2.57076 v -10.08779 l -7.22415,10.08779 z"
       style="font-style:normal;font-variant:normal;font-weight:normal;font-stretch:normal;font-size:32.54124069px;font-family:FreeSans;-inkscape-font-specification:FreeSans;fill:#ffffff;fill-opacity:1;stroke-width:0.97623712px"
       id="path4613" /></g><g
     aria-label="1"
     transform="scale(0.95412701,1.0480785)"
     style="font-style:normal;font-variant:normal;font-weight:normal;font-stretch:normal;font-size:31.13995361px;line-height:125%;font-family:sans-serif;-inkscape-font-specification:sans-serif;letter-spacing:0px;word-spacing:0px;fill:#ffffff;fill-opacity:1;stroke:none;stroke-width:0.9341985px;stroke-linecap:butt;stroke-linejoin:miter;stroke-opacity:1"
     id="text7991"><path
       d="m 333.47324,11.267936 h -4.88898 V 9.3061186 q 3.17628,-0.4048194 4.11048,-1.1210383 0.9342,-0.685079 1.58814,-2.8960157 0.0623,-0.1868397 0.12456,-0.3736794 h 1.80611 V 26.993612 h -2.74031 z"
       style="font-style:normal;font-variant:normal;font-weight:normal;font-stretch:normal;font-size:31.13995361px;font-family:FreeSans;-inkscape-font-specification:FreeSans;fill:#ffffff;fill-opacity:1;stroke-width:0.9341985px"
       id="path4616" /></g><g
     aria-label="2"
     transform="scale(0.95412701,1.0480785)"
     style="font-style:normal;font-variant:normal;font-weight:normal;font-stretch:normal;font-size:32.20648956px;line-height:125%;font-family:sans-serif;-inkscape-font-specification:sans-serif;letter-spacing:0px;word-spacing:0px;fill:#ffffff;fill-opacity:1;stroke:none;stroke-width:0.96619457px;stroke-linecap:butt;stroke-linejoin:miter;stroke-opacity:1"
     id="text7991-1"><path
       d="m 46.495037,331.13554 q 0.257652,-7.89058 7.536318,-7.92279 3.896985,0 5.958201,2.57652 1.352672,1.77135 1.352672,4.12243 -0.03221,4.25126 -4.830973,6.89219 l -3.220649,1.73915 q -2.995204,1.61032 -3.768159,3.41389 -0.257652,0.57971 -0.354272,1.28826 h 12.013021 v 2.80196 H 45.979733 q 0.225445,-4.12243 1.83577,-6.28027 1.384879,-1.80356 4.573321,-3.60712 l 2.962997,-1.67474 q 3.059617,-1.80356 3.091823,-4.50891 0,-2.31887 -1.932389,-3.57492 -1.127227,-0.70854 -2.576519,-0.70854 -4.21905,0 -4.605528,5.24966 0,0.0966 0,0.19323 z"
       style="font-style:normal;font-variant:normal;font-weight:normal;font-stretch:normal;font-size:32.20648956px;font-family:FreeSans;-inkscape-font-specification:FreeSans;fill:#ffffff;fill-opacity:1;stroke-width:0.96619457px"
       id="path4610" /></g></svg>