<?xml version="1.0" encoding="UTF-8" standalone="no"?>
<!-- Generator: Adobe Illustrator 19.2.0, SVG Export Plug-In . SVG Version: 6.00 Build 0)  -->

<svg
   xmlns:dc="http://purl.org/dc/elements/1.1/"
   xmlns:cc="http://creativecommons.org/ns#"
   xmlns:rdf="http://www.w3.org/1999/02/22-rdf-syntax-ns#"
   xmlns:svg="http://www.w3.org/2000/svg"
   xmlns="http://www.w3.org/2000/svg"
   xmlns:sodipodi="http://sodipodi.sourceforge.net/DTD/sodipodi-0.dtd"
   xmlns:inkscape="http://www.inkscape.org/namespaces/inkscape"
   version="1.1"
   id="draw"
   x="0px"
   y="0px"
   viewBox="0 0 291.424 291.77"
   enable-background="new 0 0 291.424 291.77"
   xml:space="preserve"
   sodipodi:docname="QuadRotorX.svg"
   inkscape:version="0.92.1 r"><metadata
     id="metadata13908"><rdf:RDF><cc:Work
         rdf:about=""><dc:format>image/svg+xml</dc:format><dc:type
           rdf:resource="http://purl.org/dc/dcmitype/StillImage" /><dc:title>QuadRotorX</dc:title></cc:Work></rdf:RDF></metadata><defs
     id="defs13906" /><sodipodi:namedview
     pagecolor="#ffffff"
     bordercolor="#666666"
     borderopacity="1"
     objecttolerance="10"
     gridtolerance="10"
     guidetolerance="10"
     inkscape:pageopacity="0"
     inkscape:pageshadow="2"
     inkscape:window-width="1920"
     inkscape:window-height="1019"
     id="namedview13904"
     showgrid="true"
     showguides="false"
     inkscape:zoom="2.2877912"
     inkscape:cx="101.84959"
     inkscape:cy="140.70645"
     inkscape:window-x="1920"
     inkscape:window-y="0"
     inkscape:window-maximized="1"
     inkscape:current-layer="draw"><inkscape:grid
       type="xygrid"
       id="grid14610" /></sodipodi:namedview><title
     id="title13869">QuadRotorX</title><rect
     x="12.073"
     y="142.822"
     transform="matrix(0.7071 -0.7071 0.7071 0.7071 -60.7283 145.8108)"
     fill="#FFFFFF"
     stroke="#000000"
     stroke-miterlimit="10"
     width="267.144"
     height="6.777"
     id="rect13871" /><rect
     x="142.257"
     y="12.631"
     transform="matrix(0.7071 -0.7071 0.7071 0.7071 -60.7285 145.8111)"
     fill="#FFFFFF"
     stroke="#000000"
     stroke-miterlimit="10"
     width="6.777"
     height="267.161"
     id="rect13873" /><path
     fill="#FFFFFF"
     stroke="#000000"
     stroke-miterlimit="10"
     d="M188.845,153.215l-36.195,36.195  c-3.869,3.869-10.141,3.869-14.009,0l-36.195-36.195c-3.869-3.869-3.869-10.141,0-14.009l36.195-36.195  c3.869-3.869,10.141-3.869,14.009,0l36.195,36.195C192.714,143.075,192.714,149.347,188.845,153.215z"
     id="path13875" /><polygon
     fill="#FF442B"
     stroke="#000000"
     stroke-miterlimit="10"
     points="127.468,168.211 145.645,117.211 163.823,168.211 "
     id="polygon13877" /><g
     opacity="0.8"
     id="g13881"><ellipse
       transform="matrix(0.7091 -0.7051 0.7051 0.7091 33.5429 184.5558)"
       fill="#4EC3E8"
       cx="240.427"
       cy="51.629"
       rx="50.993"
       ry="51.004"
       id="ellipse13879" /></g><path
     fill="#FFFFFF"
     stroke="#000000"
     stroke-miterlimit="10"
     d="M248.364,43.704c-4.374-4.384-11.473-4.393-15.858-0.019  c-4.384,4.374-4.393,11.473-0.019,15.858c4.365,4.375,11.447,4.394,15.835,0.042c4.397-4.335,4.446-11.414,0.111-15.811  C248.41,43.75,248.387,43.727,248.364,43.704z"
     id="path13883" /><g
     opacity="0.8"
     id="g13887"><ellipse
       transform="matrix(0.7091 -0.7051 0.7051 0.7091 -154.7855 106.4043)"
       fill="#4EC3E8"
       cx="51.554"
       cy="240.78"
       rx="50.993"
       ry="51.004"
       id="ellipse13885" /></g><path
     fill="#FFFFFF"
     stroke="#000000"
     stroke-miterlimit="10"
     d="M43.612,248.69c4.374,4.384,11.473,4.393,15.858,0.019  c4.384-4.374,4.393-11.473,0.019-15.858c-4.365-4.375-11.447-4.394-15.835-0.042c-4.397,4.335-4.446,11.414-0.111,15.811  C43.566,248.644,43.589,248.667,43.612,248.69z"
     id="path13889" /><g
     opacity="0.8"
     id="g13893"><ellipse
       transform="matrix(0.7051 -0.7091 0.7091 0.7051 -21.1223 51.1938)"
       fill="#159E1F"
       cx="50.994"
       cy="50.994"
       rx="50.993"
       ry="51.004"
       id="ellipse13891" /></g><path
     fill="#FFFFFF"
     stroke="#000000"
     stroke-miterlimit="10"
     d="M58.914,43.059c4.384,4.374,4.393,11.473,0.019,15.858  c-4.374,4.384-11.473,4.393-15.858,0.019c-4.375-4.365-4.394-11.447-0.042-15.835c4.335-4.397,11.414-4.446,15.811-0.111  C58.868,43.013,58.891,43.036,58.914,43.059z"
     id="path13895" /><g
     opacity="0.8"
     id="g13899"><ellipse
       transform="matrix(0.7051 -0.7091 0.7091 0.7051 -99.7395 241.3889)"
       fill="#159E1F"
       cx="240.373"
       cy="240.62"
       rx="50.993"
       ry="51.004"
       id="ellipse13897" /></g><path
     fill="#FFFFFF"
     stroke="#000000"
     stroke-miterlimit="10"
     d="M232.459,248.567c-4.384-4.374-4.393-11.473-0.019-15.858  c4.374-4.384,11.473-4.393,15.858-0.019c4.375,4.365,4.394,11.447,0.042,15.835c-4.335,4.397-11.414,4.446-15.811,0.111  C232.505,248.613,232.482,248.59,232.459,248.567z"
     id="path13901" /><path
     sodipodi:nodetypes="cccc"
     inkscape:connector-curvature="0"
     id="path7676"
     d="m 88.62718,69.683532 c 7.20007,-7.642839 8.44151,-12.486121 9.7217,-18.999749 l -12.18689,-0.125 c 2.57083,4.089977 3.31842,10.989681 2.46519,19.124749 z"
     style="opacity:1;fill:#ffffff;fill-opacity:1;fill-rule:evenodd;stroke:none;stroke-width:1px;stroke-linecap:butt;stroke-linejoin:miter;stroke-opacity:1" /><path
     sodipodi:type="spiral"
     style="opacity:1;fill:none;fill-opacity:1;fill-rule:evenodd;stroke:#ffffec;stroke-width:2.51338577;stroke-linecap:butt;stroke-linejoin:miter;stroke-miterlimit:4;stroke-dasharray:none;stroke-opacity:1"
     id="path7711"
     sodipodi:cx="197.5222"
     sodipodi:cy="17.012539"
     sodipodi:expansion="0"
     sodipodi:revolution="8.0200005"
     sodipodi:radius="34.011444"
     sodipodi:argument="-17.855951"
     sodipodi:t0="0.99130303"
     d="m 223.94673,38.425681 c -3.13084,3.863564 -7.10954,7.019918 -11.58403,9.189766"
     transform="rotate(-64.147051,154.82839,144.87656)" /><path
     style="opacity:1;fill:#ffffff;fill-opacity:1;fill-rule:evenodd;stroke:none;stroke-width:1px;stroke-linecap:butt;stroke-linejoin:miter;stroke-opacity:1"
     d="M 12.44509,32.364176 C 5.24502,40.007015 4.00358,44.850297 2.72339,51.363925 l 12.18689,0.125 C 12.33945,47.398948 11.59186,40.499244 12.44509,32.364176 Z"
     id="path7831"
     inkscape:connector-curvature="0"
     sodipodi:nodetypes="cccc" /><path
     transform="rotate(115.85295,109.34942,-14.331417)"
     d="m 223.94673,38.425681 c -3.13084,3.863564 -7.10954,7.019918 -11.58403,9.189766"
     sodipodi:t0="0.99130303"
     sodipodi:argument="-17.855951"
     sodipodi:radius="34.011444"
     sodipodi:revolution="8.0200005"
     sodipodi:expansion="0"
     sodipodi:cy="17.012539"
     sodipodi:cx="197.5222"
     id="path7833"
     style="opacity:1;fill:none;fill-opacity:1;fill-rule:evenodd;stroke:#ffffec;stroke-width:2.51338577;stroke-linecap:butt;stroke-linejoin:miter;stroke-miterlimit:4;stroke-dasharray:none;stroke-opacity:1"
     sodipodi:type="spiral" />
     <path
     style="opacity:1;fill:#ffffff;fill-opacity:1;fill-rule:evenodd;stroke:none;stroke-width:1px;stroke-linecap:butt;stroke-linejoin:miter;stroke-opacity:1"
     d="m 88.62718,69.683532 c 7.20007,-7.642839 8.44151,-12.486121 9.7217,-18.999749 l -12.18689,-0.125 c 2.57083,4.089977 3.31842,10.989681 2.46519,19.124749 z"
     id="path14492"
     inkscape:connector-curvature="0"
     sodipodi:nodetypes="cccc" /><path
     transform="rotate(-64.147051,154.82839,144.87656)"
     d="m 223.94673,38.425681 c -3.13084,3.863564 -7.10954,7.019918 -11.58403,9.189766"
     sodipodi:t0="0.99130303"
     sodipodi:argument="-17.855951"
     sodipodi:radius="34.011444"
     sodipodi:revolution="8.0200005"
     sodipodi:expansion="0"
     sodipodi:cy="17.012539"
     sodipodi:cx="197.5222"
     id="path14494"
     style="opacity:1;fill:none;fill-opacity:1;fill-rule:evenodd;stroke:#ffffec;stroke-width:2.51338577;stroke-linecap:butt;stroke-linejoin:miter;stroke-miterlimit:4;stroke-dasharray:none;stroke-opacity:1"
     sodipodi:type="spiral" /><path
     sodipodi:nodetypes="cccc"
     inkscape:connector-curvature="0"
     id="path14496"
     d="M 12.44509,32.364176 C 5.24502,40.007015 4.00358,44.850297 2.72339,51.363925 l 12.18689,0.125 C 12.33945,47.398948 11.59186,40.499244 12.44509,32.364176 Z"
     style="opacity:1;fill:#ffffff;fill-opacity:1;fill-rule:evenodd;stroke:none;stroke-width:1px;stroke-linecap:butt;stroke-linejoin:miter;stroke-opacity:1" /><path
     sodipodi:type="spiral"
     style="opacity:1;fill:none;fill-opacity:1;fill-rule:evenodd;stroke:#ffffec;stroke-width:2.51338577;stroke-linecap:butt;stroke-linejoin:miter;stroke-miterlimit:4;stroke-dasharray:none;stroke-opacity:1"
     id="path14498"
     sodipodi:cx="197.5222"
     sodipodi:cy="17.012539"
     sodipodi:expansion="0"
     sodipodi:revolution="8.0200005"
     sodipodi:radius="34.011444"
     sodipodi:argument="-17.855951"
     sodipodi:t0="0.99130303"
     d="m 223.94673,38.425681 c -3.13084,3.863564 -7.10954,7.019918 -11.58403,9.189766"
     transform="rotate(115.85295,109.34942,-14.331417)" /><g
     aria-label="3"
     style="font-style:normal;font-variant:normal;font-weight:normal;font-stretch:normal;font-size:33.33333588px;line-height:125%;font-family:sans-serif;-inkscape-font-specification:sans-serif;letter-spacing:0px;word-spacing:0px;fill:#ffffff;fill-opacity:1;stroke:none;stroke-width:1px;stroke-linecap:butt;stroke-linejoin:miter;stroke-opacity:1"
     id="text14502"><path
       d="m 51.879975,9.8633587 q -3.8,0 -4.4,3.6666673 -0.06667,0.633333 -0.1,1.4 h -2.933334 q 0.133333,-7.0000007 6.333334,-7.6000008 0.533333,-0.033333 1.066667,-0.033333 4.666667,0 6.4,3.1333331 0.8,1.466667 0.8,3.366667 -0.03333,3.600001 -3.3,4.900001 3.1,1.066666 3.766667,3.6 0.233333,0.9 0.233333,2.033334 0,4.1 -3.133333,6.1 -2.033334,1.266667 -4.866667,1.266667 -6.533334,0 -7.633334,-6.133334 -0.1,-0.733333 -0.166667,-1.5 h 2.933334 q 0.266666,4.4 3.766667,4.933334 0.566666,0.1 1.2,0.1 3.466667,0 4.533333,-2.633334 0.366667,-0.966667 0.366667,-2.1 -0.06667,-4.266667 -4.9,-4.3 l -1.233334,0.03333 h -0.366666 v -2.5 q 3.766667,-0.06667 4.9,-1.1 0.9,-0.866667 0.9,-2.600001 0,-2.833333 -2.333333,-3.733333 -0.833334,-0.3000003 -1.833334,-0.3000003 z"
       style="font-style:normal;font-variant:normal;font-weight:normal;font-stretch:normal;font-size:33.33333588px;font-family:FreeSans;-inkscape-font-specification:FreeSans;fill:#ffffff;fill-opacity:1"
       id="path15402" /></g><path
     sodipodi:nodetypes="cccc"
     inkscape:connector-curvature="0"
     id="path7676-2"
     d="m 277.82678,259.43511 c 7.20007,-7.64284 8.44151,-12.48612 9.7217,-18.99975 l -12.18689,-0.125 c 2.57083,4.08998 3.31842,10.98968 2.46519,19.12475 z"
     style="opacity:1;fill:#ffffff;fill-opacity:1;fill-rule:evenodd;stroke:none;stroke-width:1px;stroke-linecap:butt;stroke-linejoin:miter;stroke-opacity:1" /><path
     sodipodi:type="spiral"
     style="opacity:1;fill:none;fill-opacity:1;fill-rule:evenodd;stroke:#ffffec;stroke-width:2.51338577;stroke-linecap:butt;stroke-linejoin:miter;stroke-miterlimit:4;stroke-dasharray:none;stroke-opacity:1"
     id="path7711-9"
     sodipodi:cx="197.5222"
     sodipodi:cy="17.012539"
     sodipodi:expansion="0"
     sodipodi:revolution="8.0200005"
     sodipodi:radius="34.011444"
     sodipodi:argument="-17.855951"
     sodipodi:t0="0.99130303"
     d="m 223.94673,38.425681 c -3.13084,3.863564 -7.10954,7.019918 -11.58403,9.189766"
     transform="rotate(-64.147051,400.82851,88.792438)" /><path
     style="opacity:1;fill:#ffffff;fill-opacity:1;fill-rule:evenodd;stroke:none;stroke-width:1px;stroke-linecap:butt;stroke-linejoin:miter;stroke-opacity:1"
     d="m 201.64469,222.11575 c -7.20007,7.64284 -8.44151,12.48612 -9.7217,18.99975 l 12.18689,0.125 c -2.57083,-4.08998 -3.31842,-10.98968 -2.46519,-19.12475 z"
     id="path7831-7"
     inkscape:connector-curvature="0"
     sodipodi:nodetypes="cccc" /><path
     transform="rotate(115.85295,144.49483,139.82581)"
     d="m 223.94673,38.425681 c -3.13084,3.863564 -7.10954,7.019918 -11.58403,9.189766"
     sodipodi:t0="0.99130303"
     sodipodi:argument="-17.855951"
     sodipodi:radius="34.011444"
     sodipodi:revolution="8.0200005"
     sodipodi:expansion="0"
     sodipodi:cy="17.012539"
     sodipodi:cx="197.5222"
     id="path7833-9"
     style="opacity:1;fill:none;fill-opacity:1;fill-rule:evenodd;stroke:#ffffec;stroke-width:2.51338577;stroke-linecap:butt;stroke-linejoin:miter;stroke-miterlimit:4;stroke-dasharray:none;stroke-opacity:1"
     sodipodi:type="spiral" /><g
     aria-label="4"
     style="font-style:normal;font-variant:normal;font-weight:normal;font-stretch:normal;font-size:33.33333588px;line-height:125%;font-family:sans-serif;-inkscape-font-specification:sans-serif;letter-spacing:0px;word-spacing:0px;fill:#ffffff;fill-opacity:1;stroke:none;stroke-width:1px;stroke-linecap:butt;stroke-linejoin:miter;stroke-opacity:1"
     id="text7999-0"><path
       d="m 242.54247,279.26903 h -9.96667 v -3.1 l 10.73334,-14.86667 h 2.16667 v 15.33334 h 3.5 v 2.63333 h -3.5 v 5.66667 h -2.93334 z m 0,-2.63333 v -10.33334 l -7.4,10.33334 z"
       style="font-style:normal;font-variant:normal;font-weight:normal;font-stretch:normal;font-size:33.33333588px;font-family:FreeSans;-inkscape-font-specification:FreeSans;fill:#ffffff;fill-opacity:1"
       id="path15408" /></g><path
     style="opacity:1;fill:#ffffff;fill-opacity:1;fill-rule:evenodd;stroke:none;stroke-width:1px;stroke-linecap:butt;stroke-linejoin:miter;stroke-opacity:1"
     d="m 201.2554,70.183883 c -7.20006,-7.64284 -8.4415,-12.48612 -9.72169,-18.99975 l 12.18688,-0.125 c -2.57083,4.08998 -3.31842,10.98968 -2.46519,19.12475 z"
     id="path7870"
     inkscape:connector-curvature="0"
     sodipodi:nodetypes="cccc" /><path
     transform="matrix(-0.43606293,-0.89991617,-0.89991617,0.43606293,332.94589,221.53419)"
     d="m 223.94673,38.425681 c -3.13084,3.863564 -7.10954,7.019918 -11.58403,9.189766"
     sodipodi:t0="0.99130303"
     sodipodi:argument="-17.855951"
     sodipodi:radius="34.011444"
     sodipodi:revolution="8.0200005"
     sodipodi:expansion="0"
     sodipodi:cy="17.012539"
     sodipodi:cx="197.5222"
     id="path7872"
     style="opacity:1;fill:none;fill-opacity:1;fill-rule:evenodd;stroke:#ffffec;stroke-width:2.51338577;stroke-linecap:butt;stroke-linejoin:miter;stroke-miterlimit:4;stroke-dasharray:none;stroke-opacity:1"
     sodipodi:type="spiral" /><path
     sodipodi:nodetypes="cccc"
     inkscape:connector-curvature="0"
     id="path7874"
     d="m 277.43749,32.864523 c 7.20007,7.64284 8.44151,12.48613 9.7217,18.99975 l -12.18689,0.125 c 2.57083,-4.08997 3.31842,-10.98968 2.46519,-19.12475 z"
     style="opacity:1;fill:#ffffff;fill-opacity:1;fill-rule:evenodd;stroke:none;stroke-width:1px;stroke-linecap:butt;stroke-linejoin:miter;stroke-opacity:1" /><path
     sodipodi:type="spiral"
     style="opacity:1;fill:none;fill-opacity:1;fill-rule:evenodd;stroke:#ffffec;stroke-width:2.51338577;stroke-linecap:butt;stroke-linejoin:miter;stroke-miterlimit:4;stroke-dasharray:none;stroke-opacity:1"
     id="path7876"
     sodipodi:cx="197.5222"
     sodipodi:cy="17.012539"
     sodipodi:expansion="0"
     sodipodi:revolution="8.0200005"
     sodipodi:radius="34.011444"
     sodipodi:argument="-17.855951"
     sodipodi:t0="0.99130303"
     d="m 223.94673,38.425681 c -3.13084,3.863564 -7.10954,7.019918 -11.58403,9.189766"
     transform="matrix(0.43606294,0.89991617,0.89991617,-0.43606294,145.74702,-118.48578)" /><g
     aria-label="1"
     style="font-style:normal;font-variant:normal;font-weight:normal;font-stretch:normal;font-size:33.33333588px;line-height:125%;font-family:sans-serif;-inkscape-font-specification:sans-serif;letter-spacing:0px;word-spacing:0px;fill:#ffffff;fill-opacity:1;stroke:none;stroke-width:1px;stroke-linecap:butt;stroke-linejoin:miter;stroke-opacity:1"
     id="text7991"><path
       d="m 241.0804,13.716487 h -5.23333 v -2.1 q 3.4,-0.433333 4.4,-1.2 1,-0.7333334 1.7,-3.1000003 0.0667,-0.2 0.13333,-0.4 h 1.93333 V 30.549822 h -2.93333 z"
       style="font-style:normal;font-variant:normal;font-weight:normal;font-stretch:normal;font-size:33.33333588px;font-family:FreeSans;-inkscape-font-specification:FreeSans;fill:#ffffff;fill-opacity:1"
       id="path15405" /></g><path
     style="opacity:1;fill:#ffffff;fill-opacity:1;fill-rule:evenodd;stroke:none;stroke-width:1px;stroke-linecap:butt;stroke-linejoin:miter;stroke-opacity:1"
     d="m 12.024441,259.21182 c -7.20007,-7.64284 -8.44151,-12.48612 -9.7217,-18.99975 l 12.18689,-0.125 c -2.57083,4.08998 -3.31842,10.98968 -2.46519,19.12475 z"
     id="path7870-5"
     inkscape:connector-curvature="0"
     sodipodi:nodetypes="cccc" /><path
     transform="matrix(-0.43606293,-0.89991617,-0.89991617,0.43606293,143.71492,410.56213)"
     d="m 223.94673,38.425681 c -3.13084,3.863564 -7.10954,7.019918 -11.58403,9.189766"
     sodipodi:t0="0.99130303"
     sodipodi:argument="-17.855951"
     sodipodi:radius="34.011444"
     sodipodi:revolution="8.0200005"
     sodipodi:expansion="0"
     sodipodi:cy="17.012539"
     sodipodi:cx="197.5222"
     id="path7872-2"
     style="opacity:1;fill:none;fill-opacity:1;fill-rule:evenodd;stroke:#ffffec;stroke-width:2.51338577;stroke-linecap:butt;stroke-linejoin:miter;stroke-miterlimit:4;stroke-dasharray:none;stroke-opacity:1"
     sodipodi:type="spiral" /><path
     sodipodi:nodetypes="cccc"
     inkscape:connector-curvature="0"
     id="path7874-1"
     d="m 88.206531,221.89246 c 7.20007,7.64284 8.44151,12.48613 9.7217,18.99975 l -12.18689,0.125 c 2.57083,-4.08997 3.31842,-10.98968 2.46519,-19.12475 z"
     style="opacity:1;fill:#ffffff;fill-opacity:1;fill-rule:evenodd;stroke:none;stroke-width:1px;stroke-linecap:butt;stroke-linejoin:miter;stroke-opacity:1" /><path
     sodipodi:type="spiral"
     style="opacity:1;fill:none;fill-opacity:1;fill-rule:evenodd;stroke:#ffffec;stroke-width:2.51338577;stroke-linecap:butt;stroke-linejoin:miter;stroke-miterlimit:4;stroke-dasharray:none;stroke-opacity:1"
     id="path7876-6"
     sodipodi:cx="197.5222"
     sodipodi:cy="17.012539"
     sodipodi:expansion="0"
     sodipodi:revolution="8.0200005"
     sodipodi:radius="34.011444"
     sodipodi:argument="-17.855951"
     sodipodi:t0="0.99130303"
     d="m 223.94673,38.425681 c -3.13084,3.863564 -7.10954,7.019918 -11.58403,9.189766"
     transform="matrix(0.43606294,0.89991617,0.89991617,-0.43606294,-43.483939,70.542171)" /><g
     aria-label="2"
     style="font-style:normal;font-variant:normal;font-weight:normal;font-stretch:normal;font-size:33.33333588px;line-height:125%;font-family:sans-serif;-inkscape-font-specification:sans-serif;letter-spacing:0px;word-spacing:0px;fill:#ffffff;fill-opacity:1;stroke:none;stroke-width:1px;stroke-linecap:butt;stroke-linejoin:miter;stroke-opacity:1"
     id="text7991-1"><path
       d="m 44.183421,269.769 q 0.266667,-8.16667 7.800001,-8.2 4.033333,0 6.166667,2.66666 1.4,1.83334 1.4,4.26667 -0.03333,4.4 -5.000001,7.13333 l -3.333333,1.8 q -3.1,1.66667 -3.9,3.53334 -0.266667,0.6 -0.366667,1.33333 h 12.433334 v 2.9 H 43.650088 q 0.233333,-4.26667 1.9,-6.5 1.433333,-1.86667 4.733333,-3.73333 l 3.066667,-1.73334 q 3.166667,-1.86666 3.200001,-4.66666 0,-2.4 -2.000001,-3.7 -1.166666,-0.73334 -2.666666,-0.73334 -4.366667,0 -4.766667,5.43334 0,0.1 0,0.2 z"
       style="font-style:normal;font-variant:normal;font-weight:normal;font-stretch:normal;font-size:33.33333588px;font-family:FreeSans;-inkscape-font-specification:FreeSans;fill:#ffffff;fill-opacity:1"
       id="path15399" /></g></svg>
