<?xml version="1.0" encoding="UTF-8" standalone="no"?>
<svg
   width="290.46487"
   height="230"
   viewBox="0 0 76.852165 60.854166"
   version="1.1"
   id="svg8"
   inkscape:version="1.3.2 (091e20e, 2023-11-25)"
   sodipodi:docname="RobsubTopology6DofUUV.svg"
   xml:space="preserve"
   inkscape:export-filename="RobsubTopology6Dof_WIP.png"
   inkscape:export-xdpi="400"
   inkscape:export-ydpi="400"
   xmlns:inkscape="http://www.inkscape.org/namespaces/inkscape"
   xmlns:sodipodi="http://sodipodi.sourceforge.net/DTD/sodipodi-0.dtd"
   xmlns="http://www.w3.org/2000/svg"
   xmlns:svg="http://www.w3.org/2000/svg"
   xmlns:rdf="http://www.w3.org/1999/02/22-rdf-syntax-ns#"
   xmlns:cc="http://creativecommons.org/ns#"
   xmlns:dc="http://purl.org/dc/elements/1.1/"><defs
     id="defs2"><rect
       x="141.87739"
       y="152.15837"
       width="14.099617"
       height="19.974457"
       id="rect7" /><rect
       x="118.76609"
       y="2.3618257"
       width="68.492945"
       height="29.691523"
       id="rect13" /><rect
       x="173.42549"
       y="8.4350918"
       width="49.935743"
       height="20.581624"
       id="rect12" /><rect
       x="117.41648"
       y="11.809128"
       width="46.224303"
       height="20.919028"
       id="rect11" /><rect
       x="114.04244"
       y="8.0976881"
       width="67.143331"
       height="20.581624"
       id="rect10" /><rect
       x="118.09128"
       y="8.7724954"
       width="63.769294"
       height="21.931239"
       id="rect9" /><rect
       x="118.09128"
       y="2.3618257"
       width="54.659395"
       height="27.667101"
       id="rect8" /><rect
       x="134.65996"
       y="150.24045"
       width="16.248227"
       height="28.490041"
       id="rect2" /></defs><sodipodi:namedview
     id="base"
     pagecolor="#ffffff"
     bordercolor="#666666"
     borderopacity="1.0"
     inkscape:pageopacity="0.0"
     inkscape:pageshadow="2"
     inkscape:zoom="1.8090421"
     inkscape:cx="94.801553"
     inkscape:cy="111.38491"
     inkscape:document-units="mm"
     inkscape:current-layer="layer1"
     inkscape:document-rotation="0"
     showgrid="true"
     units="px"
     inkscape:snap-object-midpoints="true"
     fit-margin-top="0"
     fit-margin-left="0"
     fit-margin-right="0"
     fit-margin-bottom="0"
     inkscape:window-width="1920"
     inkscape:window-height="954"
     inkscape:window-x="0"
     inkscape:window-y="25"
     inkscape:window-maximized="0"
     inkscape:showpageshadow="2"
     inkscape:pagecheckerboard="0"
     inkscape:deskcolor="#d1d1d1"><inkscape:grid
       type="xygrid"
       id="grid1537"
       units="px"
       originx="5.3531666"
       originy="-2.6458333"
       spacingy="1"
       spacingx="1"
       visible="true" /></sodipodi:namedview><metadata
     id="metadata5"><rdf:RDF><cc:Work
         rdf:about=""><dc:format>image/svg+xml</dc:format><dc:type
           rdf:resource="http://purl.org/dc/dcmitype/StillImage" /></cc:Work></rdf:RDF></metadata><g
     inkscape:label="Layer 1"
     inkscape:groupmode="layer"
     id="layer1"
     transform="translate(5.3531666,-2.6458333)"
     style="display:inline"><path
       style="display:inline;fill:#ffffff;fill-opacity:1;stroke:#000000;stroke-width:0.123;stroke-linecap:butt;stroke-linejoin:miter;stroke-miterlimit:4;stroke-dasharray:none;stroke-opacity:1"
       d="m 56.885417,59.531251 c 0,0 14.552083,-7.937499 14.552083,-13.229166 V 19.843751 c 0,-5.291667 -14.552083,-13.2291687 -14.552083,-13.2291687 z"
       id="path1713-2"
       sodipodi:nodetypes="csscc" /><path
       style="display:inline;fill:#ffffff;fill-opacity:1;stroke:#000000;stroke-width:0.123;stroke-linecap:butt;stroke-linejoin:miter;stroke-miterlimit:4;stroke-dasharray:none;stroke-opacity:1"
       d="m 9.2604166,6.6145832 c 0,0 -14.5520832,7.9374998 -14.5520832,13.2291668 v 26.458333 c 0,5.291667 14.5520832,13.229166 14.5520832,13.229166 z"
       id="path1713"
       sodipodi:nodetypes="csscc" /><path
       style="display:inline;fill:#000000;stroke-width:0.0255612"
       d="m 2.9982816,28.251677 c -0.05672,0.121042 -0.228775,0.116215 -0.306709,0.01902 -0.163411,-0.129567 -0.32243,-0.264528 -0.483246,-0.397274 -0.0025,0.788892 -0.0051,1.577784 -0.0076,2.366677 -0.04433,0.08055 -0.150976,0.126613 -0.233208,0.07723 -0.13126,-0.06154 -0.06233,-0.23148 -0.08125,-0.346238 -0.0025,-0.700151 -9.48e-4,-1.40031 -0.0014,-2.100465 -0.190083,0.154674 -0.374904,0.316295 -0.572123,0.461811 -0.106147,0.05341 -0.280784,-0.0509 -0.214427,-0.173282 0.170863,-0.176377 0.373272,-0.319485 0.558972,-0.479815 0.106964,-0.08388 0.207762,-0.178126 0.319123,-0.255007 0.137288,-0.04923 0.224625,0.08038 0.322089,0.150212 0.229998,0.191226 0.462602,0.379632 0.686924,0.577484 0.01811,0.02933 0.02324,0.06696 0.01282,0.09965 z"
       id="path1-8-4" /><rect
       style="display:inline;opacity:1;fill:#ffffff;fill-opacity:1;stroke:#000000;stroke-width:0.123;stroke-miterlimit:4;stroke-dasharray:none;stroke-opacity:1"
       id="rect1704"
       width="47.567089"
       height="60.731167"
       x="9.2304821"
       y="2.6484427"
       ry="2.6458337"
       rx="2.6458337" /><polygon
       transform="matrix(0.15224775,0,0,0.15224775,10.898716,11.420795)"
       style="display:inline;fill:#ff442b;stroke:#000000;stroke-miterlimit:10"
       stroke-miterlimit="10"
       points="163.823,168.211 127.468,168.211 145.645,117.211 "
       id="polygon13877" /><ellipse
       style="display:inline;opacity:0.8;fill:#159e1f;stroke-width:0.124;stroke-miterlimit:4;stroke-dasharray:none"
       transform="rotate(-45.162058)"
       cx="-16.826557"
       cy="63.823418"
       rx="6.3229508"
       ry="6.3243146"
       id="ellipse13891-6-5" /><g
       id="g2881-6-9-8"
       transform="translate(30.471713,34.006193)"
       style="display:none"
       inkscape:label="thruster_2_dir"><path
         sodipodi:nodetypes="cccc"
         inkscape:connector-curvature="0"
         id="path7862-0-7-5"
         d="M 0.04774379,18.392512 C 0.95771944,17.535253 1.5343724,17.387444 2.3099015,17.235022 l 0.014883,1.451001 C 1.8378211,18.379934 1.0163256,18.290924 0.04774379,18.392512 Z"
         style="fill:#ffffff;fill-opacity:1;fill-rule:evenodd;stroke:none;stroke-width:0.119062px;stroke-linecap:butt;stroke-linejoin:miter;stroke-opacity:1" /><path
         sodipodi:type="spiral"
         style="fill:none;fill-opacity:1;fill-rule:evenodd;stroke:#ffffec;stroke-width:2.51339;stroke-linecap:butt;stroke-linejoin:miter;stroke-miterlimit:4;stroke-dasharray:none;stroke-opacity:1"
         id="path7864-4-7-6"
         sodipodi:cx="197.5222"
         sodipodi:cy="17.012539"
         sodipodi:expansion="0"
         sodipodi:revolution="8.0200005"
         sodipodi:radius="34.011444"
         sodipodi:argument="-17.855951"
         sodipodi:t0="0.99130303"
         transform="matrix(0.10714627,-0.05191874,-0.05191874,-0.10714627,-17.972401,34.071909)"
         d="m 223.94673,38.425681 c -3.13084,3.863564 -7.10954,7.019918 -11.58403,9.189766" /><path
         style="fill:#ffffff;fill-opacity:1;fill-rule:evenodd;stroke:none;stroke-width:0.119062px;stroke-linecap:butt;stroke-linejoin:miter;stroke-opacity:1"
         d="M 4.4910801,27.462941 C 3.5811045,28.3202 3.0044503,28.468009 2.2289224,28.620431 L 2.2140395,27.16943 c 0.4869621,0.306089 1.3084588,0.395099 2.2770406,0.293511 z"
         id="path7866-8-6-7"
         inkscape:connector-curvature="0"
         sodipodi:nodetypes="cccc" /><path
         transform="matrix(-0.10714627,0.05191875,0.05191875,0.10714627,22.511224,11.783545)"
         sodipodi:t0="0.99130303"
         sodipodi:argument="-17.855951"
         sodipodi:radius="34.011444"
         sodipodi:revolution="8.0200005"
         sodipodi:expansion="0"
         sodipodi:cy="17.012539"
         sodipodi:cx="197.5222"
         id="path7868-88-4-9"
         style="fill:none;fill-opacity:1;fill-rule:evenodd;stroke:#ffffec;stroke-width:2.51339;stroke-linecap:butt;stroke-linejoin:miter;stroke-miterlimit:4;stroke-dasharray:none;stroke-opacity:1"
         sodipodi:type="spiral"
         d="m 223.94673,38.425681 c -3.13084,3.863564 -7.10954,7.019918 -11.58403,9.189766" /></g><ellipse
       style="display:inline;opacity:0.8;fill:#159e1f;stroke-width:0.124;stroke-miterlimit:4;stroke-dasharray:none"
       transform="rotate(-45.162058)"
       cx="4.9214125"
       cy="18.089907"
       rx="6.3229508"
       ry="6.3243146"
       id="ellipse13891-6-5-6" /><g
       id="g2881-6-9-8-5"
       transform="translate(14.028319,-13.531682)"
       inkscape:label="thruster_3_dir"
       style="display:none"><path
         sodipodi:nodetypes="cccc"
         inkscape:connector-curvature="0"
         id="path7862-0-7-5-3"
         d="M 0.04774379,18.392512 C 0.95771944,17.535253 1.5343724,17.387444 2.3099015,17.235022 l 0.014883,1.451001 C 1.8378211,18.379934 1.0163256,18.290924 0.04774379,18.392512 Z"
         style="fill:#ffffff;fill-opacity:1;fill-rule:evenodd;stroke:none;stroke-width:0.119062px;stroke-linecap:butt;stroke-linejoin:miter;stroke-opacity:1" /><path
         sodipodi:type="spiral"
         style="fill:none;fill-opacity:1;fill-rule:evenodd;stroke:#ffffec;stroke-width:2.51339;stroke-linecap:butt;stroke-linejoin:miter;stroke-miterlimit:4;stroke-dasharray:none;stroke-opacity:1"
         id="path7864-4-7-6-1"
         sodipodi:cx="197.5222"
         sodipodi:cy="17.012539"
         sodipodi:expansion="0"
         sodipodi:revolution="8.0200005"
         sodipodi:radius="34.011444"
         sodipodi:argument="-17.855951"
         sodipodi:t0="0.99130303"
         transform="matrix(0.10714627,-0.05191874,-0.05191874,-0.10714627,-17.972401,34.071909)"
         d="m 223.94673,38.425681 c -3.13084,3.863564 -7.10954,7.019918 -11.58403,9.189766" /><path
         style="fill:#ffffff;fill-opacity:1;fill-rule:evenodd;stroke:none;stroke-width:0.119062px;stroke-linecap:butt;stroke-linejoin:miter;stroke-opacity:1"
         d="M 4.4910801,27.462941 C 3.5811045,28.3202 3.0044503,28.468009 2.2289224,28.620431 L 2.2140395,27.16943 c 0.4869621,0.306089 1.3084588,0.395099 2.2770406,0.293511 z"
         id="path7866-8-6-7-0"
         inkscape:connector-curvature="0"
         sodipodi:nodetypes="cccc" /><path
         transform="matrix(-0.10714627,0.05191875,0.05191875,0.10714627,22.511224,11.783545)"
         sodipodi:t0="0.99130303"
         sodipodi:argument="-17.855951"
         sodipodi:radius="34.011444"
         sodipodi:revolution="8.0200005"
         sodipodi:expansion="0"
         sodipodi:cy="17.012539"
         sodipodi:cx="197.5222"
         id="path7868-88-4-9-1"
         style="fill:none;fill-opacity:1;fill-rule:evenodd;stroke:#ffffec;stroke-width:2.51339;stroke-linecap:butt;stroke-linejoin:miter;stroke-miterlimit:4;stroke-dasharray:none;stroke-opacity:1"
         sodipodi:type="spiral"
         d="m 223.94673,38.425681 c -3.13084,3.863564 -7.10954,7.019918 -11.58403,9.189766" /></g><ellipse
       style="opacity:0.8;fill:#159e1f;stroke-width:0.124;stroke-miterlimit:4;stroke-dasharray:none"
       transform="rotate(-45.162058)"
       cx="28.547659"
       cy="41.925453"
       rx="6.3229508"
       ry="6.3243146"
       id="ellipse13891-6-5-6-5"
       inkscape:label="ellipse13891-6-5-6-5" /><g
       id="g2881-6-9-8-5-7"
       transform="translate(47.589159,-13.609186)"
       inkscape:label="thruster_4_dir"
       style="display:none"><path
         sodipodi:nodetypes="cccc"
         inkscape:connector-curvature="0"
         id="path7862-0-7-5-3-6"
         d="M 0.04774379,18.392512 C 0.95771944,17.535253 1.5343724,17.387444 2.3099015,17.235022 l 0.014883,1.451001 C 1.8378211,18.379934 1.0163256,18.290924 0.04774379,18.392512 Z"
         style="fill:#ffffff;fill-opacity:1;fill-rule:evenodd;stroke:none;stroke-width:0.119062px;stroke-linecap:butt;stroke-linejoin:miter;stroke-opacity:1" /><path
         sodipodi:type="spiral"
         style="fill:none;fill-opacity:1;fill-rule:evenodd;stroke:#ffffec;stroke-width:2.51339;stroke-linecap:butt;stroke-linejoin:miter;stroke-miterlimit:4;stroke-dasharray:none;stroke-opacity:1"
         id="path7864-4-7-6-1-8"
         sodipodi:cx="197.5222"
         sodipodi:cy="17.012539"
         sodipodi:expansion="0"
         sodipodi:revolution="8.0200005"
         sodipodi:radius="34.011444"
         sodipodi:argument="-17.855951"
         sodipodi:t0="0.99130303"
         transform="matrix(0.10714627,-0.05191874,-0.05191874,-0.10714627,-17.972401,34.071909)"
         d="m 223.94673,38.425681 c -3.13084,3.863564 -7.10954,7.019918 -11.58403,9.189766" /><path
         style="fill:#ffffff;fill-opacity:1;fill-rule:evenodd;stroke:none;stroke-width:0.119062px;stroke-linecap:butt;stroke-linejoin:miter;stroke-opacity:1"
         d="M 4.4910801,27.462941 C 3.5811045,28.3202 3.0044503,28.468009 2.2289224,28.620431 L 2.2140395,27.16943 c 0.4869621,0.306089 1.3084588,0.395099 2.2770406,0.293511 z"
         id="path7866-8-6-7-0-5"
         inkscape:connector-curvature="0"
         sodipodi:nodetypes="cccc" /><path
         transform="matrix(-0.10714627,0.05191875,0.05191875,0.10714627,22.511224,11.783545)"
         sodipodi:t0="0.99130303"
         sodipodi:argument="-17.855951"
         sodipodi:radius="34.011444"
         sodipodi:revolution="8.0200005"
         sodipodi:expansion="0"
         sodipodi:cy="17.012539"
         sodipodi:cx="197.5222"
         id="path7868-88-4-9-1-4"
         style="fill:none;fill-opacity:1;fill-rule:evenodd;stroke:#ffffec;stroke-width:2.51339;stroke-linecap:butt;stroke-linejoin:miter;stroke-miterlimit:4;stroke-dasharray:none;stroke-opacity:1"
         sodipodi:type="spiral"
         d="m 223.94673,38.425681 c -3.13084,3.863564 -7.10954,7.019918 -11.58403,9.189766" /></g><rect
       style="opacity:0.8;fill:#0e232e;stroke-width:0.228"
       id="rect1-4-9"
       width="10"
       height="5"
       x="59.122005"
       y="30.572916"
       inkscape:label="rect1-4-9" /><g
       aria-label="1"
       style="font-style:normal;font-variant:normal;font-weight:normal;font-stretch:normal;font-size:33.3333px;line-height:125%;font-family:sans-serif;-inkscape-font-specification:sans-serif;letter-spacing:0px;word-spacing:0px;display:inline;fill:#ffffff;fill-opacity:1;stroke:none;stroke-width:2px;stroke-linecap:butt;stroke-linejoin:miter;stroke-opacity:1"
       id="text7991-10"
       transform="matrix(0.13229167,0,0,0.13229166,18.087081,11.035535)"><path
         d="m 349.13053,161.56512 h -5.23334 v -2.1 q 3.4,-0.43334 4.4,-1.2 1,-0.73334 1.7,-3.1 0.0667,-0.2 0.13334,-0.4 h 1.93333 v 23.63333 h -2.93333 z"
         style="font-style:normal;font-variant:normal;font-weight:normal;font-stretch:normal;font-size:33.3333px;font-family:FreeSans;-inkscape-font-specification:FreeSans;fill:#ffffff;fill-opacity:1;stroke-width:2px"
         id="path4473" /></g><rect
       style="display:inline;opacity:0.8;fill:#0e232e;stroke-width:0.228"
       id="rect1-4-9-5"
       width="10"
       height="5"
       x="-2.9563696"
       y="30.572916" /><g
       id="g1"
       transform="translate(0.97370996,-1.0570845)"><rect
         style="opacity:0.6;fill:#19aeff;stroke-width:0.228"
         id="rect1-4-5"
         width="10"
         height="5"
         x="41.169914"
         y="-35.131023"
         transform="rotate(90)" /></g><g
       id="g2"
       transform="translate(1.0937282,-28.434899)"><rect
         style="opacity:0.6;fill:#19aeff;stroke-width:0.228"
         id="rect1-4-5-1"
         width="10"
         height="5"
         x="41.169914"
         y="-35.131023"
         transform="rotate(90)" /></g><text
       xml:space="preserve"
       transform="matrix(0.26458333,0,0,0.26458333,-5.3531666,2.6458333)"
       id="text1"
       style="font-weight:900;font-size:26.6667px;font-family:Chivo;-inkscape-font-specification:'Chivo Heavy';text-align:center;letter-spacing:-15px;white-space:pre;shape-inside:url(#rect2);display:none;opacity:1;fill:#ffffff;stroke-width:0.861732"><tspan
         x="134.66016"
         y="203.12826"
         id="tspan3"><tspan
           dx="0 14.830748 14.830748 14.830748 13.33335 5.9244871 5.9244862"
           style="font-weight:normal;font-family:arial;-inkscape-font-specification:arial"
           id="tspan1">87akjlf</tspan></tspan></text><text
       xml:space="preserve"
       style="display:inline;font-style:normal;font-variant:normal;font-weight:normal;font-stretch:normal;font-size:5.29167px;font-family:arial;-inkscape-font-specification:arial;text-align:center;letter-spacing:-3.96875px;text-anchor:middle;opacity:1;fill:#ffffff;stroke-width:0.228"
       x="33.460464"
       y="57.282124"
       id="text4"><tspan
         sodipodi:role="line"
         id="tspan4"
         style="stroke-width:0.228"
         x="31.988977"
         y="57.282124">2</tspan></text><text
       xml:space="preserve"
       style="font-style:normal;font-variant:normal;font-weight:normal;font-stretch:normal;font-size:5.29167px;font-family:arial;-inkscape-font-specification:arial;text-align:center;letter-spacing:-3.96875px;text-anchor:middle;display:inline;fill:#ffffff;stroke-width:0.228"
       x="33.775074"
       y="19.250463"
       id="text3-0-8"><tspan
         sodipodi:role="line"
         id="tspan3-1-0"
         style="font-size:5.29167px;stroke-width:0.228"
         x="32.303585"
         y="19.250463">5</tspan></text><text
       xml:space="preserve"
       style="font-style:normal;font-variant:normal;font-weight:normal;font-stretch:normal;font-size:5.29167px;font-family:arial;-inkscape-font-specification:arial;text-align:center;letter-spacing:-3.96875px;text-anchor:middle;display:inline;fill:#ffffff;stroke-width:0.228"
       x="33.700382"
       y="47.272732"
       id="text3-0-8-0"><tspan
         sodipodi:role="line"
         id="tspan3-1-0-3"
         style="font-size:5.29167px;stroke-width:0.228"
         x="32.228893"
         y="47.272732">7</tspan></text><text
       xml:space="preserve"
       style="font-style:normal;font-variant:normal;font-weight:normal;font-stretch:normal;font-size:5.29167px;font-family:arial;-inkscape-font-specification:arial;text-align:center;letter-spacing:-3.96875px;text-anchor:middle;opacity:1;fill:#ffffff;stroke-width:0.228"
       x="2.0397546"
       y="34.917389"
       id="text5"><tspan
         sodipodi:role="line"
         id="tspan5"
         style="stroke-width:0.228"
         x="0.56826735"
         y="34.917389">6</tspan></text><text
       xml:space="preserve"
       style="font-style:normal;font-variant:normal;font-weight:normal;font-stretch:normal;font-size:5.29167px;font-family:arial;-inkscape-font-specification:arial;text-align:center;letter-spacing:-3.96875px;text-anchor:middle;opacity:1;fill:#ffffff;stroke-width:0.228"
       x="16.319695"
       y="9.547369"
       id="text6"><tspan
         sodipodi:role="line"
         id="tspan6"
         style="stroke-width:0.228"
         x="14.848207"
         y="9.547369">3</tspan></text><path
       style="display:none;fill:#000000;stroke-width:0.677637"
       d="m 65.016542,8.9851065 c -0.05235,-0.0034 -0.131368,-0.01554 -0.192837,-0.02975 -0.285654,-0.066 -0.52586,-0.221692 -0.703515,-0.455997 -0.08262,-0.10896 -0.164286,-0.272452 -0.197861,-0.396093 -0.01147,-0.04223 -0.03046,-0.131311 -0.03637,-0.170559 -0.0085,-0.05675 -0.01185,-0.207819 -0.006,-0.272024 0.02225,-0.242605 0.11565,-0.474665 0.267909,-0.665666 0.04221,-0.05295 0.131057,-0.142127 0.182438,-0.183115 0.07936,-0.06331 0.181113,-0.124483 0.273424,-0.164385 0.113296,-0.04897 0.238159,-0.08317 0.360112,-0.09863 0.05238,-0.0066 0.226694,-0.0067 0.279484,-5.5e-5 0.107472,0.01348 0.240081,0.04883 0.330116,0.08802 0.289746,0.126099 0.52151,0.353829 0.644836,0.633613 0.04395,0.09971 0.07913,0.22615 0.09521,0.342207 0.0086,0.06216 0.0096,0.227707 0.0018,0.291686 -0.02829,0.231305 -0.114892,0.439294 -0.258606,0.621106 -0.03977,0.05032 -0.146007,0.156551 -0.196321,0.196322 -0.156712,0.123873 -0.32598,0.202878 -0.523226,0.244213 -0.08084,0.01694 -0.222653,0.02539 -0.320657,0.01911 z m 0.19954,-0.211961 c 0.05411,-0.0057 0.156255,-0.02953 0.219622,-0.05124 0.07665,-0.02626 0.1568,-0.06705 0.247905,-0.126169 0.05222,-0.03388 0.155314,-0.131087 0.20653,-0.194722 0.09002,-0.111853 0.15742,-0.248034 0.191673,-0.387296 0.02705,-0.109975 0.02835,-0.121781 0.02814,-0.255182 -2.06e-4,-0.131322 -4.41e-4,-0.133297 -0.03038,-0.255246 -0.03431,-0.13977 -0.11507,-0.290488 -0.219246,-0.409154 -0.09219,-0.105011 -0.186253,-0.176428 -0.321276,-0.243919 -0.107388,-0.05368 -0.243555,-0.09011 -0.368479,-0.09858 -0.206543,-0.01401 -0.413582,0.03501 -0.587257,0.139045 -0.08764,0.0525 -0.128419,0.08433 -0.200883,0.156792 -0.09023,0.09023 -0.141323,0.162204 -0.204287,0.287788 -0.03196,0.06374 -0.05809,0.145941 -0.08097,0.25469 -0.01597,0.07592 -0.01805,0.233247 -0.0043,0.322388 0.03434,0.221955 0.142502,0.430655 0.302429,0.583535 0.04213,0.04027 0.09852,0.08693 0.127025,0.105112 0.134351,0.08567 0.244288,0.131069 0.392899,0.162235 0.06102,0.01279 0.222848,0.01813 0.300802,0.0099 z m -0.164329,-0.66021 c -0.144373,-0.02027 -0.266238,-0.132501 -0.296869,-0.273386 -0.0083,-0.03816 -0.0062,-0.123157 0.0039,-0.161144 0.01706,-0.06396 0.06152,-0.139508 0.103186,-0.175331 0.129524,-0.111369 0.312749,-0.1206 0.445608,-0.02245 0.01159,0.0086 0.03379,0.02923 0.04933,0.0459 0.131275,0.140935 0.124474,0.356571 -0.01553,0.492224 -0.04568,0.04426 -0.100196,0.0747 -0.157674,0.08803 -0.0333,0.0077 -0.09897,0.01079 -0.13194,0.0062 z"
       id="path13-5"
       inkscape:label="thruster_4_Circumpunct" /><path
       style="fill:#000000;stroke-width:0.0341523"
       d="m 0.63623227,10.389396 c -0.0658218,-0.01233 -0.14239126,-0.06792 -0.15932629,-0.115663 -0.0148528,-0.04188 -0.008826,-0.073 0.0219453,-0.113237 0.0109374,-0.01431 0.19825174,-0.146395 0.41624988,-0.2935333 l 0.39636064,-0.267522 -2.11244407,-0.0038 -2.11244413,-0.0038 -0.049445,-0.01972 c -0.027205,-0.01085 -0.0618,-0.03331 -0.076914,-0.04996 -0.01511,-0.01663 -0.031178,-0.03033 -0.03571,-0.03044 -0.011699,-2.79e-4 -0.010287,-0.111668 0.00141,-0.111668 0.00531,0 0.015558,-0.0096 0.022774,-0.02142 0.017412,-0.02843 0.062572,-0.05688 0.1128057,-0.07108 0.03645,-0.0103 0.2678411,-0.01154 2.14789633,-0.01154 H 1.3164375 L 0.91401469,9.0029947 c -0.22133277,-0.150203 -0.41122491,-0.2848 -0.42198289,-0.299105 -0.0249641,-0.0332 -0.0260944,-0.106832 -0.002107,-0.137477 0.0424849,-0.05429 0.13394847,-0.09289 0.22008386,-0.09289 0.0997989,0 0.11809457,0.01077 0.76622864,0.45125 0.3354395,0.227967 0.61851,0.422047 0.6290455,0.431289 0.023525,0.02064 0.027473,0.128745 0.00542,0.14841 -0.048951,0.04366 -1.26309273,0.8603453 -1.29651387,0.8720993 -0.0517976,0.01821 -0.12191411,0.02324 -0.17795314,0.01273 z"
       id="path1" /><path
       style="display:none;fill:#000000;stroke-width:0.0265458"
       d="m 38.501019,19.001732 c -0.03977,-0.01233 -0.08603,-0.06792 -0.09626,-0.115663 -0.009,-0.04188 -0.0053,-0.073 0.01326,-0.113237 0.0066,-0.01431 0.119776,-0.146395 0.251481,-0.293533 l 0.239465,-0.267522 -1.27625,-0.0038 -1.276249,-0.0038 -0.02987,-0.01972 c -0.01644,-0.01085 -0.03734,-0.03331 -0.04647,-0.04996 -0.0091,-0.01663 -0.01884,-0.03033 -0.02157,-0.03044 -0.0071,-2.79e-4 -0.0062,-0.111668 8.45e-4,-0.111668 0.0032,0 0.0094,-0.0096 0.01376,-0.02142 0.01052,-0.02843 0.0378,-0.05688 0.06815,-0.07108 0.02202,-0.0103 0.161818,-0.01154 1.297668,-0.01154 h 1.272989 l -0.243127,-0.273018 c -0.13372,-0.150203 -0.248445,-0.2848 -0.254944,-0.299105 -0.01508,-0.0332 -0.01576,-0.106832 -0.0013,-0.137477 0.02567,-0.05429 0.08093,-0.09289 0.132965,-0.09289 0.0603,0 0.07135,0.01077 0.462923,0.45125 0.202658,0.227967 0.373677,0.422047 0.380043,0.431289 0.01421,0.02064 0.0166,0.128745 0.0033,0.14841 -0.02957,0.04366 -0.763107,0.860345 -0.783299,0.872099 -0.0313,0.01821 -0.07366,0.02324 -0.107511,0.01273 z"
       id="path1-1"
       inkscape:label="arrow right bow" /><path
       style="display:none;fill:#000000;stroke-width:0.0255612"
       d="m 38.106446,45.992974 c -0.03687,-0.01233 -0.07976,-0.06792 -0.08925,-0.115663 -0.0083,-0.04188 -0.0049,-0.073 0.0123,-0.113237 0.0061,-0.01431 0.111056,-0.146395 0.233173,-0.293533 l 0.222031,-0.267522 -1.183338,-0.0038 -1.183339,-0.0038 -0.02769,-0.01972 c -0.01524,-0.01085 -0.03462,-0.03331 -0.04308,-0.04996 -0.0085,-0.01663 -0.01747,-0.03033 -0.02,-0.03044 -0.0066,-2.79e-4 -0.0058,-0.111668 7.84e-4,-0.111668 0.003,0 0.0087,-0.0096 0.01276,-0.02142 0.0098,-0.02843 0.03505,-0.05688 0.06319,-0.07108 0.02042,-0.0103 0.150038,-0.01154 1.203199,-0.01154 H 38.4875 l -0.225426,-0.273018 c -0.123986,-0.150203 -0.230358,-0.2848 -0.236385,-0.299105 -0.01398,-0.0332 -0.01461,-0.106832 -0.0012,-0.137477 0.0238,-0.05429 0.07503,-0.09289 0.123285,-0.09289 0.05591,0 0.06615,0.01077 0.429222,0.45125 0.187905,0.227967 0.346474,0.422047 0.352376,0.431289 0.01318,0.02064 0.01539,0.128745 0.003,0.14841 -0.02742,0.04366 -0.707553,0.860345 -0.726275,0.872099 -0.02902,0.01821 -0.06829,0.02324 -0.09969,0.01273 z"
       id="path1-8"
       inkscape:label="arrow right" /><path
       style="fill:#000000;stroke-width:0.0255612"
       d="m 65.077276,28.279477 c -0.01233,0.03687 -0.06792,0.07976 -0.115663,0.08925 -0.04188,0.0083 -0.073,0.0049 -0.113237,-0.0123 -0.01431,-0.0061 -0.146395,-0.111056 -0.293533,-0.233173 l -0.267522,-0.222031 -0.0038,1.183338 -0.0038,1.183339 -0.01972,0.02769 c -0.01085,0.01524 -0.03331,0.03462 -0.04996,0.04308 -0.01663,0.0085 -0.03033,0.01747 -0.03044,0.02 -2.79e-4,0.0066 -0.111668,0.0058 -0.111668,-7.84e-4 0,-0.003 -0.0096,-0.0087 -0.02142,-0.01276 -0.02843,-0.0098 -0.05688,-0.03505 -0.07108,-0.06319 -0.0103,-0.02042 -0.01154,-0.150038 -0.01154,-1.203199 v -1.180314 l -0.273018,0.225426 c -0.150203,0.123986 -0.2848,0.230358 -0.299105,0.236385 -0.0332,0.01398 -0.106832,0.01461 -0.137477,0.0012 -0.05429,-0.0238 -0.09289,-0.07503 -0.09289,-0.123285 0,-0.05591 0.01077,-0.06615 0.45125,-0.429222 0.227967,-0.187905 0.422047,-0.346474 0.431289,-0.352376 0.02064,-0.01318 0.128745,-0.01539 0.14841,-0.003 0.04366,0.02742 0.860345,0.707553 0.872099,0.726275 0.01821,0.02902 0.02324,0.06829 0.01273,0.09969 z"
       id="path1-8-6" /><path
       style="fill:#000000;stroke-width:0.0341523"
       d="m -1.9902207,5.7616944 c -0.012335,0.065822 -0.067919,0.1423913 -0.1156631,0.1593267 -0.041882,0.014857 -0.073001,0.00882 -0.1132368,-0.021947 -0.014307,-0.010938 -0.1463945,-0.1982516 -0.2935322,-0.41625 l -0.2675228,-0.3963604 -0.00373,2.1124439 -0.00373,2.1124451 -0.019717,0.04944 c -0.010849,0.0272 -0.033317,0.0618 -0.04996,0.07691 -0.016633,0.01511 -0.030337,0.03117 -0.030444,0.03571 -2.785e-4,0.0117 -0.1116674,0.01028 -0.1116674,-0.0014 0,-0.0053 -0.00964,-0.01556 -0.021422,-0.02277 -0.028431,-0.01741 -0.056883,-0.06257 -0.071075,-0.112805 -0.010298,-0.03644 -0.01154,-0.267841 -0.01154,-2.1478975 V 5.0814875 L -3.3765572,5.48391 c -0.1502032,0.2213323 -0.2848007,0.4112248 -0.2991058,0.4219835 -0.033196,0.024963 -0.1068316,0.026096 -0.1374769,0.00211 -0.054286,-0.042484 -0.09289,-0.1339483 -0.09289,-0.2200836 0,-0.099799 0.010775,-0.1180958 0.4512499,-0.7662294 0.2279664,-0.335439 0.4220468,-0.6185099 0.4312895,-0.6290457 0.020638,-0.023522 0.1287449,-0.027473 0.14841,-0.00544 0.043653,0.048952 0.8603453,1.2630932 0.8720988,1.2965144 0.018217,0.051796 0.023235,0.1219145 0.012732,0.1779528 z"
       id="path1-5" /><text
       xml:space="preserve"
       style="font-size:2.2592px;font-family:arial;-inkscape-font-specification:arial;letter-spacing:-2.54159px;opacity:1;fill:#000000;fill-opacity:1;stroke-width:0.146012"
       x="1.5739211"
       y="8.8574076"
       id="text2"><tspan
         sodipodi:role="line"
         id="tspan2"
         x="1.5739211"
         y="8.8574076"
         style="font-size:2.2592px;fill:#000000;fill-opacity:1;stroke-width:0.146012">x</tspan></text><text
       xml:space="preserve"
       style="font-size:2.2592px;font-family:arial;-inkscape-font-specification:arial;letter-spacing:-2.54159px;fill:#000000;fill-opacity:1;stroke-width:0.146012"
       x="-2.5060394"
       y="4.2411003"
       id="text2-6"><tspan
         sodipodi:role="line"
         id="tspan2-4"
         x="-2.5060394"
         y="4.2411003"
         style="font-size:2.2592px;fill:#000000;fill-opacity:1;stroke-width:0.146012">y</tspan></text><path
       style="fill:#000000;stroke-width:0.0628572"
       d="m 33.124694,60.790206 c -0.304244,-0.06418 -0.620309,-0.288164 -0.789361,-0.559398 -0.444636,-0.713389 -0.06146,-1.661849 0.755835,-1.870878 0.151986,-0.03887 0.425251,-0.04201 0.591477,-0.0068 0.06329,0.01341 0.186147,0.05895 0.273011,0.10121 0.133666,0.06502 0.181416,0.100208 0.310728,0.228955 0.166331,0.165603 0.247364,0.29222 0.315814,0.49347 0.15263,0.448753 0.03408,0.942713 -0.307239,1.280172 -0.309928,0.306423 -0.717593,0.424536 -1.150265,0.333267 z m 0.569055,-0.21724 c 0.08534,-0.02298 0.23904,-0.09828 0.297898,-0.145935 l 0.04146,-0.03358 -0.10767,-0.113779 c -0.05922,-0.06258 -0.203373,-0.213623 -0.320344,-0.335656 l -0.212674,-0.221877 -0.332485,0.319807 c -0.270526,0.260209 -0.328864,0.324171 -0.313051,0.343224 0.03332,0.04015 0.211689,0.137263 0.318981,0.173673 0.178054,0.06042 0.434501,0.06619 0.62788,0.01412 z m 0.578622,-0.437239 c 0.03763,-0.05776 0.08835,-0.16066 0.112717,-0.228676 0.0386,-0.107761 0.04446,-0.150402 0.04558,-0.331553 0.0011,-0.185478 -0.0035,-0.221036 -0.04306,-0.329868 -0.04594,-0.126393 -0.143219,-0.302108 -0.167247,-0.302108 -0.02087,0 -0.662612,0.619216 -0.657362,0.634282 0.0072,0.02075 0.617277,0.662933 0.629759,0.662933 0.0062,0 0.04199,-0.04725 0.07962,-0.10501 z m -1.340241,-0.264915 0.312526,-0.303629 -0.320841,-0.337312 -0.320841,-0.337312 -0.03047,0.03733 c -0.100775,0.123451 -0.187657,0.339332 -0.211156,0.524672 -0.02784,0.219582 0.02804,0.468711 0.149343,0.66586 0.04387,0.0713 0.05835,0.08386 0.08116,0.0704 0.01527,-0.009 0.168397,-0.153016 0.340286,-0.320012 z m 0.810064,-0.778242 0.324304,-0.31533 -0.04989,-0.0431 c -0.07618,-0.0658 -0.270369,-0.153881 -0.39962,-0.18126 -0.234221,-0.04962 -0.470301,-0.01904 -0.684501,0.08866 -0.07249,0.03645 -0.14017,0.07636 -0.150408,0.08869 -0.01468,0.01769 0.04708,0.09169 0.291969,0.349868 0.170821,0.180092 0.318067,0.327518 0.327215,0.327615 0.0091,9.5e-5 0.162567,-0.141722 0.340934,-0.315153 z"
       id="path2" /><path
       style="fill:#000000;stroke-width:0.0628572"
       d="m 49.590654,14.143314 c -0.304244,-0.06418 -0.620309,-0.288164 -0.789361,-0.559398 -0.444636,-0.713389 -0.06146,-1.661849 0.755835,-1.870878 0.151986,-0.03887 0.425251,-0.04201 0.591477,-0.0068 0.06329,0.01341 0.186147,0.05895 0.273011,0.10121 0.133666,0.06502 0.181416,0.100208 0.310728,0.228955 0.166331,0.165603 0.247364,0.29222 0.315814,0.49347 0.15263,0.448753 0.03408,0.942713 -0.307239,1.280172 -0.309928,0.306423 -0.717593,0.424536 -1.150265,0.333267 z m 0.569055,-0.21724 c 0.08534,-0.02298 0.23904,-0.09828 0.297898,-0.145935 l 0.04146,-0.03358 -0.10767,-0.113779 c -0.05922,-0.06258 -0.203373,-0.213623 -0.320344,-0.335656 l -0.212674,-0.221877 -0.332485,0.319807 c -0.270526,0.260209 -0.328864,0.324171 -0.313051,0.343224 0.03332,0.04015 0.211689,0.137263 0.318981,0.173673 0.178054,0.06042 0.434501,0.06619 0.62788,0.01412 z m 0.578622,-0.437239 c 0.03763,-0.05776 0.08835,-0.16066 0.112717,-0.228676 0.0386,-0.107761 0.04446,-0.150402 0.04558,-0.331553 0.0011,-0.185478 -0.0035,-0.221036 -0.04306,-0.329868 -0.04594,-0.126393 -0.143219,-0.302108 -0.167247,-0.302108 -0.02087,0 -0.662612,0.619216 -0.657362,0.634282 0.0072,0.02075 0.617277,0.662933 0.629759,0.662933 0.0062,0 0.04199,-0.04725 0.07962,-0.10501 z m -1.340241,-0.264915 0.312526,-0.303629 -0.320841,-0.337312 -0.320841,-0.337312 -0.03047,0.03733 c -0.100775,0.123451 -0.187657,0.339332 -0.211156,0.524672 -0.02784,0.219582 0.02804,0.468711 0.149343,0.66586 0.04387,0.0713 0.05835,0.08386 0.08116,0.0704 0.01527,-0.009 0.168397,-0.153016 0.340286,-0.320012 z m 0.810064,-0.778242 0.324304,-0.31533 -0.04989,-0.0431 c -0.07618,-0.0658 -0.270369,-0.153881 -0.39962,-0.18126 -0.234221,-0.04962 -0.470301,-0.01904 -0.684501,0.08866 -0.07249,0.03645 -0.14017,0.07636 -0.150408,0.08869 -0.01468,0.01769 0.04708,0.09169 0.291969,0.349868 0.170821,0.180092 0.318067,0.327518 0.327215,0.327615 0.0091,9.5e-5 0.162567,-0.141722 0.340934,-0.315153 z"
       id="path2-7" /><path
       style="fill:#000000;stroke-width:0.0628572"
       d="m 15.836124,13.747823 c -0.304244,-0.06418 -0.620309,-0.288164 -0.789361,-0.559398 -0.444636,-0.713389 -0.06146,-1.661849 0.755835,-1.870878 0.151986,-0.03887 0.425251,-0.04201 0.591477,-0.0068 0.06329,0.01341 0.186147,0.05895 0.273011,0.10121 0.133666,0.06502 0.181416,0.100208 0.310728,0.228955 0.166331,0.165603 0.247364,0.29222 0.315814,0.49347 0.15263,0.448753 0.03408,0.942713 -0.307239,1.280172 -0.309928,0.306423 -0.717593,0.424536 -1.150265,0.333267 z m 0.569055,-0.21724 c 0.08534,-0.02298 0.23904,-0.09828 0.297898,-0.145935 l 0.04146,-0.03358 -0.10767,-0.113779 c -0.05922,-0.06258 -0.203373,-0.213623 -0.320344,-0.335656 l -0.212674,-0.221877 -0.332485,0.319807 c -0.270526,0.260209 -0.328864,0.324171 -0.313051,0.343224 0.03332,0.04015 0.211689,0.137263 0.318981,0.173673 0.178054,0.06042 0.434501,0.06619 0.62788,0.01412 z m 0.578622,-0.437239 c 0.03763,-0.05776 0.08835,-0.16066 0.112717,-0.228676 0.0386,-0.107761 0.04446,-0.150402 0.04558,-0.331553 0.0011,-0.185478 -0.0035,-0.221036 -0.04306,-0.329868 -0.04594,-0.126393 -0.143219,-0.302108 -0.167247,-0.302108 -0.02087,0 -0.662612,0.619216 -0.657362,0.634282 0.0072,0.02075 0.617277,0.662933 0.629759,0.662933 0.0062,0 0.04199,-0.04725 0.07962,-0.10501 z m -1.340241,-0.264915 0.312526,-0.303629 -0.320841,-0.337312 -0.320841,-0.337312 -0.03047,0.03733 c -0.100775,0.123451 -0.187657,0.339332 -0.211156,0.524672 -0.02784,0.219582 0.02804,0.468711 0.149343,0.66586 0.04387,0.0713 0.05835,0.08386 0.08116,0.0704 0.01527,-0.009 0.168397,-0.153016 0.340286,-0.320012 z m 0.810064,-0.778242 0.324304,-0.31533 -0.04989,-0.0431 c -0.07618,-0.0658 -0.270369,-0.153881 -0.39962,-0.18126 -0.234221,-0.04962 -0.470301,-0.01904 -0.684501,0.08866 -0.07249,0.03645 -0.14017,0.07636 -0.150408,0.08869 -0.01468,0.01769 0.04708,0.09169 0.291969,0.349868 0.170821,0.180092 0.318067,0.327518 0.327215,0.327615 0.0091,9.5e-5 0.162567,-0.141722 0.340934,-0.315153 z"
       id="path2-7-1" /><text
       xml:space="preserve"
       style="display:inline;font-style:normal;font-variant:normal;font-weight:normal;font-stretch:normal;font-size:5.29167px;font-family:arial;-inkscape-font-specification:arial;text-align:center;letter-spacing:-3.96875px;text-anchor:middle;fill:#ffffff;stroke-width:0.228"
       x="49.952881"
       y="9.6249876"
       id="text3-0"><tspan
         sodipodi:role="line"
         id="tspan3-1"
         style="font-size:5.29167px;stroke-width:0.228"
         x="0"
         y="0">4</tspan></text><text
       xml:space="preserve"
       transform="matrix(0.26458333,0,0,0.26458333,-5.3531666,2.6458333)"
       id="text7"
       style="font-size:13.3333px;font-family:arial;-inkscape-font-specification:arial;letter-spacing:-15px;white-space:pre;shape-inside:url(#rect7);display:inline;fill:none;stroke-width:0.861732"><tspan
         x="141.87695"
         y="164.16823"
         id="tspan7">5</tspan></text></g></svg>
