<?xml version="1.0" encoding="utf-8"?>
<!-- Generator: Adobe Illustrator 19.2.0, SVG Export Plug-In . SVG Version: 6.00 Build 0)  -->
<!DOCTYPE svg PUBLIC "-//W3C//DTD SVG 1.1//EN" "http://www.w3.org/Graphics/SVG/1.1/DTD/svg11.dtd">
<svg version="1.1" id="draw" xmlns="http://www.w3.org/2000/svg" xmlns:xlink="http://www.w3.org/1999/xlink" x="0px" y="0px"
	 viewBox="0 0 163.4 251.747" enable-background="new 0 0 163.4 251.747" xml:space="preserve">
<title>Rover</title>
<path fill="#159E1F" stroke="#000000" stroke-miterlimit="10" d="M155.25,75.28H8.15c-3.53,0-6.767-2.429-6.767-5.588
	s2.942-5.588,6.767-5.588h147.1c3.53,0,6.767,2.429,6.767,5.588S158.781,75.28,155.25,75.28z"/>
<path fill="#159E1F" stroke="#000000" stroke-miterlimit="10" d="M155.25,199.112H8.15c-3.53,0-6.767-2.429-6.767-5.588
	s2.942-5.588,6.767-5.588h147.1c3.53,0,6.767,2.429,6.767,5.588S158.781,199.112,155.25,199.112z"/>
<path fill="#159E1F" stroke="#000000" stroke-miterlimit="10" d="M81.7,199.112c-3.53,0-6.767-2.429-6.767-5.588V69.692
	c0-2.915,2.942-5.588,6.767-5.588s6.767,2.429,6.767,5.588v123.833C88.172,196.44,85.23,199.112,81.7,199.112z"/>
<ellipse fill="#159E1F" stroke="#000000" stroke-miterlimit="10" cx="81.7" cy="69.692" rx="15.593" ry="12.876"/>
<ellipse fill="#159E1F" stroke="#000000" stroke-miterlimit="10" cx="81.7" cy="193.525" rx="15.593" ry="12.876"/>
<path fill="#159E1F" stroke="#000000" stroke-miterlimit="10" d="M29.332,97.145H4.619c-2.059,0-4.119-1.458-4.119-3.4v-48.1
	c0-1.7,1.765-3.4,4.119-3.4h24.713c2.059,0,4.119,1.458,4.119,3.4v48.1C33.099,95.736,31.354,97.177,29.332,97.145z"/>
<path fill="#159E1F" stroke="#000000" stroke-miterlimit="10" d="M158.781,97.145h-24.713c-2.059,0-4.119-1.458-4.119-3.4v-48.1
	c0-1.7,1.765-3.4,4.119-3.4h24.713c2.059,0,4.119,1.458,4.119,3.4v48.1C162.548,95.736,160.803,97.177,158.781,97.145z"/>
<path fill="#159E1F" stroke="#000000" stroke-miterlimit="10" d="M29.332,221.954H4.619c-2.059,0-4.119-1.458-4.119-3.4v-48.1
	c0-1.7,1.765-3.4,4.119-3.4h24.713c2.059,0,4.119,1.458,4.119,3.4v48.1C33.015,220.495,31.32,221.894,29.332,221.954z"/>
<path fill="#159E1F" stroke="#000000" stroke-miterlimit="10" d="M158.781,221.954h-24.713c-2.059,0-4.119-1.458-4.119-3.4v-48.1
	c0-1.7,1.765-3.4,4.119-3.4h24.713c2.059,0,4.119,1.458,4.119,3.4v48.1C162.464,220.495,160.769,221.894,158.781,221.954z"/>
<path fill="#4EC3E8" stroke="#000000" stroke-miterlimit="10" d="M131.404,246.212c0,0,3.7-3.249,3.7-6.368V44.724
	c0-13.842-5.28-29.606-12.254-34.946C111.223-0.59,81.925,0.531,81.698,0.539C81.47,0.531,52.173-0.589,40.546,9.778
	c-6.974,5.34-12.254,21.1-12.254,34.946v195.119c0,3.119,3.7,6.368,3.7,6.368v5.035h99.409v-5.035L131.404,246.212z"/>
<path fill="#FFFFFF" stroke="#000000" stroke-miterlimit="10" d="M40.778,18.344c-0.389-2.339,5.848-9.748,19.491-9.748v14.52
	l-9.747,1.558C50.522,24.674,41.167,20.685,40.778,18.344z"/>
<path fill="#FFFFFF" stroke="#000000" stroke-miterlimit="10" d="M112.875,24.677l-9.744-1.558V8.599
	c13.646,0,19.883,7.407,19.491,9.748S112.875,24.677,112.875,24.677z"/>
<rect x="64.148" y="174.995" fill="#FFFFFF" stroke="#000000" stroke-miterlimit="10" width="15.964" height="60.489"/>
<rect x="83.291" y="174.995" fill="#FFFFFF" stroke="#000000" stroke-miterlimit="10" width="15.964" height="60.489"/>
<polygon fill="#FFFFFF" stroke="#000000" stroke-miterlimit="10" points="102.435,174.995 116.912,174.995 116.781,232.623 
	102.435,235.233 "/>
<path fill="#FFFFFF" stroke="#000000" stroke-miterlimit="10" d="M127.794,178.891l-3.9,9.1c0,0-4.157-19.233-4.157-25.21
	s-1.3-43.4,1.3-56.661s3.638-17.153,3.638-17.153l2.08,1.041L127.794,178.891z"/>
<polygon fill="#FFFFFF" stroke="#000000" stroke-miterlimit="10" points="115.878,101.958 82.094,101.958 81.314,101.958 
	47.532,101.958 39.737,75.709 58.443,66.613 101.076,66.613 104.962,66.613 123.673,75.709 "/>
<path fill="#FFFFFF" stroke="#000000" stroke-miterlimit="10" d="M36.644,90.006l2.08-1.039c0,0,1.039,3.9,3.638,17.153
	s1.3,50.682,1.3,56.661s-4.157,25.21-4.157,25.21l-3.9-9.1L36.644,90.006z"/>
<polygon fill="#FFFFFF" stroke="#000000" stroke-miterlimit="10" points="46.488,174.995 60.965,174.995 60.965,235.233 
	46.619,232.623 "/>
</svg>
