<?xml version="1.0" encoding="UTF-8" standalone="no"?>
<!-- Generator: Adobe Illustrator 19.2.0, SVG Export Plug-In . SVG Version: 6.00 Build 0)  -->

<svg
   xmlns:dc="http://purl.org/dc/elements/1.1/"
   xmlns:cc="http://creativecommons.org/ns#"
   xmlns:rdf="http://www.w3.org/1999/02/22-rdf-syntax-ns#"
   xmlns:svg="http://www.w3.org/2000/svg"
   xmlns="http://www.w3.org/2000/svg"
   xmlns:sodipodi="http://sodipodi.sourceforge.net/DTD/sodipodi-0.dtd"
   xmlns:inkscape="http://www.inkscape.org/namespaces/inkscape"
   version="1.1"
   id="draw"
   x="0px"
   y="0px"
   viewBox="0 0 433.662 366.158"
   enable-background="new 0 0 433.662 366.158"
   xml:space="preserve"
   sodipodi:docname="VTOLTiltRotor.svg"
   inkscape:version="0.92.1 r"><metadata
     id="metadata33373"><rdf:RDF><cc:Work
         rdf:about=""><dc:format>image/svg+xml</dc:format><dc:type
           rdf:resource="http://purl.org/dc/dcmitype/StillImage" /><dc:title>VTOLTiltRotor</dc:title></cc:Work></rdf:RDF></metadata><defs
     id="defs33371" /><sodipodi:namedview
     pagecolor="#ffffff"
     bordercolor="#666666"
     borderopacity="1"
     objecttolerance="10"
     gridtolerance="10"
     guidetolerance="10"
     inkscape:pageopacity="0"
     inkscape:pageshadow="2"
     inkscape:window-width="1920"
     inkscape:window-height="1019"
     id="namedview33369"
     showgrid="false"
     inkscape:zoom="1"
     inkscape:cx="123.92648"
     inkscape:cy="154.96248"
     inkscape:window-x="1920"
     inkscape:window-y="0"
     inkscape:window-maximized="1"
     inkscape:current-layer="draw" /><title
     id="title33326">VTOLTiltRotor</title><rect
     x="119.349"
     y="51.786"
     fill="#FFFFFF"
     stroke="#000000"
     stroke-miterlimit="10"
     width="194.965"
     height="6.11"
     id="rect33328" /><rect
     x="214.357"
     y="174.37"
     fill="#FFFFFF"
     stroke="#000000"
     stroke-miterlimit="10"
     width="6.12"
     height="104.473"
     id="rect33330" /><g
     opacity="0.8"
     id="g33334"><path
       fill="#159E1F"
       d="M255.339,349.285c-18.851,20.925-51.095,22.606-72.02,3.755c-20.925-18.851-22.606-51.095-3.755-72.02   s51.095-22.606,72.02-3.755c1.316,1.186,2.57,2.439,3.755,3.755C272.81,300.421,272.81,329.884,255.339,349.285z"
       id="path33332" /></g><path
     fill="#4EC3E8"
     stroke="#000000"
     stroke-miterlimit="10"
     d="M227.402,211.885c117.211,5.687,205.717,76.149,205.717,76.149  s-0.8-20.38-1.595-33.809s-4.253-18.01-4.253-18.01s-94.221-100-101.264-106.956s-7.575-10.585-25.382-10.585  c-66.712,0-57.808-63.51-57.808-71.251s-3.522-10.98-4.917-12.639s-3.721-7.267-8.505-21.012  c-4.16-11.95-10.727-13.152-12.372-13.262V0.501c0,0-0.068,0-0.193,0s-0.193,0-0.193,0V0.51c-1.645,0.11-8.213,1.311-12.372,13.262  c-4.784,13.745-7.11,19.353-8.505,21.012s-4.917,4.9-4.917,12.639s8.9,71.251-57.808,71.251c-17.808,0-18.339,3.634-25.382,10.585  S6.389,236.215,6.389,236.215s-3.455,4.582-4.253,18.01s-1.595,33.809-1.595,33.809s88.506-70.461,205.717-76.149H227.402  L227.402,211.885z"
     id="path33344" /><g
     opacity="0.8"
     id="g33338"><ellipse
       transform="matrix(0.7071 -0.7071 0.7071 0.7071 -23.3263 104.807)"
       fill="#159E1F"
       cx="114.844"
       cy="80.559"
       rx="51.004"
       ry="50.993"
       id="ellipse33336" /></g><g
     opacity="0.8"
     id="g33342"><ellipse
       transform="matrix(0.7071 -0.7071 0.7071 0.7071 36.4228 249.0463)"
       fill="#159E1F"
       cx="318.822"
       cy="80.559"
       rx="51.004"
       ry="50.993"
       id="ellipse33340" /></g><path
     fill="#159E1F"
     stroke="#000000"
     stroke-miterlimit="10"
     d="M299.525,223.521c50.117,13.578,90.1,35.681,112.8,50.161  l-0.235-20.146l-92.154-61.557L299.525,223.521z"
     id="path33346" /><path
     fill="#159E1F"
     stroke="#000000"
     stroke-miterlimit="10"
     d="M134.187,223.521c-50.117,13.578-90.1,35.681-112.8,50.161  l0.676-20.44l91.713-61.262L134.187,223.521z"
     id="path33348" /><g
     opacity="0.8"
     id="g33352"><path
       fill="#4EC3E8"
       d="M255.339,319.285c-18.851,20.925-51.095,22.606-72.02,3.755c-20.925-18.851-22.606-51.095-3.755-72.02   s51.095-22.606,72.02-3.755c1.316,1.186,2.57,2.439,3.755,3.755C272.81,270.421,272.81,299.884,255.339,319.285z"
       id="path33350" /></g><g
     opacity="0.8"
     id="g33356"><ellipse
       transform="matrix(0.7071 -0.7071 0.7071 0.7071 -4.9409 97.1908)"
       fill="#4EC3E8"
       cx="114.843"
       cy="54.559"
       rx="51.004"
       ry="50.993"
       id="ellipse33354" /></g><g
     opacity="0.8"
     id="g33360"><ellipse
       transform="matrix(0.7071 -0.7071 0.7071 0.7071 54.8082 241.4301)"
       fill="#4EC3E8"
       cx="318.822"
       cy="54.559"
       rx="51.004"
       ry="50.993"
       id="ellipse33358" /></g><path
     fill="#FFFFFF"
     stroke="#000000"
     stroke-miterlimit="10"
     d="M225.363,293.1c-4.385,4.373-11.485,4.363-15.858-0.022  c-4.373-4.385-4.363-11.485,0.022-15.858c4.376-4.364,11.459-4.364,15.835,0c4.385,4.347,4.416,11.426,0.069,15.811  C225.409,293.054,225.386,293.077,225.363,293.1z"
     id="path33362" /><path
     fill="#FFFFFF"
     stroke="#000000"
     stroke-miterlimit="10"
     d="M122.761,62.507c-4.385,4.373-11.485,4.363-15.858-0.022  c-4.373-4.385-4.363-11.485,0.022-15.858c4.376-4.364,11.459-4.364,15.835,0c4.385,4.347,4.416,11.426,0.069,15.811  C122.807,62.461,122.784,62.484,122.761,62.507z"
     id="path33364" /><path
     fill="#FFFFFF"
     stroke="#000000"
     stroke-miterlimit="10"
     d="M326.739,62.507c-4.385,4.373-11.485,4.363-15.858-0.022  c-4.373-4.385-4.363-11.485,0.022-15.858c4.376-4.364,11.459-4.364,15.835,0c4.385,4.347,4.416,11.426,0.069,15.811  C326.785,62.461,326.762,62.484,326.739,62.507z"
     id="path33366" /><path
     style="opacity:1;fill:#ffffff;fill-opacity:1;fill-rule:evenodd;stroke:none;stroke-width:1.00172007px;stroke-linecap:butt;stroke-linejoin:miter;stroke-opacity:1"
     d="m 277.21064,93.349123 c 0.31363,10.513587 2.86489,14.823527 6.57185,20.344067 l 8.72081,-8.54371 c -4.71801,-1.07604 -10.13476,-5.43373 -15.29266,-11.800357 z"
     id="path7831-5"
     inkscape:connector-curvature="0"
     sodipodi:nodetypes="cccc" /><path
     sodipodi:nodetypes="cccc"
     inkscape:connector-curvature="0"
     id="path7676-20"
     d="m 334.3831,119.21784 c 10.51357,-0.31363 14.82351,-2.8649 20.34406,-6.57187 l -8.54372,-8.7208 c -1.07604,4.71801 -5.43373,10.13477 -11.80034,15.29267 z"
     style="opacity:1;fill:#ffffff;fill-opacity:1;fill-rule:evenodd;stroke:none;stroke-width:1.00172007px;stroke-linecap:butt;stroke-linejoin:miter;stroke-opacity:1" /><path
     sodipodi:type="spiral"
     style="opacity:1;fill:none;fill-opacity:1;fill-rule:evenodd;stroke:#ffffec;stroke-width:2.51338577;stroke-linecap:butt;stroke-linejoin:miter;stroke-miterlimit:4;stroke-dasharray:none;stroke-opacity:1"
     id="path7711-8"
     sodipodi:cx="197.5222"
     sodipodi:cy="17.012539"
     sodipodi:expansion="0"
     sodipodi:revolution="8.0200005"
     sodipodi:radius="34.011444"
     sodipodi:argument="-17.855951"
     sodipodi:t0="0.99130303"
     d="m 223.94673,38.425681 c -3.13084,3.863564 -7.10954,7.019918 -11.58403,9.189766"
     transform="matrix(0.9463049,-0.32855798,0.32855798,0.9463049,133.89878,133.14335)" /><path
     transform="matrix(0.32855797,0.9463049,-0.9463049,0.32855797,263.28513,-107.13521)"
     d="m 223.94673,38.425681 c -3.13084,3.863564 -7.10954,7.019918 -11.58403,9.189766"
     sodipodi:t0="0.99130303"
     sodipodi:argument="-17.855951"
     sodipodi:radius="34.011444"
     sodipodi:revolution="8.0200005"
     sodipodi:expansion="0"
     sodipodi:cy="17.012539"
     sodipodi:cx="197.5222"
     id="path7833-2"
     style="opacity:1;fill:none;fill-opacity:1;fill-rule:evenodd;stroke:#ffffec;stroke-width:2.51338577;stroke-linecap:butt;stroke-linejoin:miter;stroke-miterlimit:4;stroke-dasharray:none;stroke-opacity:1"
     sodipodi:type="spiral" /><g
     aria-label="1"
     style="font-style:normal;font-variant:normal;font-weight:normal;font-stretch:normal;font-size:33.39067459px;line-height:125%;font-family:sans-serif;-inkscape-font-specification:sans-serif;letter-spacing:0px;word-spacing:0px;fill:#ffffff;fill-opacity:1;stroke:none;stroke-width:1.00172007px;stroke-linecap:butt;stroke-linejoin:miter;stroke-opacity:1"
     id="text11694"><path
       d="m 317.4739,111.30368 h -5.24234 v -2.10361 q 3.40585,-0.43408 4.40757,-1.20207 1.00172,-0.73459 1.70293,-3.10533 0.0668,-0.20034 0.13356,-0.40069 h 1.93666 v 23.67399 h -2.93838 z"
       style="font-style:normal;font-variant:normal;font-weight:normal;font-stretch:normal;font-size:33.39067459px;font-family:FreeSans;-inkscape-font-specification:FreeSans;fill:#ffffff;fill-opacity:1;stroke-width:1.00172007px"
       id="path35834" /></g><path
     style="opacity:1;fill:#ffffff;fill-opacity:1;fill-rule:evenodd;stroke:none;stroke-width:1px;stroke-linecap:butt;stroke-linejoin:miter;stroke-opacity:1"
     d="m 177.83817,303.45391 c -7.20006,-7.64284 -8.4415,-12.48612 -9.72169,-18.99975 l 12.18688,-0.125 c -2.57083,4.08998 -3.31842,10.98968 -2.46519,19.12475 z"
     id="path7870-5"
     inkscape:connector-curvature="0"
     sodipodi:nodetypes="cccc" /><path
     transform="matrix(-0.43606293,-0.89991617,-0.89991617,0.43606293,309.52866,454.80422)"
     d="m 223.94673,38.425681 c -3.13084,3.863564 -7.10954,7.019918 -11.58403,9.189766"
     sodipodi:t0="0.99130303"
     sodipodi:argument="-17.855951"
     sodipodi:radius="34.011444"
     sodipodi:revolution="8.0200005"
     sodipodi:expansion="0"
     sodipodi:cy="17.012539"
     sodipodi:cx="197.5222"
     id="path7872-2"
     style="opacity:1;fill:none;fill-opacity:1;fill-rule:evenodd;stroke:#ffffec;stroke-width:2.51338577;stroke-linecap:butt;stroke-linejoin:miter;stroke-miterlimit:4;stroke-dasharray:none;stroke-opacity:1"
     sodipodi:type="spiral" /><path
     sodipodi:nodetypes="cccc"
     inkscape:connector-curvature="0"
     id="path7874-1"
     d="m 254.02027,266.13455 c 7.20007,7.64284 8.44151,12.48613 9.7217,18.99975 l -12.18689,0.125 c 2.57083,-4.08997 3.31842,-10.98968 2.46519,-19.12475 z"
     style="opacity:1;fill:#ffffff;fill-opacity:1;fill-rule:evenodd;stroke:none;stroke-width:1px;stroke-linecap:butt;stroke-linejoin:miter;stroke-opacity:1" /><path
     sodipodi:type="spiral"
     style="opacity:1;fill:none;fill-opacity:1;fill-rule:evenodd;stroke:#ffffec;stroke-width:2.51338577;stroke-linecap:butt;stroke-linejoin:miter;stroke-miterlimit:4;stroke-dasharray:none;stroke-opacity:1"
     id="path7876-6"
     sodipodi:cx="197.5222"
     sodipodi:cy="17.012539"
     sodipodi:expansion="0"
     sodipodi:revolution="8.0200005"
     sodipodi:radius="34.011444"
     sodipodi:argument="-17.855951"
     sodipodi:t0="0.99130303"
     d="m 223.94673,38.425681 c -3.13084,3.863564 -7.10954,7.019918 -11.58403,9.189766"
     transform="matrix(0.43606294,0.89991617,0.89991617,-0.43606294,122.32979,114.78426)" /><g
     aria-label="4"
     style="font-style:normal;font-variant:normal;font-weight:normal;font-stretch:normal;font-size:33.33333588px;line-height:125%;font-family:sans-serif;-inkscape-font-specification:sans-serif;letter-spacing:0px;word-spacing:0px;fill:#ffffff;fill-opacity:1;stroke:none;stroke-width:1px;stroke-linecap:butt;stroke-linejoin:miter;stroke-opacity:1"
     id="text7991-1"><path
       d="m 219.23051,323.77773 h -9.96667 v -3.1 l 10.73333,-14.86667 h 2.16667 v 15.33334 h 3.5 v 2.63333 h -3.5 v 5.66667 h -2.93333 z m 0,-2.63333 v -10.33334 l -7.4,10.33334 z"
       style="font-style:normal;font-variant:normal;font-weight:normal;font-stretch:normal;font-size:33.33333588px;font-family:FreeSans;-inkscape-font-specification:FreeSans;fill:#ffffff;fill-opacity:1"
       id="path35831" /></g><path
     style="opacity:1;fill:#ffffff;fill-opacity:1;fill-rule:evenodd;stroke:none;stroke-width:1px;stroke-linecap:butt;stroke-linejoin:miter;stroke-opacity:1"
     d="m 279.91318,73.229569 c -7.20006,-7.642841 -8.4415,-12.486121 -9.72169,-18.999751 l 12.18688,-0.125 c -2.57083,4.08998 -3.31842,10.98968 -2.46519,19.124751 z"
     id="path7870"
     inkscape:connector-curvature="0"
     sodipodi:nodetypes="cccc" /><path
     transform="matrix(-0.43606293,-0.89991617,-0.89991617,0.43606293,411.60367,224.57988)"
     d="m 223.94673,38.425681 c -3.13084,3.863564 -7.10954,7.019918 -11.58403,9.189766"
     sodipodi:t0="0.99130303"
     sodipodi:argument="-17.855951"
     sodipodi:radius="34.011444"
     sodipodi:revolution="8.0200005"
     sodipodi:expansion="0"
     sodipodi:cy="17.012539"
     sodipodi:cx="197.5222"
     id="path7872"
     style="opacity:1;fill:none;fill-opacity:1;fill-rule:evenodd;stroke:#ffffec;stroke-width:2.51338577;stroke-linecap:butt;stroke-linejoin:miter;stroke-miterlimit:4;stroke-dasharray:none;stroke-opacity:1"
     sodipodi:type="spiral" /><path
     sodipodi:nodetypes="cccc"
     inkscape:connector-curvature="0"
     id="path7874"
     d="m 356.09527,35.910208 c 7.20007,7.64284 8.44151,12.48613 9.7217,18.99975 l -12.18689,0.125 c 2.57083,-4.08997 3.31842,-10.98968 2.46519,-19.12475 z"
     style="opacity:1;fill:#ffffff;fill-opacity:1;fill-rule:evenodd;stroke:none;stroke-width:1px;stroke-linecap:butt;stroke-linejoin:miter;stroke-opacity:1" /><path
     sodipodi:type="spiral"
     style="opacity:1;fill:none;fill-opacity:1;fill-rule:evenodd;stroke:#ffffec;stroke-width:2.51338577;stroke-linecap:butt;stroke-linejoin:miter;stroke-miterlimit:4;stroke-dasharray:none;stroke-opacity:1"
     id="path7876"
     sodipodi:cx="197.5222"
     sodipodi:cy="17.012539"
     sodipodi:expansion="0"
     sodipodi:revolution="8.0200005"
     sodipodi:radius="34.011444"
     sodipodi:argument="-17.855951"
     sodipodi:t0="0.99130303"
     d="m 223.94673,38.425681 c -3.13084,3.863564 -7.10954,7.019918 -11.58403,9.189766"
     transform="matrix(0.43606294,0.89991617,0.89991617,-0.43606294,224.4048,-115.44009)" /><g
     aria-label="2"
     style="font-style:normal;font-variant:normal;font-weight:normal;font-stretch:normal;font-size:33.33333588px;line-height:125%;font-family:sans-serif;-inkscape-font-specification:sans-serif;letter-spacing:0px;word-spacing:0px;fill:#ffffff;fill-opacity:1;stroke:none;stroke-width:1px;stroke-linecap:butt;stroke-linejoin:miter;stroke-opacity:1"
     id="text7991"><path
       d="m 311.53404,18.16217 q 0.26666,-8.166667 7.8,-8.2000004 4.03333,0 6.16667,2.6666664 1.4,1.833334 1.4,4.266667 -0.0333,4.400001 -5.00001,7.133334 l -3.33333,1.800001 q -3.1,1.666666 -3.9,3.533333 -0.26667,0.6 -0.36667,1.333334 h 12.43334 v 2.9 H 311.0007 q 0.23334,-4.266667 1.9,-6.500001 1.43334,-1.866667 4.73334,-3.733333 l 3.06666,-1.733334 q 3.16667,-1.866667 3.20001,-4.666667 0,-2.4 -2.00001,-3.7 -1.16666,-0.733334 -2.66666,-0.733334 -4.36667,0 -4.76667,5.433334 0,0.1 0,0.2 z"
       style="font-style:normal;font-variant:normal;font-weight:normal;font-stretch:normal;font-size:33.33333588px;font-family:FreeSans;-inkscape-font-specification:FreeSans;fill:#ffffff;fill-opacity:1"
       id="path35837" /></g><path
     sodipodi:nodetypes="cccc"
     inkscape:connector-curvature="0"
     id="path35761"
     d="m 75.580517,72.955297 c -7.20006,-7.642841 -8.4415,-12.486121 -9.72169,-18.999751 l 12.18688,-0.125 c -2.57083,4.08998 -3.31842,10.98968 -2.46519,19.124751 z"
     style="opacity:1;fill:#ffffff;fill-opacity:1;fill-rule:evenodd;stroke:none;stroke-width:1px;stroke-linecap:butt;stroke-linejoin:miter;stroke-opacity:1" /><path
     sodipodi:type="spiral"
     style="opacity:1;fill:none;fill-opacity:1;fill-rule:evenodd;stroke:#ffffec;stroke-width:2.51338577;stroke-linecap:butt;stroke-linejoin:miter;stroke-miterlimit:4;stroke-dasharray:none;stroke-opacity:1"
     id="path35763"
     sodipodi:cx="197.5222"
     sodipodi:cy="17.012539"
     sodipodi:expansion="0"
     sodipodi:revolution="8.0200005"
     sodipodi:radius="34.011444"
     sodipodi:argument="-17.855951"
     sodipodi:t0="0.99130303"
     d="m 223.94673,38.425681 c -3.13084,3.863564 -7.10954,7.019918 -11.58403,9.189766"
     transform="matrix(-0.43606293,-0.89991617,-0.89991617,0.43606293,207.271,224.30561)" /><path
     style="opacity:1;fill:#ffffff;fill-opacity:1;fill-rule:evenodd;stroke:none;stroke-width:1px;stroke-linecap:butt;stroke-linejoin:miter;stroke-opacity:1"
     d="m 151.7626,35.635936 c 7.20007,7.64284 8.44151,12.48613 9.7217,18.99975 l -12.18689,0.125 c 2.57083,-4.08997 3.31842,-10.98968 2.46519,-19.12475 z"
     id="path35765"
     inkscape:connector-curvature="0"
     sodipodi:nodetypes="cccc" /><path
     transform="matrix(0.43606294,0.89991617,0.89991617,-0.43606294,20.072137,-115.71436)"
     d="m 223.94673,38.425681 c -3.13084,3.863564 -7.10954,7.019918 -11.58403,9.189766"
     sodipodi:t0="0.99130303"
     sodipodi:argument="-17.855951"
     sodipodi:radius="34.011444"
     sodipodi:revolution="8.0200005"
     sodipodi:expansion="0"
     sodipodi:cy="17.012539"
     sodipodi:cx="197.5222"
     id="path35767"
     style="opacity:1;fill:none;fill-opacity:1;fill-rule:evenodd;stroke:#ffffec;stroke-width:2.51338577;stroke-linecap:butt;stroke-linejoin:miter;stroke-miterlimit:4;stroke-dasharray:none;stroke-opacity:1"
     sodipodi:type="spiral" /><g
     aria-label="6"
     style="font-style:normal;font-variant:normal;font-weight:normal;font-stretch:normal;font-size:33.33333588px;line-height:125%;font-family:sans-serif;-inkscape-font-specification:sans-serif;letter-spacing:0px;word-spacing:0px;fill:#ffffff;fill-opacity:1;stroke:none;stroke-width:1px;stroke-linecap:butt;stroke-linejoin:miter;stroke-opacity:1"
     id="text35771"><path
       d="m 106.96803,22.554564 q 0,-10.3 5.7,-12.400001 1.3,-0.4666663 2.76667,-0.4666663 3.83333,0 5.66667,3.1000003 0.76666,1.333333 1.03333,3.066667 h -2.93333 q -0.6,-2.933334 -3.03334,-3.466667 -0.46666,-0.1 -0.93333,-0.1 -3.7,0 -4.83333,4.8 -0.4,1.833334 -0.43334,4.166667 1.96667,-2.633333 5.43334,-2.633333 3.7,0 5.76666,2.766667 1.46667,2 1.46667,4.733333 0,3.966667 -2.73333,6.233334 -2.1,1.733334 -5,1.733334 -7.9,-0.06667 -7.93334,-11.533335 z m 8.06667,-1.333333 q -2.83333,0 -4.16667,2.2 -0.73333,1.2 -0.73333,2.766667 0,2.866667 2.03333,4.4 1.2,0.9 2.76667,0.9 2.53333,0 3.86667,-2.1 0.83333,-1.333333 0.83333,-3.033333 0,-3.400001 -2.36667,-4.633334 -1,-0.5 -2.23333,-0.5 z"
       style="font-style:normal;font-variant:normal;font-weight:normal;font-stretch:normal;font-size:33.33333588px;font-family:FreeSans;-inkscape-font-specification:FreeSans;fill:#ffffff;fill-opacity:1"
       id="path35843" /></g><text
     xml:space="preserve"
     style="font-style:normal;font-weight:normal;font-size:40px;line-height:125%;font-family:Sans;letter-spacing:0px;word-spacing:0px;fill:#000000;fill-opacity:1;stroke:none;stroke-width:1px;stroke-linecap:butt;stroke-linejoin:miter;stroke-opacity:1"
     x="-141.42136"
     y="315.24631"
     id="text35775"><tspan
       sodipodi:role="line"
       id="tspan35773"
       x="-141.42136"
       y="350.63693" /></text>
<path
     sodipodi:nodetypes="cccc"
     inkscape:connector-curvature="0"
     id="path35781"
     d="m 73.46064,93.349123 c 0.31363,10.513587 2.86489,14.823527 6.57185,20.344067 l 8.72081,-8.54371 C 84.03529,104.07344 78.61854,99.71575 73.46064,93.349123 Z"
     style="opacity:1;fill:#ffffff;fill-opacity:1;fill-rule:evenodd;stroke:none;stroke-width:1.00172007px;stroke-linecap:butt;stroke-linejoin:miter;stroke-opacity:1" /><path
     style="opacity:1;fill:#ffffff;fill-opacity:1;fill-rule:evenodd;stroke:none;stroke-width:1.00172007px;stroke-linecap:butt;stroke-linejoin:miter;stroke-opacity:1"
     d="m 130.6331,119.21784 c 10.51357,-0.31363 14.82351,-2.8649 20.34406,-6.57187 l -8.54372,-8.7208 c -1.07604,4.71801 -5.43373,10.13477 -11.80034,15.29267 z"
     id="path35783"
     inkscape:connector-curvature="0"
     sodipodi:nodetypes="cccc" /><path
     transform="matrix(0.9463049,-0.32855798,0.32855798,0.9463049,-69.85122,133.14335)"
     d="m 223.94673,38.425681 c -3.13084,3.863564 -7.10954,7.019918 -11.58403,9.189766"
     sodipodi:t0="0.99130303"
     sodipodi:argument="-17.855951"
     sodipodi:radius="34.011444"
     sodipodi:revolution="8.0200005"
     sodipodi:expansion="0"
     sodipodi:cy="17.012539"
     sodipodi:cx="197.5222"
     id="path35785"
     style="opacity:1;fill:none;fill-opacity:1;fill-rule:evenodd;stroke:#ffffec;stroke-width:2.51338577;stroke-linecap:butt;stroke-linejoin:miter;stroke-miterlimit:4;stroke-dasharray:none;stroke-opacity:1"
     sodipodi:type="spiral" /><path
     sodipodi:type="spiral"
     style="opacity:1;fill:none;fill-opacity:1;fill-rule:evenodd;stroke:#ffffec;stroke-width:2.51338577;stroke-linecap:butt;stroke-linejoin:miter;stroke-miterlimit:4;stroke-dasharray:none;stroke-opacity:1"
     id="path35787"
     sodipodi:cx="197.5222"
     sodipodi:cy="17.012539"
     sodipodi:expansion="0"
     sodipodi:revolution="8.0200005"
     sodipodi:radius="34.011444"
     sodipodi:argument="-17.855951"
     sodipodi:t0="0.99130303"
     d="m 223.94673,38.425681 c -3.13084,3.863564 -7.10954,7.019918 -11.58403,9.189766"
     transform="matrix(0.32855797,0.9463049,-0.9463049,0.32855797,59.53513,-107.13521)" /><g
     aria-label="5"
     style="font-style:normal;font-variant:normal;font-weight:normal;font-stretch:normal;font-size:33.39067459px;line-height:125%;font-family:sans-serif;-inkscape-font-specification:sans-serif;letter-spacing:0px;word-spacing:0px;fill:#ffffff;fill-opacity:1;stroke:none;stroke-width:1.00172007px;stroke-linecap:butt;stroke-linejoin:miter;stroke-opacity:1"
     id="text35791"><path
       d="m 120.96967,104.49198 v 2.90499 h -9.85025 l -0.93494,6.61135 q 2.00344,-1.4358 4.37418,-1.4358 4.00688,0 6.14388,2.90499 1.50258,2.07023 1.50258,4.97521 0,4.3074 -2.90499,6.71153 -2.17039,1.76971 -5.20894,1.76971 -6.54457,0 -7.78003,-6.27745 -0.0334,-0.10017 -0.0668,-0.30052 h 2.93838 q 1.10189,3.9401 4.84165,3.97349 3.37246,0 4.6413,-2.70464 0.53425,-1.23546 0.53425,-2.77143 0,-3.63958 -2.53769,-5.04199 -1.16867,-0.63442 -2.63786,-0.63442 -2.13701,0 -3.63959,1.4358 -0.3339,0.36729 -0.7012,0.76798 h -2.70465 l 1.76971,-12.8888 z"
       style="font-style:normal;font-variant:normal;font-weight:normal;font-stretch:normal;font-size:33.39067459px;font-family:FreeSans;-inkscape-font-specification:FreeSans;fill:#ffffff;fill-opacity:1;stroke-width:1.00172007px"
       id="path35840" /></g><path
     style="opacity:1;fill:#ffffff;fill-opacity:1;fill-rule:evenodd;stroke:none;stroke-width:1.00172007px;stroke-linecap:butt;stroke-linejoin:miter;stroke-opacity:1"
     d="m 176.05471,328.04361 c 0.31363,10.51359 2.86489,14.82353 6.57185,20.34407 l 8.72081,-8.54371 c -4.71801,-1.07604 -10.13476,-5.43373 -15.29266,-11.80036 z"
     id="path35797"
     inkscape:connector-curvature="0"
     sodipodi:nodetypes="cccc" /><path
     sodipodi:nodetypes="cccc"
     inkscape:connector-curvature="0"
     id="path35799"
     d="m 233.22717,353.91233 c 10.51357,-0.31363 14.82351,-2.8649 20.34406,-6.57187 l -8.54372,-8.7208 c -1.07604,4.71801 -5.43373,10.13477 -11.80034,15.29267 z"
     style="opacity:1;fill:#ffffff;fill-opacity:1;fill-rule:evenodd;stroke:none;stroke-width:1.00172007px;stroke-linecap:butt;stroke-linejoin:miter;stroke-opacity:1" /><path
     sodipodi:type="spiral"
     style="opacity:1;fill:none;fill-opacity:1;fill-rule:evenodd;stroke:#ffffec;stroke-width:2.51338577;stroke-linecap:butt;stroke-linejoin:miter;stroke-miterlimit:4;stroke-dasharray:none;stroke-opacity:1"
     id="path35801"
     sodipodi:cx="197.5222"
     sodipodi:cy="17.012539"
     sodipodi:expansion="0"
     sodipodi:revolution="8.0200005"
     sodipodi:radius="34.011444"
     sodipodi:argument="-17.855951"
     sodipodi:t0="0.99130303"
     d="m 223.94673,38.425681 c -3.13084,3.863564 -7.10954,7.019918 -11.58403,9.189766"
     transform="matrix(0.9463049,-0.32855798,0.32855798,0.9463049,32.742853,367.83784)" /><path
     transform="matrix(0.32855797,0.9463049,-0.9463049,0.32855797,162.1292,127.55928)"
     d="m 223.94673,38.425681 c -3.13084,3.863564 -7.10954,7.019918 -11.58403,9.189766"
     sodipodi:t0="0.99130303"
     sodipodi:argument="-17.855951"
     sodipodi:radius="34.011444"
     sodipodi:revolution="8.0200005"
     sodipodi:expansion="0"
     sodipodi:cy="17.012539"
     sodipodi:cx="197.5222"
     id="path35803"
     style="opacity:1;fill:none;fill-opacity:1;fill-rule:evenodd;stroke:#ffffec;stroke-width:2.51338577;stroke-linecap:butt;stroke-linejoin:miter;stroke-miterlimit:4;stroke-dasharray:none;stroke-opacity:1"
     sodipodi:type="spiral" /><g
     aria-label="3"
     style="font-style:normal;font-variant:normal;font-weight:normal;font-stretch:normal;font-size:33.39067459px;line-height:125%;font-family:sans-serif;-inkscape-font-specification:sans-serif;letter-spacing:0px;word-spacing:0px;fill:#ffffff;fill-opacity:1;stroke:none;stroke-width:1.00172007px;stroke-linecap:butt;stroke-linejoin:miter;stroke-opacity:1"
     id="text35807"><path
       d="m 216.68527,341.75754 q -3.80654,0 -4.40757,3.67297 -0.0668,0.63442 -0.10017,1.40241 h -2.93838 q 0.13356,-7.01204 6.34422,-7.61307 0.53426,-0.0334 1.06851,-0.0334 4.67469,0 6.41101,3.13873 0.80137,1.46919 0.80137,3.37246 -0.0334,3.60619 -3.30568,4.90843 3.10534,1.0685 3.77315,3.60619 0.23374,0.90155 0.23374,2.03683 0,4.10705 -3.13873,6.11049 -2.03683,1.26885 -4.87504,1.26885 -6.54457,0 -7.64646,-6.14389 -0.10017,-0.73459 -0.16695,-1.50258 h 2.93838 q 0.26712,4.40757 3.77314,4.94182 0.56764,0.10018 1.20207,0.10018 3.47263,0 4.54113,-2.63787 0.3673,-0.96833 0.3673,-2.10361 -0.0668,-4.27401 -4.90843,-4.3074 l -1.23546,0.0334 h -0.3673 v -2.5043 q 3.77315,-0.0668 4.90843,-1.10189 0.90155,-0.86816 0.90155,-2.60447 0,-2.83821 -2.33735,-3.73976 -0.83476,-0.30051 -1.83648,-0.30051 z"
       style="font-style:normal;font-variant:normal;font-weight:normal;font-stretch:normal;font-size:33.39067459px;font-family:FreeSans;-inkscape-font-specification:FreeSans;fill:#ffffff;fill-opacity:1;stroke-width:1.00172007px"
       id="path35828" /></g></svg>