<?xml version="1.0" encoding="UTF-8" standalone="no"?>
<svg
   xmlns:dc="http://purl.org/dc/elements/1.1/"
   xmlns:cc="http://creativecommons.org/ns#"
   xmlns:rdf="http://www.w3.org/1999/02/22-rdf-syntax-ns#"
   xmlns:svg="http://www.w3.org/2000/svg"
   xmlns="http://www.w3.org/2000/svg"
   xmlns:sodipodi="http://sodipodi.sourceforge.net/DTD/sodipodi-0.dtd"
   xmlns:inkscape="http://www.inkscape.org/namespaces/inkscape"
   version="1.1"
   id="draw"
   x="0px"
   y="0px"
   viewBox="0 0 387.573 324.704"
   enable-background="new 0 0 387.573 324.704"
   xml:space="preserve"
   sodipodi:docname="VTOLPlane.svg"
   inkscape:version="1.0.2-2 (e86c870879, 2021-01-15)"><metadata
   id="metadata31106"><rdf:RDF><cc:Work
       rdf:about=""><dc:format>image/svg+xml</dc:format><dc:type
         rdf:resource="http://purl.org/dc/dcmitype/StillImage" /><dc:title>VTOLPlane</dc:title></cc:Work></rdf:RDF></metadata><defs
   id="defs31104" /><sodipodi:namedview
   pagecolor="#ffffff"
   bordercolor="#666666"
   borderopacity="1"
   objecttolerance="10"
   gridtolerance="10"
   guidetolerance="10"
   inkscape:pageopacity="0"
   inkscape:pageshadow="2"
   inkscape:window-width="1920"
   inkscape:window-height="1017"
   id="namedview31102"
   showgrid="false"
   inkscape:zoom="2.0557455"
   inkscape:cx="149.55393"
   inkscape:cy="175.00364"
   inkscape:window-x="-8"
   inkscape:window-y="-8"
   inkscape:window-maximized="1"
   inkscape:current-layer="draw"
   inkscape:document-rotation="0" /><title
   id="title31061">VTOLPlane</title><rect
   x="94.814"
   y="51"
   fill="#FFFFFF"
   stroke="#000000"
   stroke-miterlimit="10"
   width="6.402"
   height="188.979"
   id="rect31063" /><rect
   x="286.814"
   y="51"
   fill="#FFFFFF"
   stroke="#000000"
   stroke-miterlimit="10"
   width="6.402"
   height="188.979"
   id="rect31065" /><g
   opacity="0.8"
   id="g31069"><ellipse
     transform="matrix(0.7071 -0.7071 0.7071 0.7071 -7.3479 84.2497)"
     fill="#159E1F"
     cx="98.019"
     cy="50.994"
     rx="50.993"
     ry="51.004"
     id="ellipse31067" /></g><g
   opacity="0.8"
   id="g31073"><ellipse
     transform="matrix(0.7071 -0.7071 0.7071 0.7071 -140.9801 139.6049)"
     fill="#4EC3E8"
     cx="98.02"
     cy="239.972"
     rx="50.993"
     ry="51.004"
     id="ellipse31071" /></g><path
   fill="#FFFFFF"
   stroke="#000000"
   stroke-miterlimit="10"
   d="M90.077,58.918c-4.373-4.385-4.363-11.485,0.022-15.858  c4.385-4.373,11.485-4.363,15.858,0.022c4.364,4.376,4.364,11.459,0,15.835c-4.347,4.385-11.426,4.416-15.811,0.069  C90.123,58.964,90.1,58.941,90.077,58.918z"
   id="path31075" /><path
   fill="#FFFFFF"
   stroke="#000000"
   stroke-miterlimit="10"
   d="M90.077,247.898c-4.373-4.385-4.363-11.485,0.022-15.858  c4.385-4.373,11.485-4.363,15.858,0.022c4.364,4.376,4.364,11.459,0,15.835c-4.347,4.385-11.426,4.416-15.811,0.069  C90.123,247.944,90.1,247.921,90.077,247.898z"
   id="path31077" /><g
   opacity="0.8"
   id="g31081"><ellipse
     transform="matrix(0.7071 -0.7071 0.7071 0.7071 48.8925 220.0187)"
     fill="#4EC3E8"
     cx="290.019"
     cy="50.994"
     rx="50.993"
     ry="51.004"
     id="ellipse31079" /></g><g
   opacity="0.8"
   id="g31085"><ellipse
     transform="matrix(0.7071 -0.7071 0.7071 0.7071 -84.7391 275.3736)"
     fill="#159E1F"
     cx="290.019"
     cy="239.971"
     rx="50.993"
     ry="51.004"
     id="ellipse31083" /></g><path
   fill="#FFFFFF"
   stroke="#000000"
   stroke-miterlimit="10"
   d="M282.077,58.918c-4.373-4.385-4.363-11.485,0.022-15.858  c4.385-4.373,11.485-4.363,15.858,0.022c4.364,4.376,4.364,11.459,0,15.835c-4.347,4.385-11.426,4.416-15.811,0.069  C282.123,58.964,282.1,58.941,282.077,58.918z"
   id="path31087" /><path
   fill="#FFFFFF"
   stroke="#000000"
   stroke-miterlimit="10"
   d="M282.077,247.898c-4.373-4.385-4.363-11.485,0.022-15.858  c4.385-4.373,11.485-4.363,15.858,0.022c4.364,4.376,4.364,11.459,0,15.835c-4.347,4.385-11.426,4.416-15.811,0.069  C282.123,247.944,282.1,247.921,282.077,247.898z"
   id="path31089" /><path
   fill="#4EC3E8"
   stroke="#000000"
   stroke-miterlimit="10"
   d="M193.786,324.203h59.055c-12.667-25.332-28.333-26-28.333-26  h-22.997l5.333-124.667c0,0,143-6.167,180-7.333c-17-42.167-70.667-43.833-70.667-43.833H211.341V85.037  c0,0,0.663-31.681-15.167-31.5h-4.776c-15.811,0.236-15.167,31.5-15.167,31.5v37.333H71.398c0,0-53.667,1.667-70.667,43.833  c37,1.167,180,7.333,180,7.333l5.333,124.667h-23c0,0-15.667,0.669-28.333,26H193.786"
   id="path31091" /><path
   fill="#159E1F"
   stroke="#000000"
   stroke-miterlimit="10"
   d="M51.153,168.108c38.73,1.558,86.711,3.593,112.028,4.675  l0.24-11.262l-112-5C51.421,156.521,51.25,163.662,51.153,168.108z"
   id="path31093" /><path
   fill="#159E1F"
   stroke="#000000"
   stroke-miterlimit="10"
   d="M336.334,168.215c-38.73,1.558-86.711,3.593-112.028,4.675  l-0.24-11.262l112-5C336.066,156.628,336.237,163.769,336.334,168.215z"
   id="path31095" /><polygon
   fill="#159E1F"
   stroke="#000000"
   stroke-miterlimit="10"
   points="154.731,324.204 154.731,311.188 232.841,311.188   232.841,324.188 "
   id="polygon31097" /><polygon
   fill="#159E1F"
   stroke="#000000"
   stroke-miterlimit="10"
   points="196.228,324.022 191.395,324.022 189.395,298.355   198.228,298.355 "
   id="polygon31099" /><path
   sodipodi:nodetypes="cccc"
   inkscape:connector-curvature="0"
   id="path7676"
   d="m 135.583,69.879845 c 7.20007,-7.642842 8.44151,-12.486122 9.7217,-18.99975 l -12.18689,-0.125 c 2.57083,4.089978 3.31842,10.989678 2.46519,19.12475 z"
   style="opacity:1;fill:#ffffff;fill-opacity:1;fill-rule:evenodd;stroke:none;stroke-width:1px;stroke-linecap:butt;stroke-linejoin:miter;stroke-opacity:1" /><path
   sodipodi:type="spiral"
   style="opacity:1;fill:none;fill-opacity:1;fill-rule:evenodd;stroke:#ffffec;stroke-width:2.51338577;stroke-linecap:butt;stroke-linejoin:miter;stroke-miterlimit:4;stroke-dasharray:none;stroke-opacity:1"
   id="path7711"
   sodipodi:cx="197.5222"
   sodipodi:cy="17.012539"
   sodipodi:expansion="0"
   sodipodi:revolution="8.0200005"
   sodipodi:radius="34.011444"
   sodipodi:argument="-17.855951"
   sodipodi:t0="0.99130303"
   d="m 223.94673,38.425681 c -3.13084,3.863564 -7.10954,7.019918 -11.58403,9.189766"
   transform="rotate(-64.147051,178.46294,107.50927)" /><path
   style="opacity:1;fill:#ffffff;fill-opacity:1;fill-rule:evenodd;stroke:none;stroke-width:1px;stroke-linecap:butt;stroke-linejoin:miter;stroke-opacity:1"
   d="m 59.400901,32.560488 c -7.20007,7.642839 -8.44151,12.486121 -9.7217,18.999749 l 12.18689,0.125 c -2.57083,-4.089977 -3.31842,-10.989681 -2.46519,-19.124749 z"
   id="path7831"
   inkscape:connector-curvature="0"
   sodipodi:nodetypes="cccc" /><path
   transform="rotate(115.85295,132.76583,0.47928514)"
   d="m 223.94673,38.425681 c -3.13084,3.863564 -7.10954,7.019918 -11.58403,9.189766"
   sodipodi:t0="0.99130303"
   sodipodi:argument="-17.855951"
   sodipodi:radius="34.011444"
   sodipodi:revolution="8.0200005"
   sodipodi:expansion="0"
   sodipodi:cy="17.012539"
   sodipodi:cx="197.5222"
   id="path7833"
   style="opacity:1;fill:none;fill-opacity:1;fill-rule:evenodd;stroke:#ffffec;stroke-width:2.51338577;stroke-linecap:butt;stroke-linejoin:miter;stroke-miterlimit:4;stroke-dasharray:none;stroke-opacity:1"
   sodipodi:type="spiral" /><text
   xml:space="preserve"
   style="font-style:normal;font-variant:normal;font-weight:normal;font-stretch:normal;font-size:33.3333px;line-height:125%;font-family:sans-serif;-inkscape-font-specification:sans-serif;letter-spacing:0px;word-spacing:0px;fill:#ffffff;fill-opacity:1;stroke:none;stroke-width:1px;stroke-linecap:butt;stroke-linejoin:miter;stroke-opacity:1"
   x="85.457809"
   y="31.126339"
   id="text7999"><tspan
     sodipodi:role="line"
     id="tspan7997"
     x="85.457809"
     y="31.126339"
     style="font-style:normal;font-variant:normal;font-weight:normal;font-stretch:normal;font-size:33.3333px;font-family:FreeSans;-inkscape-font-specification:FreeSans;fill:#ffffff;fill-opacity:1">3</tspan></text>
<path
   style="opacity:1;fill:#ffffff;fill-opacity:1;fill-rule:evenodd;stroke:none;stroke-width:1px;stroke-linecap:butt;stroke-linejoin:miter;stroke-opacity:1"
   d="m 135.583,69.879845 c 7.20007,-7.642842 8.44151,-12.486122 9.7217,-18.99975 l -12.18689,-0.125 c 2.57083,4.089978 3.31842,10.989678 2.46519,19.12475 z"
   id="path14492"
   inkscape:connector-curvature="0"
   sodipodi:nodetypes="cccc" /><path
   transform="rotate(-64.147051,178.46294,107.50927)"
   d="m 223.94673,38.425681 c -3.13084,3.863564 -7.10954,7.019918 -11.58403,9.189766"
   sodipodi:t0="0.99130303"
   sodipodi:argument="-17.855951"
   sodipodi:radius="34.011444"
   sodipodi:revolution="8.0200005"
   sodipodi:expansion="0"
   sodipodi:cy="17.012539"
   sodipodi:cx="197.5222"
   id="path14494"
   style="opacity:1;fill:none;fill-opacity:1;fill-rule:evenodd;stroke:#ffffec;stroke-width:2.51338577;stroke-linecap:butt;stroke-linejoin:miter;stroke-miterlimit:4;stroke-dasharray:none;stroke-opacity:1"
   sodipodi:type="spiral" /><path
   sodipodi:nodetypes="cccc"
   inkscape:connector-curvature="0"
   id="path14496"
   d="m 59.400901,32.560488 c -7.20007,7.642839 -8.44151,12.486121 -9.7217,18.999749 l 12.18689,0.125 c -2.57083,-4.089977 -3.31842,-10.989681 -2.46519,-19.124749 z"
   style="opacity:1;fill:#ffffff;fill-opacity:1;fill-rule:evenodd;stroke:none;stroke-width:1px;stroke-linecap:butt;stroke-linejoin:miter;stroke-opacity:1" /><path
   sodipodi:type="spiral"
   style="opacity:1;fill:none;fill-opacity:1;fill-rule:evenodd;stroke:#ffffec;stroke-width:2.51338577;stroke-linecap:butt;stroke-linejoin:miter;stroke-miterlimit:4;stroke-dasharray:none;stroke-opacity:1"
   id="path14498"
   sodipodi:cx="197.5222"
   sodipodi:cy="17.012539"
   sodipodi:expansion="0"
   sodipodi:revolution="8.0200005"
   sodipodi:radius="34.011444"
   sodipodi:argument="-17.855951"
   sodipodi:t0="0.99130303"
   d="m 223.94673,38.425681 c -3.13084,3.863564 -7.10954,7.019918 -11.58403,9.189766"
   transform="rotate(115.85295,132.76583,0.47928514)" /><path
   sodipodi:nodetypes="cccc"
   inkscape:connector-curvature="0"
   id="path7676-2"
   d="m 327.70124,258.65854 c 7.20007,-7.64284 8.44151,-12.48612 9.7217,-18.99975 l -12.18689,-0.125 c 2.57083,4.08998 3.31842,10.98968 2.46519,19.12475 z"
   style="opacity:1;fill:#ffffff;fill-opacity:1;fill-rule:evenodd;stroke:none;stroke-width:1px;stroke-linecap:butt;stroke-linejoin:miter;stroke-opacity:1" /><path
   sodipodi:type="spiral"
   style="opacity:1;fill:none;fill-opacity:1;fill-rule:evenodd;stroke:#ffffec;stroke-width:2.51338577;stroke-linecap:butt;stroke-linejoin:miter;stroke-miterlimit:4;stroke-dasharray:none;stroke-opacity:1"
   id="path7711-9"
   sodipodi:cx="197.5222"
   sodipodi:cy="17.012539"
   sodipodi:expansion="0"
   sodipodi:revolution="8.0200005"
   sodipodi:radius="34.011444"
   sodipodi:argument="-17.855951"
   sodipodi:t0="0.99130303"
   d="m 223.94673,38.425681 c -3.13084,3.863564 -7.10954,7.019918 -11.58403,9.189766"
   transform="rotate(-64.147051,425.14613,48.609956)" /><path
   style="opacity:1;fill:#ffffff;fill-opacity:1;fill-rule:evenodd;stroke:none;stroke-width:1px;stroke-linecap:butt;stroke-linejoin:miter;stroke-opacity:1"
   d="m 251.51916,221.33918 c -7.20007,7.64284 -8.44151,12.48612 -9.7217,18.99975 l 12.18689,0.125 c -2.57083,-4.08998 -3.31842,-10.98968 -2.46519,-19.12475 z"
   id="path7831-7"
   inkscape:connector-curvature="0"
   sodipodi:nodetypes="cccc" /><path
   transform="rotate(115.85295,169.67539,155.06456)"
   d="m 223.94673,38.425681 c -3.13084,3.863564 -7.10954,7.019918 -11.58403,9.189766"
   sodipodi:t0="0.99130303"
   sodipodi:argument="-17.855951"
   sodipodi:radius="34.011444"
   sodipodi:revolution="8.0200005"
   sodipodi:expansion="0"
   sodipodi:cy="17.012539"
   sodipodi:cx="197.5222"
   id="path7833-9"
   style="opacity:1;fill:none;fill-opacity:1;fill-rule:evenodd;stroke:#ffffec;stroke-width:2.51338577;stroke-linecap:butt;stroke-linejoin:miter;stroke-miterlimit:4;stroke-dasharray:none;stroke-opacity:1"
   sodipodi:type="spiral" /><g
   aria-label="4"
   style="font-style:normal;font-variant:normal;font-weight:normal;font-stretch:normal;font-size:33.33333588px;line-height:125%;font-family:sans-serif;-inkscape-font-specification:sans-serif;letter-spacing:0px;word-spacing:0px;fill:#ffffff;fill-opacity:1;stroke:none;stroke-width:1px;stroke-linecap:butt;stroke-linejoin:miter;stroke-opacity:1"
   id="text7999-0"><path
     d="m 292.41697,278.49242 h -9.96667 v -3.1 l 10.73334,-14.86667 h 2.16666 v 15.33334 h 3.5 v 2.63333 h -3.5 v 5.66667 h -2.93333 z m 0,-2.63333 v -10.33334 l -7.4,10.33334 z"
     style="font-style:normal;font-variant:normal;font-weight:normal;font-stretch:normal;font-size:33.33333588px;font-family:FreeSans;-inkscape-font-specification:FreeSans;fill:#ffffff;fill-opacity:1"
     id="path31799" /></g><path
   style="opacity:1;fill:#ffffff;fill-opacity:1;fill-rule:evenodd;stroke:none;stroke-width:1px;stroke-linecap:butt;stroke-linejoin:miter;stroke-opacity:1"
   d="m 250.73168,69.527185 c -7.20006,-7.642842 -8.4415,-12.486122 -9.72169,-18.99975 l 12.18688,-0.125 c -2.57083,4.089978 -3.31842,10.989678 -2.46519,19.12475 z"
   id="path7870"
   inkscape:connector-curvature="0"
   sodipodi:nodetypes="cccc" /><path
   transform="matrix(-0.43606293,-0.89991617,-0.89991617,0.43606293,382.42217,220.8775)"
   d="m 223.94673,38.425681 c -3.13084,3.863564 -7.10954,7.019918 -11.58403,9.189766"
   sodipodi:t0="0.99130303"
   sodipodi:argument="-17.855951"
   sodipodi:radius="34.011444"
   sodipodi:revolution="8.0200005"
   sodipodi:expansion="0"
   sodipodi:cy="17.012539"
   sodipodi:cx="197.5222"
   id="path7872"
   style="opacity:1;fill:none;fill-opacity:1;fill-rule:evenodd;stroke:#ffffec;stroke-width:2.51338577;stroke-linecap:butt;stroke-linejoin:miter;stroke-miterlimit:4;stroke-dasharray:none;stroke-opacity:1"
   sodipodi:type="spiral" /><path
   sodipodi:nodetypes="cccc"
   inkscape:connector-curvature="0"
   id="path7874"
   d="m 326.91377,32.207825 c 7.20007,7.64284 8.44151,12.48613 9.7217,18.99975 l -12.18689,0.124998 c 2.57083,-4.089968 3.31842,-10.989678 2.46519,-19.124748 z"
   style="opacity:1;fill:#ffffff;fill-opacity:1;fill-rule:evenodd;stroke:none;stroke-width:1px;stroke-linecap:butt;stroke-linejoin:miter;stroke-opacity:1" /><path
   sodipodi:type="spiral"
   style="opacity:1;fill:none;fill-opacity:1;fill-rule:evenodd;stroke:#ffffec;stroke-width:2.51338577;stroke-linecap:butt;stroke-linejoin:miter;stroke-miterlimit:4;stroke-dasharray:none;stroke-opacity:1"
   id="path7876"
   sodipodi:cx="197.5222"
   sodipodi:cy="17.012539"
   sodipodi:expansion="0"
   sodipodi:revolution="8.0200005"
   sodipodi:radius="34.011444"
   sodipodi:argument="-17.855951"
   sodipodi:t0="0.99130303"
   d="m 223.94673,38.425681 c -3.13084,3.863564 -7.10954,7.019918 -11.58403,9.189766"
   transform="matrix(0.43606294,0.89991617,0.89991617,-0.43606294,195.2233,-119.14247)" /><g
   aria-label="1"
   style="font-style:normal;font-variant:normal;font-weight:normal;font-stretch:normal;font-size:33.33333588px;line-height:125%;font-family:sans-serif;-inkscape-font-specification:sans-serif;letter-spacing:0px;word-spacing:0px;fill:#ffffff;fill-opacity:1;stroke:none;stroke-width:1px;stroke-linecap:butt;stroke-linejoin:miter;stroke-opacity:1"
   id="text7991"><path
     d="m 290.5567,13.059791 h -5.23333 v -2.1 q 3.4,-0.433334 4.4,-1.2000003 1,-0.7333334 1.7,-3.1000003 0.0667,-0.2 0.13333,-0.4 h 1.93334 V 29.893126 h -2.93334 z"
     style="font-style:normal;font-variant:normal;font-weight:normal;font-stretch:normal;font-size:33.33333588px;font-family:FreeSans;-inkscape-font-specification:FreeSans;fill:#ffffff;fill-opacity:1"
     id="path31802" /></g><path
   style="opacity:1;fill:#ffffff;fill-opacity:1;fill-rule:evenodd;stroke:none;stroke-width:1px;stroke-linecap:butt;stroke-linejoin:miter;stroke-opacity:1"
   d="m 58.693545,258.21116 c -7.20007,-7.64284 -8.44151,-12.48612 -9.7217,-18.99975 l 12.18689,-0.125 c -2.57083,4.08998 -3.31842,10.98968 -2.46519,19.12475 z"
   id="path7870-5"
   inkscape:connector-curvature="0"
   sodipodi:nodetypes="cccc" /><path
   transform="matrix(-0.43606293,-0.89991617,-0.89991617,0.43606293,190.38403,409.56147)"
   d="m 223.94673,38.425681 c -3.13084,3.863564 -7.10954,7.019918 -11.58403,9.189766"
   sodipodi:t0="0.99130303"
   sodipodi:argument="-17.855951"
   sodipodi:radius="34.011444"
   sodipodi:revolution="8.0200005"
   sodipodi:expansion="0"
   sodipodi:cy="17.012539"
   sodipodi:cx="197.5222"
   id="path7872-2"
   style="opacity:1;fill:none;fill-opacity:1;fill-rule:evenodd;stroke:#ffffec;stroke-width:2.51338577;stroke-linecap:butt;stroke-linejoin:miter;stroke-miterlimit:4;stroke-dasharray:none;stroke-opacity:1"
   sodipodi:type="spiral" /><path
   sodipodi:nodetypes="cccc"
   inkscape:connector-curvature="0"
   id="path7874-1"
   d="m 134.87564,220.8918 c 7.20007,7.64284 8.44151,12.48613 9.7217,18.99975 l -12.18689,0.125 c 2.57083,-4.08997 3.31842,-10.98968 2.46519,-19.12475 z"
   style="opacity:1;fill:#ffffff;fill-opacity:1;fill-rule:evenodd;stroke:none;stroke-width:1px;stroke-linecap:butt;stroke-linejoin:miter;stroke-opacity:1" /><path
   sodipodi:type="spiral"
   style="opacity:1;fill:none;fill-opacity:1;fill-rule:evenodd;stroke:#ffffec;stroke-width:2.51338577;stroke-linecap:butt;stroke-linejoin:miter;stroke-miterlimit:4;stroke-dasharray:none;stroke-opacity:1"
   id="path7876-6"
   sodipodi:cx="197.5222"
   sodipodi:cy="17.012539"
   sodipodi:expansion="0"
   sodipodi:revolution="8.0200005"
   sodipodi:radius="34.011444"
   sodipodi:argument="-17.855951"
   sodipodi:t0="0.99130303"
   d="m 223.94673,38.425681 c -3.13084,3.863564 -7.10954,7.019918 -11.58403,9.189766"
   transform="matrix(0.43606294,0.89991617,0.89991617,-0.43606294,3.1851645,69.541509)" /><g
   aria-label="2"
   style="font-style:normal;font-variant:normal;font-weight:normal;font-stretch:normal;font-size:33.33333588px;line-height:125%;font-family:sans-serif;-inkscape-font-specification:sans-serif;letter-spacing:0px;word-spacing:0px;fill:#ffffff;fill-opacity:1;stroke:none;stroke-width:1px;stroke-linecap:butt;stroke-linejoin:miter;stroke-opacity:1"
   id="text7991-1"><path
     d="m 90.852526,268.7683 q 0.266667,-8.16667 7.800001,-8.20001 4.033333,0 6.166663,2.66667 1.4,1.83333 1.4,4.26667 -0.0333,4.4 -5,7.13333 l -3.33333,1.8 q -3.1,1.66667 -3.9,3.53334 -0.266667,0.6 -0.366667,1.33333 h 12.433337 v 2.9 H 90.319193 q 0.233333,-4.26667 1.9,-6.5 1.433334,-1.86667 4.733334,-3.73333 l 3.066663,-1.73334 q 3.16667,-1.86666 3.2,-4.66666 0,-2.40001 -2,-3.70001 -1.16666,-0.73333 -2.666663,-0.73333 -4.366667,0 -4.766667,5.43334 0,0.1 0,0.2 z"
     style="font-style:normal;font-variant:normal;font-weight:normal;font-stretch:normal;font-size:33.33333588px;font-family:FreeSans;-inkscape-font-specification:FreeSans;fill:#ffffff;fill-opacity:1"
     id="path31796" /></g></svg>
