<?xml version="1.0" encoding="UTF-8" standalone="no"?>
<svg
   xmlns:dc="http://purl.org/dc/elements/1.1/"
   xmlns:cc="http://creativecommons.org/ns#"
   xmlns:rdf="http://www.w3.org/1999/02/22-rdf-syntax-ns#"
   xmlns:svg="http://www.w3.org/2000/svg"
   xmlns="http://www.w3.org/2000/svg"
   xmlns:sodipodi="http://sodipodi.sourceforge.net/DTD/sodipodi-0.dtd"
   xmlns:inkscape="http://www.inkscape.org/namespaces/inkscape"
   version="1.1"
   id="draw"
   x="0px"
   y="0px"
   viewBox="0 0 433.662 366.158"
   enable-background="new 0 0 433.662 366.158"
   xml:space="preserve"
   sodipodi:docname="aa_eflight_VTOLTiltRotor.svg"
   inkscape:version="1.0.2-2 (e86c870879, 2021-01-15)"><metadata
   id="metadata33373"><rdf:RDF><cc:Work
       rdf:about=""><dc:format>image/svg+xml</dc:format><dc:type
         rdf:resource="http://purl.org/dc/dcmitype/StillImage" /><dc:title>VTOLTiltRotor</dc:title></cc:Work></rdf:RDF></metadata><defs
   id="defs33371" /><sodipodi:namedview
   pagecolor="#ffffff"
   bordercolor="#666666"
   borderopacity="1"
   objecttolerance="10"
   gridtolerance="10"
   guidetolerance="10"
   inkscape:pageopacity="0"
   inkscape:pageshadow="2"
   inkscape:window-width="1920"
   inkscape:window-height="1017"
   id="namedview33369"
   showgrid="false"
   inkscape:zoom="1.4142136"
   inkscape:cx="305.95505"
   inkscape:cy="174.86773"
   inkscape:window-x="-8"
   inkscape:window-y="-8"
   inkscape:window-maximized="1"
   inkscape:current-layer="draw"
   inkscape:document-rotation="0" /><title
   id="title33326">VTOLTiltRotor</title><rect
   x="119.349"
   y="51.786"
   fill="#FFFFFF"
   stroke="#000000"
   stroke-miterlimit="10"
   width="194.965"
   height="6.11"
   id="rect33328" /><rect
   x="214.357"
   y="174.37"
   fill="#FFFFFF"
   stroke="#000000"
   stroke-miterlimit="10"
   width="6.12"
   height="104.473"
   id="rect33330" /><path
   fill="#4EC3E8"
   stroke="#000000"
   stroke-miterlimit="10"
   d="M227.402,211.885c117.211,5.687,205.717,76.149,205.717,76.149  s-0.8-20.38-1.595-33.809s-4.253-18.01-4.253-18.01s-94.221-100-101.264-106.956s-7.575-10.585-25.382-10.585  c-66.712,0-57.808-63.51-57.808-71.251s-3.522-10.98-4.917-12.639s-3.721-7.267-8.505-21.012  c-4.16-11.95-10.727-13.152-12.372-13.262V0.501c0,0-0.068,0-0.193,0s-0.193,0-0.193,0V0.51c-1.645,0.11-8.213,1.311-12.372,13.262  c-4.784,13.745-7.11,19.353-8.505,21.012s-4.917,4.9-4.917,12.639s8.9,71.251-57.808,71.251c-17.808,0-18.339,3.634-25.382,10.585  S6.389,236.215,6.389,236.215s-3.455,4.582-4.253,18.01s-1.595,33.809-1.595,33.809s88.506-70.461,205.717-76.149H227.402  L227.402,211.885z"
   id="path33344" /><path
   fill="#159E1F"
   stroke="#000000"
   stroke-miterlimit="10"
   d="M299.525,223.521c50.117,13.578,90.1,35.681,112.8,50.161  l-0.235-20.146l-92.154-61.557L299.525,223.521z"
   id="path33346" /><path
   fill="#159E1F"
   stroke="#000000"
   stroke-miterlimit="10"
   d="M134.187,223.521c-50.117,13.578-90.1,35.681-112.8,50.161  l0.676-20.44l91.713-61.262L134.187,223.521z"
   id="path33348" /><text
   xml:space="preserve"
   style="font-style:normal;font-weight:normal;font-size:40px;line-height:125%;font-family:Sans;letter-spacing:0px;word-spacing:0px;fill:#000000;fill-opacity:1;stroke:none;stroke-width:1px;stroke-linecap:butt;stroke-linejoin:miter;stroke-opacity:1"
   x="-141.42136"
   y="315.24631"
   id="text35775"><tspan
     sodipodi:role="line"
     id="tspan35773"
     x="-141.42136"
     y="350.63693" /></text>
<g
   transform="translate(260.84055,3.465239)"
   style="opacity:0.8"
   id="g40598"><ellipse
     style="fill:#159e1f"
     transform="matrix(0.7051,-0.7091,0.7091,0.7051,-21.1165,51.1916)"
     cx="50.993999"
     cy="50.986"
     rx="50.993"
     ry="51.004002"
     id="ellipse40596" /></g><path
   stroke-miterlimit="10"
   d="m 319.7907,45.861569 c -4.374,-4.384 -11.473,-4.393 -15.858,-0.019 -4.384,4.374 -4.393,11.473 -0.019,15.858 4.365,4.375 11.447,4.394 15.835,0.042 4.397,-4.335 4.446,-11.414 0.111,-15.811 -0.023,-0.024 -0.046,-0.047 -0.069,-0.07 z"
   id="path41452"
   inkscape:connector-curvature="0"
   style="fill:#ffffff;stroke:#000000;stroke-miterlimit:10" /><g
   aria-label="1"
   style="font-style:normal;font-variant:normal;font-weight:normal;font-stretch:normal;font-size:33.3333px;line-height:125%;font-family:sans-serif;-inkscape-font-specification:sans-serif;letter-spacing:0px;word-spacing:0px;fill:#ffffff;fill-opacity:1;stroke:none;stroke-width:1px;stroke-linecap:butt;stroke-linejoin:miter;stroke-opacity:1"
   id="text7991"
   transform="translate(19.468699,3.184569)"><path
     d="m 292.91522,13.279992 h -5.23333 v -2.1 q 3.4,-0.433333 4.4,-1.1999998 1,-0.7333334 1.7,-3.1000003 0.0667,-0.2 0.13333,-0.4 h 1.93334 V 30.113327 h -2.93334 z"
     style="font-style:normal;font-variant:normal;font-weight:normal;font-stretch:normal;font-size:33.3333px;font-family:FreeSans;-inkscape-font-specification:FreeSans;fill:#ffffff;fill-opacity:1"
     id="path42777"
     inkscape:connector-curvature="0" /></g><path
   style="fill:#ffffff;fill-opacity:1;fill-rule:evenodd;stroke:none;stroke-width:1px;stroke-linecap:butt;stroke-linejoin:miter;stroke-opacity:1"
   d="m 275.81243,34.509449 c -7.20006,7.64284 -8.4415,12.48612 -9.72169,18.99975 l 12.18688,0.125 c -2.57083,-4.08998 -3.31842,-10.98968 -2.46519,-19.12475 z"
   id="path7870"
   inkscape:connector-curvature="0"
   sodipodi:nodetypes="cccc" /><path
   transform="rotate(115.85295,240.36088,69.261464)"
   sodipodi:t0="0.99130303"
   sodipodi:argument="-17.855951"
   sodipodi:radius="34.011444"
   sodipodi:revolution="8.0200005"
   sodipodi:expansion="0"
   sodipodi:cy="17.012539"
   sodipodi:cx="197.5222"
   id="path7872"
   style="fill:none;fill-opacity:1;fill-rule:evenodd;stroke:#ffffec;stroke-width:2.51339;stroke-linecap:butt;stroke-linejoin:miter;stroke-miterlimit:4;stroke-dasharray:none;stroke-opacity:1"
   sodipodi:type="spiral"
   d="m 223.94673,38.425681 c -3.13084,3.863564 -7.10954,7.019918 -11.58403,9.189766" /><path
   sodipodi:nodetypes="cccc"
   inkscape:connector-curvature="0"
   id="path7874"
   d="m 349.812,69.311699 c 7.20007,-7.64284 8.44151,-12.48613 9.7217,-18.99975 l -12.18689,-0.125 c 2.57083,4.08997 3.31842,10.98968 2.46519,19.12475 z"
   style="fill:#ffffff;fill-opacity:1;fill-rule:evenodd;stroke:none;stroke-width:1px;stroke-linecap:butt;stroke-linejoin:miter;stroke-opacity:1" /><path
   sodipodi:type="spiral"
   style="fill:none;fill-opacity:1;fill-rule:evenodd;stroke:#ffffec;stroke-width:2.51339;stroke-linecap:butt;stroke-linejoin:miter;stroke-miterlimit:4;stroke-dasharray:none;stroke-opacity:1"
   id="path7876"
   sodipodi:cx="197.5222"
   sodipodi:cy="17.012539"
   sodipodi:expansion="0"
   sodipodi:revolution="8.0200005"
   sodipodi:radius="34.011444"
   sodipodi:argument="-17.855951"
   sodipodi:t0="0.99130303"
   transform="rotate(-64.14705,285.12427,-63.705331)"
   d="m 223.94673,38.425681 c -3.13084,3.863564 -7.10954,7.019918 -11.58403,9.189766" /><g
   opacity="0.8"
   id="g41456"
   transform="translate(65.677247,2.049136)"><ellipse
     transform="matrix(0.7051,-0.7091,0.7091,0.7051,-21.1175,51.1935)"
     fill="#4ec3e8"
     cx="50.995998"
     cy="50.987999"
     rx="50.993"
     ry="51.004002"
     id="ellipse41454" /></g><path
   fill="#ffffff"
   stroke="#000000"
   stroke-miterlimit="10"
   d="m 124.59125,45.108136 c 4.384,4.374 4.393,11.473 0.019,15.858 -4.374,4.384 -11.473,4.393 -15.858,0.019 -4.375,-4.365 -4.394,-11.447 -0.042,-15.835 4.335,-4.397 11.414,-4.446 15.811,-0.111 0.024,0.023 0.047,0.046 0.07,0.069 z"
   id="path41458" /><path
   sodipodi:nodetypes="cccc"
   inkscape:connector-curvature="0"
   id="path35761"
   d="m 77.521877,70.967046 c -7.20006,-7.64284 -8.4415,-12.48612 -9.72169,-18.99975 l 12.18688,-0.125 c -2.57083,4.08998 -3.31842,10.98968 -2.46519,19.12475 z"
   style="fill:#ffffff;fill-opacity:1;fill-rule:evenodd;stroke:none;stroke-width:1px;stroke-linecap:butt;stroke-linejoin:miter;stroke-opacity:1" /><path
   sodipodi:type="spiral"
   style="fill:none;fill-opacity:1;fill-rule:evenodd;stroke:#ffffec;stroke-width:2.51339;stroke-linecap:butt;stroke-linejoin:miter;stroke-miterlimit:4;stroke-dasharray:none;stroke-opacity:1"
   id="path35763"
   sodipodi:cx="197.5222"
   sodipodi:cy="17.012539"
   sodipodi:expansion="0"
   sodipodi:revolution="8.0200005"
   sodipodi:radius="34.011444"
   sodipodi:argument="-17.855951"
   sodipodi:t0="0.99130303"
   transform="matrix(-0.43606294,-0.89991617,-0.89991617,0.43606294,209.21236,222.31736)"
   d="m 223.94673,38.425681 c -3.13084,3.863564 -7.10954,7.019918 -11.58403,9.189766" /><path
   style="fill:#ffffff;fill-opacity:1;fill-rule:evenodd;stroke:none;stroke-width:1px;stroke-linecap:butt;stroke-linejoin:miter;stroke-opacity:1"
   d="m 153.70397,33.647686 c 7.20007,7.64284 8.44151,12.48613 9.7217,18.99975 l -12.18689,0.125 c 2.57083,-4.08997 3.31842,-10.98968 2.46519,-19.12475 z"
   id="path35765"
   inkscape:connector-curvature="0"
   sodipodi:nodetypes="cccc" /><path
   transform="matrix(0.43606294,0.89991617,0.89991617,-0.43606294,22.013487,-117.70258)"
   sodipodi:t0="0.99130303"
   sodipodi:argument="-17.855951"
   sodipodi:radius="34.011444"
   sodipodi:revolution="8.0200005"
   sodipodi:expansion="0"
   sodipodi:cy="17.012539"
   sodipodi:cx="197.5222"
   id="path35767"
   style="fill:none;fill-opacity:1;fill-rule:evenodd;stroke:#ffffec;stroke-width:2.51339;stroke-linecap:butt;stroke-linejoin:miter;stroke-miterlimit:4;stroke-dasharray:none;stroke-opacity:1"
   sodipodi:type="spiral"
   d="m 223.94673,38.425681 c -3.13084,3.863564 -7.10954,7.019918 -11.58403,9.189766" /><g
   aria-label="2"
   style="font-style:normal;font-variant:normal;font-weight:normal;font-stretch:normal;font-size:33.3333px;line-height:125%;font-family:sans-serif;-inkscape-font-specification:sans-serif;letter-spacing:0px;word-spacing:0px;fill:#ffffff;fill-opacity:1;stroke:none;stroke-width:1px;stroke-linecap:butt;stroke-linejoin:miter;stroke-opacity:1"
   id="text35771"
   transform="translate(65.677247,2.049136)"><path
     d="m 43.465487,13.850509 q 0.266667,-8.1666668 7.800001,-8.2000001 4.033334,0 6.166667,2.6666668 1.4,1.8333333 1.4,4.2666673 -0.03333,4.4 -5,7.133334 l -3.333334,1.8 q -3.1,1.666667 -3.9,3.533333 -0.266667,0.6 -0.366667,1.333334 h 12.433334 v 2.9 H 42.932154 q 0.233333,-4.266667 1.9,-6.500001 1.433334,-1.866666 4.733334,-3.733333 l 3.066667,-1.733334 q 3.166667,-1.866666 3.2,-4.666667 0,-2.4 -2,-3.6999999 -1.166667,-0.7333334 -2.666667,-0.7333334 -4.366667,0 -4.766667,5.4333333 0,0.1 0,0.2 z"
     style="font-style:normal;font-variant:normal;font-weight:normal;font-stretch:normal;font-size:33.3333px;font-family:FreeSans;-inkscape-font-specification:FreeSans;fill:#ffffff;fill-opacity:1"
     id="path42780" /></g><g
   opacity="0.8"
   id="g41462"
   transform="translate(45.737767,24.441019)"><ellipse
     transform="matrix(0.7091,-0.7051,0.7051,0.7091,-129.8543,194.9702)"
     fill="#4ec3e8"
     cx="171.349"
     cy="254.85001"
     rx="50.993"
     ry="51.004002"
     id="ellipse41460" /></g><path
   fill="#ffffff"
   stroke="#000000"
   stroke-miterlimit="10"
   d="m 224.95877,270.40202 c -4.374,-4.384 -11.473,-4.393 -15.858,-0.019 -4.384,4.374 -4.393,11.473 -0.019,15.858 4.365,4.375 11.447,4.394 15.835,0.042 4.397,-4.335 4.446,-11.414 0.111,-15.811 -0.023,-0.024 -0.046,-0.047 -0.069,-0.07 z"
   id="path41464" /><path
   style="fill:#ffffff;fill-opacity:1;fill-rule:evenodd;stroke:none;stroke-width:1px;stroke-linecap:butt;stroke-linejoin:miter;stroke-opacity:1"
   d="m 177.51248,296.99908 c -7.20006,-7.64284 -8.4415,-12.48612 -9.72169,-18.99975 l 12.18688,-0.125 c -2.57083,4.08998 -3.31842,10.98968 -2.46519,19.12475 z"
   id="path7870-5"
   inkscape:connector-curvature="0"
   sodipodi:nodetypes="cccc" /><path
   transform="matrix(-0.43606294,-0.89991617,-0.89991617,0.43606294,309.20297,448.34939)"
   sodipodi:t0="0.99130303"
   sodipodi:argument="-17.855951"
   sodipodi:radius="34.011444"
   sodipodi:revolution="8.0200005"
   sodipodi:expansion="0"
   sodipodi:cy="17.012539"
   sodipodi:cx="197.5222"
   id="path7872-2"
   style="fill:none;fill-opacity:1;fill-rule:evenodd;stroke:#ffffec;stroke-width:2.51339;stroke-linecap:butt;stroke-linejoin:miter;stroke-miterlimit:4;stroke-dasharray:none;stroke-opacity:1"
   sodipodi:type="spiral"
   d="m 223.94673,38.425681 c -3.13084,3.863564 -7.10954,7.019918 -11.58403,9.189766" /><path
   sodipodi:nodetypes="cccc"
   inkscape:connector-curvature="0"
   id="path7874-1"
   d="m 253.69458,259.67972 c 7.20007,7.64284 8.44151,12.48613 9.7217,18.99975 l -12.18689,0.125 c 2.57083,-4.08997 3.31842,-10.98968 2.46519,-19.12475 z"
   style="fill:#ffffff;fill-opacity:1;fill-rule:evenodd;stroke:none;stroke-width:1px;stroke-linecap:butt;stroke-linejoin:miter;stroke-opacity:1" /><path
   sodipodi:type="spiral"
   style="fill:none;fill-opacity:1;fill-rule:evenodd;stroke:#ffffec;stroke-width:2.51339;stroke-linecap:butt;stroke-linejoin:miter;stroke-miterlimit:4;stroke-dasharray:none;stroke-opacity:1"
   id="path7876-6"
   sodipodi:cx="197.5222"
   sodipodi:cy="17.012539"
   sodipodi:expansion="0"
   sodipodi:revolution="8.0200005"
   sodipodi:radius="34.011444"
   sodipodi:argument="-17.855951"
   sodipodi:t0="0.99130303"
   transform="matrix(0.43606294,0.89991617,0.89991617,-0.43606294,122.00409,108.32946)"
   d="m 223.94673,38.425681 c -3.13084,3.863564 -7.10954,7.019918 -11.58403,9.189766" /><g
   aria-label="3"
   style="font-style:normal;font-variant:normal;font-weight:normal;font-stretch:normal;font-size:33.3333px;line-height:125%;font-family:sans-serif;-inkscape-font-specification:sans-serif;letter-spacing:0px;word-spacing:0px;fill:#ffffff;fill-opacity:1;stroke:none;stroke-width:1px;stroke-linecap:butt;stroke-linejoin:miter;stroke-opacity:1"
   id="text7991-1"
   transform="translate(45.737767,24.441019)"><path
     d="m 171.26706,277.48192 q -3.8,0 -4.4,3.66666 -0.0667,0.63334 -0.1,1.4 h -2.93333 q 0.13333,-7 6.33333,-7.6 0.53333,-0.0333 1.06667,-0.0333 4.66666,0 6.4,3.13333 0.8,1.46667 0.8,3.36667 -0.0333,3.6 -3.3,4.9 3.1,1.06667 3.76666,3.6 0.23334,0.9 0.23334,2.03333 0,4.1 -3.13334,6.1 -2.03333,1.26667 -4.86666,1.26667 -6.53334,0 -7.63334,-6.13333 -0.1,-0.73334 -0.16666,-1.5 h 2.93333 q 0.26667,4.4 3.76667,4.93333 0.56666,0.1 1.2,0.1 3.46666,0 4.53333,-2.63333 0.36667,-0.96667 0.36667,-2.1 -0.0667,-4.26667 -4.9,-4.3 l -1.23334,0.0333 h -0.36666 v -2.5 q 3.76666,-0.0667 4.9,-1.1 0.9,-0.86667 0.9,-2.6 0,-2.83333 -2.33334,-3.73333 -0.83333,-0.3 -1.83333,-0.3 z"
     style="font-style:normal;font-variant:normal;font-weight:normal;font-stretch:normal;font-size:33.3333px;font-family:FreeSans;-inkscape-font-specification:FreeSans;fill:#ffffff;fill-opacity:1"
     id="path42774" /></g></svg>
