<?xml version="1.0" encoding="UTF-8" standalone="no"?>
<!-- Generator: Adobe Illustrator 19.2.0, SVG Export Plug-In . SVG Version: 6.00 Build 0)  -->

<svg
   xmlns:dc="http://purl.org/dc/elements/1.1/"
   xmlns:cc="http://creativecommons.org/ns#"
   xmlns:rdf="http://www.w3.org/1999/02/22-rdf-syntax-ns#"
   xmlns:svg="http://www.w3.org/2000/svg"
   xmlns="http://www.w3.org/2000/svg"
   xmlns:sodipodi="http://sodipodi.sourceforge.net/DTD/sodipodi-0.dtd"
   xmlns:inkscape="http://www.inkscape.org/namespaces/inkscape"
   version="1.1"
   id="draw"
   x="0px"
   y="0px"
   viewBox="0 0 343.449 335.834"
   enable-background="new 0 0 343.449 335.834"
   xml:space="preserve"
   sodipodi:docname="Y6B.svg"
   inkscape:version="0.92.1 r"><metadata
     id="metadata36913"><rdf:RDF><cc:Work
         rdf:about=""><dc:format>image/svg+xml</dc:format><dc:type
           rdf:resource="http://purl.org/dc/dcmitype/StillImage" /><dc:title>Y6B</dc:title></cc:Work></rdf:RDF></metadata><defs
     id="defs36911" /><sodipodi:namedview
     pagecolor="#ffffff"
     bordercolor="#666666"
     borderopacity="1"
     objecttolerance="10"
     gridtolerance="10"
     guidetolerance="10"
     inkscape:pageopacity="0"
     inkscape:pageshadow="2"
     inkscape:window-width="1920"
     inkscape:window-height="1019"
     id="namedview36909"
     showgrid="false"
     inkscape:zoom="1.9876152"
     inkscape:cx="142.13425"
     inkscape:cy="170.63721"
     inkscape:window-x="1920"
     inkscape:window-y="0"
     inkscape:window-maximized="1"
     inkscape:current-layer="draw" /><title
     id="title36866">Y6B</title><g
     opacity="0.8"
     id="g36870"><ellipse
       transform="matrix(0.7051 -0.7091 0.7091 0.7051 -42.389 60.0438)"
       fill="#4EC3E8"
       cx="51.001"
       cy="80.99"
       rx="50.993"
       ry="51.004"
       id="ellipse36868" /></g><g
     opacity="0.8"
     id="g36874"><ellipse
       transform="matrix(0.7091 -0.7051 0.7051 0.7091 -151.009 203.6939)"
       fill="#4EC3E8"
       cx="171.344"
       cy="284.849"
       rx="50.993"
       ry="51.004"
       id="ellipse36872" /></g><g
     opacity="0.8"
     id="g36878"><ellipse
       transform="matrix(0.7091 -0.7051 0.7051 0.7091 27.5671 229.9452)"
       fill="#4EC3E8"
       cx="292.445"
       cy="81.565"
       rx="50.993"
       ry="51.004"
       id="ellipse36876" /></g><rect
     x="168.017"
     y="120.306"
     fill="#FFFFFF"
     stroke="#000000"
     stroke-miterlimit="10"
     width="6.777"
     height="133.572"
     id="rect36880" /><rect
     x="162.947"
     y="83.779"
     transform="matrix(0.8697 -0.4936 0.4936 0.8697 -13.0887 124.7573)"
     fill="#FFFFFF"
     stroke="#000000"
     stroke-miterlimit="10"
     width="133.572"
     height="6.777"
     id="rect36882" /><rect
     x="110.336"
     y="20.065"
     transform="matrix(0.4969 -0.8678 0.8678 0.4969 -18.2063 142.4191)"
     fill="#FFFFFF"
     stroke="#000000"
     stroke-miterlimit="10"
     width="6.777"
     height="133.692"
     id="rect36884" /><path
     fill="#FFFFFF"
     stroke="#000000"
     stroke-miterlimit="10"
     d="M214.837,127.079l-36.195,36.195  c-3.869,3.869-10.141,3.869-14.009,0l-36.195-36.195c-3.869-3.869-3.869-10.141,0-14.009l36.195-36.195  c3.869-3.869,10.141-3.869,14.009,0l36.195,36.195C218.706,116.938,218.706,123.21,214.837,127.079z"
     id="path36886" /><polygon
     fill="#FF442B"
     stroke="#000000"
     stroke-miterlimit="10"
     points="153.46,142.074 171.637,91.074 189.815,142.074 "
     id="polygon36888" /><g
     opacity="0.8"
     id="g36892"><ellipse
       transform="matrix(0.7091 -0.7051 0.7051 0.7091 48.7212 221.217)"
       fill="#159E1F"
       cx="292.445"
       cy="51.565"
       rx="50.993"
       ry="51.004"
       id="ellipse36890" /></g><path
     fill="#FFFFFF"
     stroke="#000000"
     stroke-miterlimit="10"
     d="M300.322,42.677c-4.374-4.384-11.473-4.393-15.858-0.02  c-4.384,4.374-4.393,11.473-0.02,15.857c4.365,4.376,11.447,4.395,15.835,0.042c4.397-4.335,4.446-11.414,0.111-15.811  C300.368,42.723,300.345,42.7,300.322,42.677z"
     id="path36894" /><g
     opacity="0.8"
     id="g36898"><ellipse
       transform="matrix(0.7051 -0.7091 0.7091 0.7051 -21.1168 51.1979)"
       fill="#159E1F"
       cx="51.001"
       cy="50.99"
       rx="50.993"
       ry="51.004"
       id="ellipse36896" /></g><path
     fill="#FFFFFF"
     stroke="#000000"
     stroke-miterlimit="10"
     d="M58.914,43.059c4.384,4.374,4.393,11.473,0.019,15.858  c-4.374,4.384-11.473,4.393-15.858,0.019c-4.375-4.365-4.394-11.447-0.042-15.835c4.335-4.397,11.414-4.446,15.811-0.111  C58.868,43.013,58.891,43.036,58.914,43.059z"
     id="path36900" /><g
     opacity="0.8"
     id="g36904"><ellipse
       transform="matrix(0.7091 -0.7051 0.7051 0.7091 -129.8548 194.9657)"
       fill="#159E1F"
       cx="171.344"
       cy="254.849"
       rx="50.993"
       ry="51.004"
       id="ellipse36902" /></g><path
     fill="#FFFFFF"
     stroke="#000000"
     stroke-miterlimit="10"
     d="M179.221,245.961c-4.374-4.384-11.473-4.393-15.858-0.02  s-4.393,11.473-0.02,15.858c4.365,4.375,11.447,4.394,15.835,0.042c4.397-4.335,4.446-11.414,0.111-15.811  C179.267,246.007,179.244,245.984,179.221,245.961z"
     id="path36906" /><path
     style="opacity:1;fill:#ffffff;fill-opacity:1;fill-rule:evenodd;stroke:none;stroke-width:1.00172007px;stroke-linecap:butt;stroke-linejoin:miter;stroke-opacity:1"
     d="m 333.21368,94.285856 c -0.31363,10.513584 -2.86489,14.823524 -6.57185,20.344064 l -8.72082,-8.54371 c 4.71802,-1.07604 10.13477,-5.43372 15.29267,-11.800354 z"
     id="path7831-5"
     inkscape:connector-curvature="0"
     sodipodi:nodetypes="cccc" /><path
     sodipodi:nodetypes="cccc"
     inkscape:connector-curvature="0"
     id="path7676-20"
     d="m 276.04121,120.15457 c -10.51357,-0.31363 -14.82351,-2.8649 -20.34406,-6.57187 l 8.54372,-8.7208 c 1.07604,4.71801 5.43373,10.13477 11.80034,15.29267 z"
     style="opacity:1;fill:#ffffff;fill-opacity:1;fill-rule:evenodd;stroke:none;stroke-width:1.00172007px;stroke-linecap:butt;stroke-linejoin:miter;stroke-opacity:1" /><path
     sodipodi:type="spiral"
     style="opacity:1;fill:none;fill-opacity:1;fill-rule:evenodd;stroke:#ffffec;stroke-width:2.51338577;stroke-linecap:butt;stroke-linejoin:miter;stroke-miterlimit:4;stroke-dasharray:none;stroke-opacity:1"
     id="path7711-8"
     sodipodi:cx="197.5222"
     sodipodi:cy="17.012539"
     sodipodi:expansion="0"
     sodipodi:revolution="8.0200005"
     sodipodi:radius="34.011444"
     sodipodi:argument="-17.855951"
     sodipodi:t0="0.99130303"
     d="m 223.94673,38.425681 c -3.13084,3.863564 -7.10954,7.019918 -11.58403,9.189766"
     transform="matrix(-0.9463049,-0.32855798,-0.32855798,0.9463049,476.52554,134.08008)" /><path
     transform="matrix(-0.32855797,0.9463049,0.9463049,0.32855797,347.13919,-106.19848)"
     d="m 223.94673,38.425681 c -3.13084,3.863564 -7.10954,7.019918 -11.58403,9.189766"
     sodipodi:t0="0.99130303"
     sodipodi:argument="-17.855951"
     sodipodi:radius="34.011444"
     sodipodi:revolution="8.0200005"
     sodipodi:expansion="0"
     sodipodi:cy="17.012539"
     sodipodi:cx="197.5222"
     id="path7833-2"
     style="opacity:1;fill:none;fill-opacity:1;fill-rule:evenodd;stroke:#ffffec;stroke-width:2.51338577;stroke-linecap:butt;stroke-linejoin:miter;stroke-miterlimit:4;stroke-dasharray:none;stroke-opacity:1"
     sodipodi:type="spiral" /><g
     aria-label="2"
     style="font-style:normal;font-variant:normal;font-weight:normal;font-stretch:normal;font-size:33.39067459px;line-height:125%;font-family:sans-serif;-inkscape-font-specification:sans-serif;letter-spacing:0px;word-spacing:0px;fill:#ffffff;fill-opacity:1;stroke:none;stroke-width:1.00172007px;stroke-linecap:butt;stroke-linejoin:miter;stroke-opacity:1"
     id="text11694"><path
       d="m 284.07929,113.64281 q 0.26713,-8.18072 7.81342,-8.21411 4.04027,0 6.17728,2.67126 1.4024,1.83648 1.4024,4.274 -0.0334,4.40757 -5.0086,7.14561 l -3.33906,1.80309 q -3.10534,1.66954 -3.90671,3.53942 -0.26713,0.60103 -0.3673,1.33562 h 12.45472 v 2.90499 h -15.7604 q 0.23374,-4.274 1.90327,-6.51118 1.4358,-1.86988 4.74148,-3.73976 l 3.07194,-1.73631 q 3.17211,-1.86988 3.2055,-4.67469 0,-2.40413 -2.00344,-3.70637 -1.16867,-0.73459 -2.67125,-0.73459 -4.37418,0 -4.77487,5.44268 0,0.10017 0,0.20034 z"
       style="font-style:normal;font-variant:normal;font-weight:normal;font-stretch:normal;font-size:33.39067459px;font-family:FreeSans;-inkscape-font-specification:FreeSans;fill:#ffffff;fill-opacity:1;stroke-width:1.00172007px"
       id="path38400" /></g><path
     style="opacity:1;fill:#ffffff;fill-opacity:1;fill-rule:evenodd;stroke:none;stroke-width:1px;stroke-linecap:butt;stroke-linejoin:miter;stroke-opacity:1"
     d="m 131.6513,235.67693 c -7.20006,7.64284 -8.4415,12.48612 -9.72169,18.99975 l 12.18688,0.125 c -2.57083,-4.08998 -3.31842,-10.98968 -2.46519,-19.12475 z"
     id="path7870-5"
     inkscape:connector-curvature="0"
     sodipodi:nodetypes="cccc" /><path
     transform="rotate(115.85295,105.24905,124.67555)"
     d="m 223.94673,38.425681 c -3.13084,3.863564 -7.10954,7.019918 -11.58403,9.189766"
     sodipodi:t0="0.99130303"
     sodipodi:argument="-17.855951"
     sodipodi:radius="34.011444"
     sodipodi:revolution="8.0200005"
     sodipodi:expansion="0"
     sodipodi:cy="17.012539"
     sodipodi:cx="197.5222"
     id="path7872-2"
     style="opacity:1;fill:none;fill-opacity:1;fill-rule:evenodd;stroke:#ffffec;stroke-width:2.51338577;stroke-linecap:butt;stroke-linejoin:miter;stroke-miterlimit:4;stroke-dasharray:none;stroke-opacity:1"
     sodipodi:type="spiral" /><path
     sodipodi:nodetypes="cccc"
     inkscape:connector-curvature="0"
     id="path7874-1"
     d="m 207.8334,272.99629 c 7.20007,-7.64284 8.44151,-12.48613 9.7217,-18.99975 l -12.18689,-0.125 c 2.57083,4.08997 3.31842,10.98968 2.46519,19.12475 z"
     style="opacity:1;fill:#ffffff;fill-opacity:1;fill-rule:evenodd;stroke:none;stroke-width:1px;stroke-linecap:butt;stroke-linejoin:miter;stroke-opacity:1" /><path
     sodipodi:type="spiral"
     style="opacity:1;fill:none;fill-opacity:1;fill-rule:evenodd;stroke:#ffffec;stroke-width:2.51338577;stroke-linecap:butt;stroke-linejoin:miter;stroke-miterlimit:4;stroke-dasharray:none;stroke-opacity:1"
     id="path7876-6"
     sodipodi:cx="197.5222"
     sodipodi:cy="17.012539"
     sodipodi:expansion="0"
     sodipodi:revolution="8.0200005"
     sodipodi:radius="34.011444"
     sodipodi:argument="-17.855951"
     sodipodi:t0="0.99130303"
     d="m 223.94673,38.425681 c -3.13084,3.863564 -7.10954,7.019918 -11.58403,9.189766"
     transform="rotate(-64.14705,376.65209,151.41983)" /><g
     aria-label="3"
     style="font-style:normal;font-variant:normal;font-weight:normal;font-stretch:normal;font-size:33.33333588px;line-height:125%;font-family:sans-serif;-inkscape-font-specification:sans-serif;letter-spacing:0px;word-spacing:0px;fill:#ffffff;fill-opacity:1;stroke:none;stroke-width:1px;stroke-linecap:butt;stroke-linejoin:miter;stroke-opacity:1"
     id="text7991-1"><path
       d="m 171.14363,277.92012 q -3.8,0 -4.4,3.66666 -0.0667,0.63334 -0.1,1.4 h -2.93333 q 0.13333,-7 6.33333,-7.6 0.53333,-0.0333 1.06667,-0.0333 4.66667,0 6.4,3.13333 0.8,1.46667 0.8,3.36667 -0.0333,3.6 -3.3,4.9 3.1,1.06667 3.76667,3.6 0.23333,0.9 0.23333,2.03334 0,4.1 -3.13333,6.1 -2.03334,1.26666 -4.86667,1.26666 -6.53334,0 -7.63334,-6.13333 -0.1,-0.73333 -0.16666,-1.5 h 2.93333 q 0.26667,4.4 3.76667,4.93333 0.56666,0.1 1.2,0.1 3.46667,0 4.53333,-2.63333 0.36667,-0.96667 0.36667,-2.1 -0.0667,-4.26667 -4.9,-4.3 l -1.23334,0.0333 h -0.36666 v -2.5 q 3.76667,-0.0667 4.9,-1.1 0.9,-0.86667 0.9,-2.6 0,-2.83333 -2.33333,-3.73333 -0.83334,-0.3 -1.83334,-0.3 z"
       style="font-style:normal;font-variant:normal;font-weight:normal;font-stretch:normal;font-size:33.33333588px;font-family:FreeSans;-inkscape-font-specification:FreeSans;fill:#ffffff;fill-opacity:1"
       id="path38397" /></g><path
     style="opacity:1;fill:#ffffff;fill-opacity:1;fill-rule:evenodd;stroke:none;stroke-width:1px;stroke-linecap:butt;stroke-linejoin:miter;stroke-opacity:1"
     d="m 253.38672,32.866261 c -7.20006,7.642841 -8.4415,12.486121 -9.72169,18.999751 l 12.18688,0.125 c -2.57083,-4.08998 -3.31842,-10.98968 -2.46519,-19.124751 z"
     id="path7870"
     inkscape:connector-curvature="0"
     sodipodi:nodetypes="cccc" /><path
     transform="rotate(115.85295,229.66293,61.41328)"
     d="m 223.94673,38.425681 c -3.13084,3.863564 -7.10954,7.019918 -11.58403,9.189766"
     sodipodi:t0="0.99130303"
     sodipodi:argument="-17.855951"
     sodipodi:radius="34.011444"
     sodipodi:revolution="8.0200005"
     sodipodi:expansion="0"
     sodipodi:cy="17.012539"
     sodipodi:cx="197.5222"
     id="path7872"
     style="opacity:1;fill:none;fill-opacity:1;fill-rule:evenodd;stroke:#ffffec;stroke-width:2.51338577;stroke-linecap:butt;stroke-linejoin:miter;stroke-miterlimit:4;stroke-dasharray:none;stroke-opacity:1"
     sodipodi:type="spiral" /><path
     sodipodi:nodetypes="cccc"
     inkscape:connector-curvature="0"
     id="path7874"
     d="m 329.56882,70.185622 c 7.20007,-7.64284 8.44151,-12.48613 9.7217,-18.99975 l -12.18689,-0.125 c 2.57083,4.08997 3.31842,10.98968 2.46519,19.12475 z"
     style="opacity:1;fill:#ffffff;fill-opacity:1;fill-rule:evenodd;stroke:none;stroke-width:1px;stroke-linecap:butt;stroke-linejoin:miter;stroke-opacity:1" /><path
     sodipodi:type="spiral"
     style="opacity:1;fill:none;fill-opacity:1;fill-rule:evenodd;stroke:#ffffec;stroke-width:2.51338577;stroke-linecap:butt;stroke-linejoin:miter;stroke-miterlimit:4;stroke-dasharray:none;stroke-opacity:1"
     id="path7876"
     sodipodi:cx="197.5222"
     sodipodi:cy="17.012539"
     sodipodi:expansion="0"
     sodipodi:revolution="8.0200005"
     sodipodi:radius="34.011444"
     sodipodi:argument="-17.855951"
     sodipodi:t0="0.99130303"
     d="m 223.94673,38.425681 c -3.13084,3.863564 -7.10954,7.019918 -11.58403,9.189766"
     transform="rotate(-64.14705,275.69982,-47.116606)" /><g
     aria-label="1"
     style="font-style:normal;font-variant:normal;font-weight:normal;font-stretch:normal;font-size:33.33333588px;line-height:125%;font-family:sans-serif;-inkscape-font-specification:sans-serif;letter-spacing:0px;word-spacing:0px;fill:#ffffff;fill-opacity:1;stroke:none;stroke-width:1px;stroke-linecap:butt;stroke-linejoin:miter;stroke-opacity:1"
     id="text7991"><path
       d="m 292.79181,13.718223 h -5.23333 v -2.1 q 3.4,-0.433334 4.4,-1.2 1,-0.7333337 1.7,-3.1000006 0.0667,-0.2 0.13333,-0.4 h 1.93334 V 30.551558 h -2.93334 z"
       style="font-style:normal;font-variant:normal;font-weight:normal;font-stretch:normal;font-size:33.33333588px;font-family:FreeSans;-inkscape-font-specification:FreeSans;fill:#ffffff;fill-opacity:1"
       id="path38403" /></g><path
     sodipodi:nodetypes="cccc"
     inkscape:connector-curvature="0"
     id="path35761"
     d="M 11.72122,32.036774 C 4.5211594,39.679615 3.2797194,44.522895 1.9995294,51.036525 l 12.1868806,0.125 c -2.57083,-4.08998 -3.31842,-10.98968 -2.46519,-19.124751 z"
     style="opacity:1;fill:#ffffff;fill-opacity:1;fill-rule:evenodd;stroke:none;stroke-width:1px;stroke-linecap:butt;stroke-linejoin:miter;stroke-opacity:1" /><path
     sodipodi:type="spiral"
     style="opacity:1;fill:none;fill-opacity:1;fill-rule:evenodd;stroke:#ffffec;stroke-width:2.51338577;stroke-linecap:butt;stroke-linejoin:miter;stroke-miterlimit:4;stroke-dasharray:none;stroke-opacity:1"
     id="path35763"
     sodipodi:cx="197.5222"
     sodipodi:cy="17.012539"
     sodipodi:expansion="0"
     sodipodi:revolution="8.0200005"
     sodipodi:radius="34.011444"
     sodipodi:argument="-17.855951"
     sodipodi:t0="0.99130303"
     d="m 223.94673,38.425681 c -3.13084,3.863564 -7.10954,7.019918 -11.58403,9.189766"
     transform="rotate(115.85295,109.09007,-14.721925)" /><path
     style="opacity:1;fill:#ffffff;fill-opacity:1;fill-rule:evenodd;stroke:none;stroke-width:1px;stroke-linecap:butt;stroke-linejoin:miter;stroke-opacity:1"
     d="m 87.90331,69.356135 c 7.20007,-7.64284 8.44151,-12.48613 9.7217,-18.99975 l -12.18689,-0.125 c 2.57083,4.08997 3.31842,10.98968 2.46519,19.12475 z"
     id="path35765"
     inkscape:connector-curvature="0"
     sodipodi:nodetypes="cccc" /><path
     transform="rotate(-64.14705,154.20522,145.29042)"
     d="m 223.94673,38.425681 c -3.13084,3.863564 -7.10954,7.019918 -11.58403,9.189766"
     sodipodi:t0="0.99130303"
     sodipodi:argument="-17.855951"
     sodipodi:radius="34.011444"
     sodipodi:revolution="8.0200005"
     sodipodi:expansion="0"
     sodipodi:cy="17.012539"
     sodipodi:cx="197.5222"
     id="path35767"
     style="opacity:1;fill:none;fill-opacity:1;fill-rule:evenodd;stroke:#ffffec;stroke-width:2.51338577;stroke-linecap:butt;stroke-linejoin:miter;stroke-miterlimit:4;stroke-dasharray:none;stroke-opacity:1"
     sodipodi:type="spiral" /><g
     aria-label="5"
     style="font-style:normal;font-variant:normal;font-weight:normal;font-stretch:normal;font-size:33.33333588px;line-height:125%;font-family:sans-serif;-inkscape-font-specification:sans-serif;letter-spacing:0px;word-spacing:0px;fill:#ffffff;fill-opacity:1;stroke:none;stroke-width:1px;stroke-linecap:butt;stroke-linejoin:miter;stroke-opacity:1"
     id="text35771"><path
       d="m 57.542083,6.0887356 v 2.9000002 h -9.833334 l -0.933334,6.6000002 q 2.000001,-1.433333 4.366667,-1.433333 4.000001,0 6.133334,2.9 1.5,2.066667 1.5,4.966667 0,4.3 -2.9,6.700001 -2.166667,1.766666 -5.2,1.766666 -6.533334,0 -7.766668,-6.266667 -0.03333,-0.1 -0.06667,-0.3 h 2.933333 q 1.1,3.933334 4.833334,3.966667 3.366667,0 4.633334,-2.7 0.533333,-1.233333 0.533333,-2.766667 0,-3.633333 -2.533333,-5.033334 -1.166667,-0.633333 -2.633334,-0.633333 -2.133333,0 -3.633334,1.433333 -0.333333,0.366667 -0.7,0.766667 h -2.7 L 45.342082,6.0887356 Z"
       style="font-style:normal;font-variant:normal;font-weight:normal;font-stretch:normal;font-size:33.33333588px;font-family:FreeSans;-inkscape-font-specification:FreeSans;fill:#ffffff;fill-opacity:1"
       id="path38409" /></g><path
     sodipodi:nodetypes="cccc"
     inkscape:connector-curvature="0"
     id="path35781"
     d="m 91.957933,94.047838 c -0.31363,10.513592 -2.864891,14.823532 -6.571851,20.344072 l -8.72081,-8.54371 c 4.71801,-1.07604 10.13476,-5.43373 15.292661,-11.800362 z"
     style="opacity:1;fill:#ffffff;fill-opacity:1;fill-rule:evenodd;stroke:none;stroke-width:1.00172007px;stroke-linecap:butt;stroke-linejoin:miter;stroke-opacity:1" /><path
     style="opacity:1;fill:#ffffff;fill-opacity:1;fill-rule:evenodd;stroke:none;stroke-width:1.00172007px;stroke-linecap:butt;stroke-linejoin:miter;stroke-opacity:1"
     d="m 34.785472,119.91656 c -10.51357,-0.31363 -14.82351,-2.8649 -20.34406,-6.57187 l 8.54372,-8.7208 c 1.07604,4.71801 5.43373,10.13477 11.80034,15.29267 z"
     id="path35783"
     inkscape:connector-curvature="0"
     sodipodi:nodetypes="cccc" /><path
     transform="matrix(-0.9463049,-0.32855798,-0.32855798,0.9463049,235.26979,133.84207)"
     d="m 223.94673,38.425681 c -3.13084,3.863564 -7.10954,7.019918 -11.58403,9.189766"
     sodipodi:t0="0.99130303"
     sodipodi:argument="-17.855951"
     sodipodi:radius="34.011444"
     sodipodi:revolution="8.0200005"
     sodipodi:expansion="0"
     sodipodi:cy="17.012539"
     sodipodi:cx="197.5222"
     id="path35785"
     style="opacity:1;fill:none;fill-opacity:1;fill-rule:evenodd;stroke:#ffffec;stroke-width:2.51338577;stroke-linecap:butt;stroke-linejoin:miter;stroke-miterlimit:4;stroke-dasharray:none;stroke-opacity:1"
     sodipodi:type="spiral" /><path
     sodipodi:type="spiral"
     style="opacity:1;fill:none;fill-opacity:1;fill-rule:evenodd;stroke:#ffffec;stroke-width:2.51338577;stroke-linecap:butt;stroke-linejoin:miter;stroke-miterlimit:4;stroke-dasharray:none;stroke-opacity:1"
     id="path35787"
     sodipodi:cx="197.5222"
     sodipodi:cy="17.012539"
     sodipodi:expansion="0"
     sodipodi:revolution="8.0200005"
     sodipodi:radius="34.011444"
     sodipodi:argument="-17.855951"
     sodipodi:t0="0.99130303"
     d="m 223.94673,38.425681 c -3.13084,3.863564 -7.10954,7.019918 -11.58403,9.189766"
     transform="matrix(-0.32855797,0.9463049,0.9463049,0.32855797,105.88344,-106.4365)" /><g
     aria-label="6"
     style="font-style:normal;font-variant:normal;font-weight:normal;font-stretch:normal;font-size:33.39067459px;line-height:125%;font-family:sans-serif;-inkscape-font-specification:sans-serif;letter-spacing:0px;word-spacing:0px;fill:#ffffff;fill-opacity:1;stroke:none;stroke-width:1.00172007px;stroke-linecap:butt;stroke-linejoin:miter;stroke-opacity:1"
     id="text35791"><path
       d="m 42.589829,118.0795 q 0,-10.31772 5.709805,-12.42133 1.302237,-0.46747 2.771426,-0.46747 3.839928,0 5.676415,3.10533 0.767985,1.33563 1.035111,3.07194 h -2.93838 q -0.601032,-2.93838 -3.038551,-3.47263 -0.467469,-0.10017 -0.934939,-0.10017 -3.706365,0 -4.841648,4.80826 -0.400688,1.83648 -0.434078,4.17383 1.970049,-2.63786 5.44268,-2.63786 3.706364,0 5.776586,2.77142 1.46919,2.00344 1.46919,4.74148 0,3.97349 -2.738035,6.24406 -2.103613,1.73631 -5.008602,1.73631 -7.913589,-0.0668 -7.94698,-11.55317 z m 8.080543,-1.33563 q -2.838207,0 -4.173834,2.20378 -0.734595,1.20207 -0.734595,2.77143 0,2.8716 2.036831,4.40757 1.202064,0.90155 2.771426,0.90155 2.537691,0 3.873318,-2.10361 0.834767,-1.33563 0.834767,-3.03856 0,-3.40584 -2.370738,-4.6413 -1.00172,-0.50086 -2.237175,-0.50086 z"
       style="font-style:normal;font-variant:normal;font-weight:normal;font-stretch:normal;font-size:33.39067459px;font-family:FreeSans;-inkscape-font-specification:FreeSans;fill:#ffffff;fill-opacity:1;stroke-width:1.00172007px"
       id="path38406" /></g><path
     style="opacity:1;fill:#ffffff;fill-opacity:1;fill-rule:evenodd;stroke:none;stroke-width:1.00172007px;stroke-linecap:butt;stroke-linejoin:miter;stroke-opacity:1"
     d="m 212.24998,297.69651 c -0.31363,10.51359 -2.86489,14.82353 -6.57185,20.34407 l -8.72081,-8.54371 c 4.71801,-1.07604 10.13476,-5.43373 15.29266,-11.80036 z"
     id="path35797"
     inkscape:connector-curvature="0"
     sodipodi:nodetypes="cccc" /><path
     sodipodi:nodetypes="cccc"
     inkscape:connector-curvature="0"
     id="path35799"
     d="m 155.07752,323.56523 c -10.51357,-0.31363 -14.82351,-2.8649 -20.34406,-6.57187 l 8.54372,-8.7208 c 1.07604,4.71801 5.43373,10.13477 11.80034,15.29267 z"
     style="opacity:1;fill:#ffffff;fill-opacity:1;fill-rule:evenodd;stroke:none;stroke-width:1.00172007px;stroke-linecap:butt;stroke-linejoin:miter;stroke-opacity:1" /><path
     sodipodi:type="spiral"
     style="opacity:1;fill:none;fill-opacity:1;fill-rule:evenodd;stroke:#ffffec;stroke-width:2.51338577;stroke-linecap:butt;stroke-linejoin:miter;stroke-miterlimit:4;stroke-dasharray:none;stroke-opacity:1"
     id="path35801"
     sodipodi:cx="197.5222"
     sodipodi:cy="17.012539"
     sodipodi:expansion="0"
     sodipodi:revolution="8.0200005"
     sodipodi:radius="34.011444"
     sodipodi:argument="-17.855951"
     sodipodi:t0="0.99130303"
     d="m 223.94673,38.425681 c -3.13084,3.863564 -7.10954,7.019918 -11.58403,9.189766"
     transform="matrix(-0.9463049,-0.32855798,-0.32855798,0.9463049,355.56184,337.49074)" /><path
     transform="matrix(-0.32855797,0.9463049,0.9463049,0.32855797,226.17549,97.212197)"
     d="m 223.94673,38.425681 c -3.13084,3.863564 -7.10954,7.019918 -11.58403,9.189766"
     sodipodi:t0="0.99130303"
     sodipodi:argument="-17.855951"
     sodipodi:radius="34.011444"
     sodipodi:revolution="8.0200005"
     sodipodi:expansion="0"
     sodipodi:cy="17.012539"
     sodipodi:cx="197.5222"
     id="path35803"
     style="opacity:1;fill:none;fill-opacity:1;fill-rule:evenodd;stroke:#ffffec;stroke-width:2.51338577;stroke-linecap:butt;stroke-linejoin:miter;stroke-miterlimit:4;stroke-dasharray:none;stroke-opacity:1"
     sodipodi:type="spiral" /><g
     aria-label="4"
     style="font-style:normal;font-variant:normal;font-weight:normal;font-stretch:normal;font-size:33.39067459px;line-height:125%;font-family:sans-serif;-inkscape-font-specification:sans-serif;letter-spacing:0px;word-spacing:0px;fill:#ffffff;fill-opacity:1;stroke:none;stroke-width:1.00172007px;stroke-linecap:butt;stroke-linejoin:miter;stroke-opacity:1"
     id="text35807"><path
       d="m 172.36484,326.83692 h -9.98381 v -3.10533 l 10.7518,-14.89224 h 2.17039 v 15.35971 h 3.50602 v 2.63786 h -3.50602 v 5.67642 h -2.93838 z m 0,-2.63786 v -10.35111 l -7.41273,10.35111 z"
       style="font-style:normal;font-variant:normal;font-weight:normal;font-stretch:normal;font-size:33.39067459px;font-family:FreeSans;-inkscape-font-specification:FreeSans;fill:#ffffff;fill-opacity:1;stroke-width:1.00172007px"
       id="path38394" /></g></svg>