<svg width="256" height="256" viewBox="0 0 256 256" fill="none" xmlns="http://www.w3.org/2000/svg">
<rect width="256" height="256" fill="white"/>
<path d="M115.813 188.984C147.826 188.984 179.838 188.988 211.855 188.976C214.424 188.976 216.981 188.812 219.491 188.189C224.111 187.041 227.969 184.709 230.928 180.935C233.385 177.804 235.007 174.263 235.983 170.445C237.633 163.989 239.174 157.502 240.748 151.026C243.173 141.046 245.578 131.061 248.002 121.081C250.327 111.498 252.643 101.911 255 92.3364C255.915 88.6269 256.397 84.9214 255.574 81.1316C254.703 77.125 252.78 73.7366 249.596 71.1231C246.063 68.2246 241.932 67.0121 237.428 67.0121C172.825 67.0041 108.225 67.0041 43.6223 67.0081C41.3259 67.0081 39.0536 67.2851 36.8255 67.8512C32.843 68.8629 29.3945 70.806 26.6043 73.845C23.9065 76.7837 22.0558 80.2323 20.9397 84.0261C19.8317 87.7918 18.9244 91.6178 17.9729 95.4276C15.0784 107.034 12.2039 118.644 9.32542 130.254C6.58344 141.311 3.86554 152.371 1.08743 163.419C0.164069 167.097 -0.410022 170.77 0.35677 174.544C1.29619 179.193 3.61262 182.958 7.51884 185.692C11.0075 188.133 14.9619 188.988 19.1492 188.988C51.3745 188.984 83.5918 188.984 115.813 188.984Z" fill="white"/>
<path d="M115.814 188.984C83.5927 188.984 51.3714 188.984 19.1541 188.984C14.9668 188.984 11.0124 188.125 7.52373 185.688C3.61751 182.958 1.30107 179.189 0.361653 174.54C-0.405139 170.762 0.168952 167.093 1.09231 163.415C3.87043 152.367 6.58832 141.307 9.3303 130.25C12.2088 118.64 15.0832 107.03 17.9778 95.4235C18.9292 91.6137 19.8366 87.7877 20.9446 84.022C22.0647 80.2282 23.9114 76.7796 26.6092 73.8409C29.3994 70.8018 32.8479 68.8588 36.8304 67.8471C39.0585 67.281 41.3308 67.004 43.6272 67.004C108.23 67 172.83 66.996 237.433 67.008C241.937 67.008 246.068 68.2204 249.601 71.119C252.785 73.7325 254.708 77.1209 255.579 81.1275C256.402 84.9132 255.916 88.6228 255.005 92.3323C252.644 101.907 250.332 111.494 248.007 121.077C245.586 131.057 243.178 141.042 240.753 151.022C239.179 157.498 237.641 163.985 235.987 170.441C235.012 174.259 233.39 177.8 230.933 180.931C227.974 184.705 224.116 187.037 219.495 188.185C216.986 188.808 214.425 188.972 211.86 188.972C179.843 188.988 147.827 188.984 115.814 188.984ZM137.071 116.312C137.152 116.207 137.172 116.163 137.204 116.135C145.699 109.531 154.194 102.931 162.689 96.3268C163.295 95.8571 163.889 95.3432 163.64 94.448C163.371 93.4885 162.556 93.4564 161.761 93.4202C161.717 93.4202 161.669 93.4162 161.625 93.4162C158.915 93.4162 156.201 93.36 153.491 93.4523C152.736 93.4764 151.865 93.7534 151.271 94.2111C146.389 97.9889 141.564 101.835 136.718 105.661C135.229 106.837 133.739 108.009 132.23 109.198C132.097 109.021 131.997 108.901 131.909 108.768C128.757 104.147 125.586 99.5425 122.482 94.8936C121.756 93.8056 120.86 93.3961 119.616 93.4082C116.147 93.4323 112.675 93.4162 109.206 93.4202C108.792 93.4202 108.375 93.4242 107.965 93.4724C106.239 93.6772 105.577 95.1104 106.552 96.5075C110.141 101.662 113.734 106.813 117.327 111.968C118.7 113.939 120.069 115.914 121.463 117.917C121.258 118.09 121.089 118.247 120.909 118.383C114.602 123.201 108.295 128.018 101.972 132.816C101.67 133.045 101.233 133.201 100.86 133.205C97.688 133.237 94.5164 133.225 91.3449 133.221C91.1562 133.221 90.9635 133.193 90.819 133.181C91.2887 131.744 91.8226 130.379 92.1759 128.97C93.9022 122.036 95.5964 115.095 97.2705 108.146C97.8365 105.793 98.4989 103.461 98.5792 101.008C98.6916 97.5834 97.2263 95.3513 93.9785 94.2914C91.5336 93.4925 88.9883 93.344 86.443 93.3399C72.6569 93.3239 58.8666 93.3279 45.0805 93.3279C44.8717 93.3279 44.6669 93.3199 44.4622 93.3359C43.3381 93.4162 42.4188 94.1429 42.1578 95.1826C41.8647 96.3549 41.5797 97.5312 41.3188 98.7155C41.0739 99.8236 41.5596 100.49 42.6918 100.63C42.9407 100.663 43.1976 100.643 43.4505 100.643C56.6867 100.643 69.9229 100.643 83.1591 100.643C83.5284 100.643 83.8978 100.626 84.2631 100.655C85.2708 100.731 85.604 101.096 85.5558 102.108C85.5357 102.513 85.4514 102.923 85.3551 103.324C83.4 111.378 81.4448 119.431 79.4737 127.48C79.1364 128.853 78.7751 130.222 78.3817 131.579C78.1248 132.466 77.5466 133.041 76.5591 133.081C76.1937 133.097 75.8284 133.165 75.4631 133.165C72.9339 133.173 70.4087 133.169 67.8795 133.169C63.351 133.169 58.8265 133.165 54.298 133.173C52.8809 133.177 52.0257 133.851 51.6845 135.22C51.3995 136.373 51.1265 137.529 50.8575 138.685C50.6688 139.508 51.0381 140.142 51.8652 140.351C52.2144 140.439 52.5878 140.48 52.9531 140.48C60.2396 140.488 67.5222 140.512 74.8087 140.468C76.6393 140.456 78.474 140.299 80.2926 140.074C81.6777 139.902 83.0386 139.52 84.4157 139.227C84.6686 140.15 85.1383 140.512 86.1941 140.512C92.489 140.508 98.788 140.516 105.083 140.456C105.765 140.448 106.56 140.183 107.11 139.777C112.614 135.726 118.082 131.623 123.558 127.536C124.799 126.609 126.039 125.69 127.3 124.75C127.436 124.947 127.533 125.076 127.617 125.208C130.64 129.909 133.675 134.602 136.666 139.327C137.204 140.175 137.878 140.492 138.826 140.488C142.343 140.476 145.859 140.488 149.372 140.476C149.806 140.476 150.247 140.435 150.665 140.331C152.19 139.958 152.656 138.701 151.769 137.42C149.32 133.9 146.867 130.387 144.418 126.87C141.973 123.357 139.528 119.84 137.071 116.312ZM193.822 119.343C193.786 119.612 193.782 119.792 193.738 119.965C192.252 126.087 190.767 132.21 189.281 138.332C188.944 139.725 189.474 140.464 190.919 140.48C193.882 140.508 196.849 140.508 199.812 140.48C201.205 140.468 202.168 139.625 202.494 138.276C203.951 132.242 205.428 126.212 206.849 120.166C207.014 119.459 207.303 119.331 207.945 119.331C214.449 119.351 220.953 119.343 227.452 119.339C227.866 119.339 228.279 119.323 228.689 119.262C229.652 119.126 230.411 118.371 230.644 117.424C230.937 116.227 231.314 115.051 231.547 113.847C231.624 113.461 231.487 112.843 231.218 112.63C230.809 112.309 230.19 112.108 229.66 112.108C222.996 112.076 216.332 112.088 209.668 112.088C209.395 112.088 209.122 112.088 208.821 112.088C208.841 111.867 208.841 111.707 208.877 111.554C210.165 106.299 211.454 101.044 212.751 95.7929C213.112 94.3195 212.482 93.4403 210.972 93.4283C208.122 93.4042 205.272 93.4082 202.425 93.4283C200.916 93.4403 199.948 94.2673 199.591 95.7326C198.306 101.012 197.01 106.287 195.721 111.566C195.649 111.863 195.588 112.1 195.163 112.1C189.948 112.084 184.729 112.092 179.514 112.08C178.655 112.08 178.073 111.57 177.972 110.715C177.916 110.246 177.92 109.74 178.028 109.282C179.104 104.749 180.204 100.225 181.3 95.7005C181.638 94.3075 181.007 93.4363 179.578 93.4242C176.728 93.4002 173.877 93.4042 171.031 93.4242C169.566 93.4323 168.63 94.175 168.273 95.6162C167.117 100.269 165.953 104.918 164.857 109.587C164.483 111.181 164.126 112.811 164.058 114.437C163.953 116.878 165.595 118.785 167.944 119.21C168.727 119.351 169.546 119.335 170.349 119.339C177.864 119.347 185.375 119.343 192.891 119.343C193.188 119.343 193.477 119.343 193.822 119.343ZM33.406 157.188C34.8994 157.188 36.3928 157.197 37.8863 157.184C39.0545 157.176 40.0622 156.365 40.3352 155.253C43.7797 141.086 47.2243 126.918 50.6688 112.747C51.0422 111.217 50.3115 110.306 48.7217 110.302C46.1042 110.298 43.4867 110.298 40.8651 110.302C39.1067 110.302 38.1231 111.109 37.7056 112.827C35.6622 121.254 33.6067 129.676 31.5552 138.103C30.1662 143.8 28.7771 149.496 27.3961 155.197C27.0869 156.474 27.657 157.176 28.9939 157.184C30.4673 157.197 31.9366 157.188 33.406 157.188ZM136.104 165.017C136.413 165.017 136.686 165.017 136.959 165.017C140.885 165.017 144.816 165.025 148.742 165.013C150.725 165.009 152.295 163.789 152.7 161.954C153.395 158.81 154.081 155.667 154.76 152.519C155.165 150.649 154.198 149.376 152.283 149.364C147.714 149.336 143.141 149.332 138.573 149.364C136.63 149.38 135.184 150.637 134.775 152.507C134.008 156.008 133.233 159.509 132.471 163.01C132.049 164.945 131.644 166.884 131.234 168.823C133.787 169.208 135.51 167.871 136.104 165.017ZM69.3006 149.432C69.1481 149.396 69.0838 149.364 69.0196 149.364C63.4634 149.36 57.9072 149.328 52.3509 149.376C50.4119 149.392 49.0228 150.689 48.6133 152.596C47.9509 155.675 47.2885 158.754 46.61 161.829C46.1965 163.7 47.14 164.997 49.0469 165.009C54.4907 165.037 59.9305 165.013 65.3743 165.029C65.8079 165.029 65.9444 164.885 66.0327 164.459C66.4262 162.512 66.8758 160.581 67.3014 158.642C67.9638 155.587 68.6262 152.536 69.3006 149.432ZM121.141 149.356C118.913 149.356 116.685 149.356 114.457 149.356C114.433 149.356 114.413 149.356 114.389 149.356C112.301 149.384 110.82 150.596 110.39 152.62C109.736 155.703 109.073 158.782 108.403 161.862C108.002 163.7 108.933 164.993 110.804 165.005C115.4 165.037 119.993 165.033 124.59 165.005C126.449 164.993 127.938 163.748 128.336 161.966C129.058 158.734 129.773 155.502 130.463 152.267C130.548 151.881 130.528 151.436 130.423 151.05C130.126 149.926 129.243 149.364 127.83 149.36C125.598 149.348 123.369 149.356 121.141 149.356ZM187.479 165.017C189.707 165.017 191.935 165.025 194.163 165.013C196.187 165.005 197.684 163.845 198.126 161.886C198.828 158.766 199.499 155.643 200.169 152.515C200.579 150.605 199.659 149.376 197.724 149.364C193.152 149.332 188.579 149.332 184.006 149.364C182.059 149.376 180.614 150.592 180.188 152.495C179.566 155.282 178.972 158.072 178.366 160.862C178.297 161.175 178.249 161.492 178.181 161.801C177.743 163.736 178.727 164.993 180.722 165.009C182.974 165.029 185.227 165.017 187.479 165.017ZM74.8328 161.002C74.8328 160.834 74.8087 160.693 74.8368 160.561C75.3627 158.176 75.8966 155.795 76.4306 153.411C76.4788 153.19 76.5269 152.965 76.5791 152.74C77.0729 150.536 76.0171 149.28 73.7569 149.348C73.3755 149.36 73.2149 149.456 73.1266 149.87C72.2755 153.888 71.3842 157.899 70.5251 161.918C70.1317 163.756 71.0952 164.993 72.982 165.005C77.5507 165.033 82.1233 165.033 86.6919 165.005C88.623 164.993 90.1285 163.668 90.5299 161.797C91.1923 158.694 91.8828 155.599 92.5533 152.499C92.7741 151.484 92.9788 150.464 93.1916 149.44C90.8912 149.067 88.9722 150.311 88.4905 152.439C88.1372 153.997 87.8241 155.563 87.4828 157.124C87.1978 158.429 86.9007 159.73 86.6197 160.998C82.6292 161.002 78.731 161.002 74.8328 161.002ZM208.523 149.364C208.58 148.653 208.74 148.007 208.656 147.393C208.483 146.1 207.323 145.41 205.689 145.462C205.32 145.474 205.175 145.594 205.099 145.956C203.943 151.355 202.775 156.755 201.61 162.151C201.317 163.516 202.088 164.784 203.473 164.897C205.111 165.029 206.781 165.073 208.415 164.917C210.41 164.728 211.719 163.09 211.751 161.022C209.828 161.022 207.905 161.022 205.966 161.022C205.958 160.882 205.934 160.79 205.954 160.705C206.46 158.365 206.958 156.02 207.496 153.684C207.532 153.531 207.841 153.346 208.03 153.334C208.853 153.294 209.684 153.322 210.511 153.318C212.574 153.306 214.305 151.54 214.317 149.356C212.373 149.364 210.434 149.364 208.523 149.364ZM99.9241 153.326C101 153.326 102.008 153.338 103.019 153.322C104.979 153.294 106.721 151.415 106.641 149.344C104.73 149.344 102.811 149.344 100.831 149.344C100.892 149.011 100.936 148.766 100.984 148.525C101.241 147.204 100.751 146.06 99.631 145.703C99.0208 145.506 98.3062 145.446 97.692 145.582C97.4712 145.63 97.411 146.421 97.2825 146.875C97.2624 146.939 97.2584 147.011 97.2464 147.076C96.1664 152.006 95.0785 156.932 94.0066 161.862C93.6332 163.592 94.412 164.828 96.0942 164.961C97.6237 165.081 99.1774 165.093 100.703 164.945C102.742 164.744 104.192 162.994 104.111 161.018C102.176 161.018 100.233 161.018 98.246 161.018C98.8121 158.413 99.3661 155.88 99.9241 153.326ZM168.438 161.034C169.072 158.14 169.69 155.31 170.312 152.483C170.601 151.167 170.156 150.034 169.056 149.609C168.558 149.416 167.984 149.44 167.442 149.352C167.016 149.284 166.876 149.529 166.8 149.878C165.924 153.913 165.025 157.947 164.174 161.99C163.821 163.664 164.668 164.86 166.334 164.977C167.795 165.077 169.277 165.093 170.738 164.977C172.854 164.808 174.307 163.15 174.315 161.039C172.372 161.034 170.429 161.034 168.438 161.034ZM158.634 155.237C157.658 155.233 157.646 155.229 157.446 156.165C157.048 158.011 156.667 159.866 156.269 161.713C155.816 163.809 156.763 164.993 158.891 165.033C159.433 165.045 159.65 164.868 159.758 164.351C160.171 162.319 160.609 160.292 161.059 158.268C161.444 156.498 160.448 155.241 158.634 155.237ZM158.1 153.254C158.204 153.286 158.248 153.314 158.293 153.314C159.071 153.318 159.854 153.326 160.633 153.326C162.151 153.326 162.159 153.33 162.476 151.857C162.648 151.05 162.793 150.235 162.962 149.388C161.552 149.388 160.276 149.388 158.951 149.388C158.666 150.681 158.389 151.945 158.1 153.254Z" fill="black"/>
<path d="M137.072 116.312C139.525 119.84 141.974 123.357 144.423 126.874C146.872 130.391 149.325 133.908 151.774 137.424C152.665 138.705 152.195 139.958 150.67 140.335C150.252 140.439 149.807 140.476 149.377 140.48C145.86 140.492 142.343 140.48 138.831 140.492C137.883 140.496 137.209 140.178 136.671 139.331C133.68 134.606 130.645 129.913 127.622 125.212C127.538 125.079 127.441 124.951 127.305 124.754C126.044 125.694 124.8 126.613 123.563 127.54C118.087 131.627 112.619 135.73 107.115 139.781C106.565 140.186 105.77 140.451 105.088 140.459C98.7929 140.52 92.494 140.512 86.1991 140.516C85.1432 140.516 84.6775 140.154 84.4206 139.231C83.0436 139.52 81.6826 139.905 80.2976 140.078C78.4789 140.303 76.6443 140.464 74.8136 140.472C67.5311 140.516 60.2446 140.492 52.958 140.484C52.5967 140.484 52.2234 140.447 51.8701 140.355C51.0471 140.146 50.6737 139.512 50.8624 138.689C51.1314 137.533 51.4004 136.377 51.6894 135.224C52.0266 133.859 52.8858 133.181 54.3029 133.177C58.8314 133.169 63.3559 133.173 67.8844 133.173C70.4136 133.173 72.9388 133.177 75.468 133.169C75.8333 133.169 76.1986 133.101 76.564 133.085C77.5556 133.044 78.1297 132.474 78.3866 131.583C78.78 130.226 79.1454 128.857 79.4786 127.484C81.4457 119.435 83.4049 111.382 85.36 103.328C85.4563 102.931 85.5407 102.521 85.5607 102.112C85.6089 101.1 85.2757 100.735 84.268 100.659C83.9027 100.63 83.5333 100.646 83.164 100.646C69.9278 100.646 56.6916 100.646 43.4554 100.646C43.2025 100.646 42.9456 100.663 42.6967 100.634C41.5646 100.498 41.0788 99.8315 41.3237 98.7195C41.5846 97.5392 41.8697 96.3629 42.1627 95.1866C42.4237 94.1468 43.339 93.4242 44.4671 93.3399C44.6719 93.3238 44.8806 93.3318 45.0854 93.3318C58.8716 93.3318 72.6618 93.3278 86.448 93.3439C88.9932 93.3479 91.5385 93.4964 93.9834 94.2954C97.2312 95.3592 98.6965 97.5873 98.5841 101.012C98.5038 103.465 97.8414 105.797 97.2754 108.15C95.6013 115.095 93.9071 122.04 92.1808 128.974C91.8275 130.383 91.2936 131.748 90.8239 133.185C90.9684 133.197 91.1611 133.225 91.3498 133.225C94.5213 133.229 97.6929 133.241 100.864 133.209C101.242 133.205 101.675 133.049 101.976 132.82C108.3 128.022 114.606 123.205 120.913 118.387C121.094 118.251 121.259 118.098 121.467 117.921C120.074 115.918 118.705 113.943 117.332 111.972C113.743 106.817 110.15 101.666 106.557 96.5114C105.582 95.1143 106.248 93.6811 107.97 93.4764C108.38 93.4282 108.797 93.4242 109.211 93.4242C112.679 93.4202 116.152 93.4402 119.621 93.4121C120.865 93.4041 121.761 93.8096 122.487 94.8975C125.59 99.5505 128.766 104.151 131.913 108.772C132.002 108.905 132.102 109.025 132.235 109.202C133.744 108.013 135.234 106.841 136.723 105.665C141.569 101.839 146.394 97.9928 151.276 94.2151C151.866 93.7574 152.741 93.4804 153.496 93.4563C156.206 93.368 158.92 93.4202 161.63 93.4202C161.674 93.4202 161.722 93.4202 161.766 93.4242C162.561 93.4563 163.376 93.4924 163.645 94.4519C163.894 95.3432 163.3 95.857 162.694 96.3308C154.199 102.935 145.704 109.539 137.209 116.139C137.173 116.163 137.153 116.207 137.072 116.312Z" fill="white"/>
<path d="M193.821 119.343C193.476 119.343 193.183 119.343 192.889 119.343C185.374 119.343 177.863 119.347 170.347 119.339C169.544 119.339 168.725 119.355 167.943 119.21C165.594 118.785 163.952 116.878 164.056 114.437C164.125 112.811 164.482 111.181 164.855 109.587C165.951 104.922 167.116 100.269 168.272 95.6163C168.629 94.175 169.565 93.4323 171.03 93.4243C173.88 93.4042 176.731 93.4042 179.577 93.4243C181.006 93.4363 181.636 94.3075 181.299 95.7006C180.203 100.225 179.103 104.754 178.027 109.282C177.919 109.74 177.915 110.246 177.971 110.715C178.076 111.57 178.654 112.076 179.513 112.08C184.728 112.092 189.947 112.08 195.162 112.1C195.583 112.1 195.643 111.867 195.72 111.566C197.008 106.287 198.301 101.012 199.59 95.7327C199.947 94.2674 200.915 93.4404 202.424 93.4283C205.275 93.4082 208.125 93.4082 210.971 93.4283C212.481 93.4404 213.115 94.3196 212.75 95.7929C211.457 101.048 210.164 106.299 208.876 111.554C208.84 111.707 208.84 111.871 208.819 112.088C209.121 112.088 209.394 112.088 209.667 112.088C216.331 112.088 222.995 112.076 229.659 112.108C230.189 112.112 230.803 112.313 231.217 112.63C231.49 112.843 231.622 113.461 231.546 113.847C231.313 115.051 230.936 116.227 230.643 117.424C230.41 118.371 229.651 119.126 228.688 119.262C228.282 119.323 227.865 119.339 227.451 119.339C220.948 119.343 214.444 119.351 207.944 119.331C207.302 119.327 207.013 119.459 206.848 120.166C205.427 126.212 203.95 132.242 202.492 138.276C202.167 139.625 201.204 140.468 199.811 140.48C196.848 140.508 193.881 140.508 190.918 140.48C189.473 140.468 188.943 139.725 189.28 138.332C190.766 132.21 192.255 126.087 193.737 119.965C193.781 119.788 193.789 119.608 193.821 119.343Z" fill="white"/>
<path d="M33.4034 157.188C31.9341 157.188 30.4647 157.196 28.9954 157.188C27.6585 157.18 27.0884 156.478 27.3976 155.201C28.7786 149.5 30.1677 143.804 31.5567 138.107C33.6082 129.68 35.6637 121.258 37.7071 112.831C38.1246 111.109 39.1082 110.306 40.8666 110.306C43.4841 110.306 46.1017 110.302 48.7232 110.306C50.313 110.31 51.0396 111.221 50.6703 112.751C47.2258 126.918 43.7812 141.09 40.3367 155.257C40.0677 156.369 39.056 157.18 37.8878 157.188C36.3903 157.196 34.8969 157.188 33.4034 157.188Z" fill="white"/>
<path d="M136.103 165.017C135.513 167.871 133.791 169.208 131.229 168.823C131.643 166.884 132.044 164.945 132.466 163.01C133.229 159.509 134.004 156.008 134.77 152.507C135.18 150.632 136.625 149.376 138.568 149.364C143.137 149.332 147.709 149.332 152.278 149.364C154.193 149.376 155.161 150.648 154.755 152.519C154.077 155.667 153.39 158.81 152.696 161.954C152.29 163.788 150.72 165.009 148.737 165.013C144.811 165.021 140.881 165.017 136.954 165.017C136.685 165.017 136.412 165.017 136.103 165.017ZM150.516 153.358C146.549 153.358 142.635 153.358 138.64 153.358C138.09 155.88 137.536 158.413 136.97 160.998C140.945 160.998 144.863 160.998 148.846 160.998C149.4 158.473 149.954 155.94 150.516 153.358Z" fill="white"/>
<path d="M69.2996 149.432C68.6252 152.535 67.9627 155.587 67.2963 158.638C66.8708 160.577 66.4251 162.512 66.0277 164.455C65.9434 164.88 65.8029 165.025 65.3693 165.025C59.9255 165.013 54.4857 165.033 49.0419 165.005C47.1309 164.997 46.1915 163.7 46.605 161.825C47.2835 158.75 47.9459 155.671 48.6083 152.592C49.0178 150.685 50.4068 149.388 52.3459 149.372C57.9021 149.328 63.4583 149.36 69.0146 149.36C69.0828 149.364 69.1471 149.396 69.2996 149.432ZM50.8284 161.038C54.6984 161.038 58.5123 161.042 62.3222 161.018C62.4828 161.018 62.7437 160.773 62.7839 160.601C63.1372 159.111 63.4503 157.614 63.7755 156.121C63.9722 155.213 64.177 154.306 64.3857 153.358C60.3751 153.358 56.4528 153.358 52.5185 153.358C51.9605 155.9 51.4065 158.417 50.8284 161.038Z" fill="white"/>
<path d="M121.141 149.356C123.369 149.356 125.597 149.348 127.825 149.36C129.239 149.368 130.122 149.926 130.419 151.05C130.519 151.436 130.539 151.877 130.459 152.267C129.769 155.506 129.054 158.738 128.331 161.966C127.934 163.748 126.444 164.993 124.586 165.005C119.989 165.033 115.396 165.037 110.799 165.005C108.929 164.993 107.997 163.696 108.399 161.862C109.073 158.782 109.732 155.703 110.386 152.62C110.816 150.601 112.297 149.384 114.385 149.356C114.409 149.356 114.429 149.356 114.453 149.356C116.685 149.356 118.913 149.356 121.141 149.356ZM112.614 161.039C116.484 161.039 120.274 161.047 124.064 161.019C124.24 161.019 124.521 160.762 124.57 160.577C124.875 159.385 125.136 158.176 125.401 156.972C125.662 155.779 125.91 154.583 126.163 153.371C122.157 153.371 118.239 153.371 114.312 153.371C113.742 155.924 113.188 158.441 112.614 161.039Z" fill="white"/>
<path d="M187.479 165.017C185.227 165.017 182.974 165.029 180.722 165.013C178.723 164.997 177.743 163.74 178.181 161.805C178.249 161.492 178.301 161.175 178.366 160.866C178.972 158.076 179.566 155.285 180.188 152.499C180.614 150.596 182.059 149.384 184.006 149.368C188.579 149.336 193.151 149.336 197.724 149.368C199.659 149.38 200.579 150.608 200.169 152.519C199.499 155.643 198.832 158.77 198.126 161.89C197.684 163.849 196.191 165.005 194.163 165.017C191.935 165.025 189.707 165.017 187.479 165.017ZM182.388 161.034C186.262 161.034 190.092 161.038 193.922 161.014C194.067 161.014 194.296 160.741 194.344 160.557C194.641 159.384 194.902 158.204 195.159 157.024C195.424 155.811 195.673 154.595 195.938 153.354C191.935 153.354 188.017 153.354 184.078 153.354C183.516 155.916 182.958 158.449 182.388 161.034Z" fill="white"/>
<path d="M74.8314 161.002C78.7296 161.002 82.6277 161.002 86.6183 161.002C86.9033 159.734 87.2004 158.433 87.4814 157.128C87.8227 155.567 88.1358 154.001 88.4891 152.443C88.9748 150.315 90.8898 149.071 93.1902 149.444C92.9774 150.464 92.7727 151.484 92.5519 152.503C91.8774 155.603 91.1909 158.698 90.5285 161.801C90.127 163.672 88.6216 164.997 86.6905 165.009C82.1219 165.037 77.5493 165.037 72.9806 165.009C71.0897 164.997 70.1302 163.764 70.5237 161.922C71.3828 157.903 72.274 153.893 73.1251 149.874C73.2135 149.46 73.3741 149.364 73.7554 149.352C76.0157 149.288 77.0675 150.544 76.5777 152.744C76.5295 152.965 76.4814 153.19 76.4292 153.415C75.8952 155.799 75.3613 158.18 74.8354 160.565C74.8073 160.693 74.8314 160.834 74.8314 161.002Z" fill="white"/>
<path d="M208.522 149.364C210.433 149.364 212.372 149.364 214.311 149.364C214.299 151.548 212.573 153.314 210.505 153.326C209.678 153.33 208.851 153.306 208.024 153.342C207.836 153.35 207.527 153.535 207.49 153.692C206.957 156.028 206.455 158.369 205.949 160.713C205.933 160.798 205.957 160.89 205.961 161.03C207.9 161.03 209.823 161.03 211.746 161.03C211.714 163.098 210.409 164.736 208.41 164.925C206.776 165.077 205.106 165.033 203.468 164.905C202.083 164.792 201.308 163.528 201.605 162.159C202.769 156.759 203.938 151.363 205.094 145.964C205.17 145.602 205.315 145.482 205.684 145.47C207.318 145.418 208.474 146.108 208.651 147.401C208.739 148.007 208.578 148.653 208.522 149.364Z" fill="white"/>
<path d="M99.9252 153.326C99.3672 155.88 98.8132 158.413 98.2431 161.018C100.23 161.018 102.169 161.018 104.108 161.018C104.189 162.994 102.739 164.744 100.7 164.945C99.1745 165.093 97.6208 165.077 96.0912 164.961C94.4051 164.828 93.6263 163.588 94.0036 161.861C95.0715 156.931 96.1595 152.002 97.2434 147.076C97.2595 147.007 97.2635 146.939 97.2796 146.875C97.412 146.421 97.4723 145.63 97.6891 145.582C98.3033 145.45 99.0219 145.51 99.6281 145.703C100.748 146.06 101.238 147.208 100.981 148.525C100.933 148.766 100.893 149.011 100.828 149.344C102.808 149.344 104.727 149.344 106.638 149.344C106.722 151.415 104.98 153.294 103.016 153.322C102.009 153.334 101.001 153.326 99.9252 153.326Z" fill="white"/>
<path d="M168.435 161.035C170.431 161.035 172.374 161.035 174.317 161.035C174.309 163.146 172.856 164.804 170.74 164.973C169.279 165.089 167.797 165.077 166.336 164.973C164.67 164.856 163.823 163.66 164.176 161.986C165.027 157.943 165.922 153.913 166.801 149.874C166.878 149.525 167.018 149.276 167.444 149.348C167.982 149.436 168.56 149.416 169.058 149.605C170.158 150.03 170.603 151.163 170.314 152.479C169.684 155.314 169.066 158.14 168.435 161.035Z" fill="white"/>
<path d="M158.633 155.237C160.452 155.245 161.447 156.502 161.054 158.268C160.608 160.292 160.167 162.319 159.753 164.351C159.649 164.868 159.428 165.045 158.886 165.033C156.758 164.993 155.811 163.809 156.264 161.713C156.666 159.866 157.043 158.011 157.441 156.165C157.645 155.229 157.658 155.233 158.633 155.237Z" fill="white"/>
<path d="M158.1 153.254C158.385 151.946 158.666 150.681 158.947 149.392C160.272 149.392 161.552 149.392 162.957 149.392C162.793 150.239 162.648 151.054 162.472 151.861C162.154 153.331 162.146 153.331 160.629 153.331C159.85 153.331 159.067 153.327 158.288 153.319C158.248 153.314 158.204 153.286 158.1 153.254Z" fill="white"/>
<path d="M150.514 153.358C149.952 155.936 149.398 158.469 148.848 160.998C144.865 160.998 140.947 160.998 136.973 160.998C137.539 158.417 138.089 155.884 138.643 153.358C142.633 153.358 146.548 153.358 150.514 153.358Z" fill="black"/>
<path d="M50.8301 161.038C51.4082 158.421 51.9622 155.904 52.5242 153.358C56.4586 153.358 60.3808 153.358 64.3914 153.358C64.1827 154.306 63.9779 155.213 63.7812 156.121C63.456 157.614 63.1429 159.111 62.7896 160.601C62.7495 160.773 62.4885 161.018 62.3279 161.018C58.5141 161.042 54.7042 161.038 50.8301 161.038Z" fill="black"/>
<path d="M112.613 161.039C113.187 158.441 113.745 155.924 114.311 153.371C118.238 153.371 122.16 153.371 126.163 153.371C125.906 154.583 125.661 155.779 125.4 156.972C125.135 158.176 124.874 159.385 124.569 160.577C124.521 160.762 124.24 161.018 124.063 161.018C120.273 161.043 116.483 161.039 112.613 161.039Z" fill="black"/>
<path d="M182.388 161.034C182.958 158.449 183.516 155.916 184.078 153.354C188.02 153.354 191.938 153.354 195.937 153.354C195.676 154.591 195.427 155.807 195.158 157.024C194.901 158.204 194.636 159.384 194.343 160.557C194.299 160.741 194.066 161.014 193.922 161.014C190.096 161.043 186.262 161.034 182.388 161.034Z" fill="black"/>
</svg>
