<svg viewBox="0 0 904.417 548.213" fill="none" stroke-linecap="square" stroke-miterlimit="10" xmlns="http://www.w3.org/2000/svg"><clipPath id="a"><path d="M0 0h904.417v548.213H0V0z"/></clipPath><g clip-path="url(#a)"><path d="M0 0h904.417v548.213H0z"/><path fill="#cfe2f3" d="M162.04 239.373c0-19.587 15.879-35.465 35.466-35.465h204.03a35.465 35.465 0 0 1 35.465 35.465V381.23c0 19.587-15.878 35.466-35.465 35.466h-204.03c-19.587 0-35.465-15.879-35.465-35.466z" fill-rule="evenodd"/><path stroke="#000" stroke-linejoin="round" stroke-linecap="butt" d="M162.04 239.373c0-19.587 15.879-35.465 35.466-35.465h204.03a35.465 35.465 0 0 1 35.465 35.465V381.23c0 19.587-15.878 35.466-35.465 35.466h-204.03c-19.587 0-35.465-15.879-35.465-35.466z"/><path fill="#000" d="M228.353 241.216v-13.36h9.156v2.266h-6.453v3.156h5.562v2.266h-5.562v5.672h-2.703zm11.364 0v-13.36h2.563v13.36h-2.563zm5.184-10.985v-2.375h2.562v2.375h-2.562zm0 10.985v-9.672h2.562v9.672h-2.562zm4.948.64 2.922.36q.063.5.328.687.375.281 1.157.281 1 0 1.5-.297.328-.203.515-.656.11-.312.11-1.172v-1.406q-1.14 1.563-2.89 1.563-1.954 0-3.095-1.657-.89-1.297-.89-3.234 0-2.438 1.172-3.719 1.171-1.281 2.906-1.281 1.797 0 2.969 1.578v-1.36h2.39v8.673q0 1.718-.281 2.562-.281.844-.797 1.328-.5.485-1.36.75-.843.281-2.156.281-2.453 0-3.484-.843-1.031-.844-1.031-2.125 0-.14.015-.313zm2.282-5.672q0 1.532.593 2.25.594.72 1.47.72.937 0 1.577-.735.657-.735.657-2.172 0-1.516-.625-2.235-.61-.734-1.563-.734-.922 0-1.516.719-.593.719-.593 2.187zm11.896-8.328v4.922q1.234-1.453 2.953-1.453.89 0 1.594.328.718.328 1.078.844.36.5.484 1.125.14.61.14 1.922v5.672h-2.562v-5.11q0-1.515-.156-1.922-.14-.422-.516-.656-.359-.25-.906-.25-.64 0-1.14.313-.5.312-.735.937-.234.625-.234 1.844v4.844h-2.563v-13.36h2.563zm13.286 3.688v2.03h-1.75v3.907q0 1.188.047 1.39.047.188.219.313.187.125.437.125.36 0 1.032-.25l.218 2q-.89.375-2.015.375-.703 0-1.266-.234-.547-.234-.812-.594-.25-.375-.344-1-.094-.453-.094-1.812v-4.22h-1.172v-2.03h1.172v-1.922l2.578-1.5v3.422h1.75zm15.521 4.765 2.61.828q-.594 2.188-2 3.25-1.391 1.063-3.547 1.063-2.656 0-4.375-1.813-1.703-1.828-1.703-4.984 0-3.328 1.718-5.172 1.72-1.844 4.516-1.844 2.453 0 3.984 1.438.922.86 1.375 2.469l-2.671.64q-.235-1.047-.985-1.64-.75-.61-1.828-.61-1.484 0-2.422 1.078-.922 1.063-.922 3.438 0 2.531.907 3.61.921 1.077 2.375 1.077 1.078 0 1.843-.671.782-.688 1.125-2.157zm4.317-.062q0-1.281.625-2.469.625-1.203 1.781-1.828 1.157-.625 2.578-.625 2.188 0 3.594 1.422 1.406 1.422 1.406 3.61 0 2.187-1.421 3.64-1.422 1.437-3.563 1.437-1.328 0-2.547-.593-1.203-.61-1.828-1.766-.625-1.172-.625-2.828zm2.625.125q0 1.453.672 2.219.687.75 1.687.75t1.672-.75q.688-.766.688-2.235 0-1.422-.688-2.187-.672-.766-1.672-.766-1 0-1.687.766-.672.765-.672 2.203zm18.162 4.844h-2.563v-4.938q0-1.562-.172-2.016-.156-.468-.531-.718-.36-.266-.875-.266-.672 0-1.203.375-.531.36-.735.969-.187.594-.187 2.219v4.375h-2.547v-9.672h2.375v1.422q1.266-1.641 3.188-1.641.843 0 1.546.312.704.297 1.063.782.36.468.5 1.078.14.594.14 1.703v6.016zm7.036-9.672v2.03h-1.75v3.907q0 1.188.047 1.39.047.188.219.313.187.125.437.125.36 0 1.032-.25l.218 2q-.89.375-2.015.375-.703 0-1.266-.234-.547-.234-.812-.594-.25-.375-.344-1-.094-.453-.094-1.812v-4.22h-1.172v-2.03h1.172v-1.922l2.578-1.5v3.422h1.75zm4.229 9.672h-2.563v-9.672h2.375v1.375q.61-.985 1.094-1.282.484-.312 1.11-.312.874 0 1.687.484l-.797 2.235q-.64-.422-1.203-.422-.532 0-.907.297t-.593 1.078q-.203.765-.203 3.234v2.985zm4.213-4.97q0-1.28.625-2.468.625-1.203 1.781-1.828t2.578-.625q2.188 0 3.594 1.422 1.406 1.422 1.406 3.61 0 2.187-1.422 3.64-1.421 1.437-3.562 1.437-1.328 0-2.547-.593-1.203-.61-1.828-1.766-.625-1.172-.625-2.828zm2.625.126q0 1.453.672 2.219.687.75 1.687.75t1.672-.75q.688-.766.688-2.235 0-1.422-.688-2.187-.672-.766-1.672-.766-1 0-1.687.766-.672.765-.672 2.203zm9.365 4.844v-13.36h2.562v13.36h-2.562zm5.183 0v-13.36h2.562v13.36h-2.562zm10.777-3.079 2.547.422q-.485 1.407-1.547 2.14-1.063.735-2.656.735-2.516 0-3.735-1.656-.953-1.312-.953-3.328 0-2.406 1.25-3.766 1.266-1.36 3.188-1.36 2.156 0 3.406 1.423 1.25 1.422 1.187 4.375h-6.406q.031 1.14.61 1.781.593.625 1.484.625.594 0 1-.328.422-.328.625-1.063zm.156-2.593q-.031-1.11-.578-1.688-.547-.578-1.328-.578-.844 0-1.39.61-.548.609-.532 1.656h3.828zm7.08 5.672h-2.563v-9.672h2.375v1.375q.609-.985 1.093-1.282.485-.312 1.11-.312.875 0 1.687.484l-.797 2.235q-.64-.422-1.203-.422-.531 0-.906.297t-.594 1.078q-.203.765-.203 3.234v2.985zM207.095 294.64l1.516.375q-.469 1.875-1.719 2.86-1.234.984-3.016.984-1.859 0-3.015-.75-1.156-.766-1.766-2.188-.61-1.437-.61-3.078 0-1.797.688-3.125t1.938-2.016q1.265-.703 2.781-.703 1.719 0 2.89.875 1.173.875 1.641 2.469l-1.5.344q-.39-1.25-1.156-1.813-.75-.578-1.906-.578-1.313 0-2.203.64-.89.626-1.25 1.704-.36 1.062-.36 2.187 0 1.47.422 2.563.438 1.078 1.328 1.625.907.531 1.953.531 1.266 0 2.141-.734.89-.735 1.203-2.172zm2.68-.14q0-2.298 1.281-3.407 1.078-.922 2.61-.922 1.718 0 2.796 1.125 1.094 1.11 1.094 3.094 0 1.594-.484 2.516-.485.921-1.406 1.437-.907.5-2 .5-1.735 0-2.813-1.11-1.078-1.124-1.078-3.234zm1.453 0q0 1.593.688 2.39.703.797 1.75.797 1.046 0 1.734-.797.703-.797.703-2.438 0-1.53-.703-2.328-.688-.797-1.734-.797-1.047 0-1.75.797-.688.782-.688 2.375zm7.961 4.156v-8.297h1.266v1.25q.484-.875.89-1.157.406-.28.906-.28.704 0 1.438.452l-.484 1.297q-.516-.297-1.032-.297-.453 0-.828.282-.36.265-.515.765-.235.75-.235 1.64v4.345h-1.406zm11.016-2.672 1.453.172q-.344 1.28-1.282 1.984-.921.703-2.359.703-1.828 0-2.89-1.125-1.063-1.125-1.063-3.14 0-2.094 1.078-3.25 1.078-1.157 2.797-1.157 1.656 0 2.703 1.14 1.063 1.126 1.063 3.173v.375h-6.188q.078 1.375.766 2.109.703.719 1.734.719.781 0 1.328-.406.547-.407.86-1.297zm-4.61-2.282h4.625q-.094-1.046-.531-1.562-.672-.813-1.734-.813-.97 0-1.641.657-.656.64-.719 1.718zm12.61 4.954v-7.204h-1.235v-1.093h1.235v-.891q0-.828.156-1.234.203-.547.703-.891.516-.344 1.437-.344.594 0 1.313.14l-.203 1.235q-.438-.078-.828-.078-.64 0-.907.281-.265.266-.265 1.016v.766h1.61v1.093h-1.61v7.204h-1.406zm4.086 0v-11.454h1.406v11.454h-1.406zm3.585-9.844v-1.61h1.407v1.61h-1.407zm0 9.844v-8.297h1.407v8.297h-1.407zm3.29.687 1.375.203q.078.64.468.922.532.39 1.438.39.969 0 1.5-.39t.719-1.094q.109-.422.109-1.812-.922 1.094-2.297 1.094-1.719 0-2.656-1.235-.938-1.234-.938-2.969 0-1.187.422-2.187.438-1 1.25-1.547.828-.547 1.922-.547 1.469 0 2.422 1.188v-1h1.297v7.172q0 1.937-.39 2.75-.391.812-1.25 1.28-.86.47-2.11.47-1.485 0-2.406-.672-.907-.672-.875-2.016zm1.171-4.984q0 1.625.641 2.375.656.75 1.625.75t1.625-.735q.656-.75.656-2.343 0-1.532-.672-2.297-.671-.782-1.625-.782-.937 0-1.593.766-.657.766-.657 2.266zm7.993 4.297v-11.454h1.406v4.11q.984-1.14 2.484-1.14.922 0 1.594.359.687.359.969 1 .297.64.297 1.859v5.266h-1.407v-5.266q0-1.047-.453-1.531-.453-.485-1.297-.485-.625 0-1.172.328-.546.329-.78.891-.235.547-.235 1.516v4.547h-1.406zm11.96-1.266.204 1.25q-.594.125-1.063.125-.765 0-1.187-.234-.422-.25-.594-.641-.172-.406-.172-1.672v-4.766h-1.031v-1.093h1.031v-2.063l1.406-.844v2.907h1.407v1.093h-1.407v4.844q0 .61.063.781.078.172.25.282.172.093.484.093.235 0 .61-.062zm11.235-1.781 1.39.187q-.234 1.422-1.171 2.235-.922.812-2.282.812-1.703 0-2.75-1.11-1.03-1.124-1.03-3.202 0-1.344.437-2.344.453-1.016 1.359-1.516.922-.5 1.984-.5 1.36 0 2.22.688.859.672 1.093 1.937l-1.36.203q-.203-.828-.703-1.25-.484-.422-1.187-.422-1.063 0-1.734.766-.657.75-.657 2.406 0 1.672.64 2.438.642.75 1.673.75.828 0 1.375-.5.562-.516.703-1.578zm2.062-1.11q0-2.297 1.282-3.406 1.078-.922 2.609-.922 1.719 0 2.797 1.125 1.094 1.11 1.094 3.094 0 1.594-.485 2.516-.484.921-1.406 1.437-.906.5-2 .5-1.734 0-2.812-1.11-1.079-1.124-1.079-3.234zm1.454 0q0 1.594.687 2.39.703.798 1.75.798 1.047 0 1.734-.797.704-.797.704-2.438 0-1.53-.704-2.328-.687-.797-1.734-.797t-1.75.797q-.687.782-.687 2.375zm7.976 4.157v-8.297h1.266v1.172q.906-1.36 2.64-1.36.75 0 1.375.266.625.265.938.703.312.437.437 1.047.078.39.078 1.36v5.109h-1.406v-5.047q0-.86-.172-1.282-.156-.437-.578-.687-.406-.25-.969-.25-.906 0-1.562.578-.64.563-.64 2.156v4.532h-1.407zm11.961-1.266.203 1.25q-.594.125-1.062.125-.766 0-1.188-.234-.422-.25-.594-.641-.171-.406-.171-1.672v-4.766h-1.032v-1.093h1.032v-2.063l1.406-.844v2.907h1.406v1.093h-1.406v4.844q0 .61.062.781.078.172.25.282.172.093.485.093.234 0 .609-.062zm1.367 1.266v-8.297h1.266v1.25q.484-.875.89-1.157.407-.28.907-.28.703 0 1.437.452l-.484 1.297q-.516-.297-1.031-.297-.454 0-.829.282-.359.265-.515.765-.235.75-.235 1.64v4.345h-1.406zm4.813-4.157q0-2.297 1.281-3.406 1.078-.922 2.61-.922 1.718 0 2.796 1.125 1.094 1.11 1.094 3.094 0 1.594-.484 2.516-.485.921-1.407 1.437-.906.5-2 .5-1.734 0-2.812-1.11-1.078-1.124-1.078-3.234zm1.453 0q0 1.594.687 2.39.703.798 1.75.798 1.047 0 1.735-.797.703-.797.703-2.438 0-1.53-.703-2.328-.688-.797-1.735-.797-1.047 0-1.75.797-.687.782-.687 2.375zm7.945 4.157v-11.454h1.406v11.454h-1.406zm13.438-1.032q-.782.672-1.5.953-.72.266-1.547.266-1.375 0-2.11-.672-.734-.672-.734-1.703 0-.61.281-1.11.282-.515.719-.812.453-.312 1.016-.469.422-.109 1.25-.203 1.703-.203 2.515-.484v-.375q0-.86-.39-1.203-.547-.485-1.61-.485-.984 0-1.468.36-.47.344-.688 1.219l-1.375-.188q.188-.875.61-1.422.437-.547 1.25-.828.812-.297 1.874-.297 1.063 0 1.72.25.671.25.984.625.312.375.437.953.078.36.078 1.297v1.875q0 1.969.078 2.485.094.515.36 1h-1.47q-.218-.438-.28-1.032zm-.11-3.14q-.765.312-2.297.53-.875.126-1.234.282-.36.156-.562.469-.188.297-.188.656 0 .563.422.938.437.375 1.25.375.812 0 1.437-.344.641-.36.938-.984.234-.47.234-1.407v-.515zm3.602 4.172v-8.297h1.265v1.172q.907-1.36 2.641-1.36.75 0 1.375.266.625.265.938.703.312.437.437 1.047.078.39.078 1.36v5.109h-1.406v-5.047q0-.86-.172-1.282-.156-.437-.578-.687-.406-.25-.969-.25-.906 0-1.562.578-.64.563-.64 2.156v4.532h-1.407zm14.273 0v-1.047q-.781 1.234-2.312 1.234-1 0-1.828-.547-.828-.547-1.297-1.531-.453-.984-.453-2.25 0-1.25.406-2.25.422-1.016 1.25-1.547.828-.547 1.86-.547.75 0 1.327.313.594.312.954.828v-4.11h1.406v11.454h-1.313zm-4.437-4.141q0 1.594.672 2.39.672.782 1.578.782.922 0 1.562-.75.657-.766.657-2.313 0-1.703-.657-2.5-.656-.797-1.625-.797-.937 0-1.562.766t-.625 2.422zm11.844 1.656 1.39-.219q.11.844.64 1.297.548.438 1.5.438.97 0 1.438-.39.469-.407.469-.938 0-.47-.406-.75-.297-.188-1.438-.47-1.547-.39-2.156-.671-.594-.297-.906-.797-.297-.5-.297-1.11 0-.562.25-1.03.25-.47.687-.782.329-.25.891-.406.578-.172 1.219-.172.984 0 1.719.281.734.282 1.078.766.359.469.5 1.281l-1.375.188q-.094-.64-.547-1-.453-.36-1.266-.36-.969 0-1.39.329-.407.312-.407.734 0 .281.172.5.172.219.531.375.22.078 1.25.36 1.485.39 2.079.656.593.25.921.734.344.484.344 1.203 0 .703-.422 1.328-.406.61-1.187.953-.766.344-1.735.344-1.625 0-2.468-.672-.844-.672-1.078-2zm13.968 1.453q-.781.672-1.5.953-.718.266-1.547.266-1.375 0-2.109-.672t-.734-1.703q0-.61.28-1.11.282-.515.72-.812.453-.312 1.015-.469.422-.109 1.25-.203 1.703-.203 2.516-.484v-.375q0-.86-.39-1.203-.548-.485-1.61-.485-.984 0-1.469.36-.469.344-.687 1.219l-1.375-.188q.187-.875.609-1.422.438-.547 1.25-.828.813-.297 1.875-.297 1.063 0 1.719.25.672.25.984.625.313.375.438.953.078.36.078 1.297v1.875q0 1.969.078 2.485.094.515.36 1h-1.47q-.218-.438-.28-1.032zm-.11-3.14q-.765.312-2.296.53-.875.126-1.234.282-.36.156-.563.469-.187.297-.187.656 0 .563.422.938.437.375 1.25.375.812 0 1.437-.344.64-.36.938-.984.234-.47.234-1.407v-.515zm3.93 4.172v-7.204h-1.234v-1.093h1.235v-.891q0-.828.156-1.234.203-.547.703-.891.516-.344 1.437-.344.594 0 1.313.14l-.203 1.235q-.438-.078-.828-.078-.64 0-.907.281-.265.266-.265 1.016v.766h1.61v1.093h-1.61v7.204h-1.406zm9.79-2.672 1.453.172q-.344 1.28-1.281 1.984-.922.703-2.36.703-1.828 0-2.89-1.125-1.063-1.125-1.063-3.14 0-2.094 1.078-3.25 1.078-1.157 2.797-1.157 1.656 0 2.703 1.14 1.063 1.126 1.063 3.173v.375h-6.188q.078 1.375.766 2.109.703.719 1.734.719.781 0 1.328-.406.547-.407.86-1.297zm-4.61-2.282h4.625q-.093-1.046-.531-1.562-.672-.813-1.734-.813-.97 0-1.641.657-.656.64-.719 1.718zm10.899 3.688.203 1.25q-.594.125-1.063.125-.765 0-1.187-.234-.422-.25-.594-.641-.172-.406-.172-1.672v-4.766h-1.031v-1.093h1.031v-2.063l1.406-.844v2.907h1.407v1.093h-1.407v4.844q0 .61.063.781.078.172.25.282.172.093.484.093.235 0 .61-.062zm1.32 4.469-.156-1.328q.453.125.797.125.468 0 .75-.157.28-.156.468-.437.125-.203.422-1.047.047-.11.125-.344l-3.14-8.312h1.515l1.719 4.797q.344.921.61 1.921.234-.968.578-1.89l1.765-4.828h1.406l-3.156 8.437q-.5 1.375-.781 1.89-.375.688-.86 1.016-.484.329-1.156.329-.406 0-.906-.172zm-122.348 15.797v-7.204h-1.234v-1.093h1.234v-.89q0-.83.157-1.235.203-.547.703-.89.515-.345 1.437-.345.594 0 1.313.14l-.203 1.235q-.438-.078-.829-.078-.64 0-.906.281-.265.266-.265 1.016v.766h1.609v1.093h-1.61v7.204h-1.406zm9.79-2.672 1.453.172q-.344 1.28-1.282 1.984-.922.703-2.36.703-1.827 0-2.89-1.125-1.062-1.125-1.062-3.14 0-2.094 1.078-3.25 1.078-1.157 2.797-1.157 1.656 0 2.703 1.14 1.062 1.126 1.062 3.173v.375h-6.187q.078 1.375.766 2.11.703.718 1.734.718.781 0 1.328-.406.547-.407.86-1.297zm-4.61-2.282h4.625q-.094-1.046-.531-1.562-.672-.813-1.735-.813-.968 0-1.64.657-.656.64-.719 1.718zm13.242 3.922q-.781.672-1.5.953-.719.266-1.547.266-1.375 0-2.109-.672t-.734-1.703q0-.61.28-1.11.282-.515.72-.812.453-.312 1.015-.469.422-.109 1.25-.203 1.703-.203 2.516-.484v-.375q0-.86-.39-1.203-.548-.485-1.61-.485-.985 0-1.469.36-.469.344-.687 1.219l-1.375-.188q.187-.875.609-1.422.437-.547 1.25-.828.812-.297 1.875-.297 1.062 0 1.719.25.672.25.984.625.313.375.438.953.078.36.078 1.297v1.875q0 1.969.078 2.485.094.515.36 1h-1.47q-.218-.438-.28-1.032zm-.11-3.14q-.765.312-2.296.53-.875.126-1.234.282-.36.156-.563.469-.187.297-.187.656 0 .563.421.938.438.375 1.25.375.813 0 1.438-.344.64-.36.937-.984.235-.47.235-1.407v-.515zm6.665 2.906.203 1.25q-.594.125-1.062.125-.766 0-1.188-.234-.422-.25-.594-.641-.172-.406-.172-1.672v-4.766h-1.03v-1.093h1.03v-2.063l1.407-.844v2.907h1.406v1.093h-1.406v4.844q0 .61.062.781.078.172.25.282.172.093.485.093.234 0 .609-.062zm6.82 1.266v-1.22q-.969 1.407-2.64 1.407-.735 0-1.375-.281-.625-.281-.938-.703-.312-.438-.437-1.047-.079-.422-.079-1.313v-5.14h1.407v4.593q0 1.11.078 1.485.14.562.562.875.438.312 1.063.312.64 0 1.187-.312.563-.328.782-.89.234-.563.234-1.626v-4.437h1.406v8.297h-1.25zm3.446 0v-8.297h1.265v1.25q.485-.875.89-1.157.407-.28.907-.28.703 0 1.438.452l-.485 1.297q-.515-.297-1.031-.297-.453 0-.828.282-.36.265-.516.765-.234.75-.234 1.64v4.345h-1.406zm11.015-2.672 1.453.172q-.343 1.28-1.28 1.984-.923.703-2.36.703-1.828 0-2.89-1.125-1.063-1.125-1.063-3.14 0-2.094 1.078-3.25 1.078-1.157 2.797-1.157 1.656 0 2.703 1.14 1.062 1.126 1.062 3.173v.375h-6.187q.078 1.375.765 2.11.703.718 1.735.718.78 0 1.328-.406.547-.407.86-1.297zm-4.61-2.282h4.626q-.094-1.046-.531-1.562-.672-.813-1.735-.813-.969 0-1.64.657-.657.64-.72 1.718zm7.274 2.47 1.39-.22q.11.844.641 1.297.547.438 1.5.438.97 0 1.438-.39.469-.407.469-.938 0-.47-.407-.75-.296-.188-1.437-.47-1.547-.39-2.156-.671-.594-.297-.907-.797-.296-.5-.296-1.11 0-.562.25-1.03.25-.47.687-.782.328-.25.89-.406.579-.172 1.22-.172.984 0 1.718.281.735.282 1.078.766.36.469.5 1.281l-1.375.188q-.093-.64-.547-1-.453-.36-1.265-.36-.969 0-1.39.329-.407.312-.407.734 0 .281.172.5.172.219.531.375.219.078 1.25.36 1.484.39 2.078.656.594.25.922.734.344.484.344 1.203 0 .703-.422 1.328-.406.61-1.188.953-.765.344-1.734.344-1.625 0-2.469-.672-.843-.672-1.078-2z"/><path fill="#cfe2f3" d="M162.04 483.793c0-6.448 5.228-11.675 11.675-11.675h80.21a11.675 11.675 0 0 1 11.675 11.675v46.698c0 6.447-5.227 11.674-11.675 11.674h-80.21c-6.447 0-11.674-5.227-11.674-11.674z" fill-rule="evenodd"/><path stroke="#000" stroke-linejoin="round" stroke-linecap="butt" d="M162.04 483.793c0-6.448 5.228-11.675 11.675-11.675h80.21a11.675 11.675 0 0 1 11.675 11.675v46.698c0 6.447-5.227 11.674-11.675 11.674h-80.21c-6.447 0-11.674-5.227-11.674-11.674z"/><path fill="#000" d="M184.058 514.062v-13.36h4.03l2.423 9.11 2.39-9.11h4.047v13.36h-2.5v-10.516l-2.656 10.516h-2.594l-2.64-10.516v10.516h-2.5zm14.962-4.969q0-1.281.625-2.469.625-1.203 1.782-1.828 1.156-.625 2.578-.625 2.187 0 3.593 1.422 1.407 1.422 1.407 3.61 0 2.187-1.422 3.64-1.422 1.437-3.563 1.437-1.328 0-2.547-.593-1.203-.61-1.828-1.766-.625-1.172-.625-2.828zm2.625.125q0 1.453.672 2.219.688.75 1.688.75t1.672-.75q.687-.766.687-2.235 0-1.422-.687-2.187-.672-.766-1.672-.766-1 0-1.688.766-.672.765-.672 2.203zm13.803-4.828v2.031h-1.75v3.906q0 1.188.046 1.391.047.187.22.312.187.125.437.125.359 0 1.03-.25l.22 2q-.891.375-2.016.375-.703 0-1.266-.234-.546-.234-.812-.594-.25-.375-.344-1-.094-.453-.094-1.812v-4.219h-1.171v-2.031h1.171v-1.922l2.579-1.5v3.422h1.75zm1.181 4.703q0-1.281.625-2.469.625-1.203 1.781-1.828t2.578-.625q2.188 0 3.594 1.422 1.406 1.422 1.406 3.61 0 2.187-1.422 3.64-1.421 1.437-3.562 1.437-1.328 0-2.547-.593-1.203-.61-1.828-1.766-.625-1.172-.625-2.828zm2.625.125q0 1.453.672 2.219.687.75 1.687.75t1.672-.75q.688-.766.688-2.235 0-1.422-.688-2.187-.672-.766-1.672-.766-1 0-1.687.766-.672.765-.672 2.203zm11.818 4.844h-2.563v-9.672h2.375v1.375q.61-.985 1.094-1.281.484-.313 1.11-.313.874 0 1.687.484l-.797 2.235q-.64-.422-1.203-.422-.531 0-.906.297t-.594 1.078q-.203.766-.203 3.234v2.985zm3.9-2.766 2.563-.39q.172.75.672 1.14.5.39 1.406.39.985 0 1.485-.374.343-.25.343-.672 0-.297-.187-.485-.188-.187-.86-.343-3.093-.688-3.921-1.25-1.14-.782-1.14-2.172 0-1.266.983-2.11 1-.859 3.079-.859 1.984 0 2.953.656.968.641 1.328 1.907l-2.406.437q-.157-.562-.594-.86-.422-.296-1.235-.296-1 0-1.437.281-.297.203-.297.516 0 .265.25.468.344.25 2.39.72 2.048.452 2.86 1.14.797.672.797 1.89 0 1.344-1.11 2.297-1.109.953-3.28.953-1.985 0-3.141-.796-1.14-.813-1.5-2.188z"/><path fill="#cfe2f3" d="M286.534 483.777c0-6.448 5.227-11.675 11.675-11.675h127.107a11.675 11.675 0 0 1 11.675 11.675v46.698c0 6.448-5.227 11.675-11.675 11.675H298.209c-6.448 0-11.675-5.227-11.675-11.675z" fill-rule="evenodd"/><path stroke="#000" stroke-linejoin="round" stroke-linecap="butt" d="M286.534 483.777c0-6.448 5.227-11.675 11.675-11.675h127.107a11.675 11.675 0 0 1 11.675 11.675v46.698c0 6.448-5.227 11.675-11.675 11.675H298.209c-6.448 0-11.675-5.227-11.675-11.675z"/><path fill="#000" d="m325.623 490.702 2.625-.25q.234 1.313.953 1.938.734.61 1.969.61 1.297 0 1.953-.548.672-.547.672-1.281 0-.484-.282-.813-.28-.328-.968-.578-.485-.156-2.172-.578-2.156-.547-3.031-1.328-1.235-1.094-1.235-2.687 0-1.016.578-1.907.578-.89 1.657-1.343 1.093-.47 2.64-.47 2.516 0 3.781 1.11 1.282 1.094 1.344 2.938l-2.703.11q-.172-1.032-.75-1.47-.562-.453-1.703-.453-1.172 0-1.844.469-.422.312-.422.844 0 .468.407.797.5.437 2.468.906 1.97.453 2.907.953.953.5 1.484 1.36.531.859.531 2.124 0 1.157-.64 2.157-.641 1-1.813 1.484-1.156.484-2.89.484-2.532 0-3.891-1.172-1.36-1.171-1.625-3.406zm18.71 1.266 2.546.422q-.484 1.406-1.547 2.14-1.062.735-2.656.735-2.516 0-3.735-1.657-.953-1.312-.953-3.328 0-2.406 1.25-3.765 1.266-1.36 3.188-1.36 2.156 0 3.406 1.422t1.188 4.375h-6.407q.032 1.14.61 1.781.593.625 1.484.625.594 0 1-.328.422-.328.625-1.062zm.155-2.594q-.03-1.11-.578-1.687-.547-.579-1.328-.579-.844 0-1.39.61-.547.61-.532 1.656h3.828zm13.423 5.672h-2.563v-4.938q0-1.562-.171-2.015-.157-.469-.532-.719-.36-.266-.875-.266-.672 0-1.203.375-.531.36-.734.97-.188.593-.188 2.218v4.375h-2.547v-9.672h2.375v1.422q1.266-1.64 3.188-1.64.844 0 1.547.312.703.297 1.062.781.36.469.5 1.078.14.594.14 1.703v6.016zm1.693-2.766 2.562-.39q.172.75.672 1.14.5.391 1.406.391.985 0 1.485-.375.344-.25.344-.672 0-.297-.188-.484-.187-.188-.86-.344-3.093-.688-3.921-1.25-1.14-.781-1.14-2.172 0-1.266.984-2.11 1-.859 3.078-.859 1.984 0 2.953.657.969.64 1.328 1.906l-2.406.437q-.157-.562-.594-.859-.422-.297-1.234-.297-1 0-1.438.281-.297.203-.297.516 0 .266.25.469.344.25 2.39.718 2.048.454 2.86 1.141.797.672.797 1.89 0 1.344-1.11 2.298-1.109.953-3.28.953-1.985 0-3.141-.797-1.14-.813-1.5-2.188zm10.688-2.203q0-1.281.625-2.469.625-1.203 1.781-1.828t2.578-.625q2.188 0 3.594 1.422 1.406 1.422 1.406 3.61 0 2.187-1.422 3.64-1.421 1.438-3.562 1.438-1.328 0-2.547-.594-1.203-.61-1.828-1.766-.625-1.172-.625-2.828zm2.625.125q0 1.453.672 2.219.687.75 1.687.75t1.672-.75q.688-.766.688-2.234 0-1.422-.688-2.188-.672-.766-1.672-.766-1 0-1.687.766-.672.766-.672 2.203zm11.818 4.844h-2.563v-9.672h2.375v1.375q.61-.984 1.094-1.281.484-.313 1.11-.313.874 0 1.687.485l-.797 2.234q-.64-.422-1.203-.422-.531 0-.906.297t-.594 1.078q-.203.766-.203 3.235v2.984zm3.9-2.766 2.563-.39q.172.75.672 1.14.5.391 1.406.391.985 0 1.485-.375.343-.25.343-.672 0-.297-.187-.484-.188-.188-.86-.344-3.093-.688-3.921-1.25-1.14-.781-1.14-2.172 0-1.266.983-2.11 1-.859 3.079-.859 1.984 0 2.953.657.968.64 1.328 1.906l-2.406.437q-.157-.562-.594-.859-.422-.297-1.235-.297-1 0-1.437.281-.297.203-.297.516 0 .266.25.469.344.25 2.39.718 2.048.454 2.86 1.141.797.672.797 1.89 0 1.344-1.11 2.298-1.109.953-3.28.953-1.985 0-3.141-.797-1.14-.813-1.5-2.188zm-78.095 22.206v-11.453h3.953q1.328 0 2.031.156.985.234 1.688.828.906.766 1.343 1.953.454 1.188.454 2.72 0 1.312-.313 2.327-.297 1-.781 1.656-.469.657-1.031 1.047-.563.375-1.375.578-.797.188-1.829.188h-4.14zm1.515-1.36h2.454q1.125 0 1.765-.203.656-.218 1.031-.593.547-.547.844-1.453.297-.907.297-2.204 0-1.796-.594-2.765-.578-.969-1.422-1.297-.609-.234-1.968-.234h-2.407v8.75zm9.868-8.484v-1.61h1.406v1.61h-1.406zm0 9.844v-8.297h1.406v8.297h-1.406zm2.992-2.484 1.39-.22q.11.845.641 1.298.547.437 1.5.437.969 0 1.438-.39.468-.407.468-.938 0-.469-.406-.75-.297-.187-1.437-.469-1.547-.39-2.157-.672-.593-.296-.906-.796-.297-.5-.297-1.11 0-.562.25-1.031.25-.469.688-.781.328-.25.89-.407.578-.171 1.22-.171.983 0 1.718.28.734.282 1.078.766.36.47.5 1.282l-1.375.187q-.094-.64-.547-1-.453-.36-1.266-.36-.968 0-1.39.329-.406.312-.406.734 0 .282.171.5.172.22.532.375.218.078 1.25.36 1.484.39 2.078.656.594.25.922.734.343.485.343 1.203 0 .704-.421 1.329-.407.609-1.188.953-.766.343-1.734.343-1.625 0-2.469-.671-.844-.672-1.078-2zm11.625 1.218.203 1.25q-.594.125-1.063.125-.765 0-1.187-.234-.422-.25-.594-.64-.172-.407-.172-1.673v-4.765h-1.03v-1.094h1.03v-2.062l1.407-.844v2.906h1.406v1.094h-1.406v4.844q0 .609.062.78.078.173.25.282.172.094.484.094.235 0 .61-.063zm6.789.235q-.781.672-1.5.953-.719.265-1.547.265-1.375 0-2.11-.671-.734-.672-.734-1.704 0-.609.282-1.109.28-.516.718-.812.453-.313 1.016-.47.422-.109 1.25-.202 1.703-.203 2.516-.485v-.375q0-.859-.391-1.203-.547-.484-1.61-.484-.984 0-1.468.36-.469.343-.688 1.218l-1.375-.188q.188-.875.61-1.421.437-.547 1.25-.829.812-.296 1.875-.296 1.062 0 1.718.25.672.25.985.625.312.375.437.953.078.36.078 1.297v1.875q0 1.968.079 2.484.093.516.359 1h-1.469q-.219-.438-.281-1.031zm-.11-3.14q-.765.312-2.296.53-.875.125-1.235.282-.36.156-.562.468-.188.297-.188.657 0 .562.422.937.438.375 1.25.375.813 0 1.438-.344.64-.359.937-.984.235-.469.235-1.406v-.516zm3.602 4.171v-8.297h1.266v1.172q.906-1.36 2.64-1.36.75 0 1.375.266t.938.703q.312.438.437 1.047.078.39.078 1.36v5.109h-1.406v-5.047q0-.86-.172-1.281-.156-.438-.578-.688-.406-.25-.969-.25-.906 0-1.562.578-.64.563-.64 2.157v4.531h-1.407zm14.305-3.047 1.39.188q-.234 1.421-1.171 2.234-.922.812-2.282.812-1.703 0-2.75-1.109-1.031-1.125-1.031-3.203 0-1.344.438-2.344.453-1.015 1.359-1.515.922-.5 1.984-.5 1.36 0 2.219.687.86.672 1.094 1.938l-1.36.203q-.203-.828-.703-1.25-.484-.422-1.187-.422-1.063 0-1.735.765-.656.75-.656 2.407 0 1.672.64 2.437.641.75 1.673.75.828 0 1.375-.5.562-.515.703-1.578zm8.265.375 1.454.172q-.344 1.281-1.282 1.984-.922.703-2.36.703-1.827 0-2.89-1.125-1.062-1.125-1.062-3.14 0-2.094 1.078-3.25 1.078-1.156 2.797-1.156 1.656 0 2.703 1.14 1.062 1.125 1.062 3.172v.375h-6.187q.078 1.375.766 2.11.703.718 1.734.718.781 0 1.328-.406t.86-1.297zm-4.609-2.281h4.625q-.094-1.047-.531-1.563-.672-.812-1.735-.812-.968 0-1.64.656-.656.64-.719 1.719zm8.195 4.953v-1.61h1.61v1.61q0 .89-.313 1.422-.312.547-1 .844l-.39-.594q.453-.203.656-.578.219-.375.234-1.094h-.797zm8.97 0v-11.453h1.515v11.453h-1.516zm4.132 0v-11.453h2.281l2.719 8.11q.375 1.124.547 1.687.187-.625.61-1.828l2.734-7.97h2.046v11.454h-1.468v-9.594l-3.328 9.594h-1.36l-3.312-9.75v9.75h-1.47zm20.89-11.453h1.516v6.61q0 1.734-.39 2.75-.391 1.015-1.407 1.655-1.015.641-2.672.641-1.609 0-2.64-.562-1.016-.563-1.453-1.61-.438-1.047-.438-2.875v-6.61h1.516v6.61q0 1.485.265 2.203.282.703.954 1.094.687.375 1.656.375 1.672 0 2.375-.75.719-.766.719-2.922v-6.61zm4.227 11.453v-1.61h1.61v1.61q0 .89-.313 1.422-.313.547-1 .844l-.39-.594q.452-.203.656-.578.218-.375.234-1.094h-.797zm-107.836 19v-11.453h4.297q1.313 0 2.11.344.796.343 1.234 1.078.453.718.453 1.5 0 .734-.406 1.39-.391.641-1.188 1.047 1.031.297 1.594 1.031.562.735.562 1.735 0 .812-.343 1.5-.344.687-.844 1.062t-1.25.578q-.75.188-1.844.188h-4.375zm1.516-6.64h2.484q1 0 1.438-.141.578-.172.875-.563.297-.406.297-1 0-.578-.282-1-.265-.437-.781-.594-.5-.171-1.734-.171h-2.297v3.468zm0 5.28h2.86q.734 0 1.03-.046.516-.094.86-.313.36-.219.578-.64.234-.422.234-.97 0-.64-.328-1.109-.328-.468-.906-.656-.578-.203-1.672-.203h-2.656v3.938zm14.453.329q-.781.672-1.5.953-.719.265-1.547.265-1.375 0-2.11-.671-.734-.672-.734-1.704 0-.609.282-1.109.28-.516.718-.812.453-.313 1.016-.47.422-.109 1.25-.202 1.703-.203 2.516-.485v-.375q0-.859-.391-1.203-.547-.484-1.61-.484-.984 0-1.468.36-.469.343-.688 1.218l-1.375-.188q.188-.875.61-1.421.437-.547 1.25-.829.812-.296 1.875-.296 1.062 0 1.718.25.672.25.985.625.312.375.437.953.078.36.078 1.297v1.875q0 1.968.079 2.484.093.516.359 1h-1.469q-.219-.438-.281-1.031zm-.11-3.14q-.765.312-2.296.53-.875.125-1.235.282-.36.156-.562.468-.188.297-.188.657 0 .562.422.937.438.375 1.25.375.813 0 1.438-.344.64-.359.937-.984.235-.469.235-1.406v-.516zm3.586 4.171v-8.297h1.266v1.25q.484-.875.89-1.156.407-.281.907-.281.703 0 1.437.453l-.484 1.297q-.516-.297-1.031-.297-.453 0-.828.281-.36.266-.516.766-.234.75-.234 1.64v4.344h-1.407zm4.813-4.156q0-2.297 1.281-3.407 1.078-.921 2.61-.921 1.718 0 2.796 1.125 1.094 1.109 1.094 3.093 0 1.594-.484 2.516-.485.922-1.406 1.437-.907.5-2 .5-1.735 0-2.813-1.109-1.078-1.125-1.078-3.234zm1.453 0q0 1.593.688 2.39.703.797 1.75.797 1.046 0 1.734-.797.703-.797.703-2.437 0-1.531-.703-2.328-.688-.797-1.734-.797-1.047 0-1.75.797-.688.781-.688 2.375zm8.336 4.156v-1.61h1.61v1.61q0 .89-.313 1.422-.313.547-1 .844l-.39-.594q.452-.203.656-.578.218-.375.234-1.094h-.797zm14.063-4.5v-1.344h4.859v4.25q-1.125.89-2.313 1.344-1.187.453-2.437.453-1.688 0-3.063-.719-1.375-.734-2.078-2.093-.703-1.375-.703-3.063 0-1.672.688-3.125.703-1.453 2.015-2.156 1.313-.703 3.032-.703 1.234 0 2.234.406 1.016.406 1.578 1.125.578.719.875 1.875l-1.375.375q-.25-.875-.64-1.375-.376-.5-1.094-.797-.703-.312-1.578-.312-1.032 0-1.797.328-.75.312-1.22.828-.468.515-.718 1.125-.437 1.062-.437 2.312 0 1.532.515 2.563.532 1.031 1.532 1.531 1.015.5 2.156.5.984 0 1.922-.375.937-.39 1.422-.812v-2.141h-3.375zm7.085 4.5v-11.453h4.329q1.14 0 1.734.11.844.14 1.406.53.578.391.922 1.11.36.703.36 1.562 0 1.453-.938 2.47-.922 1.015-3.36 1.015h-2.937v4.656h-1.516zm1.516-6.016h2.969q1.469 0 2.078-.547.625-.546.625-1.53 0-.72-.375-1.235-.36-.516-.953-.672-.375-.11-1.406-.11h-2.938v4.094zm8.64 2.328 1.438-.125q.094.86.469 1.422.375.547 1.156.891.781.328 1.75.328.875 0 1.531-.25.672-.266.985-.703.328-.453.328-.984 0-.547-.313-.938-.312-.406-1.03-.687-.454-.172-2.032-.547-1.578-.39-2.219-.719-.812-.438-1.219-1.063-.406-.64-.406-1.437 0-.86.485-1.61.5-.765 1.437-1.156.953-.39 2.11-.39 1.28 0 2.25.422.968.406 1.484 1.203.531.797.578 1.797l-1.453.109q-.125-1.078-.797-1.625-.672-.563-2-.563-1.375 0-2 .5t-.625 1.22q0 .609.437 1.015.438.39 2.282.812 1.86.422 2.547.735 1 .453 1.468 1.172.485.703.485 1.625 0 .906-.532 1.718-.515.813-1.5 1.266-.984.453-2.203.453-1.562 0-2.609-.453-1.047-.469-1.656-1.375-.594-.906-.625-2.063zm11.376 3.688v-1.61h1.61v1.61q0 .89-.313 1.422-.313.547-1 .844l-.391-.594q.453-.203.656-.578.219-.375.235-1.094h-.797zm8.781 0v-11.453h7.734v1.344h-6.218v3.546h5.375v1.36h-5.375v5.203h-1.516zm9.492 0v-11.453h1.406v11.453h-1.406zm3.055-4.156q0-2.297 1.281-3.407 1.078-.921 2.61-.921 1.718 0 2.796 1.125 1.094 1.109 1.094 3.093 0 1.594-.484 2.516-.485.922-1.407 1.437-.906.5-2 .5-1.734 0-2.812-1.109-1.078-1.125-1.078-3.234zm1.453 0q0 1.593.687 2.39.704.797 1.75.797 1.047 0 1.735-.797.703-.797.703-2.437 0-1.531-.703-2.328-.688-.797-1.735-.797-1.046 0-1.75.797-.687.781-.687 2.375zm9.508 4.156-2.547-8.297h1.453l1.328 4.781.485 1.782q.03-.125.437-1.704l1.313-4.859h1.453l1.234 4.813.422 1.578.469-1.594 1.422-4.797h1.375l-2.594 8.297h-1.469l-1.312-4.969-.329-1.422-1.671 6.391h-1.47z"/><path fill="#9fc5e8" d="M587.932 128.475a8.72 8.72 0 0 1 8.72-8.72h127.631a8.72 8.72 0 0 1 8.72 8.72v34.877a8.72 8.72 0 0 1-8.72 8.719H596.651a8.72 8.72 0 0 1-8.72-8.72z" fill-rule="evenodd"/><path stroke="#000" stroke-linejoin="round" stroke-linecap="butt" d="M587.932 128.475a8.72 8.72 0 0 1 8.72-8.72h127.631a8.72 8.72 0 0 1 8.72 8.72v34.877a8.72 8.72 0 0 1-8.72 8.719H596.651a8.72 8.72 0 0 1-8.72-8.72z"/><path fill="#000" d="M624.51 141.833v-13.359h5.687q2.14 0 3.11.36.968.359 1.546 1.28.578.923.578 2.11 0 1.5-.89 2.484-.875.97-2.625 1.235.875.5 1.437 1.125.578.61 1.532 2.156l1.64 2.61h-3.234l-1.938-2.907q-1.047-1.562-1.437-1.969-.375-.406-.813-.546-.422-.157-1.343-.157h-.547v5.578h-2.703zm2.703-7.703h2q1.937 0 2.422-.156.484-.172.75-.578.28-.406.28-1 0-.672-.359-1.078-.359-.422-1.015-.531-.328-.047-1.969-.047h-2.11v3.39zm12.66.985-2.328-.422q.406-1.406 1.36-2.078.952-.672 2.843-.672 1.703 0 2.547.406.844.406 1.172 1.031.344.625.344 2.282l-.016 3q0 1.265.11 1.875.124.609.468 1.296h-2.531q-.11-.25-.25-.75-.063-.234-.094-.312-.656.64-1.406.969-.735.312-1.594.312-1.484 0-2.344-.812-.859-.813-.859-2.047 0-.828.39-1.469.391-.64 1.094-.969.703-.343 2.032-.61 1.796-.327 2.484-.624v-.25q0-.75-.36-1.063-.359-.312-1.374-.312-.688 0-1.079.281-.375.266-.609.938zm3.422 2.078q-.484.156-1.563.39-1.062.22-1.39.438-.5.36-.5.906 0 .531.406.938.406.39 1.016.39.703 0 1.328-.468.469-.344.61-.844.093-.328.093-1.25v-.5zm13.923 4.64h-2.391v-1.421q-.594.828-1.406 1.234-.797.406-1.61.406-1.672 0-2.86-1.344-1.187-1.343-1.187-3.75 0-2.453 1.157-3.734 1.156-1.281 2.922-1.281 1.625 0 2.812 1.344v-4.813h2.563v13.36zm-6.844-5.046q0 1.546.437 2.234.61 1.016 1.719 1.016.89 0 1.5-.75.625-.766.625-2.25 0-1.672-.61-2.407-.593-.734-1.53-.734-.907 0-1.532.734-.61.719-.61 2.157zm9.365-5.938v-2.375h2.562v2.375h-2.562zm0 10.984v-9.671h2.562v9.671h-2.562zm4.589-4.968q0-1.282.625-2.47.625-1.202 1.781-1.827 1.157-.625 2.578-.625 2.188 0 3.594 1.422 1.406 1.422 1.406 3.609 0 2.188-1.421 3.64-1.422 1.438-3.563 1.438-1.328 0-2.547-.594-1.203-.609-1.828-1.765-.625-1.172-.625-2.828zm2.625.125q0 1.453.672 2.218.687.75 1.687.75t1.672-.75q.688-.765.688-2.234 0-1.422-.688-2.187-.672-.766-1.672-.766-1 0-1.687.766-.672.765-.672 2.203zm7.99 5.078 3.312-13.813h1.922l-3.344 13.813h-1.89zm6.496-.235v-13.359h2.687v13.36h-2.687zm5.261 0v-13.359h4.328q2.453 0 3.203.203 1.14.297 1.922 1.313.781 1 .781 2.593 0 1.235-.453 2.079-.453.828-1.14 1.312-.688.469-1.39.625-.97.203-2.798.203h-1.765v5.031H686.7zm2.688-11.093v3.78h1.484q1.594 0 2.125-.202.547-.203.844-.656.312-.454.312-1.032 0-.734-.437-1.203-.422-.484-1.078-.594-.485-.093-1.938-.093h-1.312zm-51.847 33.093v-13.25h2.688v11h6.703v2.25h-9.39zm11.303-10.984v-2.375h2.562v2.375h-2.562zm0 10.984v-9.671h2.562v9.671h-2.562zm13.98 0h-2.563v-4.937q0-1.563-.172-2.016-.156-.468-.53-.718-.36-.266-.876-.266-.672 0-1.203.375-.531.36-.734.969-.188.593-.188 2.218v4.375h-2.547v-9.671h2.375v1.421q1.266-1.64 3.188-1.64.843 0 1.547.312.703.297 1.062.782.36.468.5 1.078.14.593.14 1.703v6.015zm2.505 0v-13.359h2.563v7.094l3-3.406h3.14l-3.297 3.53 3.532 6.141h-2.75l-2.438-4.343-1.187 1.25v3.093h-2.563zm9.563-2.765 2.563-.39q.172.75.672 1.14.5.39 1.406.39.984 0 1.484-.375.344-.25.344-.671 0-.297-.187-.485-.188-.187-.86-.344-3.094-.687-3.922-1.25-1.14-.78-1.14-2.171 0-1.266.984-2.11 1-.86 3.078-.86 1.985 0 2.953.657.97.64 1.328 1.906l-2.406.438q-.156-.563-.594-.86-.421-.296-1.234-.296-1 0-1.437.28-.297.204-.297.516 0 .266.25.47.343.25 2.39.718 2.047.453 2.86 1.14.797.672.797 1.891 0 1.344-1.11 2.297-1.11.953-3.281.953-1.984 0-3.14-.797-1.141-.812-1.5-2.187z"/><path fill="#efefef" d="M518.62 15.743c0-5.355 4.342-9.696 9.696-9.696h259.948a9.696 9.696 0 0 1 9.695 9.696v38.782a9.694 9.694 0 0 1-9.695 9.695H528.316c-5.354 0-9.695-4.34-9.695-9.695z" fill-rule="evenodd"/><path stroke="#000" stroke-linejoin="round" stroke-linecap="butt" d="M518.62 15.743c0-5.355 4.342-9.696 9.696-9.696h259.948a9.696 9.696 0 0 1 9.695 9.696v38.782a9.694 9.694 0 0 1-9.695 9.695H528.316c-5.354 0-9.695-4.34-9.695-9.695z"/><path fill="#000" d="M597.973 26.148v-2.25h5.813v5.312q-.844.828-2.454 1.453-1.609.625-3.25.625-2.093 0-3.656-.875-1.562-.89-2.344-2.515-.78-1.641-.78-3.563 0-2.094.874-3.703.875-1.625 2.563-2.5 1.281-.656 3.203-.656 2.484 0 3.875 1.047 1.406 1.03 1.797 2.875l-2.672.5q-.281-.985-1.063-1.547-.78-.578-1.937-.578-1.781 0-2.828 1.125-1.032 1.125-1.032 3.328 0 2.375 1.047 3.562 1.063 1.188 2.782 1.188.843 0 1.687-.328.86-.329 1.469-.813v-1.687h-3.094zm10.746 4.906h-2.563v-9.672h2.375v1.375q.61-.984 1.094-1.281.485-.313 1.11-.313.875 0 1.687.485l-.797 2.234q-.64-.422-1.203-.422-.531 0-.906.297t-.594 1.078q-.203.766-.203 3.234v2.985zm4.213-4.969q0-1.281.625-2.469.625-1.203 1.782-1.828 1.156-.625 2.578-.625 2.187 0 3.593 1.422 1.407 1.422 1.407 3.61 0 2.187-1.422 3.64-1.422 1.438-3.563 1.438-1.328 0-2.547-.594-1.203-.61-1.828-1.766-.625-1.172-.625-2.828zm2.625.125q0 1.453.672 2.219.688.75 1.688.75t1.672-.75q.687-.766.687-2.235 0-1.421-.687-2.187-.672-.766-1.672-.766-1 0-1.688.766-.672.766-.672 2.203zm15.724 4.844V29.6q-.53.781-1.39 1.234-.86.438-1.813.438-.968 0-1.75-.422-.765-.438-1.125-1.203-.343-.782-.343-2.141v-6.125h2.562v4.437q0 2.047.14 2.516.141.453.516.719.375.265.953.265.657 0 1.172-.359.516-.36.703-.89.204-.532.204-2.61v-4.078h2.546v9.672h-2.375zm13.834 0h-2.563v-4.938q0-1.562-.171-2.015-.157-.469-.532-.719-.36-.266-.875-.266-.672 0-1.203.375-.531.36-.734.97-.188.593-.188 2.218v4.375h-2.547v-9.672h2.375v1.422q1.266-1.64 3.188-1.64.844 0 1.547.312.703.297 1.062.781.36.469.5 1.078.14.594.14 1.703v6.016zm11.474 0h-2.39v-1.422q-.594.828-1.407 1.234-.797.407-1.61.407-1.671 0-2.859-1.344-1.187-1.344-1.187-3.75 0-2.453 1.156-3.735 1.156-1.28 2.922-1.28 1.625 0 2.813 1.343v-4.813h2.562v13.36zm-6.844-5.047q0 1.547.438 2.234.61 1.016 1.719 1.016.89 0 1.5-.75.625-.766.625-2.25 0-1.672-.61-2.406-.594-.735-1.531-.735-.906 0-1.531.735-.61.718-.61 2.156zm13.876.703 2.625-.25q.235 1.313.954 1.938.734.609 1.968.609 1.297 0 1.953-.547.672-.547.672-1.281 0-.485-.281-.813-.281-.328-.969-.578-.484-.156-2.172-.578-2.156-.547-3.03-1.328-1.235-1.094-1.235-2.688 0-1.015.578-1.906.578-.89 1.656-1.344 1.094-.468 2.64-.468 2.516 0 3.782 1.11 1.281 1.093 1.344 2.937l-2.703.109q-.172-1.031-.75-1.469-.563-.453-1.703-.453-1.172 0-1.844.469-.422.312-.422.844 0 .468.406.796.5.438 2.469.907 1.969.453 2.906.953.953.5 1.485 1.36.53.859.53 2.124 0 1.156-.64 2.156-.64 1-1.812 1.485-1.157.484-2.891.484-2.531 0-3.89-1.172-1.36-1.172-1.626-3.406zm17.553-5.328v2.031h-1.75v3.906q0 1.188.047 1.391.047.188.219.313.188.125.438.125.359 0 1.03-.25l.22 2q-.891.375-2.016.375-.703 0-1.266-.235-.547-.234-.812-.594-.25-.375-.344-1-.094-.453-.094-1.812v-4.219h-1.172v-2.031h1.172V19.46l2.578-1.5v3.422h1.75zm3.682 2.953-2.328-.422q.406-1.406 1.359-2.078.953-.672 2.844-.672 1.703 0 2.547.406.843.407 1.172 1.032.343.625.343 2.281l-.015 3q0 1.266.109 1.875.125.61.469 1.297h-2.531q-.11-.25-.25-.75-.063-.235-.094-.313-.656.641-1.406.97-.735.312-1.594.312-1.485 0-2.344-.813-.86-.812-.86-2.047 0-.828.391-1.469.39-.64 1.094-.968.703-.344 2.031-.61 1.797-.328 2.485-.625v-.25q0-.75-.36-1.062-.36-.313-1.375-.313-.687 0-1.078.282-.375.265-.61.937zm3.422 2.078q-.485.156-1.563.39-1.062.22-1.39.438-.5.36-.5.907 0 .53.406.937.406.39 1.015.39.704 0 1.329-.468.468-.344.609-.844.094-.328.094-1.25v-.5zm9.485-5.031v2.031h-1.75v3.906q0 1.188.047 1.391.047.188.218.313.188.125.438.125.36 0 1.031-.25l.219 2q-.89.375-2.016.375-.703 0-1.265-.235-.547-.234-.813-.594-.25-.375-.344-1-.093-.453-.093-1.812v-4.219h-1.172v-2.031h1.172V19.46l2.578-1.5v3.422h1.75zm1.775-1.313v-2.375h2.562v2.375h-2.562zm0 10.985v-9.672h2.562v9.672h-2.562zm4.59-4.969q0-1.281.625-2.469.625-1.203 1.78-1.828 1.157-.625 2.579-.625 2.187 0 3.594 1.422 1.406 1.422 1.406 3.61 0 2.187-1.422 3.64-1.422 1.438-3.562 1.438-1.329 0-2.547-.594-1.203-.61-1.828-1.766-.625-1.172-.625-2.828zm2.625.125q0 1.453.671 2.219.688.75 1.688.75t1.672-.75q.687-.766.687-2.235 0-1.421-.687-2.187-.672-.766-1.672-.766-1 0-1.688.766-.671.766-.671 2.203zm18.161 4.844h-2.562v-4.938q0-1.562-.172-2.015-.157-.469-.532-.719-.359-.266-.875-.266-.671 0-1.203.375-.53.36-.734.97-.188.593-.188 2.218v4.375h-2.546v-9.672h2.375v1.422q1.265-1.64 3.187-1.64.844 0 1.547.312.703.297 1.062.781.36.469.5 1.078.141.594.141 1.703v6.016zM546.508 56.976q-1.36-1.703-2.297-4-.937-2.297-.937-4.766 0-2.156.703-4.14.828-2.313 2.53-4.594h1.173q-1.094 1.89-1.453 2.703-.547 1.25-.875 2.625-.391 1.703-.391 3.422 0 4.375 2.719 8.75h-1.172zm3.088-15.39v-1.892h1.64v1.891h-1.64zm0 11.468v-9.672h1.64v9.672h-1.64zm4.144 0v-9.672h1.47v1.375q1.062-1.594 3.077-1.594.875 0 1.61.313.734.312 1.093.828.375.5.516 1.203.094.453.094 1.594v5.953h-1.64v-5.89q0-1-.204-1.485-.187-.5-.672-.797-.484-.297-1.14-.297-1.047 0-1.813.672-.75.656-.75 2.516v5.28h-1.64zm13.954-1.469.235 1.453q-.688.14-1.235.14-.89 0-1.39-.28-.485-.282-.688-.735-.203-.469-.203-1.937v-5.578h-1.203v-1.266h1.203v-2.39l1.625-.985v3.375h1.656v1.266h-1.656v5.671q0 .688.078.891.094.203.281.328.203.11.578.11.266 0 .72-.063zm8.23-1.64 1.688.203q-.406 1.484-1.484 2.312-1.079.813-2.766.813-2.125 0-3.375-1.297-1.234-1.313-1.234-3.672 0-2.453 1.25-3.797 1.265-1.344 3.265-1.344 1.938 0 3.156 1.328 1.235 1.313 1.235 3.703v.438h-7.219q.094 1.594.906 2.453.813.844 2.016.844.906 0 1.547-.469.64-.484 1.015-1.516zm-5.39-2.657h5.406q-.11-1.219-.625-1.828-.781-.953-2.031-.953-1.125 0-1.906.766-.766.75-.844 2.015zm8.829 6.563 1.593.234q.11.75.563 1.078.61.453 1.672.453 1.14 0 1.75-.453.625-.453.844-1.265.125-.5.109-2.11-1.063 1.266-2.672 1.266-2 0-3.094-1.438-1.093-1.437-1.093-3.453 0-1.39.5-2.562.515-1.172 1.453-1.797.953-.64 2.25-.64 1.703 0 2.812 1.374v-1.156h1.516v8.36q0 2.265-.469 3.202-.453.938-1.453 1.485-.984.547-2.453.547-1.719 0-2.797-.782-1.063-.765-1.031-2.343zm1.359-5.813q0 1.906.75 2.781.766.875 1.906.875 1.125 0 1.89-.859.767-.875.767-2.734 0-1.782-.797-2.672-.782-.906-1.891-.906-1.094 0-1.86.89-.765.875-.765 2.625zm9.313 5.016v-9.672h1.469v1.469q.562-1.032 1.031-1.36.485-.328 1.063-.328.828 0 1.687.531l-.562 1.516q-.61-.36-1.203-.36-.547 0-.97.329-.421.328-.609.89-.28.875-.28 1.922v5.063h-1.626zm12.541-1.188q-.922.766-1.766 1.094-.828.313-1.796.313-1.594 0-2.454-.782-.859-.78-.859-1.984 0-.719.328-1.297.328-.594.844-.937.531-.36 1.187-.547.47-.125 1.454-.25 1.984-.235 2.921-.563.016-.344.016-.422 0-1-.469-1.422-.625-.546-1.875-.546-1.156 0-1.703.406-.547.406-.812 1.422l-1.61-.219q.219-1.016.719-1.64.5-.641 1.453-.985.953-.344 2.188-.344 1.25 0 2.015.297.782.281 1.14.734.376.438.517 1.11.078.422.078 1.515v2.188q0 2.281.109 2.89.11.594.406 1.157h-1.703q-.265-.516-.328-1.188zm-.14-3.672q-.891.375-2.672.625-1.016.141-1.438.329-.422.187-.656.53-.219.345-.219.782 0 .656.5 1.094.5.437 1.453.437.938 0 1.672-.406.75-.422 1.094-1.14.265-.563.265-1.641v-.61zm7.781 3.391.235 1.453q-.688.14-1.235.14-.89 0-1.39-.28-.485-.282-.688-.735-.203-.469-.203-1.937v-5.578h-1.203v-1.266h1.203v-2.39l1.625-.985v3.375h1.656v1.266h-1.656v5.671q0 .688.078.891.094.203.281.328.204.11.579.11.265 0 .718-.063zm8.23-1.64 1.688.203q-.406 1.484-1.484 2.312-1.078.813-2.766.813-2.125 0-3.375-1.297-1.234-1.313-1.234-3.672 0-2.453 1.25-3.797 1.265-1.344 3.265-1.344 1.938 0 3.157 1.328 1.234 1.313 1.234 3.703v.438h-7.219q.094 1.594.906 2.453.813.844 2.016.844.906 0 1.547-.469.64-.484 1.016-1.516zm-5.39-2.657h5.406q-.11-1.219-.625-1.828-.781-.953-2.031-.953-1.125 0-1.906.766-.766.75-.844 2.015zm15.407 5.766v-1.219q-.906 1.438-2.703 1.438-1.156 0-2.125-.641-.969-.64-1.5-1.781-.531-1.14-.531-2.625 0-1.453.484-2.625.484-1.188 1.437-1.813.97-.625 2.172-.625.875 0 1.547.375.688.36 1.11.953v-4.797h1.64v13.36h-1.531zm-5.172-4.828q0 1.86.781 2.781.782.922 1.844.922 1.078 0 1.828-.875.75-.89.75-2.688 0-1.984-.765-2.906-.766-.937-1.891-.937-1.078 0-1.813.89-.734.89-.734 2.813zm14.465 4.828v-9.672h1.469v1.36q.453-.72 1.203-1.141.766-.438 1.719-.438 1.078 0 1.766.453.687.438.968 1.235 1.157-1.688 2.985-1.688 1.453 0 2.218.797.782.797.782 2.453v6.64h-1.641V46.96q0-.984-.156-1.406-.156-.438-.578-.703-.422-.266-.985-.266-1.015 0-1.687.688-.672.671-.672 2.156v5.625h-1.64v-6.281q0-1.094-.407-1.641-.406-.547-1.312-.547-.688 0-1.282.36-.593.359-.86 1.062-.25.703-.25 2.031v5.016h-1.64zm21.854-1.188q-.922.766-1.766 1.094-.828.313-1.797.313-1.594 0-2.453-.782-.86-.78-.86-1.984 0-.719.329-1.297.328-.594.843-.937.532-.36 1.188-.547.469-.125 1.453-.25 1.984-.235 2.922-.563.016-.344.016-.422 0-1-.47-1.422-.624-.546-1.874-.546-1.156 0-1.703.406-.547.406-.813 1.422l-1.61-.219q.22-1.016.72-1.64.5-.641 1.453-.985.953-.344 2.187-.344 1.25 0 2.016.297.781.281 1.14.734.375.438.516 1.11.078.422.078 1.515v2.188q0 2.281.11 2.89.109.594.406 1.157h-1.703q-.266-.516-.328-1.188zm-.141-3.672q-.89.375-2.672.625-1.016.141-1.437.329-.422.187-.657.53-.218.345-.218.782 0 .656.5 1.094.5.437 1.453.437.937 0 1.672-.406.75-.422 1.093-1.14.266-.563.266-1.641v-.61zm4.204 4.86v-9.672h1.469v1.375q1.062-1.594 3.078-1.594.875 0 1.609.313.734.312 1.094.828.375.5.515 1.203.094.453.094 1.594v5.953h-1.64v-5.89q0-1-.204-1.485-.187-.5-.671-.797-.485-.297-1.141-.297-1.047 0-1.813.672-.75.656-.75 2.516v5.28h-1.64zm16.704 0v-1.422q-1.125 1.64-3.063 1.64-.86 0-1.61-.328-.734-.328-1.093-.828-.36-.5-.5-1.218-.11-.47-.11-1.532v-5.984h1.641v5.36q0 1.28.11 1.734.156.64.656 1.015.5.375 1.234.375.735 0 1.375-.375.657-.39.922-1.03.266-.657.266-1.892v-5.187h1.64v9.672h-1.468zm10.36-1.188q-.922.766-1.766 1.094-.828.313-1.797.313-1.593 0-2.453-.782-.86-.78-.86-1.984 0-.719.329-1.297.328-.594.844-.937.53-.36 1.187-.547.469-.125 1.453-.25 1.985-.235 2.922-.563.016-.344.016-.422 0-1-.469-1.422-.625-.546-1.875-.546-1.156 0-1.703.406-.547.406-.813 1.422l-1.609-.219q.219-1.016.719-1.64.5-.641 1.453-.985.953-.344 2.187-.344 1.25 0 2.016.297.781.281 1.14.734.376.438.516 1.11.078.422.078 1.515v2.188q0 2.281.11 2.89.11.594.406 1.157h-1.703q-.266-.516-.328-1.188zm-.14-3.672q-.891.375-2.673.625-1.015.141-1.437.329-.422.187-.656.53-.22.345-.22.782 0 .656.5 1.094.5.437 1.454.437.937 0 1.672-.406.75-.422 1.094-1.14.265-.563.265-1.641v-.61zm4.156 4.86v-13.36h1.64v13.36h-1.64zm15.688-3.547 1.609.219q-.266 1.656-1.36 2.61-1.078.937-2.671.937-1.985 0-3.188-1.297t-1.203-3.719q0-1.578.516-2.75.515-1.172 1.578-1.75 1.062-.594 2.312-.594 1.578 0 2.578.797 1 .797 1.282 2.266l-1.594.234q-.234-.969-.813-1.453-.578-.5-1.39-.5-1.235 0-2.016.89-.781.891-.781 2.813 0 1.953.75 2.844.75.875 1.953.875.969 0 1.61-.594.656-.594.828-1.828zm2.406-1.297q0-2.687 1.484-3.969 1.25-1.078 3.047-1.078 2 0 3.266 1.313 1.265 1.297 1.265 3.61 0 1.858-.562 2.937-.563 1.062-1.64 1.656-1.063.594-2.329.594-2.031 0-3.281-1.297-1.25-1.313-1.25-3.766zm1.687 0q0 1.86.797 2.797.813.922 2.047.922 1.219 0 2.031-.922.813-.938.813-2.844 0-1.797-.813-2.719-.812-.921-2.03-.921-1.235 0-2.048.921-.797.907-.797 2.766zm9.298 4.844v-9.672h1.469v1.375q1.062-1.594 3.078-1.594.875 0 1.61.313.734.312 1.093.828.375.5.516 1.203.093.453.093 1.594v5.953h-1.64v-5.89q0-1-.203-1.485-.188-.5-.672-.797-.485-.297-1.141-.297-1.047 0-1.812.672-.75.656-.75 2.516v5.28h-1.641zm13.954-1.469.234 1.453q-.687.14-1.234.14-.89 0-1.39-.28-.485-.282-.688-.735-.203-.469-.203-1.937v-5.578h-1.204v-1.266h1.204v-2.39l1.625-.985v3.375h1.656v1.266h-1.656v5.671q0 .688.078.891.093.203.28.328.204.11.579.11.266 0 .719-.063zm1.59 1.469v-9.672h1.468v1.469q.563-1.032 1.031-1.36.485-.328 1.063-.328.828 0 1.687.531l-.562 1.516q-.61-.36-1.203-.36-.547 0-.97.329-.42.328-.608.89-.282.875-.282 1.922v5.063h-1.625zm5.618-4.844q0-2.687 1.485-3.969 1.25-1.078 3.047-1.078 2 0 3.265 1.313 1.266 1.297 1.266 3.61 0 1.858-.563 2.937-.562 1.062-1.64 1.656-1.063.594-2.328.594-2.032 0-3.282-1.297-1.25-1.313-1.25-3.766zm1.688 0q0 1.86.797 2.797.812.922 2.047.922 1.218 0 2.03-.922.813-.938.813-2.844 0-1.797-.812-2.719-.813-.921-2.031-.921-1.235 0-2.047.921-.797.907-.797 2.766zm9.25 4.844v-13.36h1.641v13.36h-1.64zm3.536-2.89 1.625-.25q.125.968.75 1.5.625.515 1.75.515t1.672-.453q.547-.469.547-1.094 0-.547-.485-.875-.328-.219-1.672-.547-1.812-.469-2.515-.797-.688-.328-1.047-.906-.36-.594-.36-1.313 0-.64.297-1.187.297-.563.813-.922.375-.281 1.031-.469.672-.203 1.422-.203 1.14 0 2 .328.86.328 1.266.891.422.562.578 1.5l-1.61.219q-.109-.75-.64-1.172-.516-.422-1.469-.422-1.14 0-1.625.375-.469.375-.469.875 0 .312.188.578.203.266.64.438.235.093 1.438.421 1.75.454 2.437.75.688.297 1.079.86.39.562.39 1.406 0 .828-.484 1.547-.469.719-1.375 1.125-.906.39-2.047.39-1.875 0-2.875-.78-.984-.782-1.25-2.329zm11.062 6.812h-1.187q2.734-4.375 2.734-8.75 0-1.719-.39-3.39-.313-1.376-.875-2.626-.36-.828-1.47-2.734h1.188q1.704 2.281 2.532 4.593.687 1.985.687 4.141 0 2.469-.937 4.766-.938 2.297-2.282 4z"/><path d="m658.29 64.22 2.173 55.528"/><path stroke="#000" stroke-linejoin="round" stroke-linecap="butt" stroke-dasharray="4.0,3.0" d="m658.525 70.216 1.704 43.537"/><path fill="#000" stroke="#000" stroke-linecap="butt" d="m660.175 70.151-1.828-4.47-1.473 4.6zm-1.597 43.666 1.828 4.47 1.473-4.599z" fill-rule="evenodd"/><path d="M660.467 172.07v31.686"/><path stroke="#000" stroke-linejoin="round" stroke-linecap="butt" d="M660.467 178.07v19.686"/><path fill="#000" stroke="#000" stroke-linecap="butt" d="m662.119 178.07-1.652-4.537-1.652 4.538zm-3.304 19.686 1.652 4.538 1.652-4.538z" fill-rule="evenodd"/><path d="m213.82 472.118-1.228-55.748"/><path stroke="#000" stroke-linejoin="round" stroke-linecap="butt" d="m213.688 466.12-1.096-49.75"/><path fill="#000" stroke="#000" stroke-linecap="butt" d="m212.037 466.156 1.751 4.5 1.551-4.573z" fill-rule="evenodd"/><path d="m361.762 472.102-1.039-55.748"/><path stroke="#000" stroke-linejoin="round" stroke-linecap="butt" d="m361.762 472.102-.927-49.749"/><path fill="#000" stroke="#000" stroke-linecap="butt" d="m362.486 422.322-1.736-4.506-1.566 4.568z" fill-rule="evenodd"/><path d="M206.857 425.012h103.559v38.771H206.857z"/><path fill="#000" d="M217.091 449.372v-11.453h4.328q1.141 0 1.735.11.844.14 1.406.53.578.391.922 1.11.36.703.36 1.562 0 1.453-.938 2.469-.922 1.016-3.36 1.016h-2.937v4.656h-1.516zm1.516-6.016h2.969q1.468 0 2.078-.547.625-.547.625-1.53 0-.72-.375-1.235-.36-.516-.953-.672-.375-.11-1.407-.11h-2.937v4.094zm11.156 6.016-3.031-11.453h1.547l1.75 7.5q.281 1.187.484 2.343.438-1.828.516-2.109l2.172-7.734h1.828l1.64 5.797q.625 2.156.891 4.046.219-1.078.578-2.484l1.797-7.36h1.516l-3.14 11.454h-1.454l-2.422-8.735q-.297-1.093-.36-1.343-.171.797-.327 1.343l-2.438 8.735h-1.547zm13.055 0v-11.453h2.281l2.719 8.11q.375 1.124.547 1.687.187-.625.61-1.829l2.734-7.968h2.046v11.453h-1.468v-9.594l-3.328 9.594h-1.36l-3.312-9.75v9.75h-1.47zm12.14.203 3.329-11.86h1.125l-3.313 11.86h-1.14zm13.852-4.219 1.516.375q-.469 1.875-1.719 2.86-1.234.984-3.016.984-1.859 0-3.015-.75-1.157-.766-1.766-2.188-.61-1.437-.61-3.078 0-1.797.688-3.125t1.938-2.015q1.265-.703 2.781-.703 1.719 0 2.89.875 1.172.875 1.641 2.468l-1.5.344q-.39-1.25-1.156-1.812-.75-.579-1.906-.579-1.313 0-2.203.641-.891.625-1.25 1.703-.36 1.063-.36 2.188 0 1.468.422 2.562.438 1.078 1.328 1.625.906.531 1.953.531 1.266 0 2.141-.734.89-.734 1.203-2.172zm2.117 4.016 4.407-11.453h1.64l4.688 11.453h-1.735l-1.328-3.469h-4.797l-1.25 3.469h-1.625zm3.313-4.703h3.89l-1.203-3.172q-.547-1.453-.812-2.375-.219 1.094-.61 2.187l-1.265 3.36zm8.61 4.703v-11.453h1.562l6.015 8.984v-8.984h1.453v11.453h-1.562l-6.016-9v9h-1.453z"/><path d="M360.723 417.307h98.551v58.173h-98.55z"/><path fill="#000" d="M371.223 441.667v-11.453h1.516v11.453h-1.516zm11.008-1.36v1.36h-7.578q-.016-.516.172-.984.28-.766.922-1.516.64-.75 1.843-1.734 1.86-1.532 2.516-2.422.656-.906.656-1.703 0-.828-.594-1.407-.593-.578-1.562-.578-1.016 0-1.625.61-.61.61-.61 1.687l-1.453-.14q.157-1.625 1.125-2.47.97-.843 2.594-.843 1.656 0 2.61.922.968.906.968 2.25 0 .687-.281 1.36-.281.656-.937 1.39-.657.734-2.172 2.016-1.266 1.062-1.625 1.453-.36.375-.594.75h5.625zm10.242-2.656 1.516.375q-.469 1.875-1.719 2.86-1.234.984-3.016.984-1.859 0-3.015-.75-1.157-.765-1.766-2.187-.61-1.438-.61-3.078 0-1.797.688-3.125.688-1.329 1.938-2.016 1.265-.703 2.781-.703 1.719 0 2.89.875 1.172.875 1.641 2.469l-1.5.343q-.39-1.25-1.156-1.812-.75-.578-1.906-.578-1.313 0-2.203.64-.891.625-1.25 1.703-.36 1.063-.36 2.188 0 1.469.422 2.562.438 1.079 1.328 1.625.906.532 1.953.532 1.266 0 2.141-.735.89-.734 1.203-2.172zm2.149 4.22 3.328-11.86h1.125l-3.313 11.86h-1.14zm13.851-4.22 1.516.375q-.469 1.875-1.719 2.86-1.234.984-3.016.984-1.859 0-3.015-.75-1.157-.765-1.766-2.187-.61-1.438-.61-3.078 0-1.797.688-3.125.688-1.329 1.938-2.016 1.265-.703 2.781-.703 1.719 0 2.89.875 1.172.875 1.641 2.469l-1.5.343q-.39-1.25-1.156-1.812-.75-.578-1.906-.578-1.313 0-2.203.64-.891.625-1.25 1.703-.36 1.063-.36 2.188 0 1.469.422 2.562.438 1.079 1.328 1.625.906.532 1.953.532 1.266 0 2.141-.735.89-.734 1.203-2.172zm2.117 4.016 4.407-11.453h1.64l4.688 11.453h-1.735l-1.328-3.469h-4.797l-1.25 3.47h-1.625zm3.313-4.703h3.89l-1.203-3.172q-.547-1.453-.812-2.375-.219 1.094-.61 2.188l-1.265 3.359zm8.61 4.703v-11.453h1.562l6.015 8.984v-8.984h1.453v11.453h-1.562l-6.016-9v9h-1.453zm10.335.203 3.328-11.86h1.125l-3.312 11.86h-1.14zm-62.406 15.31 1.437-.125q.094.859.47 1.421.374.547 1.155.891.782.328 1.75.328.875 0 1.532-.25.671-.265.984-.703.328-.453.328-.984 0-.547-.312-.938-.313-.406-1.032-.687-.453-.172-2.03-.547-1.579-.39-2.22-.719-.812-.437-1.218-1.062-.407-.641-.407-1.438 0-.86.485-1.61.5-.765 1.437-1.156.953-.39 2.11-.39 1.28 0 2.25.422.968.406 1.484 1.203.531.797.578 1.797l-1.453.11q-.125-1.079-.797-1.626-.672-.562-2-.562-1.375 0-2 .5t-.625 1.218q0 .61.438 1.016.437.39 2.28.812 1.86.422 2.548.735 1 .453 1.468 1.172.485.703.485 1.625 0 .906-.531 1.718-.516.813-1.5 1.266-.985.453-2.204.453-1.562 0-2.609-.453-1.047-.469-1.656-1.375-.594-.906-.625-2.062zm11.187 3.687v-11.453h4.328q1.141 0 1.735.11.844.14 1.406.53.578.391.922 1.11.36.703.36 1.562 0 1.454-.938 2.47-.922 1.015-3.36 1.015h-2.937v4.656h-1.516zm1.516-6.016h2.969q1.468 0 2.078-.546.625-.547.625-1.532 0-.718-.375-1.234-.36-.516-.953-.672-.375-.11-1.407-.11h-2.937v4.094zm9.422 6.016v-11.453h1.515v11.453h-1.515zm2.945.203 3.328-11.86h1.125l-3.312 11.86h-1.14zm13.195-11.656h1.516v6.61q0 1.734-.39 2.75-.391 1.015-1.407 1.656-1.015.64-2.672.64-1.609 0-2.64-.562-1.016-.563-1.453-1.61-.438-1.047-.438-2.875v-6.609h1.516v6.61q0 1.484.265 2.202.282.704.953 1.094.688.375 1.657.375 1.672 0 2.375-.75.718-.765.718-2.922v-6.609zm2.774 11.453 4.406-11.453h1.64l4.688 11.453h-1.734l-1.328-3.469h-4.797l-1.25 3.47h-1.625zm3.312-4.703h3.891l-1.203-3.172q-.547-1.453-.813-2.375-.218 1.094-.609 2.188l-1.266 3.359zm8.657 4.703v-11.453h5.078q1.531 0 2.328.312.797.297 1.266 1.079.484.78.484 1.734 0 1.219-.797 2.062-.781.829-2.437 1.047.609.297.921.578.657.61 1.25 1.516l2 3.125h-1.906l-1.515-2.39q-.672-1.032-1.11-1.579-.422-.547-.765-.765-.329-.219-.688-.297-.25-.063-.844-.063h-1.75v5.094h-1.515zm1.515-6.406h3.25q1.047 0 1.625-.203.594-.219.89-.688.313-.484.313-1.031 0-.813-.593-1.328-.594-.531-1.86-.531h-3.625v3.78zm12.64 6.406v-10.11h-3.78v-1.343h9.078v1.344h-3.781v10.11h-1.516z"/><path fill="#9fc5e8" d="M525.054 483.793c0-6.448 5.227-11.675 11.675-11.675h80.21a11.675 11.675 0 0 1 11.674 11.675v46.698c0 6.447-5.227 11.674-11.675 11.674h-80.21c-6.447 0-11.674-5.227-11.674-11.674z" fill-rule="evenodd"/><path stroke="#000" stroke-linejoin="round" stroke-linecap="butt" d="M525.054 483.793c0-6.448 5.227-11.675 11.675-11.675h80.21a11.675 11.675 0 0 1 11.674 11.675v46.698c0 6.447-5.227 11.674-11.675 11.674h-80.21c-6.447 0-11.674-5.227-11.674-11.674z"/><path fill="#000" d="M542.42 495.062v-13.36h4.328q2.453 0 3.203.203 1.14.297 1.922 1.313.781 1 .781 2.594 0 1.234-.453 2.078-.453.828-1.14 1.312-.688.47-1.391.625-.969.203-2.797.203h-1.766v5.032h-2.687zm2.687-11.094v3.781h1.485q1.593 0 2.125-.203.546-.203.843-.656.313-.453.313-1.031 0-.735-.438-1.204-.422-.484-1.078-.593-.484-.094-1.937-.094h-1.313zm11.647 4.375-2.328-.422q.406-1.406 1.36-2.078.952-.672 2.843-.672 1.703 0 2.547.406.844.407 1.172 1.032.343.625.343 2.28l-.015 3q0 1.266.11 1.876.124.61.468 1.297h-2.531q-.11-.25-.25-.75-.063-.235-.094-.313-.656.64-1.406.969-.735.312-1.594.312-1.484 0-2.344-.812-.86-.813-.86-2.047 0-.828.391-1.469.391-.64 1.094-.968.703-.344 2.031-.61 1.797-.328 2.485-.625v-.25q0-.75-.36-1.062-.359-.313-1.375-.313-.687 0-1.078.281-.375.266-.61.938zm3.422 2.078q-.485.156-1.563.39-1.062.22-1.39.438-.5.36-.5.906 0 .532.406.938.406.39 1.016.39.703 0 1.328-.468.468-.344.609-.844.094-.328.094-1.25v-.5zm3.829-5.031h2.718l2.329 6.86 2.25-6.86h2.656l-3.422 9.312-.61 1.688q-.328.844-.64 1.281-.313.453-.703.719-.39.281-.969.437-.578.157-1.312.157-.735 0-1.454-.157l-.218-2q.593.125 1.078.125.89 0 1.312-.53.438-.517.672-1.329l-3.687-9.703zm11.594 9.672v-13.36h2.563v13.36h-2.563zm4.59-4.969q0-1.281.625-2.469.625-1.203 1.78-1.828 1.157-.625 2.579-.625 2.188 0 3.594 1.422 1.406 1.422 1.406 3.61 0 2.187-1.422 3.64-1.422 1.437-3.562 1.437-1.328 0-2.547-.593-1.203-.61-1.828-1.766-.625-1.172-.625-2.828zm2.625.125q0 1.453.672 2.219.687.75 1.687.75t1.672-.75q.687-.766.687-2.235 0-1.422-.687-2.187-.672-.766-1.672-.766-1 0-1.687.766-.672.765-.672 2.203zm11.27-1.875-2.327-.422q.406-1.406 1.359-2.078.953-.672 2.844-.672 1.703 0 2.547.406.843.407 1.171 1.032.344.625.344 2.28l-.015 3q0 1.266.109 1.876.125.61.469 1.297h-2.532q-.109-.25-.25-.75-.062-.235-.093-.313-.657.64-1.407.969-.734.312-1.593.312-1.485 0-2.344-.812-.86-.813-.86-2.047 0-.828.391-1.469.39-.64 1.094-.968.703-.344 2.031-.61 1.797-.328 2.485-.625v-.25q0-.75-.36-1.062-.36-.313-1.375-.313-.687 0-1.078.281-.375.266-.61.938zm3.423 2.078q-.485.156-1.563.39-1.062.22-1.39.438-.5.36-.5.906 0 .532.406.938.406.39 1.015.39.703 0 1.328-.468.47-.344.61-.844.094-.328.094-1.25v-.5zm13.922 4.64h-2.39v-1.421q-.594.828-1.407 1.234-.797.406-1.61.406-1.671 0-2.859-1.343-1.187-1.344-1.187-3.75 0-2.453 1.156-3.735 1.156-1.28 2.922-1.28 1.625 0 2.813 1.343v-4.813h2.562v13.36zm-6.844-5.046q0 1.547.438 2.234.61 1.016 1.719 1.016.89 0 1.5-.75.625-.766.625-2.25 0-1.672-.61-2.406-.594-.735-1.531-.735-.906 0-1.531.735-.61.718-.61 2.156zm-49.021 20.471 1.515.375q-.468 1.875-1.718 2.86-1.235.984-3.016.984-1.86 0-3.016-.75-1.156-.766-1.765-2.188-.61-1.437-.61-3.078 0-1.797.688-3.125.687-1.328 1.937-2.015 1.266-.704 2.782-.704 1.718 0 2.89.875 1.172.875 1.64 2.47l-1.5.343q-.39-1.25-1.155-1.813-.75-.578-1.907-.578-1.312 0-2.203.641-.89.625-1.25 1.703-.36 1.063-.36 2.188 0 1.468.423 2.562.437 1.078 1.328 1.625.906.531 1.953.531 1.266 0 2.14-.734.891-.734 1.204-2.172zm8.617 2.984q-.781.672-1.5.954-.719.265-1.547.265-1.375 0-2.11-.672-.734-.672-.734-1.703 0-.61.282-1.11.28-.515.718-.812.453-.312 1.016-.468.422-.11 1.25-.204 1.703-.203 2.516-.484v-.375q0-.86-.391-1.203-.547-.484-1.61-.484-.984 0-1.468.359-.469.344-.688 1.219l-1.375-.188q.188-.875.61-1.422.437-.547 1.25-.828.812-.297 1.875-.297 1.062 0 1.718.25.672.25.985.625.312.375.437.953.078.36.078 1.297v1.875q0 1.97.079 2.485.093.515.359 1h-1.469q-.219-.438-.281-1.032zm-.11-3.14q-.765.312-2.296.531-.875.125-1.235.281-.359.157-.562.47-.188.296-.188.655 0 .563.422.938.438.375 1.25.375.813 0 1.438-.344.64-.36.937-.984.235-.469.235-1.407v-.515zm3.602 4.172v-8.297h1.25v1.156q.39-.61 1.031-.969.657-.375 1.485-.375.922 0 1.515.391.594.375.829 1.062.984-1.453 2.562-1.453 1.234 0 1.89.688.673.672.673 2.094v5.703h-1.391v-5.235q0-.843-.14-1.203-.141-.375-.5-.594-.36-.234-.844-.234-.875 0-1.454.578-.578.578-.578 1.86v4.828h-1.406v-5.39q0-.938-.344-1.407-.343-.469-1.125-.469-.593 0-1.093.313-.5.312-.735.921-.219.594-.219 1.72v4.312h-1.406zm19-2.672 1.453.172q-.343 1.28-1.28 1.984-.923.703-2.36.703-1.828 0-2.89-1.125-1.063-1.125-1.063-3.14 0-2.094 1.078-3.25 1.078-1.157 2.797-1.157 1.656 0 2.703 1.141 1.062 1.125 1.062 3.172v.375h-6.187q.078 1.375.765 2.11.703.718 1.735.718.78 0 1.328-.406.547-.407.86-1.297zm-4.61-2.281h4.626q-.094-1.047-.531-1.563-.672-.812-1.735-.812-.969 0-1.64.656-.657.64-.72 1.719zm7.821 4.953v-8.297h1.266v1.25q.484-.875.89-1.156.407-.282.907-.282.703 0 1.437.453l-.484 1.297q-.516-.297-1.032-.297-.453 0-.828.282-.359.265-.515.765-.235.75-.235 1.641v4.344h-1.406zm10.75-1.032q-.781.672-1.5.954-.719.265-1.547.265-1.375 0-2.11-.672-.734-.672-.734-1.703 0-.61.282-1.11.281-.515.718-.812.454-.312 1.016-.468.422-.11 1.25-.204 1.703-.203 2.516-.484v-.375q0-.86-.39-1.203-.548-.484-1.61-.484-.985 0-1.469.359-.469.344-.688 1.219l-1.375-.188q.188-.875.61-1.422.437-.547 1.25-.828.812-.297 1.875-.297 1.062 0 1.719.25.671.25.984.625.312.375.437.953.079.36.079 1.297v1.875q0 1.97.078 2.485.093.515.36 1h-1.47q-.218-.438-.28-1.032zm-.11-3.14q-.765.312-2.296.531-.875.125-1.235.281-.359.157-.562.47-.188.296-.188.655 0 .563.422.938.438.375 1.25.375.813 0 1.438-.344.64-.36.937-.984.235-.469.235-1.407v-.515zm3.962 4.172v-1.61h1.61v1.61q0 .89-.313 1.422-.313.546-1 .843l-.391-.593q.453-.204.656-.579.219-.375.235-1.093h-.797zm-40.036 14.984 1.516.375q-.469 1.875-1.719 2.86-1.234.984-3.015.984-1.86 0-3.016-.75-1.156-.766-1.765-2.188-.61-1.437-.61-3.078 0-1.797.688-3.125.687-1.328 1.937-2.015 1.266-.704 2.781-.704 1.72 0 2.891.875 1.172.875 1.64 2.47l-1.5.343q-.39-1.25-1.156-1.813-.75-.578-1.906-.578-1.312 0-2.203.641-.89.625-1.25 1.703-.36 1.063-.36 2.188 0 1.468.423 2.562.437 1.078 1.328 1.625.906.531 1.953.531 1.265 0 2.14-.734.891-.734 1.204-2.172zm8.618 2.984q-.782.672-1.5.954-.72.265-1.547.265-1.375 0-2.11-.672-.734-.672-.734-1.703 0-.61.281-1.11.282-.515.72-.812.452-.312 1.015-.468.422-.11 1.25-.204 1.703-.203 2.515-.484v-.375q0-.86-.39-1.203-.547-.484-1.61-.484-.984 0-1.468.359-.47.344-.688 1.219l-1.375-.188q.188-.875.61-1.422.437-.547 1.25-.828.812-.297 1.874-.297 1.063 0 1.72.25.671.25.984.625.312.375.437.953.078.36.078 1.297v1.875q0 1.97.078 2.485.094.515.36 1h-1.47q-.218-.438-.28-1.032zm-.11-3.14q-.765.312-2.297.531-.875.125-1.234.281-.36.157-.562.47-.188.296-.188.655 0 .563.422.938.437.375 1.25.375.812 0 1.437-.344.641-.36.938-.984.234-.469.234-1.407v-.515zm3.586 4.172v-8.297h1.266v1.25q.484-.875.89-1.156.407-.282.907-.282.703 0 1.437.453l-.484 1.297q-.516-.297-1.031-.297-.453 0-.828.282-.36.265-.516.765-.234.75-.234 1.641v4.344h-1.407zm5.078.687 1.375.203q.079.641.47.922.53.39 1.437.39.968 0 1.5-.39.53-.39.718-1.094.11-.421.11-1.812-.922 1.094-2.297 1.094-1.719 0-2.656-1.235-.938-1.234-.938-2.968 0-1.188.422-2.188.438-1 1.25-1.547.828-.547 1.922-.547 1.469 0 2.422 1.188v-1h1.297v7.172q0 1.937-.391 2.75-.39.812-1.25 1.281-.86.469-2.11.469-1.484 0-2.406-.672-.906-.672-.875-2.016zm1.172-4.984q0 1.625.64 2.375.657.75 1.626.75.969 0 1.625-.735.656-.75.656-2.343 0-1.532-.672-2.297-.672-.781-1.625-.781-.937 0-1.593.765-.657.766-.657 2.266zm7.461.14q0-2.296 1.281-3.406 1.079-.922 2.61-.922 1.719 0 2.797 1.125 1.093 1.11 1.093 3.094 0 1.594-.484 2.516-.484.922-1.406 1.437-.906.5-2 .5-1.735 0-2.813-1.11-1.078-1.124-1.078-3.234zm1.453 0q0 1.594.688 2.391.703.797 1.75.797 1.047 0 1.734-.797.703-.797.703-2.437 0-1.532-.703-2.329-.687-.796-1.734-.796t-1.75.796q-.688.782-.688 2.375z"/><path d="M428.214 317.631h103.559v58.173h-103.56z"/><path fill="#000" d="M447.54 341.991v-11.453h2.282l2.718 8.11q.375 1.124.547 1.687.188-.625.61-1.828l2.734-7.969h2.047v11.453h-1.469v-9.594l-3.328 9.594h-1.36l-3.312-9.75v9.75h-1.469zm12.11 0 4.406-11.453h1.64l4.688 11.453h-1.734l-1.328-3.469h-4.797l-1.25 3.47h-1.625zm3.312-4.703h3.89l-1.202-3.172q-.547-1.453-.813-2.375-.219 1.094-.61 2.188l-1.265 3.36zm10.719 4.703-4.438-11.453h1.641l2.969 8.313q.36 1 .61 1.875.265-.938.609-1.875l3.093-8.313h1.547l-4.484 11.453h-1.547zm7.328 0v-11.453h1.516v10.094h5.64v1.36h-7.156zm8.79-9.844v-1.609h1.405v1.61h-1.406zm0 9.844v-8.297h1.405v8.297h-1.406zm3.554 0v-8.297h1.265v1.172q.907-1.36 2.641-1.36.75 0 1.375.266t.938.704q.312.437.437 1.046.078.391.078 1.36v5.11h-1.406v-5.048q0-.859-.172-1.28-.156-.438-.578-.688-.406-.25-.969-.25-.906 0-1.562.578-.64.562-.64 2.156v4.531h-1.407zm8.898 0v-11.453h1.406v6.531l3.329-3.375h1.828l-3.172 3.078 3.484 5.22h-1.734l-2.735-4.25-1 .952v3.297h-1.406zm8.36 0v-1.61h1.609v1.61q0 .89-.313 1.422-.312.547-1 .844l-.39-.594q.453-.203.656-.578.219-.375.234-1.094h-.796zm-66.001 19.2v-8.297h1.25v1.157q.391-.61 1.032-.97.656-.374 1.484-.374.922 0 1.516.39.594.375.828 1.063.984-1.453 2.563-1.453 1.234 0 1.89.687.672.672.672 2.094v5.703h-1.39v-5.234q0-.844-.141-1.203-.14-.375-.5-.594-.36-.234-.844-.234-.875 0-1.453.578-.578.578-.578 1.86v4.827h-1.406v-5.39q0-.938-.344-1.407-.344-.468-1.125-.468-.594 0-1.094.312-.5.313-.734.922-.22.594-.22 1.719v4.312h-1.405zm13.329-9.844v-1.609h1.406v1.61h-1.406zm0 9.844v-8.297h1.406v8.297h-1.406zm8.96-3.047 1.391.188q-.234 1.422-1.172 2.234-.921.813-2.28.813-1.704 0-2.75-1.11-1.032-1.125-1.032-3.203 0-1.344.437-2.344.454-1.015 1.36-1.515.922-.5 1.984-.5 1.36 0 2.219.687.86.672 1.094 1.938l-1.36.203q-.203-.828-.703-1.25-.484-.422-1.187-.422-1.063 0-1.735.766-.656.75-.656 2.406 0 1.672.64 2.437.641.75 1.673.75.828 0 1.375-.5.562-.515.703-1.578zm2.579 3.047v-8.297h1.265v1.25q.485-.875.891-1.156.406-.281.906-.281.703 0 1.438.453l-.485 1.297q-.515-.297-1.03-.297-.454 0-.829.281-.36.266-.516.766-.234.75-.234 1.64v4.344h-1.406zm4.812-4.156q0-2.297 1.282-3.406 1.078-.922 2.609-.922 1.719 0 2.797 1.125 1.094 1.11 1.094 3.094 0 1.593-.485 2.515-.484.922-1.406 1.438-.906.5-2 .5-1.734 0-2.813-1.11-1.078-1.125-1.078-3.234zm1.453 0q0 1.594.688 2.39.703.797 1.75.797 1.047 0 1.734-.796.703-.797.703-2.438 0-1.531-.703-2.328-.687-.797-1.734-.797t-1.75.797q-.688.781-.688 2.375zm8.149 4.156v-11.453h3.953q1.328 0 2.031.156.985.235 1.688.828.906.766 1.344 1.954.453 1.187.453 2.718 0 1.313-.313 2.328-.297 1-.781 1.657-.469.656-1.031 1.047-.563.375-1.375.578-.797.187-1.828.187h-4.141zm1.516-1.36h2.453q1.125 0 1.765-.202.657-.219 1.032-.594.546-.547.843-1.453.297-.906.297-2.203 0-1.797-.594-2.766-.578-.969-1.421-1.297-.61-.234-1.97-.234h-2.405v8.75zm10.039 1.36v-11.453h3.953q1.328 0 2.03.156.985.235 1.688.828.907.766 1.344 1.954.453 1.187.453 2.718 0 1.313-.312 2.328-.297 1-.781 1.657-.47.656-1.032 1.047-.562.375-1.375.578-.797.187-1.828.187h-4.14zm1.515-1.36h2.453q1.125 0 1.766-.202.656-.219 1.031-.594.547-.547.844-1.453.297-.906.297-2.203 0-1.797-.594-2.766-.578-.969-1.422-1.297-.61-.234-1.969-.234h-2.406v8.75zm9.524-2.327 1.437-.125q.094.86.469 1.422.375.546 1.156.89.781.328 1.75.328.875 0 1.531-.25.672-.265.985-.703.328-.453.328-.984 0-.547-.313-.938-.312-.406-1.03-.687-.454-.172-2.032-.547-1.578-.39-2.219-.719-.812-.437-1.219-1.062-.406-.64-.406-1.438 0-.86.485-1.61.5-.765 1.437-1.155.953-.391 2.11-.391 1.28 0 2.25.422.968.406 1.484 1.203.531.797.578 1.797l-1.453.11q-.125-1.079-.797-1.626-.672-.562-2-.562-1.375 0-2 .5t-.625 1.218q0 .61.437 1.016.438.39 2.282.813 1.859.421 2.546.734 1 .453 1.47 1.172.484.703.484 1.625 0 .906-.532 1.719-.515.812-1.5 1.265-.984.453-2.203.453-1.562 0-2.61-.453-1.046-.469-1.655-1.375-.594-.906-.625-2.062z"/><path fill="#9fc5e8" d="M522.988 239.23c0-19.588 15.879-35.466 35.465-35.466h204.03a35.465 35.465 0 0 1 35.466 35.465v141.857c0 19.587-15.879 35.465-35.465 35.465h-204.03c-19.587 0-35.466-15.878-35.466-35.465z" fill-rule="evenodd"/><path stroke="#000" stroke-linejoin="round" stroke-linecap="butt" d="M522.988 239.23c0-19.588 15.879-35.466 35.465-35.466h204.03a35.465 35.465 0 0 1 35.466 35.465v141.857c0 19.587-15.879 35.465-35.465 35.465h-204.03c-19.587 0-35.466-15.878-35.466-35.465z"/><path fill="#000" d="m575.545 236.165 2.61.828q-.595 2.188-2 3.25-1.391 1.063-3.548 1.063-2.656 0-4.375-1.813-1.703-1.828-1.703-4.984 0-3.328 1.719-5.172 1.719-1.844 4.516-1.844 2.453 0 3.984 1.438.922.859 1.375 2.468l-2.672.641q-.234-1.047-.984-1.64-.75-.61-1.828-.61-1.485 0-2.422 1.078-.922 1.063-.922 3.438 0 2.53.906 3.609.922 1.078 2.375 1.078 1.078 0 1.844-.672.781-.687 1.125-2.156zm4.317-.063q0-1.28.625-2.468.625-1.203 1.78-1.828 1.157-.625 2.579-.625 2.187 0 3.594 1.421 1.406 1.422 1.406 3.61 0 2.187-1.422 3.64-1.422 1.438-3.562 1.438-1.329 0-2.547-.594-1.203-.61-1.828-1.765-.625-1.172-.625-2.829zm2.625.125q0 1.454.671 2.22.688.75 1.688.75t1.672-.75q.687-.766.687-2.235 0-1.422-.687-2.188-.672-.765-1.672-.765-1 0-1.688.765-.671.766-.671 2.203zm9.161-4.828h2.36v1.313q1.265-1.531 3.015-1.531.938 0 1.61.39.687.375 1.125 1.14.64-.765 1.375-1.14.75-.39 1.578-.39 1.062 0 1.797.437.75.422 1.109 1.266.266.625.266 2v6.187h-2.563v-5.531q0-1.438-.266-1.86-.343-.546-1.093-.546-.532 0-1.016.328-.469.328-.672.969-.203.625-.203 2v4.64h-2.562v-5.297q0-1.422-.141-1.828-.14-.406-.422-.61-.281-.202-.781-.202-.594 0-1.063.328-.468.312-.687.922-.203.593-.203 1.984v4.703h-2.563V231.4zm16.714 0h2.39v1.422q.469-.734 1.25-1.187.797-.453 1.766-.453 1.687 0 2.86 1.328 1.171 1.312 1.171 3.672 0 2.421-1.187 3.765-1.188 1.344-2.86 1.344-.812 0-1.469-.313-.64-.328-1.359-1.093v4.875h-2.562v-13.36zm2.53 4.672q0 1.625.641 2.406.657.782 1.579.782.906 0 1.484-.719.594-.719.594-2.344 0-1.515-.61-2.25-.61-.75-1.515-.75-.938 0-1.563.735-.61.718-.61 2.14zm10.85-1.719-2.328-.421q.406-1.407 1.36-2.079.952-.671 2.843-.671 1.703 0 2.547.406.844.406 1.172 1.031.343.625.343 2.281l-.015 3q0 1.266.11 1.875.124.61.468 1.297h-2.531q-.11-.25-.25-.75-.063-.234-.094-.312-.656.64-1.406.968-.735.313-1.594.313-1.484 0-2.344-.813-.86-.812-.86-2.046 0-.829.391-1.47.391-.64 1.094-.968.703-.344 2.031-.61 1.797-.327 2.485-.624v-.25q0-.75-.36-1.063-.359-.312-1.375-.312-.687 0-1.078.281-.375.266-.61.937zm3.422 2.079q-.485.156-1.563.39-1.062.219-1.39.438-.5.36-.5.906 0 .531.406.937.406.391 1.016.391.703 0 1.328-.469.468-.343.61-.843.093-.329.093-1.25v-.5zm13.844 4.64h-2.562v-4.937q0-1.563-.172-2.016-.156-.469-.531-.719-.36-.265-.875-.265-.672 0-1.203.375-.532.36-.735.968-.187.594-.187 2.22v4.374h-2.547V231.4h2.375v1.422q1.265-1.64 3.187-1.64.844 0 1.547.312.703.297 1.063.781.359.47.5 1.078.14.594.14 1.704v6.015zm2.6-10.984v-2.375h2.562v2.375h-2.563zm0 10.984V231.4h2.562v9.672h-2.563zm4.589-4.969q0-1.28.625-2.468.625-1.203 1.781-1.828t2.578-.625q2.188 0 3.594 1.421 1.406 1.422 1.406 3.61 0 2.187-1.422 3.64-1.421 1.438-3.562 1.438-1.328 0-2.547-.594-1.203-.61-1.828-1.765-.625-1.172-.625-2.829zm2.625.125q0 1.454.672 2.22.687.75 1.687.75t1.672-.75q.688-.766.688-2.235 0-1.422-.688-2.188-.672-.765-1.672-.765-1 0-1.687.765-.672.766-.672 2.203zm18.162 4.844h-2.563v-4.937q0-1.563-.172-2.016-.156-.469-.531-.719-.36-.265-.875-.265-.672 0-1.203.375-.531.36-.735.968-.187.594-.187 2.22v4.374h-2.547V231.4h2.375v1.422q1.266-1.64 3.188-1.64.843 0 1.546.312.704.297 1.063.781.36.47.5 1.078.14.594.14 1.704v6.015zM679 244.993h-1.75q-1.39-2.094-2.125-4.36-.734-2.28-.734-4.406 0-2.625.906-4.968.781-2.047 1.985-3.766h1.75q-1.25 2.75-1.72 4.688-.468 1.937-.468 4.109 0 1.5.281 3.062.282 1.563.766 2.97.312.937 1.11 2.671zm1.963-3.922v-13.36h4.031l2.422 9.11 2.39-9.11h4.048v13.36h-2.5v-10.515l-2.657 10.515h-2.593l-2.641-10.515v10.515h-2.5zm15.556-10.984v-2.375h2.563v2.375h-2.563zm0 10.984V231.4h2.563v9.672h-2.563zm4.278-2.765 2.562-.391q.172.75.672 1.14.5.391 1.406.391.985 0 1.485-.375.343-.25.343-.672 0-.297-.187-.484-.188-.188-.86-.344-3.093-.687-3.921-1.25-1.141-.781-1.141-2.172 0-1.265.984-2.109 1-.86 3.078-.86 1.985 0 2.954.657.968.64 1.328 1.906l-2.407.438q-.156-.563-.593-.86-.422-.297-1.235-.297-1 0-1.437.282-.297.203-.297.515 0 .266.25.469.344.25 2.39.719 2.047.453 2.86 1.14.797.672.797 1.891 0 1.344-1.11 2.297-1.109.953-3.28.953-1.985 0-3.141-.797-1.141-.812-1.5-2.187zm10.375 0 2.563-.391q.172.75.672 1.14.5.391 1.406.391.984 0 1.484-.375.344-.25.344-.672 0-.297-.188-.484-.187-.188-.859-.344-3.094-.687-3.922-1.25-1.14-.781-1.14-2.172 0-1.265.984-2.109 1-.86 3.078-.86 1.984 0 2.953.657.969.64 1.328 1.906l-2.406.438q-.156-.563-.594-.86-.422-.297-1.234-.297-1 0-1.438.282-.296.203-.296.515 0 .266.25.469.343.25 2.39.719 2.047.453 2.86 1.14.796.672.796 1.891 0 1.344-1.109 2.297-1.11.953-3.281.953-1.985 0-3.14-.797-1.141-.812-1.5-2.187zm11.282-8.22v-2.374h2.563v2.375h-2.563zm0 10.985V231.4h2.563v9.672h-2.563zm4.59-4.969q0-1.28.625-2.468.625-1.203 1.781-1.828t2.578-.625q2.188 0 3.594 1.421 1.406 1.422 1.406 3.61 0 2.187-1.422 3.64-1.422 1.438-3.562 1.438-1.328 0-2.547-.594-1.203-.61-1.828-1.765-.625-1.172-.625-2.829zm2.625.125q0 1.454.672 2.22.687.75 1.687.75t1.672-.75q.688-.766.688-2.235 0-1.422-.688-2.188-.672-.765-1.672-.765-1 0-1.687.765-.672.766-.672 2.203zm18.161 4.844h-2.562v-4.937q0-1.563-.172-2.016-.156-.469-.531-.719-.36-.265-.875-.265-.672 0-1.203.375-.532.36-.735.968-.187.594-.187 2.22v4.374h-2.547V231.4h2.375v1.422q1.265-1.64 3.187-1.64.844 0 1.547.312.703.297 1.063.781.36.47.5 1.078.14.594.14 1.704v6.015zm1.88 3.922q.766-1.61 1.063-2.484.313-.86.578-1.985.266-1.14.39-2.156.126-1.016.126-2.078 0-2.172-.469-4.11-.453-1.937-1.703-4.687h1.734q1.375 1.953 2.141 4.156.766 2.188.766 4.453 0 1.907-.61 4.079-.672 2.437-2.25 4.812h-1.765zm-123.384 13.172 2.61.828q-.595 2.188-2 3.25-1.391 1.063-3.548 1.063-2.656 0-4.375-1.813-1.703-1.828-1.703-4.984 0-3.328 1.719-5.172 1.719-1.844 4.516-1.844 2.453 0 3.984 1.438.922.859 1.375 2.468l-2.672.64q-.234-1.046-.984-1.64-.75-.61-1.828-.61-1.485 0-2.422 1.08-.922 1.062-.922 3.437 0 2.53.906 3.609.922 1.078 2.375 1.078 1.078 0 1.844-.672.781-.687 1.125-2.156zm4.316-.063q0-1.28.625-2.468.625-1.203 1.782-1.828 1.156-.625 2.578-.625 2.187 0 3.594 1.421 1.406 1.422 1.406 3.61 0 2.187-1.422 3.64-1.422 1.438-3.563 1.438-1.328 0-2.546-.594-1.204-.61-1.829-1.765-.625-1.172-.625-2.829zm2.625.125q0 1.454.672 2.22.688.75 1.688.75t1.672-.75q.687-.766.687-2.235 0-1.422-.687-2.188-.672-.765-1.672-.765-1 0-1.688.765-.672.766-.672 2.203zm9.162-4.828h2.36v1.313q1.265-1.531 3.015-1.531.938 0 1.61.39.687.375 1.124 1.14.641-.765 1.375-1.14.75-.39 1.579-.39 1.062 0 1.796.437.75.422 1.11 1.266.265.625.265 2v6.187h-2.562v-5.531q0-1.438-.266-1.86-.343-.546-1.093-.546-.532 0-1.016.328-.469.328-.672.969-.203.625-.203 2v4.64h-2.563v-5.297q0-1.422-.14-1.828-.14-.406-.422-.61-.281-.202-.781-.202-.594 0-1.063.328-.469.312-.687.922-.203.593-.203 1.984v4.703h-2.563V253.4zm16.713 0h2.391v1.422q.469-.734 1.25-1.187.797-.453 1.766-.453 1.687 0 2.86 1.328 1.171 1.312 1.171 3.672 0 2.421-1.188 3.765-1.187 1.344-2.859 1.344-.812 0-1.469-.313-.64-.328-1.359-1.093v4.875h-2.563v-13.36zm2.532 4.672q0 1.625.64 2.406.657.782 1.578.782.907 0 1.485-.72.594-.718.594-2.343 0-1.515-.61-2.25-.61-.75-1.515-.75-.938 0-1.563.735-.61.718-.61 2.14zm15.302 5v-1.453q-.531.781-1.39 1.234-.86.438-1.813.438-.969 0-1.75-.422-.766-.437-1.125-1.203-.344-.781-.344-2.14v-6.126h2.563v4.438q0 2.047.14 2.515.14.454.516.72.375.265.953.265.656 0 1.172-.36.515-.359.703-.89.203-.531.203-2.61V253.4h2.547v9.672h-2.375zm9.474-9.672v2.032h-1.75v3.906q0 1.187.047 1.39.047.188.219.313.187.125.437.125.36 0 1.031-.25l.22 2q-.891.375-2.016.375-.704 0-1.266-.234-.547-.235-.813-.594-.25-.375-.343-1-.094-.453-.094-1.813v-4.218h-1.172v-2.032h1.172v-1.922l2.578-1.5v3.422h1.75zm7.369 6.594 2.547.422q-.485 1.406-1.547 2.14-1.063.735-2.656.735-2.516 0-3.735-1.656-.953-1.313-.953-3.328 0-2.407 1.25-3.766 1.266-1.36 3.188-1.36 2.156 0 3.406 1.422t1.187 4.375H690.1q.031 1.141.61 1.782.593.625 1.484.625.594 0 1-.328.422-.329.625-1.063zm.156-2.594q-.031-1.11-.578-1.687-.547-.578-1.328-.578-.844 0-1.39.61-.548.608-.532 1.655h3.828zm7.08 5.672h-2.563V253.4h2.375v1.375q.609-.984 1.093-1.28.485-.313 1.11-.313.875 0 1.687.484l-.797 2.234q-.64-.422-1.203-.422-.531 0-.906.297t-.594 1.078q-.203.766-.203 3.235v2.984zm-132.122 37.425 1.516.375q-.469 1.875-1.719 2.859-1.234.984-3.015.984-1.86 0-3.016-.75-1.156-.765-1.766-2.187-.609-1.438-.609-3.078 0-1.797.687-3.125.688-1.328 1.938-2.016 1.266-.703 2.781-.703 1.719 0 2.89.875 1.173.875 1.641 2.469l-1.5.343q-.39-1.25-1.156-1.812-.75-.578-1.906-.578-1.313 0-2.203.64-.89.625-1.25 1.704-.36 1.062-.36 2.187 0 1.469.422 2.563.438 1.078 1.328 1.625.907.53 1.954.53 1.265 0 2.14-.734.89-.734 1.203-2.171zm2.68-.141q0-2.297 1.281-3.406 1.078-.922 2.61-.922 1.718 0 2.797 1.125 1.093 1.11 1.093 3.094 0 1.593-.484 2.515-.484.922-1.406 1.438-.907.5-2 .5-1.735 0-2.813-1.11-1.078-1.125-1.078-3.234zm1.453 0q0 1.594.688 2.39.703.797 1.75.797 1.047 0 1.734-.796.703-.797.703-2.438 0-1.531-.703-2.328-.687-.797-1.734-.797t-1.75.797q-.688.781-.688 2.375zm7.977 4.156v-8.297h1.25v1.157q.39-.61 1.031-.97.656-.374 1.484-.374.922 0 1.516.39.594.375.828 1.063.984-1.453 2.563-1.453 1.234 0 1.89.687.672.672.672 2.094v5.703h-1.39v-5.234q0-.844-.141-1.203-.14-.375-.5-.594-.36-.234-.844-.234-.875 0-1.453.578-.578.578-.578 1.86v4.827h-1.406v-5.39q0-.938-.344-1.407-.344-.468-1.125-.468-.594 0-1.094.312-.5.313-.734.922-.219.594-.219 1.719v4.312h-1.406zm13.328 3.188v-11.485h1.281v1.078q.453-.64 1.016-.953.578-.312 1.39-.312 1.063 0 1.875.547.813.547 1.22 1.547.421.984.421 2.171 0 1.282-.469 2.297-.453 1.016-1.328 1.563-.86.547-1.828.547-.703 0-1.266-.297-.547-.297-.906-.75v4.047h-1.406zm1.265-7.297q0 1.61.641 2.375.656.765 1.578.765.938 0 1.61-.796.671-.797.671-2.454 0-1.593-.656-2.375-.656-.796-1.562-.796-.89 0-1.594.843-.688.844-.688 2.438zm13.07 4.11v-1.22q-.968 1.407-2.64 1.407-.734 0-1.375-.282-.625-.28-.937-.703-.313-.437-.438-1.047-.078-.421-.078-1.312v-5.14h1.406v4.593q0 1.11.078 1.484.141.563.563.875.437.313 1.062.313.641 0 1.188-.313.562-.328.781-.89.235-.563.235-1.625v-4.438h1.406v8.297h-1.25zm6.524-1.266.203 1.25q-.593.125-1.062.125-.766 0-1.188-.235-.422-.25-.593-.64-.172-.407-.172-1.672v-4.766h-1.032v-1.094h1.032v-2.062l1.406-.844v2.906h1.406v1.094h-1.406v4.844q0 .61.062.781.079.172.25.281.172.094.485.094.234 0 .61-.062zm7.055-1.407 1.453.172q-.344 1.281-1.281 1.985-.922.703-2.36.703-1.828 0-2.89-1.125-1.063-1.125-1.063-3.14 0-2.095 1.078-3.25 1.079-1.157 2.797-1.157 1.657 0 2.703 1.14 1.063 1.125 1.063 3.172v.375h-6.188q.079 1.375.766 2.11.703.718 1.734.718.782 0 1.329-.406.546-.406.859-1.297zm-4.61-2.28h4.626q-.094-1.048-.532-1.563-.672-.813-1.734-.813-.969 0-1.64.656-.657.64-.72 1.72zm7.82 4.952v-8.297h1.266v1.25q.485-.875.891-1.156.406-.281.906-.281.703 0 1.438.453l-.485 1.297q-.515-.297-1.03-.297-.454 0-.829.281-.36.266-.516.766-.234.75-.234 1.64v4.344h-1.406zm12.087 0-3.156-8.297h1.484l1.781 4.97q.297.796.531 1.67.188-.655.532-1.577l1.843-5.063h1.438l-3.14 8.297h-1.313zm5.703-9.844v-1.609h1.406v1.61h-1.406zm0 9.844v-8.297h1.406v8.297h-1.406zm2.992-2.484 1.39-.219q.11.844.641 1.297.547.437 1.5.437.97 0 1.438-.39.469-.406.469-.938 0-.468-.407-.75-.297-.187-1.437-.468-1.547-.391-2.156-.672-.594-.297-.907-.797-.297-.5-.297-1.11 0-.562.25-1.03.25-.47.688-.782.328-.25.89-.406.579-.172 1.22-.172.984 0 1.718.281t1.078.766q.36.468.5 1.28l-1.375.188q-.094-.64-.547-1-.453-.359-1.265-.359-.969 0-1.39.328-.407.313-.407.735 0 .28.172.5.172.218.531.375.219.078 1.25.359 1.484.39 2.078.656.594.25.922.735.344.484.344 1.203 0 .703-.422 1.328-.406.61-1.188.953-.765.344-1.734.344-1.625 0-2.469-.672-.844-.672-1.078-2zm8.563-7.36v-1.609h1.406v1.61h-1.406zm0 9.844v-8.297h1.406v8.297h-1.406zm3.023-4.156q0-2.297 1.281-3.406 1.078-.922 2.61-.922 1.718 0 2.797 1.125 1.093 1.11 1.093 3.094 0 1.593-.484 2.515-.484.922-1.406 1.438-.907.5-2 .5-1.735 0-2.813-1.11-1.078-1.125-1.078-3.234zm1.453 0q0 1.594.688 2.39.703.797 1.75.797 1.047 0 1.734-.796.703-.797.703-2.438 0-1.531-.703-2.328-.687-.797-1.734-.797t-1.75.797q-.688.781-.688 2.375zm7.977 4.156v-8.297h1.265v1.172q.907-1.36 2.641-1.36.75 0 1.375.266t.937.704q.313.437.438 1.046.078.391.078 1.36v5.11h-1.406v-5.048q0-.86-.172-1.28-.156-.438-.578-.688-.406-.25-.969-.25-.906 0-1.562.578-.641.562-.641 2.156v4.531h-1.406zm9.258 0v-1.61h1.609v1.61q0 .89-.313 1.422-.312.547-1 .844l-.39-.594q.453-.203.656-.578.219-.375.234-1.094h-.796zm13.937-1.031q-.781.672-1.5.953-.719.266-1.547.266-1.375 0-2.11-.672-.734-.672-.734-1.703 0-.61.282-1.11.28-.515.718-.812.454-.313 1.016-.469.422-.11 1.25-.203 1.703-.203 2.516-.484v-.375q0-.86-.391-1.204-.547-.484-1.61-.484-.984 0-1.468.36-.469.343-.688 1.218l-1.375-.187q.188-.875.61-1.422.437-.547 1.25-.828.812-.297 1.875-.297 1.062 0 1.719.25.671.25.984.625.312.375.437.953.079.36.079 1.297v1.875q0 1.969.078 2.484.093.516.359 1h-1.469q-.218-.437-.281-1.031zm-.11-3.14q-.765.312-2.296.53-.875.126-1.235.282-.359.156-.562.469-.188.296-.188.656 0 .562.422.937.438.375 1.25.375.813 0 1.438-.343.64-.36.937-.985.235-.469.235-1.406v-.516zm5.9 4.171-3.157-8.297h1.484l1.781 4.97q.297.796.532 1.67.187-.655.531-1.577l1.844-5.063h1.437l-3.14 8.297h-1.313zm5.171-4.156q0-2.297 1.281-3.406 1.078-.922 2.61-.922 1.718 0 2.796 1.125 1.094 1.11 1.094 3.094 0 1.593-.484 2.515-.485.922-1.406 1.438-.907.5-2 .5-1.735 0-2.813-1.11-1.078-1.125-1.078-3.234zm1.453 0q0 1.594.688 2.39.703.797 1.75.797 1.046 0 1.734-.796.703-.797.703-2.438 0-1.531-.703-2.328-.688-.797-1.734-.797-1.047 0-1.75.797-.688.781-.688 2.375zm7.977-5.688v-1.609h1.406v1.61h-1.406zm0 9.844v-8.297h1.406v8.297h-1.406zm8.93 0v-1.047q-.782 1.235-2.313 1.235-1 0-1.828-.547-.828-.547-1.297-1.531-.453-.985-.453-2.25 0-1.25.406-2.25.422-1.016 1.25-1.547.828-.547 1.86-.547.75 0 1.327.312.594.313.954.828v-4.109h1.406v11.453h-1.313zm-4.438-4.14q0 1.593.672 2.39.672.781 1.578.781.922 0 1.562-.75.657-.765.657-2.312 0-1.703-.657-2.5-.656-.797-1.625-.797-.937 0-1.562.766-.625.765-.625 2.422zm13.367 3.109q-.781.672-1.5.953-.719.266-1.547.266-1.375 0-2.11-.672-.734-.672-.734-1.703 0-.61.282-1.11.28-.515.718-.812.454-.313 1.016-.469.422-.11 1.25-.203 1.703-.203 2.516-.484v-.375q0-.86-.391-1.204-.547-.484-1.61-.484-.984 0-1.468.36-.469.343-.688 1.218l-1.375-.187q.188-.875.61-1.422.437-.547 1.25-.828.812-.297 1.875-.297 1.062 0 1.719.25.671.25.984.625.312.375.437.953.079.36.079 1.297v1.875q0 1.969.078 2.484.093.516.359 1h-1.469q-.218-.437-.281-1.031zm-.11-3.14q-.765.312-2.296.53-.875.126-1.235.282-.359.156-.562.469-.188.296-.188.656 0 .562.422.937.438.375 1.25.375.813 0 1.438-.343.64-.36.937-.985.235-.469.235-1.406v-.516zm3.602 4.171v-8.297h1.266v1.172q.906-1.36 2.64-1.36.75 0 1.375.266t.938.704q.312.437.437 1.046.079.391.079 1.36v5.11h-1.407v-5.048q0-.86-.172-1.28-.156-.438-.578-.688-.406-.25-.968-.25-.907 0-1.563.578-.64.562-.64 2.156v4.531h-1.407zm14.305-3.047 1.39.188q-.234 1.422-1.171 2.234-.922.813-2.282.813-1.703 0-2.75-1.11-1.03-1.125-1.03-3.203 0-1.344.437-2.344.453-1.015 1.359-1.515.922-.5 1.984-.5 1.36 0 2.22.687.859.672 1.093 1.938l-1.36.203q-.203-.828-.703-1.25-.484-.422-1.187-.422-1.063 0-1.734.766-.657.75-.657 2.406 0 1.672.64 2.437.642.75 1.673.75.828 0 1.375-.5.562-.515.703-1.578zm8.266.375 1.453.172q-.344 1.281-1.282 1.985-.921.703-2.359.703-1.828 0-2.89-1.125-1.063-1.125-1.063-3.14 0-2.095 1.078-3.25 1.078-1.157 2.797-1.157 1.656 0 2.703 1.14 1.063 1.125 1.063 3.172v.375h-6.188q.078 1.375.766 2.11.703.718 1.734.718.781 0 1.328-.406t.86-1.297zm-4.61-2.28h4.625q-.094-1.048-.531-1.563-.672-.813-1.734-.813-.97 0-1.641.656-.656.64-.719 1.72zm8.195 4.952v-1.61h1.61v1.61q0 .89-.313 1.422-.312.547-1 .844l-.39-.594q.453-.203.656-.578.219-.375.234-1.094h-.797zm-171.5 17.969q-.78.672-1.5.953-.718.266-1.546.266-1.375 0-2.11-.672-.734-.672-.734-1.703 0-.61.281-1.11.281-.515.719-.812.453-.313 1.015-.469.422-.11 1.25-.203 1.704-.203 2.516-.484v-.375q0-.86-.39-1.204-.547-.484-1.61-.484-.984 0-1.469.36-.468.343-.687 1.218l-1.375-.187q.187-.875.61-1.422.437-.547 1.25-.828.812-.297 1.874-.297 1.063 0 1.719.25.672.25.984.625.313.375.438.953.078.36.078 1.297v1.875q0 1.969.078 2.484.094.516.36 1h-1.47q-.218-.437-.28-1.031zm-.109-3.14q-.766.312-2.297.53-.875.126-1.234.282-.36.156-.563.469-.187.296-.187.656 0 .562.422.937.437.375 1.25.375.812 0 1.437-.343.64-.36.938-.985.234-.469.234-1.406v-.516zm8.977 4.171v-1.047q-.782 1.235-2.313 1.235-1 0-1.828-.547-.828-.547-1.297-1.531-.453-.985-.453-2.25 0-1.25.406-2.25.422-1.016 1.25-1.547.828-.547 1.86-.547.75 0 1.328.312.594.313.953.828v-4.109h1.406v11.453h-1.312zm-4.438-4.14q0 1.593.672 2.39.672.781 1.578.781.922 0 1.563-.75.656-.765.656-2.312 0-1.703-.656-2.5-.657-.797-1.625-.797-.938 0-1.563.766-.625.765-.625 2.422zm10.258 4.14-3.156-8.297h1.484l1.781 4.97q.297.796.532 1.67.187-.655.53-1.577l1.845-5.063h1.437l-3.14 8.297h-1.313zm11.11-1.031q-.782.672-1.5.953-.72.266-1.548.266-1.375 0-2.109-.672t-.734-1.703q0-.61.281-1.11.281-.515.719-.812.453-.313 1.015-.469.422-.11 1.25-.203 1.703-.203 2.516-.484v-.375q0-.86-.39-1.204-.548-.484-1.61-.484-.984 0-1.469.36-.469.343-.687 1.218l-1.375-.187q.187-.875.61-1.422.437-.547 1.25-.828.812-.297 1.874-.297 1.063 0 1.719.25.672.25.984.625.313.375.438.953.078.36.078 1.297v1.875q0 1.969.078 2.484.094.516.36 1h-1.47q-.218-.437-.28-1.031zm-.11-3.14q-.766.312-2.297.53-.875.126-1.234.282-.36.156-.563.469-.187.296-.187.656 0 .562.422.937.437.375 1.25.375.812 0 1.437-.343.64-.36.938-.985.234-.469.234-1.406v-.516zm3.602 4.171v-8.297h1.265v1.172q.906-1.36 2.64-1.36.75 0 1.376.266.625.266.937.704.313.437.438 1.046.078.391.078 1.36v5.11h-1.406v-5.048q0-.86-.172-1.28-.156-.438-.578-.688-.407-.25-.97-.25-.905 0-1.562.578-.64.562-.64 2.156v4.531h-1.406zm14.304-3.047 1.39.188q-.234 1.422-1.171 2.234-.922.813-2.281.813-1.703 0-2.75-1.11-1.032-1.125-1.032-3.203 0-1.344.438-2.344.453-1.015 1.36-1.515.921-.5 1.984-.5 1.36 0 2.218.687.86.672 1.094 1.938l-1.36.203q-.202-.828-.702-1.25-.485-.422-1.188-.422-1.062 0-1.734.766-.656.75-.656 2.406 0 1.672.64 2.437.64.75 1.672.75.828 0 1.375-.5.563-.515.703-1.578zm8.266.375 1.453.172q-.344 1.281-1.281 1.985-.922.703-2.36.703-1.828 0-2.89-1.125-1.063-1.125-1.063-3.14 0-2.095 1.078-3.25 1.078-1.157 2.797-1.157 1.656 0 2.703 1.14 1.063 1.125 1.063 3.172v.375h-6.188q.078 1.375.766 2.11.703.718 1.734.718.782 0 1.328-.406.547-.406.86-1.297zm-4.61-2.28h4.625q-.093-1.048-.53-1.563-.673-.813-1.735-.813-.969 0-1.64.656-.657.64-.72 1.72zm13.211 4.952v-1.047q-.78 1.235-2.312 1.235-1 0-1.828-.547-.828-.547-1.297-1.531-.453-.985-.453-2.25 0-1.25.406-2.25.422-1.016 1.25-1.547.828-.547 1.86-.547.75 0 1.328.312.593.313.953.828v-4.109h1.406v11.453h-1.313zm-4.437-4.14q0 1.593.672 2.39.672.781 1.578.781.922 0 1.562-.75.657-.765.657-2.312 0-1.703-.657-2.5-.656-.797-1.625-.797-.937 0-1.562.766-.625.765-.625 2.422zm12.734 4.14v-7.203h-1.234v-1.094h1.234v-.89q0-.828.157-1.235.203-.547.703-.89.515-.344 1.437-.344.594 0 1.313.14l-.203 1.235q-.438-.078-.829-.078-.64 0-.906.281-.265.266-.265 1.016v.765h1.609v1.094h-1.61v7.203h-1.406zm4.086 0v-11.453h1.406v11.453h-1.406zm3.586-9.844v-1.609h1.406v1.61h-1.406zm0 9.844v-8.297h1.406v8.297h-1.406zm3.29.688 1.374.203q.078.64.469.922.531.39 1.438.39.968 0 1.5-.39.53-.39.718-1.094.11-.422.11-1.813-.922 1.094-2.297 1.094-1.719 0-2.657-1.234-.937-1.235-.937-2.969 0-1.187.422-2.187.437-1 1.25-1.547.828-.547 1.922-.547 1.468 0 2.422 1.187v-1h1.296v7.172q0 1.938-.39 2.75-.39.813-1.25 1.281-.86.47-2.11.47-1.484 0-2.406-.673-.906-.672-.875-2.015zm1.171-4.985q0 1.625.64 2.375.657.75 1.626.75.968 0 1.625-.734.656-.75.656-2.344 0-1.531-.672-2.297-.672-.78-1.625-.78-.937 0-1.594.765-.656.765-.656 2.265zm7.992 4.297v-11.453h1.407v4.11q.984-1.141 2.484-1.141.922 0 1.594.36.687.359.968 1 .297.64.297 1.859v5.265h-1.406v-5.265q0-1.047-.453-1.532-.453-.484-1.297-.484-.625 0-1.172.328-.547.328-.781.89-.234.548-.234 1.516v4.547h-1.407zm11.961-1.265.203 1.25q-.593.125-1.062.125-.766 0-1.188-.235-.422-.25-.593-.64-.172-.407-.172-1.672v-4.766h-1.032v-1.094h1.032v-2.062l1.406-.844v2.906h1.406v1.094h-1.406v4.844q0 .61.063.781.078.172.25.281.171.094.484.094.234 0 .61-.062zm5.828 1.265v-8.297h1.25v1.157q.391-.61 1.032-.97.656-.374 1.484-.374.922 0 1.516.39.593.375.828 1.063.984-1.453 2.562-1.453 1.235 0 1.89.687.673.672.673 2.094v5.703h-1.39v-5.234q0-.844-.142-1.203-.14-.375-.5-.594-.359-.234-.843-.234-.875 0-1.453.578-.579.578-.579 1.86v4.827h-1.406v-5.39q0-.938-.344-1.407-.343-.468-1.125-.468-.593 0-1.093.312-.5.313-.735.922-.218.594-.218 1.719v4.312h-1.407zm12.797-4.156q0-2.297 1.281-3.406 1.079-.922 2.61-.922 1.719 0 2.797 1.125 1.093 1.11 1.093 3.094 0 1.593-.484 2.515-.484.922-1.406 1.438-.906.5-2 .5-1.735 0-2.813-1.11-1.078-1.125-1.078-3.234zm1.453 0q0 1.594.688 2.39.703.797 1.75.797 1.047 0 1.734-.796.703-.797.703-2.438 0-1.531-.703-2.328-.687-.797-1.734-.797t-1.75.797q-.688.781-.688 2.375zm13.352 4.156v-1.047q-.781 1.235-2.313 1.235-1 0-1.828-.547-.828-.547-1.297-1.531-.453-.985-.453-2.25 0-1.25.407-2.25.421-1.016 1.25-1.547.828-.547 1.859-.547.75 0 1.328.312.594.313.953.828v-4.109h1.406v11.453h-1.312zm-4.438-4.14q0 1.593.672 2.39.672.781 1.578.781.922 0 1.563-.75.656-.765.656-2.312 0-1.703-.656-2.5-.656-.797-1.625-.797-.938 0-1.563.766-.625.765-.625 2.422zm13.633 1.468 1.453.172q-.343 1.281-1.28 1.985-.923.703-2.36.703-1.828 0-2.89-1.125-1.063-1.125-1.063-3.14 0-2.095 1.078-3.25 1.078-1.157 2.797-1.157 1.656 0 2.703 1.14 1.062 1.125 1.062 3.172v.375h-6.187q.078 1.375.765 2.11.703.718 1.735.718.781 0 1.328-.406t.86-1.297zm-4.61-2.28h4.626q-.094-1.048-.531-1.563-.672-.813-1.735-.813-.969 0-1.64.656-.657.64-.72 1.72zm7.274 2.468 1.39-.219q.11.844.642 1.297.546.437 1.5.437.968 0 1.437-.39.469-.406.469-.938 0-.468-.406-.75-.297-.187-1.438-.468-1.547-.391-2.156-.672-.594-.297-.906-.797-.297-.5-.297-1.11 0-.562.25-1.03.25-.47.687-.782.328-.25.89-.406.579-.172 1.22-.172.984 0 1.718.281.735.281 1.078.766.36.468.5 1.28l-1.375.188q-.093-.64-.546-1-.454-.359-1.266-.359-.969 0-1.39.328-.407.313-.407.735 0 .28.172.5.172.218.531.375.219.078 1.25.359 1.485.39 2.078.656.594.25.922.735.344.484.344 1.203 0 .703-.422 1.328-.406.61-1.187.953-.766.344-1.735.344-1.625 0-2.469-.672-.843-.672-1.078-2z"/><path d="m437.001 310.302 85.985-.158"/><path stroke="#000" stroke-linejoin="round" stroke-linecap="butt" d="m443.001 310.29 73.985-.135"/><path fill="#000" stroke="#000" stroke-linecap="butt" d="m442.998 308.64-4.535 1.66 4.541 1.643zm73.991 3.167 4.535-1.66-4.541-1.643z" fill-rule="evenodd"/><path fill="#9fc5e8" d="M694.392 483.777c0-6.448 5.227-11.675 11.675-11.675h80.21a11.675 11.675 0 0 1 11.674 11.675v46.698c0 6.448-5.227 11.675-11.674 11.675h-80.21c-6.448 0-11.675-5.227-11.675-11.675z" fill-rule="evenodd"/><path stroke="#000" stroke-linejoin="round" stroke-linecap="butt" d="M694.392 483.777c0-6.448 5.227-11.675 11.675-11.675h80.21a11.675 11.675 0 0 1 11.674 11.675v46.698c0 6.448-5.227 11.675-11.674 11.675h-80.21c-6.448 0-11.675-5.227-11.675-11.675z"/><path fill="#000" d="m710.032 490.702 2.625-.25q.235 1.313.953 1.938.735.61 1.97.61 1.296 0 1.952-.548.672-.547.672-1.281 0-.484-.281-.813-.281-.328-.969-.578-.484-.156-2.172-.578-2.156-.547-3.031-1.328-1.234-1.094-1.234-2.687 0-1.016.578-1.907.578-.89 1.656-1.343 1.094-.47 2.64-.47 2.516 0 3.782 1.11 1.281 1.094 1.344 2.938l-2.703.11q-.172-1.032-.75-1.47-.563-.453-1.704-.453-1.171 0-1.843.469-.422.312-.422.844 0 .468.406.797.5.437 2.469.906 1.969.453 2.906.953.953.5 1.484 1.36.532.859.532 2.124 0 1.157-.641 2.157-.64 1-1.812 1.484-1.157.484-2.891.484-2.531 0-3.89-1.172-1.36-1.171-1.626-3.406zm18.71 1.266 2.546.422q-.484 1.406-1.546 2.14-1.063.735-2.657.735-2.515 0-3.734-1.657-.953-1.312-.953-3.328 0-2.406 1.25-3.765 1.265-1.36 3.187-1.36 2.157 0 3.407 1.422t1.187 4.375h-6.406q.031 1.14.61 1.781.593.625 1.484.625.593 0 1-.328.421-.328.625-1.062zm.156-2.594q-.031-1.11-.578-1.687-.547-.579-1.328-.579-.844 0-1.391.61t-.531 1.656h3.828zm13.422 5.672h-2.562v-4.938q0-1.562-.172-2.015-.156-.469-.531-.719-.36-.266-.875-.266-.672 0-1.203.375-.532.36-.735.97-.187.593-.187 2.218v4.375h-2.547v-9.672h2.375v1.422q1.266-1.64 3.187-1.64.844 0 1.547.312.703.297 1.063.781.36.469.5 1.078.14.594.14 1.703v6.016zm1.693-2.766 2.563-.39q.172.75.672 1.14.5.391 1.406.391.984 0 1.484-.375.344-.25.344-.672 0-.297-.188-.484-.187-.188-.859-.344-3.094-.688-3.922-1.25-1.14-.781-1.14-2.172 0-1.266.984-2.11 1-.859 3.078-.859 1.984 0 2.953.657.969.64 1.328 1.906l-2.406.437q-.156-.562-.594-.859-.422-.297-1.234-.297-1 0-1.438.281-.296.203-.296.516 0 .266.25.469.343.25 2.39.718 2.047.454 2.86 1.141.796.672.796 1.89 0 1.344-1.109 2.298-1.11.953-3.281.953-1.985 0-3.14-.797-1.141-.813-1.5-2.188zm10.688-2.203q0-1.281.625-2.469.625-1.203 1.782-1.828 1.156-.625 2.578-.625 2.187 0 3.594 1.422 1.406 1.422 1.406 3.61 0 2.187-1.422 3.64-1.422 1.438-3.563 1.438-1.328 0-2.546-.594-1.204-.61-1.829-1.766-.625-1.172-.625-2.828zm2.625.125q0 1.453.672 2.219.688.75 1.688.75t1.672-.75q.687-.766.687-2.234 0-1.422-.687-2.188-.672-.766-1.672-.766-1 0-1.688.766-.672.766-.672 2.203zm11.818 4.844h-2.562v-9.672h2.375v1.375q.61-.984 1.094-1.281.484-.313 1.109-.313.875 0 1.687.485l-.796 2.234q-.641-.422-1.204-.422-.53 0-.906.297-.375.297-.594 1.078-.203.766-.203 3.235v2.984zm3.901-2.766 2.563-.39q.172.75.672 1.14.5.391 1.406.391.984 0 1.484-.375.344-.25.344-.672 0-.297-.188-.484-.187-.188-.859-.344-3.094-.688-3.922-1.25-1.14-.781-1.14-2.172 0-1.266.984-2.11 1-.859 3.078-.859 1.984 0 2.953.657.969.64 1.328 1.906l-2.406.437q-.156-.562-.594-.859-.422-.297-1.234-.297-1 0-1.438.281-.296.203-.296.516 0 .266.25.469.343.25 2.39.718 2.047.454 2.86 1.141.796.672.796 1.89 0 1.344-1.109 2.298-1.11.953-3.281.953-1.985 0-3.14-.797-1.141-.813-1.5-2.188zm-46.986 22.206v-11.453h3.953q1.328 0 2.031.156.984.234 1.688.828.906.766 1.343 1.953.453 1.188.453 2.72 0 1.312-.312 2.327-.297 1-.781 1.656-.47.657-1.032 1.047-.562.375-1.375.578-.796.188-1.828.188h-4.14zm1.515-1.36h2.453q1.125 0 1.766-.203.656-.218 1.031-.593.547-.547.844-1.453.297-.907.297-2.204 0-1.796-.594-2.765-.578-.969-1.422-1.297-.61-.234-1.968-.234h-2.407v8.75zm15.54-1.312 1.452.172q-.343 1.281-1.28 1.984-.923.703-2.36.703-1.828 0-2.89-1.125-1.063-1.125-1.063-3.14 0-2.094 1.078-3.25 1.078-1.156 2.797-1.156 1.656 0 2.703 1.14 1.062 1.125 1.062 3.172v.375h-6.187q.078 1.375.765 2.11.704.718 1.735.718.781 0 1.328-.406t.86-1.297zm-4.61-2.281h4.625q-.094-1.047-.531-1.563-.672-.812-1.735-.812-.968 0-1.64.656-.657.64-.719 1.719zm7.836 8.14V506.19h1.281v1.078q.453-.64 1.016-.953.578-.312 1.39-.312 1.063 0 1.875.546.813.547 1.22 1.547.421.985.421 2.172 0 1.281-.469 2.297-.453 1.016-1.328 1.563-.86.546-1.828.546-.703 0-1.266-.296-.546-.297-.906-.75v4.046h-1.406zm1.266-7.296q0 1.609.64 2.375.656.765 1.578.765.938 0 1.61-.797.672-.797.672-2.453 0-1.594-.657-2.375-.656-.797-1.562-.797-.89 0-1.594.844-.687.844-.687 2.438zm10.695 2.843.203 1.25q-.594.125-1.063.125-.765 0-1.187-.234-.422-.25-.594-.64-.172-.407-.172-1.673v-4.765h-1.03v-1.094h1.03v-2.062l1.407-.844v2.906h1.406v1.094h-1.406v4.844q0 .609.062.78.078.173.25.282.172.094.484.094.235 0 .61-.063zm1.383 1.266v-11.453h1.406v4.11q.984-1.141 2.484-1.141.922 0 1.594.359.688.36.969 1 .297.64.297 1.86v5.265h-1.407v-5.266q0-1.047-.453-1.53-.453-.485-1.297-.485-.625 0-1.171.328-.547.328-.782.89-.234.547-.234 1.516v4.547h-1.406zm-32.559 14.984 1.516.375q-.47 1.875-1.72 2.86-1.233.984-3.015.984-1.86 0-3.015-.75-1.157-.766-1.766-2.187-.61-1.438-.61-3.079 0-1.796.688-3.125.688-1.328 1.938-2.015 1.265-.703 2.78-.703 1.72 0 2.892.875 1.171.875 1.64 2.468l-1.5.344q-.39-1.25-1.156-1.812-.75-.578-1.906-.578-1.313 0-2.203.64-.891.625-1.25 1.703-.36 1.063-.36 2.188 0 1.469.422 2.562.438 1.078 1.328 1.625.906.532 1.953.532 1.266 0 2.14-.735.892-.734 1.204-2.172zm8.617 2.985q-.781.672-1.5.953-.719.265-1.547.265-1.375 0-2.109-.671-.734-.672-.734-1.704 0-.609.28-1.109.282-.516.72-.812.453-.313 1.015-.47.422-.109 1.25-.202 1.703-.203 2.516-.485v-.375q0-.859-.39-1.203-.548-.484-1.61-.484-.985 0-1.469.36-.469.343-.687 1.218l-1.375-.188q.187-.875.609-1.421.437-.547 1.25-.829.812-.296 1.875-.296 1.062 0 1.719.25.672.25.984.625.313.375.438.953.078.36.078 1.297v1.875q0 1.968.078 2.484.094.516.36 1h-1.47q-.218-.438-.28-1.031zm-.11-3.14q-.765.312-2.296.53-.875.125-1.234.282-.36.156-.563.468-.187.297-.187.657 0 .562.421.937.438.375 1.25.375.813 0 1.438-.344.64-.359.937-.984.235-.469.235-1.406v-.516zm3.602 4.171v-8.297h1.25v1.156q.391-.609 1.032-.968.656-.375 1.484-.375.922 0 1.516.39.593.375.828 1.063.984-1.453 2.562-1.453 1.235 0 1.89.687.673.672.673 2.094v5.703h-1.39v-5.234q0-.844-.141-1.204-.141-.375-.5-.593-.36-.235-.844-.235-.875 0-1.453.578-.578.579-.578 1.86v4.828h-1.407v-5.39q0-.938-.343-1.407-.344-.469-1.125-.469-.594 0-1.094.313-.5.312-.735.922-.218.593-.218 1.718v4.313h-1.407zm19-2.672 1.454.172q-.344 1.281-1.282 1.984-.922.703-2.36.703-1.827 0-2.89-1.125-1.062-1.125-1.062-3.14 0-2.094 1.078-3.25 1.078-1.156 2.797-1.156 1.656 0 2.703 1.14 1.062 1.125 1.062 3.172v.375h-6.187q.078 1.375.766 2.11.703.718 1.734.718.781 0 1.328-.406t.86-1.297zm-4.609-2.281h4.625q-.094-1.047-.531-1.563-.672-.812-1.735-.812-.968 0-1.64.656-.656.64-.719 1.719zm7.82 4.953v-8.297h1.266v1.25q.484-.875.89-1.156.407-.281.907-.281.703 0 1.437.453l-.484 1.297q-.516-.297-1.031-.297-.453 0-.828.281-.36.266-.516.766-.234.75-.234 1.64v4.344h-1.407zm10.75-1.031q-.78.672-1.5.953-.718.265-1.547.265-1.375 0-2.109-.671-.734-.672-.734-1.704 0-.609.281-1.109.281-.516.719-.812.453-.313 1.015-.47.422-.109 1.25-.202 1.703-.203 2.516-.485v-.375q0-.859-.39-1.203-.548-.484-1.61-.484-.984 0-1.469.36-.469.343-.687 1.218l-1.375-.188q.187-.875.61-1.421.437-.547 1.25-.829.812-.296 1.874-.296 1.063 0 1.719.25.672.25.984.625.313.375.438.953.078.36.078 1.297v1.875q0 1.968.078 2.484.094.516.36 1h-1.47q-.218-.438-.28-1.031zm-.109-3.14q-.766.312-2.297.53-.875.125-1.234.282-.36.156-.563.468-.187.297-.187.657 0 .562.422.937.437.375 1.25.375.812 0 1.437-.344.64-.359.938-.984.234-.469.234-1.406v-.516z"/><path fill="#efefef" d="M162.04 16.478a9.328 9.328 0 0 1 9.329-9.328h283.958a9.328 9.328 0 0 1 9.328 9.328V53.79a9.328 9.328 0 0 1-9.328 9.328H171.369a9.328 9.328 0 0 1-9.328-9.328z" fill-rule="evenodd"/><path stroke="#000" stroke-linejoin="round" stroke-linecap="butt" d="M162.04 16.478a9.328 9.328 0 0 1 9.329-9.328h283.958a9.328 9.328 0 0 1 9.328 9.328V53.79a9.328 9.328 0 0 1-9.328 9.328H171.369a9.328 9.328 0 0 1-9.328-9.328z"/><path fill="#000" d="m296.832 37.148 2.61.828q-.594 2.187-2 3.25-1.391 1.062-3.548 1.062-2.656 0-4.375-1.812-1.703-1.828-1.703-4.985 0-3.328 1.72-5.172 1.718-1.843 4.515-1.843 2.453 0 3.984 1.437.922.86 1.375 2.469l-2.672.64q-.234-1.046-.984-1.64-.75-.61-1.828-.61-1.485 0-2.422 1.079-.922 1.062-.922 3.437 0 2.531.906 3.61.922 1.078 2.375 1.078 1.078 0 1.844-.672.781-.688 1.125-2.156zm4.91 4.906v-13.36h2.563v13.36h-2.563zm4.59-4.969q0-1.281.625-2.469.625-1.203 1.781-1.828t2.578-.625q2.188 0 3.594 1.422 1.406 1.422 1.406 3.61 0 2.187-1.422 3.64-1.421 1.438-3.562 1.438-1.328 0-2.547-.594-1.203-.61-1.828-1.766-.625-1.172-.625-2.828zm2.625.125q0 1.453.672 2.219.687.75 1.687.75t1.672-.75q.688-.766.688-2.235 0-1.421-.688-2.187-.672-.766-1.672-.766-1 0-1.687.766-.672.766-.672 2.203zm15.724 4.844V40.6q-.531.781-1.39 1.234-.86.438-1.813.438-.969 0-1.75-.422-.766-.438-1.125-1.203-.344-.782-.344-2.141v-6.125h2.563v4.437q0 2.047.14 2.516.14.453.516.719.375.265.953.265.656 0 1.172-.359.516-.36.703-.89.203-.532.203-2.61v-4.078h2.547v9.672h-2.375zm13.912 0h-2.391v-1.422q-.594.828-1.406 1.234-.797.407-1.61.407-1.672 0-2.859-1.344-1.188-1.344-1.188-3.75 0-2.453 1.157-3.735 1.156-1.28 2.922-1.28 1.625 0 2.812 1.343v-4.813h2.563v13.36zm-6.844-5.047q0 1.547.437 2.234.61 1.016 1.72 1.016.89 0 1.5-.75.624-.766.624-2.25 0-1.672-.61-2.406-.593-.735-1.53-.735-.907 0-1.532.735-.61.718-.61 2.156z"/><path d="M313.348 63.118v28.319h347.118v28.311"/><path stroke="#000" stroke-linejoin="round" stroke-linecap="butt" stroke-dasharray="4.0,3.0" d="M313.348 69.118v22.319h347.118v28.311"/><path fill="#000" stroke="#000" stroke-linecap="butt" d="m315 69.118-1.652-4.538-1.652 4.538z" fill-rule="evenodd"/><path d="m576.833 472.118-.598-54.677"/><path stroke="#000" stroke-linejoin="round" stroke-linecap="butt" d="m576.768 466.118-.467-42.677"/><path fill="#000" stroke="#000" stroke-linecap="butt" d="m575.116 466.137 1.701 4.52 1.602-4.557zm2.836-42.714-1.701-4.52-1.602 4.556z" fill-rule="evenodd"/><path d="m746.172 472.102-.85-55.307"/><path stroke="#000" stroke-linejoin="round" stroke-linecap="butt" d="m746.172 472.102-.758-49.307"/><path fill="#000" stroke="#000" stroke-linecap="butt" d="m747.065 422.77-1.721-4.513-1.582 4.563z" fill-rule="evenodd"/></g></svg>