<svg xmlns:xlink="http://www.w3.org/1999/xlink" width="830.736" height="971.48" viewBox="0 0 623.052 728.61" xmlns="http://www.w3.org/2000/svg"><defs><style>*{stroke-linejoin:round;stroke-linecap:butt}</style></defs><g id="figure_1"><path d="M0 728.61h623.052V0H0z" style="fill:#fff" id="patch_1"/><g id="axes_1"><path d="M150.2 467.358h361.758V23.838H150.201z" style="fill:#fff" id="patch_2"/><g id="matplotlib.axis_1"><g id="xtick_1"><path d="M178.561 467.358V23.838" clip-path="url(#p5d5eb18f86)" style="fill:none;stroke:#b0b0b0;stroke-opacity:.3;stroke-width:.8;stroke-linecap:square" id="line2d_1"/><g id="line2d_2"><defs><path id="md907dbe98e" d="M0 0v3.5" style="stroke:#000;stroke-width:.8"/></defs><use xlink:href="#md907dbe98e" x="178.561" y="467.358" style="stroke:#000;stroke-width:.8"/></g><g transform="matrix(.1 0 0 -.1 168.009 481.956)" id="text_1"><defs><path id="DejaVuSans-2212" d="M678 2272h4006v-531H678v531z" transform="scale(.01563)"/><path id="DejaVuSans-36" d="M2113 2584q-425 0-674-291-248-290-248-796 0-503 248-796 249-292 674-292t673 292q248 293 248 796 0 506-248 796-248 291-673 291zm1253 1979v-575q-238 112-480 171-242 60-480 60-625 0-955-422-329-422-376-1275 184 272 462 417 279 145 613 145 703 0 1111-427 408-426 408-1160 0-719-425-1154Q2819-91 2113-91q-810 0-1238 620-428 621-428 1799 0 1106 525 1764t1409 658q238 0 480-47t505-140z" transform="scale(.01563)"/><path id="DejaVuSans-30" d="M2034 4250q-487 0-733-480-245-479-245-1442 0-959 245-1439 246-480 733-480 491 0 736 480 246 480 246 1439 0 963-246 1442-245 480-736 480zm0 500q785 0 1199-621 414-620 414-1801 0-1178-414-1799Q2819-91 2034-91q-784 0-1198 620-414 621-414 1799 0 1181 414 1801 414 621 1198 621z" transform="scale(.01563)"/></defs><use xlink:href="#DejaVuSans-2212"/><use xlink:href="#DejaVuSans-36" transform="translate(83.79)"/><use xlink:href="#DejaVuSans-30" transform="translate(147.412)"/></g></g><g id="xtick_2"><path d="M255.083 467.358V23.838" clip-path="url(#p5d5eb18f86)" style="fill:none;stroke:#b0b0b0;stroke-opacity:.3;stroke-width:.8;stroke-linecap:square" id="line2d_3"/><use xlink:href="#md907dbe98e" x="255.083" y="467.358" style="stroke:#000;stroke-width:.8" id="line2d_4"/><g transform="matrix(.1 0 0 -.1 244.53 481.956)" id="text_2"><defs><path id="DejaVuSans-35" d="M691 4666h2478v-532H1269V2991q137 47 274 70 138 23 276 23 781 0 1237-428 457-428 457-1159 0-753-469-1171Q2575-91 1722-91q-294 0-599 50Q819 9 494 109v635q281-153 581-228t634-75q541 0 856 284 316 284 316 772 0 487-316 771-315 285-856 285-253 0-505-56-251-56-513-175v2344z" transform="scale(.01563)"/></defs><use xlink:href="#DejaVuSans-2212"/><use xlink:href="#DejaVuSans-35" transform="translate(83.79)"/><use xlink:href="#DejaVuSans-30" transform="translate(147.412)"/></g></g><g id="xtick_3"><path d="M331.605 467.358V23.838" clip-path="url(#p5d5eb18f86)" style="fill:none;stroke:#b0b0b0;stroke-opacity:.3;stroke-width:.8;stroke-linecap:square" id="line2d_5"/><use xlink:href="#md907dbe98e" x="331.605" y="467.358" style="stroke:#000;stroke-width:.8" id="line2d_6"/><g transform="matrix(.1 0 0 -.1 321.052 481.956)" id="text_3"><defs><path id="DejaVuSans-34" d="M2419 4116 825 1625h1594v2491zm-166 550h794V1625h666v-525h-666V0h-628v1100H313v609l1940 2957z" transform="scale(.01563)"/></defs><use xlink:href="#DejaVuSans-2212"/><use xlink:href="#DejaVuSans-34" transform="translate(83.79)"/><use xlink:href="#DejaVuSans-30" transform="translate(147.412)"/></g></g><g id="xtick_4"><path d="M408.127 467.358V23.838" clip-path="url(#p5d5eb18f86)" style="fill:none;stroke:#b0b0b0;stroke-opacity:.3;stroke-width:.8;stroke-linecap:square" id="line2d_7"/><use xlink:href="#md907dbe98e" x="408.127" y="467.358" style="stroke:#000;stroke-width:.8" id="line2d_8"/><g transform="matrix(.1 0 0 -.1 397.574 481.956)" id="text_4"><defs><path id="DejaVuSans-33" d="M2597 2516q453-97 707-404 255-306 255-756 0-690-475-1069Q2609-91 1734-91q-293 0-604 58T488 141v609q262-153 574-231 313-78 654-78 593 0 904 234t311 681q0 413-289 645-289 233-804 233h-544v519h569q465 0 712 186t247 536q0 359-255 551-254 193-729 193-260 0-557-57-297-56-653-174v562q360 100 674 150t592 50q719 0 1137-327 419-326 419-882 0-388-222-655t-631-370z" transform="scale(.01563)"/></defs><use xlink:href="#DejaVuSans-2212"/><use xlink:href="#DejaVuSans-33" transform="translate(83.79)"/><use xlink:href="#DejaVuSans-30" transform="translate(147.412)"/></g></g><g id="xtick_5"><path d="M484.649 467.358V23.838" clip-path="url(#p5d5eb18f86)" style="fill:none;stroke:#b0b0b0;stroke-opacity:.3;stroke-width:.8;stroke-linecap:square" id="line2d_9"/><use xlink:href="#md907dbe98e" x="484.649" y="467.358" style="stroke:#000;stroke-width:.8" id="line2d_10"/><g transform="matrix(.1 0 0 -.1 474.096 481.956)" id="text_5"><defs><path id="DejaVuSans-32" d="M1228 531h2203V0H469v531q359 372 979 998 621 627 780 809 303 340 423 576 121 236 121 464 0 372-261 606-261 235-680 235-297 0-627-103-329-103-704-313v638q381 153 712 231 332 78 607 78 725 0 1156-363 431-362 431-968 0-288-108-546-107-257-392-607-78-91-497-524-418-433-1181-1211z" transform="scale(.01563)"/></defs><use xlink:href="#DejaVuSans-2212"/><use xlink:href="#DejaVuSans-32" transform="translate(83.79)"/><use xlink:href="#DejaVuSans-30" transform="translate(147.412)"/></g></g><g transform="matrix(.12 0 0 -.12 289.31 497.154)" id="text_6"><defs><path id="DejaVuSans-59" d="M-13 4666h679l1293-1919 1285 1919h678L2272 2222V0h-634v2222L-13 4666z" transform="scale(.01563)"/><path id="DejaVuSans-70" d="M1159 525v-1856H581v4831h578v-531q182 312 458 463 277 152 661 152 638 0 1036-506 399-506 399-1331T3314 415Q2916-91 2278-91q-384 0-661 152-276 152-458 464zm1957 1222q0 634-261 995t-717 361q-457 0-718-361t-261-995q0-634 261-995t718-361q456 0 717 361t261 995z" transform="scale(.01563)"/><path id="DejaVuSans-6f" d="M1959 3097q-462 0-731-361t-269-989q0-628 267-989 268-361 733-361 460 0 728 362 269 363 269 988 0 622-269 986-268 364-728 364zm0 487q750 0 1178-488 429-487 429-1349 0-859-429-1349Q2709-91 1959-91q-753 0-1180 489-426 490-426 1349 0 862 426 1349 427 488 1180 488z" transform="scale(.01563)"/><path id="DejaVuSans-73" d="M2834 3397v-544q-243 125-506 187-262 63-544 63-428 0-642-131t-214-394q0-200 153-314t616-217l197-44q612-131 870-370t258-667q0-488-386-773Q2250-91 1575-91q-281 0-586 55T347 128v594q319-166 628-249 309-82 613-82 406 0 624 139 219 139 219 392 0 234-158 359-157 125-692 241l-200 47q-534 112-772 345-237 233-237 639 0 494 350 762 350 269 994 269 318 0 599-47 282-46 519-140z" transform="scale(.01563)"/><path id="DejaVuSans-69" d="M603 3500h575V0H603v3500zm0 1363h575v-729H603v729z" transform="scale(.01563)"/><path id="DejaVuSans-74" d="M1172 4494v-994h1184v-447H1172V1153q0-428 117-550t477-122h590V0h-590q-666 0-919 248-253 249-253 905v1900H172v447h422v994h578z" transform="scale(.01563)"/><path id="DejaVuSans-6e" d="M3513 2113V0h-575v2094q0 497-194 743-194 247-581 247-466 0-735-297-269-296-269-809V0H581v3500h578v-544q207 316 486 472 280 156 646 156 603 0 912-373 310-373 310-1098z" transform="scale(.01563)"/><path id="DejaVuSans-5b" d="M550 4863h1325v-447h-750V-397h750v-447H550v5707z" transform="scale(.01563)"/><path id="DejaVuSans-6d" d="M3328 2828q216 388 516 572t706 184q547 0 844-383 297-382 297-1088V0h-578v2094q0 503-179 746-178 244-543 244-447 0-707-297-259-296-259-809V0h-578v2094q0 506-178 748t-550 242q-441 0-701-298-259-298-259-808V0H581v3500h578v-544q197 322 472 475t653 153q382 0 649-194 267-193 395-562z" transform="scale(.01563)"/><path id="DejaVuSans-5d" d="M1947 4863V-844H622v447h747v4813H622v447h1325z" transform="scale(.01563)"/></defs><use xlink:href="#DejaVuSans-59"/><use xlink:href="#DejaVuSans-20" transform="translate(61.084)"/><use xlink:href="#DejaVuSans-70" transform="translate(92.871)"/><use xlink:href="#DejaVuSans-6f" transform="translate(156.348)"/><use xlink:href="#DejaVuSans-73" transform="translate(217.53)"/><use xlink:href="#DejaVuSans-69" transform="translate(269.629)"/><use xlink:href="#DejaVuSans-74" transform="translate(297.412)"/><use xlink:href="#DejaVuSans-69" transform="translate(336.621)"/><use xlink:href="#DejaVuSans-6f" transform="translate(364.404)"/><use xlink:href="#DejaVuSans-6e" transform="translate(425.586)"/><use xlink:href="#DejaVuSans-20" transform="translate(488.965)"/><use xlink:href="#DejaVuSans-5b" transform="translate(520.752)"/><use xlink:href="#DejaVuSans-6d" transform="translate(559.766)"/><use xlink:href="#DejaVuSans-5d" transform="translate(657.178)"/></g></g><g id="matplotlib.axis_2"><g id="ytick_1"><path d="M150.2 421.271h361.758" clip-path="url(#p5d5eb18f86)" style="fill:none;stroke:#b0b0b0;stroke-opacity:.3;stroke-width:.8;stroke-linecap:square" id="line2d_11"/><g id="line2d_12"><defs><path id="m401fdb5ab9" d="M0 0h-3.5" style="stroke:#000;stroke-width:.8"/></defs><use xlink:href="#m401fdb5ab9" x="150.201" y="421.271" style="stroke:#000;stroke-width:.8"/></g><g transform="matrix(.1 0 0 -.1 130.476 425.07)" id="text_7"><use xlink:href="#DejaVuSans-33"/><use xlink:href="#DejaVuSans-30" transform="translate(63.623)"/></g></g><g id="ytick_2"><path d="M150.2 344.75h361.758" clip-path="url(#p5d5eb18f86)" style="fill:none;stroke:#b0b0b0;stroke-opacity:.3;stroke-width:.8;stroke-linecap:square" id="line2d_13"/><use xlink:href="#m401fdb5ab9" x="150.201" y="344.749" style="stroke:#000;stroke-width:.8" id="line2d_14"/><g transform="matrix(.1 0 0 -.1 130.476 348.549)" id="text_8"><use xlink:href="#DejaVuSans-34"/><use xlink:href="#DejaVuSans-30" transform="translate(63.623)"/></g></g><g id="ytick_3"><path d="M150.2 268.228h361.758" clip-path="url(#p5d5eb18f86)" style="fill:none;stroke:#b0b0b0;stroke-opacity:.3;stroke-width:.8;stroke-linecap:square" id="line2d_15"/><use xlink:href="#m401fdb5ab9" x="150.201" y="268.228" style="stroke:#000;stroke-width:.8" id="line2d_16"/><g transform="matrix(.1 0 0 -.1 130.476 272.027)" id="text_9"><use xlink:href="#DejaVuSans-35"/><use xlink:href="#DejaVuSans-30" transform="translate(63.623)"/></g></g><g id="ytick_4"><path d="M150.2 191.706h361.758" clip-path="url(#p5d5eb18f86)" style="fill:none;stroke:#b0b0b0;stroke-opacity:.3;stroke-width:.8;stroke-linecap:square" id="line2d_17"/><use xlink:href="#m401fdb5ab9" x="150.201" y="191.706" style="stroke:#000;stroke-width:.8" id="line2d_18"/><g transform="matrix(.1 0 0 -.1 130.476 195.505)" id="text_10"><use xlink:href="#DejaVuSans-36"/><use xlink:href="#DejaVuSans-30" transform="translate(63.623)"/></g></g><g id="ytick_5"><path d="M150.2 115.184h361.758" clip-path="url(#p5d5eb18f86)" style="fill:none;stroke:#b0b0b0;stroke-opacity:.3;stroke-width:.8;stroke-linecap:square" id="line2d_19"/><use xlink:href="#m401fdb5ab9" x="150.201" y="115.184" style="stroke:#000;stroke-width:.8" id="line2d_20"/><g transform="matrix(.1 0 0 -.1 130.476 118.983)" id="text_11"><defs><path id="DejaVuSans-37" d="M525 4666h3000v-269L1831 0h-659l1594 4134H525v532z" transform="scale(.01563)"/></defs><use xlink:href="#DejaVuSans-37"/><use xlink:href="#DejaVuSans-30" transform="translate(63.623)"/></g></g><g id="ytick_6"><path d="M150.2 38.662h361.758" clip-path="url(#p5d5eb18f86)" style="fill:none;stroke:#b0b0b0;stroke-opacity:.3;stroke-width:.8;stroke-linecap:square" id="line2d_21"/><use xlink:href="#m401fdb5ab9" x="150.201" y="38.662" style="stroke:#000;stroke-width:.8" id="line2d_22"/><g transform="matrix(.1 0 0 -.1 130.476 42.461)" id="text_12"><defs><path id="DejaVuSans-38" d="M2034 2216q-450 0-708-241-257-241-257-662 0-422 257-663 258-241 708-241t709 242q260 243 260 662 0 421-258 662-257 241-711 241zm-631 268q-406 100-633 378-226 279-226 679 0 559 398 884 399 325 1092 325 697 0 1094-325t397-884q0-400-227-679-226-278-629-378 456-106 710-416 255-309 255-755 0-679-414-1042Q2806-91 2034-91q-771 0-1186 362-414 363-414 1042 0 446 256 755 257 310 713 416zm-231 997q0-362 226-565 227-203 636-203 407 0 636 203 230 203 230 565 0 363-230 566-229 203-636 203-409 0-636-203-226-203-226-566z" transform="scale(.01563)"/></defs><use xlink:href="#DejaVuSans-38"/><use xlink:href="#DejaVuSans-30" transform="translate(63.623)"/></g></g><g transform="matrix(0 -.12 -.12 0 123.98 287.813)" id="text_13"><defs><path id="DejaVuSans-58" d="M403 4666h678l1160-1735 1165 1735h678L2584 2425 4184 0h-678L2194 1984 872 0H191l1665 2491L403 4666z" transform="scale(.01563)"/></defs><use xlink:href="#DejaVuSans-58"/><use xlink:href="#DejaVuSans-20" transform="translate(68.506)"/><use xlink:href="#DejaVuSans-70" transform="translate(100.293)"/><use xlink:href="#DejaVuSans-6f" transform="translate(163.77)"/><use xlink:href="#DejaVuSans-73" transform="translate(224.951)"/><use xlink:href="#DejaVuSans-69" transform="translate(277.05)"/><use xlink:href="#DejaVuSans-74" transform="translate(304.834)"/><use xlink:href="#DejaVuSans-69" transform="translate(344.043)"/><use xlink:href="#DejaVuSans-6f" transform="translate(371.826)"/><use xlink:href="#DejaVuSans-6e" transform="translate(433.008)"/><use xlink:href="#DejaVuSans-20" transform="translate(496.387)"/><use xlink:href="#DejaVuSans-5b" transform="translate(528.174)"/><use xlink:href="#DejaVuSans-6d" transform="translate(567.188)"/><use xlink:href="#DejaVuSans-5d" transform="translate(664.6)"/></g></g><path d="m494.202 440.425-.03-.134-.002-.013-.084.193-.287.039-.333-.244-.828-.927-2.2-2.57-2.076-1.862-3.171-2.876-2.239-2.696-2.115-2.898-2.774-4.376-2.679-4.59-15.877-28.425-4.44-8.663-4.162-8.514-8.434-17.427-3.684-7.128-4.688-8.556-4.852-8.325-5.428-8.906-7.218-11.411-6.844-10.572-7.131-10.656-6.042-8.741-7.084-9.83-8.072-10.698-7.747-10.302-4.56-6.369-5.914-8.625-20.076-29.783-5.853-8.32-4.32-5.785-4.305-5.391-4.422-5.138-6.976-7.515-2.09-2.006-.508-.174-.52.027-.654.323-3.437 2.057-3.173 1.656-2.101.853-1.687.512-1.806.322-1.967.106-2.109-.118-2.441-.392-3.776-.879-13.039-3.231-8.398-1.767-10.461-1.961-12.706-2.167-8.625-1.25-8.307-.956-8.395-.73-7.717-.467-8.85-.289-6.73.047-4.674.263-3.321.387-3.63.684-2.406.655-2.22.816-2.427 1.165-1.497.871-1.338.995-1.187 1.112-1.027 1.24-1.577 2.369-.9 1.897-.88 2.472-1.15 4.081-1.23 5.307-.64 3.542-.593 4.717-.266 3.752-.016 3.96.21 3.438.459 3.484.813 4.118.981 3.56 1.22 3.573 4.211 10.978 4.773 11.289 2.66 5.68 2.6 5.037 2.454 4.29 2.67 4.221 2.87 4.088 3.029 3.928 3.2 3.856 3.78 4.2 5.37 5.62 4.912 4.817 4.986 4.542 3.966 3.33 3.458 2.645 3.48 2.394 2.935 1.769 2.9 1.51 2.909 1.296 2.853 1 2.8.712 4.643.82 2.716.166 4.042-.045 2.656-.23 2.593-.43 3.832-.91 2.51-.84 2.456-1.059 3.217-1.663 2.37-1.5 2.327-1.733 3.038-2.598 2.235-2.137 2.196-2.38 2.517-3.038 2.448-3.35 2.378-3.638 2.62-4.372 2.533-4.662 2.74-5.533 2.632-5.844 2.25-5.527 2.692-7.292 3.194-9.296 3.113-9.817 2.186-7.524 3.22-11.924 3.748-15.773 1.787-8.122 6.409-28.696 7.792-32.799 4.4-16.52 3.424-11.603 2.317-7.116 2.708-7.6 2.019-4.997 2.14-4.687 1.608-3.161 1.705-2.9 1.814-2.608 2.69-3.334 2.01-2.074 2.07-1.795 3.342-2.5 2.097-1.352 2.525-1.347 2.537-1.101 2.986-1.06 2.979-.806 3.426-.688 3.483-.503 3.052-.224 3.54-.023 2.675.2 2.68.436 3.168.771 2.71.923 2.695 1.182 4.05 2.112 2.682 1.676 2.657 1.905 4.9 3.86 3.492 3.102 4.855 4.692 3.434 3.694 3.803 4.44L444.345 81l3.612 4.966 3.15 4.627 2.972 4.793 4.616 8.05 2.568 5.081 2.478 5.17 2.253 5.204 2.567 6.57 1.783 5.25 1.326 4.565 1.907 7.65.815 4.386.594 4.343.326 4.212.09 4.068-.093 3.38-.302 3.219-.588 3.57-.678 2.949-.858 2.775-1.043 2.604-1.824 3.736-1.45 2.296-1.902 2.52-1.787 2.064-1.967 1.905-2.14 1.75-2.264 1.667-2.417 1.515-2.572 1.369-3.653 1.662-2.919 1.075-3.073.919-4.909 1.182-3.472.597-4.237.49-4.42.368-4.605.152-6.138-.058-5.625-.244-5.785-.478-6.737-.768-6.96-1.034-8.041-1.456-8.298-1.714-11.166-2.589-9.684-2.48-12.526-3.463-10.866-3.206-20.889-6.495-49.309-15.465-8.552-2.415-10.063-2.59-6.462-1.402-7.09-1.283-4.503-.571-4.286-.31-4.184-.187-3.933.086-3.697.32-6.49.903-3.18.796-3.46 1.15-2.776 1.123-2.982 1.43-4.025 2.221-3.05 1.905-2.502 1.803-2.047 1.691-1.888 1.823-1.7 1.966-1.318 1.73-1.16 1.842-.984 1.952-.966 2.48-.694 2.163-.61 2.715-.397 2.83-.488 5.974-.07 4.13.153 4.806.316 3.847.546 3.93.76 4.07.872 3.514 1.274 4.136 1.494 4.22 1.734 4.23 3.607 8.01 3.03 6.173 2.995 5.572 3.176 5.48 3.024 4.808 3.203 4.712 3.367 4.593 3.568 4.513 3.687 4.288 4.805 5.207 3.889 3.91 3.97 3.667 4.017 3.392 3.47 2.67 4.492 3.148 3.42 2.067 3.39 1.753 2.941 1.283 2.877.986 2.819.706 2.4.52 2.357.328 2.775.15 5.092-.083 2.735-.297 3.593-.67 2.706-.644 2.64-.863 2.582-1.1 2.615-1.222 2.543-1.468 2.48-1.715 4.114-3.256 2.377-2.281 3.103-3.38 2.282-2.737 2.198-2.962 3.912-5.802 2.39-3.935 2.623-4.765 2.587-4.994 2.477-5.279 3.34-7.697 2.643-6.738 3.686-10.217 2.7-8.206 2.65-8.357 3.008-10.282 3.149-11.471 4.28-16.518 4.797-19.453 11.85-48.045 3.162-11.529 3.039-10.326 4.063-12.937 2.697-7.848 2.036-5.392 1.867-4.384 1.7-3.524 1.792-3.164 1.569-2.318 2.297-2.883 1.715-1.697 1.77-1.362 2.54-1.564 1.478-.688 1.878-.6 1.91-.348 3.08-.214 2.36.109 3.261.398 4.288.936 4.337 1.154 3.957 1.315 3.113 1.257 3.115 1.508 3.118 1.785 2.66 1.768 3.998 2.981 3.106 2.615 3.08 2.888 7.604 7.63 5.26 5.844 3.384 4.085 4.562 5.894 2.76 3.93 2.996 4.676 2.497 4.251 2.316 4.374 3.128 6.465 2.272 5.28 2.83 7.279 1.805 5.28 1.77 5.914 1.357 5.232L472.86 144l.92 5.142.581 4.41.477 5.562.144 4.223-.113 4.065-.413 5.053-.597 4.266-1.212 6.626-1.395 6.21-4.337 17.462-2.595 10.56-1.585 7.215-1.168 6.004-1.71 10.396-1.118 8.715-.995 10.232-.525 8.687-.271 9.89.051 7.334.247 5.852.424 5.335.733 6.216 1.035 6.631 1.414 7.521 2.908 14.165 3.976 19.633 2.824 15.007 3.82 20.288 3.03 15.754 2.758 14.334 1.862 8.567 1.341 5.035 1.316 4.025 1.103 2.736 1.134 2.251 1.336 2.102 1.473 1.827 1.055 1.027 1.335 1.033 1.297.735.87.276 1.204.384-.025.267-.24.145-.425-.118-.7-.523-.742-.949-1.044-1.893-1.839-3.22-1.27-2.499-.587-1.154.056-.028-.243.007-.122-.182v-.002l.048.116h0" clip-path="url(#p5d5eb18f86)" style="fill:none;stroke:#2563eb;stroke-width:1.5;stroke-linecap:square" id="line2d_23"/><path d="m322.84 178.392-1.778-.477-24.709-6.51-13.432-3.316-11.216-2.548-9.722-1.983-8.655-1.539-7.75-1.151-6.988-.815-6.135-.506-5.827-.264-5.334-.022-4.822.195-4.586.408-4.192.6-3.871.785-3.529.944-3.092 1.045-3.019 1.255-2.718 1.373-2.533 1.534-2.256 1.624-2.08 1.77-1.905 1.914-1.727 2.054-1.55 2.191-1.372 2.326-1.195 2.455-1.056 2.687-.867 2.817-.679 2.94-.523 3.299-.311 3.425-.102 3.672.118 3.787.348 4.027.595 4.262.858 4.492 1.06 4.426 1.409 4.912 1.658 4.955 1.955 5.12 2.124 4.966 2.48 5.224 2.697 5.16 2.901 5.065 3.087 4.941 3.256 4.79 3.407 4.607 3.54 4.398 3.35 3.824 3.538 3.71 3.507 3.357 3.457 3.007 3.39 2.667 3.422 2.407 3.33 2.072 3.23 1.75 3.234 1.494 3.117 1.19 2.886.877 2.982.673 2.853.414 2.831.18 2.804-.055 2.669-.279 2.638-.501 2.604-.726 2.568-.95 2.53-1.175 2.489-1.4 2.544-1.692 2.497-1.933 2.541-2.26 2.488-2.512 2.521-2.869 2.55-3.247 2.57-3.65 2.583-4.07 2.592-4.51 2.594-4.966 2.667-5.6 2.655-6.093 2.712-6.776 2.896-7.863 2.998-8.813 3.219-10.196 3.552-12.042 4.24-15.218 14.311-52.122 3.545-11.637 3.145-9.59 2.986-8.415 2.883-7.472 2.766-6.572 2.71-5.886 2.721-5.382 2.648-4.752 2.645-4.293 2.55-3.732 2.53-3.33 2.595-3.052 2.564-2.674 2.434-2.24 2.579-2.077 2.532-1.754 2.578-1.513 2.624-1.272 2.56-.991 2.597-.767 2.632-.544 2.664-.32 2.798-.098 2.717.13 2.74.344 2.866.585 2.993.847 3.005 1.085 3.12 1.37 3.121 1.613 3.224 1.917 3.32 2.238 3.403 2.57 3.258 2.725 3.533 3.252 3.363 3.39 3.39 3.722 3.496 4.175 3.376 4.387 3.242 4.57 3.176 4.866 3 5.006 2.805 5.114 2.595 5.194 2.367 5.244 2.124 5.266 1.818 5.112 1.518 4.934 1.264 4.88.92 4.381.71 4.438.446 4.2.2 3.956-.027 3.712-.251 3.589-.458 3.338-.616 2.98-.839 2.967-1 2.727-1.19 2.59-1.327 2.364-1.5 2.225-1.68 2.091-1.857 1.951-2.036 1.81-2.116 1.599-2.378 1.522-2.55 1.375-2.723 1.226-3.011 1.117-3.318.99-3.507.816-3.976.686-4.332.505-4.55.301-4.76.102-5.296-.105-5.691-.33-6.462-.605-7.077-.899-7.721-1.214-8.172-1.504-9.65-2.01-10.971-2.525-12.958-3.218-17.813-4.677-36.142-9.545-13.106-3.204-11.098-2.486-9.156-1.84-8.477-1.483-7.619-1.111-6.972-.793-6.003-.476-5.93-.246h-5.189l-4.652.203-4.583.423-4.074.595-3.602.73-3.536.939-3.099 1.039-3.025 1.25-2.725 1.367-2.539 1.528-2.35 1.688-2.08 1.77-1.903 1.913-1.727 2.055-1.549 2.192-1.371 2.326-1.194 2.456-1.056 2.687-.866 2.818-.7 3.057-.5 3.182-.311 3.427-.101 3.543.11 3.784.342 4.023.588 4.26.821 4.348 1.084 4.566 1.357 4.764 1.645 4.954 1.882 4.972 2.237 5.26 2.473 5.225 2.693 5.162 2.896 5.068 3.083 4.945 3.251 4.794 3.307 4.487 3.335 4.17 3.543 4.075 3.534 3.723 3.61 3.47 3.347 2.924 3.498 2.764 3.42 2.416 3.33 2.08 3.23 1.758 3.234 1.502 3.117 1.198 2.886.884 2.873.66 2.745.419 2.725.203 2.702-.014 2.673-.235 2.644-.458 2.611-.681 2.576-.906 2.537-1.131 2.498-1.356 2.358-1.512 2.414-1.793 2.556-2.185 2.504-2.438 2.538-2.793 2.48-3.058 2.504-3.44 2.524-3.84 2.618-4.405 2.62-4.862 2.693-5.495 2.682-5.993 2.738-6.677 2.855-7.576 2.827-8.119 3.124-9.666 3.338-11.07 3.914-13.788 5.615-20.715 7.365-27.043 3.954-13.643 3.385-10.905 3.108-9.286 2.877-7.938 2.908-7.378 2.791-6.476 2.735-5.789 2.747-5.283 2.673-4.652 2.5-3.94 2.657-3.774 2.549-3.241 2.524-2.866 2.486-2.507 2.638-2.334 2.499-1.92 2.448-1.62 2.59-1.447 2.532-1.162 2.57-.937 2.606-.713 2.64-.49 2.563-.259 2.805-.051 2.722.173 2.852.409 2.871.638 2.997.9 3.005 1.139 3.122 1.424 3.23 1.728 3.223 1.977 3.313 2.296 3.395 2.628 3.464 2.972 3.41 3.218 3.346 3.446 3.57 4.01 3.463 4.24 3.34 4.441 3.2 4.62 3.128 4.908 2.947 5.038 2.748 5.14 2.532 5.21 2.301 5.254 2 5.12 1.705 4.96 1.46 4.924 1.169 4.72.893 4.505.646 4.413.384 4.171.137 3.797-.082 3.683-.306 3.557-.108.839" clip-path="url(#p5d5eb18f86)" style="fill:none;stroke-dasharray:5.55,2.4;stroke-dashoffset:0;stroke:#f97316;stroke-opacity:.8;stroke-width:1.5" id="line2d_24"/><path d="M150.2 467.358V23.838" style="fill:none;stroke:#000;stroke-width:.8;stroke-linejoin:miter;stroke-linecap:square" id="patch_3"/><path d="M511.958 467.358V23.838" style="fill:none;stroke:#000;stroke-width:.8;stroke-linejoin:miter;stroke-linecap:square" id="patch_4"/><path d="M150.2 467.358h361.758" style="fill:none;stroke:#000;stroke-width:.8;stroke-linejoin:miter;stroke-linecap:square" id="patch_5"/><path d="M150.2 23.838h361.758" style="fill:none;stroke:#000;stroke-width:.8;stroke-linejoin:miter;stroke-linecap:square" id="patch_6"/><g transform="matrix(.14 0 0 -.14 274.759 17.838)" id="text_14"><defs><path id="DejaVuSans-2f" d="M1625 4666h531L531-594H0l1625 5260z" transform="scale(.01563)"/><path id="DejaVuSans-50" d="M1259 4147V2394h794q441 0 681 228 241 228 241 650 0 419-241 647-240 228-681 228h-794zm-631 519h1425q785 0 1186-355 402-355 402-1039 0-691-402-1044-401-353-1186-353h-794V0H628v4666z" transform="scale(.01563)"/><path id="DejaVuSans-6c" d="M603 4863h575V0H603v4863z" transform="scale(.01563)"/></defs><use xlink:href="#DejaVuSans-58"/><use xlink:href="#DejaVuSans-2f" transform="translate(68.506)"/><use xlink:href="#DejaVuSans-59" transform="translate(102.197)"/><use xlink:href="#DejaVuSans-20" transform="translate(163.281)"/><use xlink:href="#DejaVuSans-50" transform="translate(195.068)"/><use xlink:href="#DejaVuSans-6f" transform="translate(251.746)"/><use xlink:href="#DejaVuSans-73" transform="translate(312.928)"/><use xlink:href="#DejaVuSans-69" transform="translate(365.027)"/><use xlink:href="#DejaVuSans-74" transform="translate(392.81)"/><use xlink:href="#DejaVuSans-69" transform="translate(432.02)"/><use xlink:href="#DejaVuSans-6f" transform="translate(459.803)"/><use xlink:href="#DejaVuSans-6e" transform="translate(520.984)"/><use xlink:href="#DejaVuSans-20" transform="translate(584.363)"/><use xlink:href="#DejaVuSans-50" transform="translate(616.15)"/><use xlink:href="#DejaVuSans-6c" transform="translate(676.453)"/><use xlink:href="#DejaVuSans-6f" transform="translate(704.236)"/><use xlink:href="#DejaVuSans-74" transform="translate(765.418)"/></g><g id="PathCollection_1"><defs><path id="mc05a593f9e" d="M0 5A5 5 0 1 0 0-5 5 5 0 0 0 0 5z" style="stroke:#22c55e"/></defs><g clip-path="url(#p5d5eb18f86)"><use xlink:href="#mc05a593f9e" x="494.202" y="440.425" style="fill:#22c55e;stroke:#22c55e"/></g></g><g id="PathCollection_2"><defs><path id="mb2b7bf2906" d="M-5 5H5V-5H-5z" style="stroke:#ef4444"/></defs><g clip-path="url(#p5d5eb18f86)"><use xlink:href="#mb2b7bf2906" x="488.361" y="436.753" style="fill:#ef4444;stroke:#ef4444"/></g></g><g id="legend_1"><path d="M157.2 91.107h149.382q2 0 2-2v-58.27q0-2-2-2H157.2q-2 0-2 2v58.27q0 2 2 2z" style="fill:#fff;opacity:.8;stroke:#ccc;stroke-linejoin:miter" id="patch_7"/><path d="M159.2 36.936h20" style="fill:none;stroke:#2563eb;stroke-width:1.5;stroke-linecap:square" id="line2d_25"/><g transform="matrix(.1 0 0 -.1 187.2 40.436)" id="text_15"><defs><path id="DejaVuSans-76" d="M191 3500h609L1894 563l1094 2937h609L2284 0h-781L191 3500z" transform="scale(.01563)"/><path id="DejaVuSans-65" d="M3597 1894v-281H953q38-594 358-905t892-311q331 0 642 81t618 244V178Q3153 47 2828-22t-659-69q-838 0-1327 487-489 488-489 1320 0 859 464 1363 464 505 1252 505 706 0 1117-455 411-454 411-1235zm-575 169q-6 471-264 752-258 282-683 282-481 0-770-272t-333-766l2050 4z" transform="scale(.01563)"/><path id="DejaVuSans-68" d="M3513 2113V0h-575v2094q0 497-194 743-194 247-581 247-466 0-735-297-269-296-269-809V0H581v4863h578V2956q207 316 486 472 280 156 646 156 603 0 912-373 310-373 310-1098z" transform="scale(.01563)"/><path id="DejaVuSans-63" d="M3122 3366v-538q-244 135-489 202t-495 67q-560 0-870-355-309-354-309-995t309-996q310-354 870-354 250 0 495 67t489 202V134Q2881 22 2623-34q-257-57-548-57-791 0-1257 497-465 497-465 1341 0 856 470 1346 471 491 1290 491 265 0 518-55 253-54 491-163z" transform="scale(.01563)"/><path id="DejaVuSans-5f" d="M3263-1063v-446H-63v446h3326z" transform="scale(.01563)"/><path id="DejaVuSans-61" d="M2194 1759q-697 0-966-159t-269-544q0-306 202-486 202-179 548-179 479 0 768 339t289 901v128h-572zm1147 238V0h-575v531q-197-318-491-470T1556-91q-537 0-855 302-317 302-317 808 0 590 395 890 396 300 1180 300h807v57q0 397-261 614t-733 217q-300 0-585-72-284-72-546-216v532q315 122 612 182 297 61 578 61 760 0 1135-394 375-393 375-1193z" transform="scale(.01563)"/></defs><use xlink:href="#DejaVuSans-76"/><use xlink:href="#DejaVuSans-65" transform="translate(59.18)"/><use xlink:href="#DejaVuSans-68" transform="translate(120.703)"/><use xlink:href="#DejaVuSans-69" transform="translate(184.082)"/><use xlink:href="#DejaVuSans-63" transform="translate(211.865)"/><use xlink:href="#DejaVuSans-6c" transform="translate(266.846)"/><use xlink:href="#DejaVuSans-65" transform="translate(294.629)"/><use xlink:href="#DejaVuSans-5f" transform="translate(356.152)"/><use xlink:href="#DejaVuSans-6c" transform="translate(406.152)"/><use xlink:href="#DejaVuSans-6f" transform="translate(433.936)"/><use xlink:href="#DejaVuSans-63" transform="translate(495.117)"/><use xlink:href="#DejaVuSans-61" transform="translate(550.098)"/><use xlink:href="#DejaVuSans-6c" transform="translate(611.377)"/><use xlink:href="#DejaVuSans-5f" transform="translate(639.16)"/><use xlink:href="#DejaVuSans-70" transform="translate(689.16)"/><use xlink:href="#DejaVuSans-6f" transform="translate(752.637)"/><use xlink:href="#DejaVuSans-73" transform="translate(813.818)"/><use xlink:href="#DejaVuSans-69" transform="translate(865.918)"/><use xlink:href="#DejaVuSans-74" transform="translate(893.701)"/><use xlink:href="#DejaVuSans-69" transform="translate(932.91)"/><use xlink:href="#DejaVuSans-6f" transform="translate(960.693)"/><use xlink:href="#DejaVuSans-6e" transform="translate(1021.875)"/></g><use xlink:href="#mc05a593f9e" x="169.201" y="52.767" style="fill:#22c55e;stroke:#22c55e" id="PathCollection_3"/><g transform="matrix(.1 0 0 -.1 187.2 55.392)" id="text_16"><defs><path id="DejaVuSans-53" d="M3425 4513v-616q-359 172-678 256-319 85-616 85-515 0-795-200t-280-569q0-310 186-468 186-157 705-254l381-78q706-135 1042-474t336-907q0-679-455-1029Q2797-91 1919-91q-331 0-705 75-373 75-773 222v650q384-215 753-325 369-109 725-109 540 0 834 212 294 213 294 607 0 343-211 537t-692 291l-385 75q-706 140-1022 440-315 300-315 835 0 619 436 975t1201 356q329 0 669-60 341-59 697-177z" transform="scale(.01563)"/><path id="DejaVuSans-72" d="M2631 2963q-97 56-211 82-114 27-251 27-488 0-749-317t-261-911V0H581v3500h578v-544q182 319 472 473 291 155 707 155 59 0 131-8 72-7 159-23l3-590z" transform="scale(.01563)"/></defs><use xlink:href="#DejaVuSans-53"/><use xlink:href="#DejaVuSans-74" transform="translate(63.477)"/><use xlink:href="#DejaVuSans-61" transform="translate(102.686)"/><use xlink:href="#DejaVuSans-72" transform="translate(163.965)"/><use xlink:href="#DejaVuSans-74" transform="translate(205.078)"/></g><use xlink:href="#mb2b7bf2906" x="169.201" y="67.446" style="fill:#ef4444;stroke:#ef4444" id="PathCollection_4"/><g transform="matrix(.1 0 0 -.1 187.2 70.07)" id="text_17"><defs><path id="DejaVuSans-45" d="M628 4666h2950v-532H1259V2753h2222v-531H1259V531h2375V0H628v4666z" transform="scale(.01563)"/><path id="DejaVuSans-64" d="M2906 2969v1894h575V0h-575v525q-181-312-458-464-276-152-664-152-634 0-1033 506-398 507-398 1332t398 1331q399 506 1033 506 388 0 664-152 277-151 458-463zM947 1747q0-634 261-995t717-361q456 0 718 361 263 361 263 995t-263 995q-262 361-718 361t-717-361q-261-361-261-995z" transform="scale(.01563)"/></defs><use xlink:href="#DejaVuSans-45"/><use xlink:href="#DejaVuSans-6e" transform="translate(63.184)"/><use xlink:href="#DejaVuSans-64" transform="translate(126.563)"/></g><path d="M159.2 81.249h20" style="fill:none;stroke-dasharray:5.55,2.4;stroke-dashoffset:0;stroke:#f97316;stroke-opacity:.8;stroke-width:1.5" id="line2d_26"/><g transform="matrix(.1 0 0 -.1 187.2 84.749)" id="text_18"><defs><path id="DejaVuSans-75" d="M544 1381v2119h575V1403q0-497 193-746 194-248 582-248 465 0 735 297 271 297 271 810v1984h575V0h-575v538q-209-319-486-474-276-155-642-155-603 0-916 375-312 375-312 1097zm1447 2203z" transform="scale(.01563)"/><path id="DejaVuSans-66" d="M2375 4863v-479h-550q-309 0-430-125-120-125-120-450v-309h947v-447h-947V0H697v3053H147v447h550v244q0 584 272 851 272 268 862 268h544z" transform="scale(.01563)"/></defs><use xlink:href="#DejaVuSans-72"/><use xlink:href="#DejaVuSans-61" transform="translate(41.113)"/><use xlink:href="#DejaVuSans-70" transform="translate(102.393)"/><use xlink:href="#DejaVuSans-74" transform="translate(165.87)"/><use xlink:href="#DejaVuSans-6f" transform="translate(205.078)"/><use xlink:href="#DejaVuSans-72" transform="translate(266.26)"/><use xlink:href="#DejaVuSans-5f" transform="translate(307.373)"/><use xlink:href="#DejaVuSans-73" transform="translate(357.373)"/><use xlink:href="#DejaVuSans-74" transform="translate(409.473)"/><use xlink:href="#DejaVuSans-61" transform="translate(448.682)"/><use xlink:href="#DejaVuSans-74" transform="translate(509.96)"/><use xlink:href="#DejaVuSans-75" transform="translate(549.17)"/><use xlink:href="#DejaVuSans-73" transform="translate(612.549)"/><use xlink:href="#DejaVuSans-20" transform="translate(664.648)"/><use xlink:href="#DejaVuSans-72" transform="translate(696.436)"/><use xlink:href="#DejaVuSans-65" transform="translate(735.299)"/><use xlink:href="#DejaVuSans-66" transform="translate(796.822)"/><use xlink:href="#DejaVuSans-65" transform="translate(832.027)"/><use xlink:href="#DejaVuSans-72" transform="translate(893.55)"/><use xlink:href="#DejaVuSans-65" transform="translate(932.414)"/><use xlink:href="#DejaVuSans-6e" transform="translate(993.938)"/><use xlink:href="#DejaVuSans-63" transform="translate(1057.316)"/><use xlink:href="#DejaVuSans-65" transform="translate(1112.297)"/></g></g></g><g id="axes_2"><path d="M52.08 689.118h558v-147.84h-558z" style="fill:#fff" id="patch_8"/><g id="matplotlib.axis_3"><g id="xtick_6"><path d="M52.08 689.118v-147.84" clip-path="url(#p7242876ebb)" style="fill:none;stroke:#b0b0b0;stroke-opacity:.3;stroke-width:.8;stroke-linecap:square" id="line2d_27"/><use xlink:href="#md907dbe98e" x="52.079" y="689.118" style="stroke:#000;stroke-width:.8" id="line2d_28"/><use xlink:href="#DejaVuSans-30" transform="matrix(.1 0 0 -.1 48.898 703.716)" id="text_19"/></g><g id="xtick_7"><path d="M163.561 689.118v-147.84" clip-path="url(#p7242876ebb)" style="fill:none;stroke:#b0b0b0;stroke-opacity:.3;stroke-width:.8;stroke-linecap:square" id="line2d_29"/><use xlink:href="#md907dbe98e" x="163.561" y="689.118" style="stroke:#000;stroke-width:.8" id="line2d_30"/><g transform="matrix(.1 0 0 -.1 157.199 703.716)" id="text_20"><defs><path id="DejaVuSans-31" d="M794 531h1031v3560L703 3866v575l1116 225h631V531h1031V0H794v531z" transform="scale(.01563)"/></defs><use xlink:href="#DejaVuSans-31"/><use xlink:href="#DejaVuSans-30" transform="translate(63.623)"/></g></g><g id="xtick_8"><path d="M275.044 689.118v-147.84" clip-path="url(#p7242876ebb)" style="fill:none;stroke:#b0b0b0;stroke-opacity:.3;stroke-width:.8;stroke-linecap:square" id="line2d_31"/><use xlink:href="#md907dbe98e" x="275.044" y="689.118" style="stroke:#000;stroke-width:.8" id="line2d_32"/><g transform="matrix(.1 0 0 -.1 268.681 703.716)" id="text_21"><use xlink:href="#DejaVuSans-32"/><use xlink:href="#DejaVuSans-30" transform="translate(63.623)"/></g></g><g id="xtick_9"><path d="M386.526 689.118v-147.84" clip-path="url(#p7242876ebb)" style="fill:none;stroke:#b0b0b0;stroke-opacity:.3;stroke-width:.8;stroke-linecap:square" id="line2d_33"/><use xlink:href="#md907dbe98e" x="386.526" y="689.118" style="stroke:#000;stroke-width:.8" id="line2d_34"/><g transform="matrix(.1 0 0 -.1 380.163 703.716)" id="text_22"><use xlink:href="#DejaVuSans-33"/><use xlink:href="#DejaVuSans-30" transform="translate(63.623)"/></g></g><g id="xtick_10"><path d="M498.008 689.118v-147.84" clip-path="url(#p7242876ebb)" style="fill:none;stroke:#b0b0b0;stroke-opacity:.3;stroke-width:.8;stroke-linecap:square" id="line2d_35"/><use xlink:href="#md907dbe98e" x="498.008" y="689.118" style="stroke:#000;stroke-width:.8" id="line2d_36"/><g transform="matrix(.1 0 0 -.1 491.645 703.716)" id="text_23"><use xlink:href="#DejaVuSans-34"/><use xlink:href="#DejaVuSans-30" transform="translate(63.623)"/></g></g><g id="xtick_11"><path d="M609.49 689.118v-147.84" clip-path="url(#p7242876ebb)" style="fill:none;stroke:#b0b0b0;stroke-opacity:.3;stroke-width:.8;stroke-linecap:square" id="line2d_37"/><use xlink:href="#md907dbe98e" x="609.49" y="689.118" style="stroke:#000;stroke-width:.8" id="line2d_38"/><g transform="matrix(.1 0 0 -.1 603.127 703.716)" id="text_24"><use xlink:href="#DejaVuSans-35"/><use xlink:href="#DejaVuSans-30" transform="translate(63.623)"/></g></g><g transform="matrix(.12 0 0 -.12 306.685 718.914)" id="text_25"><defs><path id="DejaVuSans-54" d="M-19 4666h3947v-532H2272V0h-634v4134H-19v532z" transform="scale(.01563)"/></defs><use xlink:href="#DejaVuSans-54"/><use xlink:href="#DejaVuSans-69" transform="translate(57.959)"/><use xlink:href="#DejaVuSans-6d" transform="translate(85.742)"/><use xlink:href="#DejaVuSans-65" transform="translate(183.154)"/><use xlink:href="#DejaVuSans-20" transform="translate(244.678)"/><use xlink:href="#DejaVuSans-5b" transform="translate(276.465)"/><use xlink:href="#DejaVuSans-73" transform="translate(315.479)"/><use xlink:href="#DejaVuSans-5d" transform="translate(367.578)"/></g></g><g id="matplotlib.axis_4"><g id="ytick_7"><path d="M52.08 689.118h558" clip-path="url(#p7242876ebb)" style="fill:none;stroke:#b0b0b0;stroke-opacity:.3;stroke-width:.8;stroke-linecap:square" id="line2d_39"/><use xlink:href="#m401fdb5ab9" x="52.079" y="689.118" style="stroke:#000;stroke-width:.8" id="line2d_40"/><g transform="matrix(.1 0 0 -.1 29.176 692.917)" id="text_26"><defs><path id="DejaVuSans-2e" d="M684 794h660V0H684v794z" transform="scale(.01563)"/></defs><use xlink:href="#DejaVuSans-30"/><use xlink:href="#DejaVuSans-2e" transform="translate(63.623)"/><use xlink:href="#DejaVuSans-30" transform="translate(95.41)"/></g></g><g id="ytick_8"><path d="M52.08 662.893h558" clip-path="url(#p7242876ebb)" style="fill:none;stroke:#b0b0b0;stroke-opacity:.3;stroke-width:.8;stroke-linecap:square" id="line2d_41"/><use xlink:href="#m401fdb5ab9" x="52.079" y="662.893" style="stroke:#000;stroke-width:.8" id="line2d_42"/><g transform="matrix(.1 0 0 -.1 29.176 666.692)" id="text_27"><use xlink:href="#DejaVuSans-32"/><use xlink:href="#DejaVuSans-2e" transform="translate(63.623)"/><use xlink:href="#DejaVuSans-35" transform="translate(95.41)"/></g></g><g id="ytick_9"><path d="M52.08 636.667h558" clip-path="url(#p7242876ebb)" style="fill:none;stroke:#b0b0b0;stroke-opacity:.3;stroke-width:.8;stroke-linecap:square" id="line2d_43"/><use xlink:href="#m401fdb5ab9" x="52.079" y="636.667" style="stroke:#000;stroke-width:.8" id="line2d_44"/><g transform="matrix(.1 0 0 -.1 29.176 640.467)" id="text_28"><use xlink:href="#DejaVuSans-35"/><use xlink:href="#DejaVuSans-2e" transform="translate(63.623)"/><use xlink:href="#DejaVuSans-30" transform="translate(95.41)"/></g></g><g id="ytick_10"><path d="M52.08 610.442h558" clip-path="url(#p7242876ebb)" style="fill:none;stroke:#b0b0b0;stroke-opacity:.3;stroke-width:.8;stroke-linecap:square" id="line2d_45"/><use xlink:href="#m401fdb5ab9" x="52.079" y="610.442" style="stroke:#000;stroke-width:.8" id="line2d_46"/><g transform="matrix(.1 0 0 -.1 29.176 614.241)" id="text_29"><use xlink:href="#DejaVuSans-37"/><use xlink:href="#DejaVuSans-2e" transform="translate(63.623)"/><use xlink:href="#DejaVuSans-35" transform="translate(95.41)"/></g></g><g id="ytick_11"><path d="M52.08 584.217h558" clip-path="url(#p7242876ebb)" style="fill:none;stroke:#b0b0b0;stroke-opacity:.3;stroke-width:.8;stroke-linecap:square" id="line2d_47"/><use xlink:href="#m401fdb5ab9" x="52.079" y="584.217" style="stroke:#000;stroke-width:.8" id="line2d_48"/><g transform="matrix(.1 0 0 -.1 22.814 588.016)" id="text_30"><use xlink:href="#DejaVuSans-31"/><use xlink:href="#DejaVuSans-30" transform="translate(63.623)"/><use xlink:href="#DejaVuSans-2e" transform="translate(127.246)"/><use xlink:href="#DejaVuSans-30" transform="translate(159.033)"/></g></g><g id="ytick_12"><path d="M52.08 557.992h558" clip-path="url(#p7242876ebb)" style="fill:none;stroke:#b0b0b0;stroke-opacity:.3;stroke-width:.8;stroke-linecap:square" id="line2d_49"/><use xlink:href="#m401fdb5ab9" x="52.079" y="557.992" style="stroke:#000;stroke-width:.8" id="line2d_50"/><g transform="matrix(.1 0 0 -.1 22.814 561.79)" id="text_31"><use xlink:href="#DejaVuSans-31"/><use xlink:href="#DejaVuSans-32" transform="translate(63.623)"/><use xlink:href="#DejaVuSans-2e" transform="translate(127.246)"/><use xlink:href="#DejaVuSans-35" transform="translate(159.033)"/></g></g><g transform="matrix(0 -.12 -.12 0 16.318 651.589)" id="text_32"><use xlink:href="#DejaVuSans-53"/><use xlink:href="#DejaVuSans-70" transform="translate(63.477)"/><use xlink:href="#DejaVuSans-65" transform="translate(126.953)"/><use xlink:href="#DejaVuSans-65" transform="translate(188.477)"/><use xlink:href="#DejaVuSans-64" transform="translate(250)"/><use xlink:href="#DejaVuSans-20" transform="translate(313.477)"/><use xlink:href="#DejaVuSans-5b" transform="translate(345.264)"/><use xlink:href="#DejaVuSans-6d" transform="translate(384.277)"/><use xlink:href="#DejaVuSans-2f" transform="translate(481.69)"/><use xlink:href="#DejaVuSans-73" transform="translate(515.38)"/><use xlink:href="#DejaVuSans-5d" transform="translate(567.48)"/></g></g><path d="m52.134 689.096 3.723-.09.79-.018 2.482-.057 13.087.034.677-.027.903.048.45-.006.563-.413 1.129-.351.343.004.224-.106.224-.002.224.011 2.37.05 1.015-.142.115.455.562-.243.339-.186.564-.613.227-.296 1.352-4.002 1.016-4.097.227-.519.562-2.395.113-.125.225-1.194.902-4.085.34-1.314.113-1.291.116 1.43.113-3.606.11 1.8.227-1.564.226-.902.115.242.112-3 .109.658.112-.185.451-2.088.114-.183.113-1.526.112.055.112-.732.114 1.463.225-2.161.114.56.113-2.216.111.19.565-2.825.114.312.113-2.013.111.141.339-1.627.112-.39.115.26.225-2.521.111.46.339-1.8.114.553.113-2.446.111.4.565-2.201.114-.008.113-2.742.112.799.338-1.821.114 1.206.225-2.971.111.54.452-1.914.113-.736.114.988.113-3.263.111.796.451-2.196.114 1.207.113-3.412.112 1.338.113-.559.114.627.113-2.878.225 1.327.113-2.325.112.174.564-1.768.114.612.113-2.83.112.903.225-.854.225-1.272.114 1.285.226-4.018.225 1.341.114.464.114-1.78.114.619.226-3.113.112.43.112-1.38.223.072.113-.137.114 1.503.113-4.374.112 1.552.338-1.2.114 1.818.225-3.946.112 1.125.113-.483.113.057.226-1.128.113-.187.114 1.011.112-3.792.112 2.17.113-1.553.113.154.112-.189.113-.628.114 1.492.113-3.368.112.672.112-.015.113-.29.114 1.463.113-4.196.226 2.92.112-3.756.112 1.92.113-1.09.113.094.112-.622.113.075.115 2.672.113-6.975.224 3.627.226-1.514.113-.239.113 1.338.113-3.436.113 3.227.113-4.097.111 1.667.113-.2.113-.44.113.268.113.616.113-3.11.112 1.631.113-.694.113.238.225-.778.114 1.91.113-3.951.112 1.854.113-.535.112.421.113-.56.114 1.417.113-4.36.113 4.03.113-3.68.224 1.856.113-.29.113.246.113-.045.113 2.108.113-3.769.225 2.389.112-.037.113.146.113.6.114 1.748.113-3.485.112 2.15.112-.087.114.293.113-2.939.224 2.112.116 4.613.114-6.02.113 3.583.113-1.503.112 1.645.113-.816.113.454.113 2.692.112-5.546.223 4.766.338 1.025.227 1.806.226-5.285.224 3.037.113.37.113-.352.114 3.27.113-4.792.225 3.738.113-.683.225.555.114 1.738.112-2.863.112 2.047.113-.577.226 1.06.113-.418.34-4.847.223 2.336.113.137.113.352.113-.373.113 1.926.113-3.094.225 2.084.113.06.113-.127.114.335.112-.708.114 2.309.113-3.82.112 2.178.226-6.088.338 3.975.113-3.726.112 2.163.225-.187.113.281.113-.42.114 1.557.112-3.08.225 1.785.339.122.113-.245.114 2.162.225-7.846.112 2.294.113-.667.225.333.114 1.816.113-3.936.112 2.108.113.003.112-.28.226.183.114 2.21.112-4.396.112 2.24.113.011.113-.2.226.493.228-2.093.111-3.316.225 3.218.114 1.728.114-2.243.113.32.115 3.537.113-6.77.111 3.105.112-1.312.449 2.366.114.962.112-3.72.225 2.593.114.78.113-4.798.226 4.499.112-3.896.225 3.024.226.506.112-.12.228 3.228.113-4.096.111 2.735.113-.314.225.988.113.015.113 2.35.114-2.545.338 3.215.113-3.432.226 4.247.113-3.042.224 2.411.225 1.194.113-.155.113.61.114 3.053.113-4.909.112 3.917.226-.546.113.587.228-2.058.111-2.01.224 2.924.338 1.652.115 1.941.113-3.516.224 2.75.338 1.205.113-.29.114 2.418.113-3.191.112 2.328.227-.935.113-4.507.225 3.993.113-2.334.112 2.174.112-.169.451 1.584.114 2.121.113-3.4.224 2.173.339 1.265.115-.277.113-6.129.223 4.167.113.875.113-.478.113.658.116 4.719.114-7.16.224 4.002.113-1.04.112 1.292.113-.018.112-.761.114 3.773.112-4.828.224 3.487.112-.205.113.596.228-1.648.112-1.699.224 2.458.113.134.113.88.113-.28.226 1.872.113-2.26.225 2.372.113-.188.225.927.115 2.217.113-3.182.224 2.394.226-3.44.226 3.98.113-3.016.224 2.548.339 1.521.113-.09.113 1.803.113-1.908.225 2.412.113-.024.113.316.227 2.403.113-2.181.113.373.113-2.535.223 2.042.34 3.534.113-2 .224 2.616.113.008.226 1.268.114 1.09.112-1.314.225 2.085.225 1.263.34-2.446.225 2.373.451 2.174.114 1.282.112-1.28.225 2.152.113-.214.34 3.2.112-2.4.225 2.262.114-1.085.113-2.549.224 2.361.114 1.591.113-1.513.226 3.608.115-1.56.225 1.04.115 2.285.113-4.09.11 3.228.112-1.548.224 2.274.113-.146.113 1.439.113-1.504.113.355.113-1.859.225 1.556.112.599.113-.153.114 1.374.113-1.561.224 1.364.114.694.113-.285.227 1.263.112-1.462.225 1.52.112-.139.113.586.113-.345.113 1.385.113-1.41.112.948.114-.583.113-1.705.224 1.324.228 1.123.112-1.255.225 1.258.112-.014.113.535.113-.204.115 1.528.112-2.323.112 1.893.113-.153.114-.502.113-1.659.339 2.125.112-1.329.224 1.48.113-.163.113.65.112-.326.114 1.572.113-1.948.224 1.404.113.189.113.525.114-.102.114.97.112-1.793.113 1.04.112-1.335.112 1.22.113-.007.226.373.114 1.01.113-1.448.112 1.238.113-.325.112.085.34 1.514.112-1.363.224 1.042.34.66.113-.23.119 2.725.11-7.939.22 5.544.339 1.251.116 2.638.115-3.32.223 2.494.113-.299.113.562.112-.068.113 1.582.112-1.985.224 1.936.226.88.113-.948.226 2.032.113-.971.224 1.354.452 2.707.113-.43.338 2.7.226 1.616.113.71.34 3.199.112.133.451 5.246.113.156.337 3.068.564 3.475.34 1.672.114-5.462.113-.029.112.751.113-.023.225.697.112.11.112-.104.227-.35.337-1.946.566-3.612.224-2.05.113-.727.338-4.295.114-.087.225-2.068.451-2.51.114.251.113-1.641.112.228.225-.746.339-.866.114.117.112-1.481.114 3.217.113-1.536.225.351.112-1.121.113.922.113-1.45.112.392.113-.224.114.84.115-1.476.112.207.116.822.112-2.766.111 1.487.112-.918.111.108.112.279.226-.145.116 2.271.112-3.418.11 1.781.113-.437.113.191.226-.196.114.163.113-1.507.111.478.452-1.13.113-.423.114.488.113-2.212.112.555.337-1.837.113-.367.115 2.457.113-3.33.11.395.566-4 .225-3.48.338-3.42.225-2.93.115.266.113-4.892.113 2.584.225-5.019.225-2.058.114.062.112-3.968.112.782.338-2.966.113-.418.113-1.08.114.33.112-3.79.112 1.016.339-1.973.114 4.174.225-4.311.112 1.422.339-2.392.112-.151.114 1.033.113-3.135.112 1.138.113-.042.112-.798.226.373.113-.348.114 1.681.113-3.7.111 2.202.113-.547.113.401.114 4.392.113-2.469.112 2.275.113-2.454.112 1.498.113-.297.225.151.113-.206.113.356.115 2.711.115-3.905.112 1.179.112-.554.113.347.224-.817.114 2.745.113-4.185.224 2.487.113-3.213.112 1.538.112-.204.114 1.683.113-3.467.112 2.185.113-.942.113.465.113-1.08.112.61.113-.54.114 1.457.113-3.323.111 1.66.114-.061.113-.862.112.27.113-.603.115 1.684.113-6.452.11 2.875.113-.83.113.726.225-.866.114 1.35.113-3.064.225.816.112.02.114-.114.225-1.317.114 1.716.113-3.402.111 1.529.113-.27.113.083.115 1.603.113-4.517.113 3.52.113-3.711.111 1.641.113-.14.113-.86.224.383.113-.04.114 1.63.113-3.749.112 1.846.113-.368.113.776.113-1.038.113 1.725.226-3.174.225 3.688.113-3.306.112 1.96.113-.562.114 2.422.113-3.719.225 1.914.113-.414.112.288.113-.248.227 1.385.112-2.618.225 2.235.113-.395.225.173.114 1.73.225-2.934.112 2.018.113-.016.226.467.113-.181.114 2.206.113-3.46.226 4.678.114-2.806.225.9.115 3.91.113-6.924.11 3.55.112-.695.112 2.94.114-.851.112-1.85.113 3.27.113-1.5.112.308.225 1.671.226 1.248.113-.074.114 2.423.113-2.583.224 2.367.113 1.335.113-.715.227 3.309.113-2.233.224 2.892.113.507.114 1.559.112-1.88.113 3.125.113-1.445.224 2.39.452 3.037.114 1.838.113-1.932.224 2.368.453 4.417.226-2.86.225 2.646.112.039.34 2.956.112-1.72.112 1.777.113-.012.225.982.113-.34.114 1.727.112-2.428.112 1.402.226-.195.114.876.113-2.151.112 1.626.113-2.164.112.892.565-1.876.113.708.113-2.553.112.942.113-1.413.112.234.226-.998.113.714.113-2.525.112.306.114-.894.113-2.8.112.562.112-.524.227.766.113-2.471.111.92.226-.181.113-.499.115 2.23.116-.515.113-4.378.223 2.628.113-1.487.112.736.112-1.673.114 3.034.225-5.953.111 1.625.226-.284.112-.402.227 1.236.113-2.45.225 1.5.113-1.197.113 1.255.113-1.61.113 1.733.113-3.022.111 1.28.226-.235.227-1.612.113-3.226.112 2.73.113-3.117.112 2.032.113-1.027.113.123.225-.424.114 1.839.113-4.368.112 2.163.225-.66.113-.334.227.544.113-2.982.111 1.08.113-.245.114 2.248.114-4.51.111 1.833.113-.375.114.776.113-3.317.112 1.758.113-1.202.112.025.113-1.001.112.538.114 1.134.113-3.407.112 1.015.564-1.21.114 1.919.226-5.57.224 1.878.113-.715.112.173.114 1.716.113-3.497.225 1.597.226-.575.113.124.113.951.113-2.939.112 1.955.112-.657.226.268.114-1.392.113-3.289.113 3.26.113-3.421.111 1.729.113-.292.226.57.113-.593.113 1.775.113-3.331.34 4.472.114-3.416.112.683.115 3.063.113-6.621.11 2.646.226-.14.112-5.78.11 3.362.114.03.114 2.353.113-3.957.112 1.72.113-.217.338.858.114 1.29.112-3.19.225 1.794.113.094.113.489.113-.832.113.196.113 1.712.113-3.175.113 1.722.113-4.009.112 2.267.112-.16.113.407.114 2.04.113-3.314.224 1.378.113-.014.113.429.113-.057.114 2.117.112-3.912.112 2.367.113-.346.113.65.113-.277.227.736.226-3.884.225 2.424.112-.469.113.673.113-.097.113 1.876.113-3.27.112 2.547.113-.954.112.814.113-.074.225.766.114 2.145.113-3.776.113.874.113-3.166.225 2.696.113-.499.113 2.712.113-3.59.112 2.89.113-.575.113 1.892.113-1.59.112.946.114 2.132.113-3.324.225 3.107.113-.56.112.986.113-.337.112.985.114 2.16.226-6.154.224 3.251.34 2.773.113-2.14.45 3.854.113-.168.116 6.226.115-8.336.223 4.87.226 1.138.112-1.137.114 2.211.113-3.943.11.259.225 3.506.338 2.234.115 2.142.112-2.705.225 3.145.451 2.582.114 2.027.113-2.57.225 3.332.114-.785.112-2.063.226 4.23.112-2.435.225 2.973.339 1.823.114 1.806.113-1.779.336 2.62.113.386.113.838.113-.141.114 1.62.112-1.698.114.84.113-2.413.112 2.753.113-1.24.226 2.535.113-1.865.225 1.922.112-.5.225 1.61.113-.268.114 1.727.113-2.348.224 1.518.34.392.226-2.158.112 1.652.113-.174.225.501.113-.182.114 1.822.113-2.449.224 1.652.113.197.113-.094.113.32.113-.404.113 1.585.113-2.64.112 1.466.113-.452.113 1.48.113-2.027.112.359.114 1.64.113-2.504.111 1.302.339-.375.113.104.114.312.112-1.732.112.823.115 1.797.227-2.194.112-.254.113.22.115 1.796.112-5.354.113 5.797.112-6.529.11 3.59.225-.539.114.825.113-2.302.111.374.113-.072.452-1.606.113.665.113-2.508.112.767.113-.564.113.038.225-.982.115.9.112-3.375.112 1.124.114 2.97.113-3.34.338 1.177.112-3.14.112 1.1.34-1.857.225-1.194.113.441.113-2.926.112.617.113-.2.114.992.113-2.93.111.192.115 2.146.113-4.253.112.597.113-.299.45-2.669.114.814.112-3.07.112.955.452-2.485.114 1.098.112-3.842.113 4.717.113-3.927.112 1.237.112-.555.113.077.114.59.113-3.446.112 1.029.564-2.3.114 1.115.113-3.427.112 1.505.112-1.412.113 1.082.113-1.661.113.074.115 3.574.112-6.98.111 2.893.338-1.19.113-.333.113.378.114-.154.113-3.498.112 1.187.112-.581.113.024.113-1.006.113.212.116 4.44.114-9.191.224 3.093.113-3.119.114 3.147.112-8.102.112 7.747.112-6.464.111 2.5.113-.516.112.021.226-1.11.113-.072.114.844.113-4.526.111 1.663.34-1.146.112-1.988.114 2.55.226-5.75.224 2.113.113-.626.113.126.114.592.113-5.075.224 2.036.112-1.245.113.206.113-.161.113-.407.114 2.174.113-5.03.112 3.704.113-2.451.112.423.113-.418.113.69.115 4.32.112-8.745.111 4.376.113-.054.113-.441.113 1.38.227-1.91.113 2.078.113-4.448.224 1.836.113-.855.112.7.113-.17.114 2.076.113-4.296.224 1.995.113-.34.114 2.46.113-5.532.113 5.39.112-5.243.112 2.984.113-1.031.113.922.113-1.91.113.083.113-.256.114 2.23.113-4.814.224 2.734.113-2.067.112.958.113-.553.114 2.508.112-4.543.114 4.222.113-6.315.224 3.245.113-1.628.112 1.045.114 2.22.113-5.274.112 2.585.226-.068.113.266.113-.682.116 7.787.113-17.57.223 12.043.228-3.737.112.385.117 7.381.113-20.76.22 11.049.112-.675.112.588.113-.297.113.232.114 2.545.112-5.388.112 2.988.113-.172.113.995.113-1.531.227 2.323.112-3.74.225 2.724.112-.125.114 1.016.113-1.09.114 5.11.113-9.71.11 5.45.114.046.113.597.113-1.08.34 3.594.112-4.27.224 2.68.113-.301.225.6.114 2.827.113-5.116.112 3.198.113-.105.114.737.113-4.632.339 6.625.113-5.788.224 3.896.113-.481.113 1.833.113-1.605.113 2.568.113-4.087.111 3.633.113-.58.226 1.113.112.085.116 3.388.113-9.25.223 4.99.338 1.544.113-.163.114 2.879.113-4.007.225 3.362.113.763.113-.517.112.54.114 3.07.113-5.252.112 4.195.113-1.36.226 2.255.112-4.121.226 6.05.113-5.055.225 3.266.112.233.226 1.699.114 1.704.113-3.406.224 2.95.113.476.228 3.605.116 1.885.112-7.944.112 7.35.226-5.354.334 3.321.114 3.954.114-4.501.224 4.082.113-.719.34 5.086.112-3.558.224 3.693.452 2.853.115 2.328.113-6.82.223 5.655.113 1.942.113-.315.227 4.512.112-3.187.112 3.917.113-.01.452 5.978.113-1.837.224 3.212.113.926.114-.872.113-2.852.226 5.214.112-1.78.225 3.626.114 1.657.113-.897.226 3.716.113-1.872.224 2.569.225 1.732.227 2.32.113-1.866.113 1.571.113-2.332.224 2.907.226 1.349.114 1.376.112-1.337.225 2.265.113.314.34 2.575.112-1.87.225 2.113.113.39.113-.108.112.854.114-.2.226-1.358.224 1.749.339.768.114 1.86.113-3.243.224 2.237.226.135.112.4.114.998.113-2.003.226 2.798.114-1.215.115 1.301.225-4.216.114 4.048.112-6.586.11 4.431.112-.767.112.87.113-.05.112.144.114 1.148.113-1.958.225 1.34.113-.487.113.266.113-.306.112.254.114.878.113-2.003.226 1.132.113-2.403.225 1.308.113.809.113-2.142.225 1.207.112-.604.226.258.114.882.112-2.278.112 1.073.339-.834.225-.195.115.845.113-4.715.223 2.358.113-.458.113.137.113-.37.115 1.318.113-2.757.112.17.112.547.226-1.36.113.05.112-1.004.113 1.53.113-2.505.112.467.225-.555.115 1.705.113-3.354.113 2.396.112-3.544.112 1.438.338-1.13.113-.064.114.191.113-2.5.112.95.564-2.185.114 1.033.112-3.1.226 1.655.113-2.782.225 1.1.114.227.112-2.624.224 1.055.113-.396.113.083.113-.37.114 1.564.113-3.92.111 1.888.339-.982.113.257.114.662.118 1.856.113-12.993.222 7.603.225-2.905.11.776.115 2.476.112-4.405.112 2.296.112-.643.113.199.226-.759.113-.28.114 1.528.112-3.7.112 1.98.226-.726.227-.322.114-1.224.112-3.26.111 2.524.113-.448.113.415.113-1.226.227 1.595.113-3.96.223 2.224.113-.7.113.087.226-.51.114 1.908.112-4.053.112 2.15.114-.785.113-3.163.112.27.227 1.988.112-3.357.112 2.036.113-.253.113.06.113.782.113-1.314.113.18.114 1.582.113-4.202.111 2.293.113-.87.112.802.113-.267.113.177.114 2.036.226-6.344.111 3.31.226-.468.112.405.114 1.779.113-3.93.225 2.135.225.084.226.428.114 1.286.113-2.925.225 1.559.112-.27.113.727.114-.459.114-.998.111-1.991.112 2.485.113-.565.226.917.113-.278.114 2.264.113-3.983.111 2.222.113-.26.338 1.044.113-.348.117 6.296.113-12.108.11 8.895.117.114.113-7.53.338 8.111.112-8.465.11 5.152.112.017.112.302.113 1.07.113-.156.113.33.113 1.88.113-3.479.225 2.726.113.024.112.231.227 2.186.113-2.974.225 2.286.112-.382.114 3.424.113-3.95.113 3.945.113-3.067.224 2.374.113.612.113-.223.226.895.113 1.865.113-2.608.225 2.124.113.435.114-.045.112-2.995.113 4.31.113-3.577.225 2.941.112.119.226 1.382.113-.034.114 2.847.113-3.343.225 2.47.113.918.113-.258.112.214.114 2.176.112-2.059.112 2.246.113.023.114.658.112-2.467.226 4.054.113-1.727.225 1.96.112.388.453 3.739.112-2.071.225 2.716.114.845.112-.202.113.722.114 1.734.225-3.896.225 2.337.34 2.677.112-1.891.225 2.075.225.93.34 2.32.112-1.807.225 2.068.113-.255.229 3.224.117-1.035.112-6.643.222 4.713.113.828.112-1.52.337 2.494.113-1.473.224 1.48.113-.097.113.55.113-.771.114 2.593.113-4.009.111 2.087.113-.172.114.328.113-2.414.226 2.634.113-2.36.112 1.08.225-.201.113.32.113-.294.112.018.115 1.299.112-3.01.112 1.588.112-.517.114.692.113-.9.226.736.113-1.892.112 1.672.113-2.423.112 1.159.113-.173.113.083.114 1.053.113-2.45.224.5.113-.196.113.65.226-1.395.114 1.106.113-2.254.112.22.225-.28.112-.212.114.64.225-3.02.113 1.539.112-1.41.113.326.338-.884.114.692.113-2.792.112.955.225-.847.114.444.113-1.859.113 1.925.113-3.173.112.725.113-.214.114.725.113-3.642.111.53.114 1.176.112-3.075.112 1.21.226-1.176.338-1.353.115 1.303.113-3.748.111 1.003.113-.052.225-1.456.113-.021.114.685.113-3.649.111 1.362.116 3.293.115-5.658.111.872.113-.832.114 1.417.224-4.796.11 1.36.113-.508.113.267.225-1.227.114 1.462.113-3.854.225.901.113-.308.225-1.507.114 1.858.226-3.706.111 1.312.113-.07.34-1.818.113 1.57.113-3.877.112 1.437.113-.102.112-1.417.113.358.112-.259.114 1.357.113-4.038.112 1.816.113-.92.227.72.113-3.436.113 1.948.112-3.158.112 1.11.225-.435.339-1.777.114 2.943.114-5.468.111 1.358.113-.564.113.45.113-1.57.112.01.114 1.462.112-4.309.113 2.865.113-4.373.112 1.644.338-1.733.114 2.46.113-5.39.111 2.11.226-.778.113-.657.113.326.114 1.455.113-5.363.224 2.12.113-.497.113.023.113-1.01.115 3.422.112-9.403.111 4.635.226-1.238.112.35.113-.74.114.692.113-.15.113-3.167.224 1.286.226-.72.112.064.115 2.768.113-5.839.111 2.517.113-.513.114.957.113-5.56.113 6.429.115-1.179.226-4.056.112.512.113 1.538.112-3.7.337 5.414.113-6.862.111 4.024.113-1.09.113.287.225-.15.114 2.361.113-4.376.226 2.596.113-5.052.225 3.209.112-1.29.114 3.377.113-5.217.225 2.52.113 1.133.113-1.962.226 3.15.113-4.751.225 2.891.112-1.389.225.645.113.18.115 3.844.113-10.345.224 6.027.113-.429.113.02.112.288.114 1.77.113-3.718.225 2.756.113-.058.226-1.028.114 3.382.113-5.31.224 2.642.112-.58.114.864.113-4.772.225 5.134.113-4.19.225 3.503.113-1.529.225.846.114 3.028.113-5.455.111 3.368.113-.081.339 1.392.114 2.05.113-4.632.226 3.237.113-5.64.111 3.866.113-1.21.226 4.019.113-4.706.112 3.318.113-.643.113 1.288.113-.234.112.45.114 2.076.113-3.46.224 2.589.113.075.113 1.155.113-.727.113.887.117 7.795.113-20.308.11 14.192.114-2.856.113 1.445.113-1.052.227 5.252.112-10.416.222 8.275.113-.276.34 3.27.112-4.12.112 3.587.113-.154.225 1.383.114-.048.113-3.688.113 4.686.113-3.995.225 4.57.113-2.01.112 2.85.113-.943.114 3.163.113-3.514.224 3.12.451 2.667.114 2.345.113-2.41.113.963.112-3.05.225 4.14.113.127.115 4.768.112-6.693.224 5.742.339 2.503.114 3.29.113-3.467.225 3.718.338 2.465.113.503.114 2.474.113-6.995.224 5.498.225 1.973.227 3.976.113-2.08.337 4.453.113.275.34 4.068.112-2.392.225 3.057.227-4.585.225 5.485.114-1.698.676 7.295.113-1.797.224 2.6.226 1.797.113.452.226 2.455.113-1.591.113.854.113-2.105.226 5.1.115-2.093.114 3.584.113-4.381.224 4.006.112-.479.111.192.226 3.352.113-2.053.111 2.022.113-.042.226.882.113.43.112-.014.115.793.113-4.8.224 3.122.225.314.113.527.115 1.331.113-2.08.224 1.571.113.021.113.568.112-.137.113.425.114 1.003.112-1.779.112 1.274.113-.087.113.605.114-.558.113-1.997.112 2.122.113-1.643.225 1.187.338.267.114 1.594.113-2.54.225 1.574.113.409.113-.476.113.395.113-.158.114.899.112-1.933.113 1.538.112-1.815.225.94.112.056.114 1.111.113-2.217.112 1.623.113-.778.113.521.113-.722.113.754.113-.862.113 1.405.113-2.659.111 1.191.113-.047.113-.236.114.328.113-.994.114 1.897.113-5.048.11 2.428.113-.333.113.262.113-1.107.227 1.197.112-2.813.112 1.324.113-.2.226-.945.225-.439.114 1.01.113-2.983.111 1.01.226-.388.114.021.113-2.712.116 4.729.112-9.09.11 6.31.228-1.945.113.272.113-1.117.114 2.935.112-6.95.222 4.006.225-.923.226-.189.114.761.113-2.284.112.01.112.715.113-.815.113.296.114-.16.226-3.41.111 1.401.226-.512.113.227.113-.26.113-.633.114 1.047.113-2.676.112.977.338-1.214.112.09.114 1.676.226-5.395.224.646.226-.276.114.92.113-2.928.224.842.226-.504.113.007.113-.7.114 1.836.113-4.005.112 1.501.113-.698.113.854.113-2.031.113.682.225-3.334.225 1.902.113-1.98.112.548.113-.004.113-.588.114 1.643.113-4.301.111 2.431.113-.953.113.045.112-.196.113.104.114.85.113-2.661.225.904.114-.212.113-4.383.226 3.518.112-3.88.224 2.408.226-.615.226.085.114 1.865.113-3.583.112 1.477.112-.235.113.662.113-.328.113-.703.113 2.671.226-6.042.111 1.847.113-.113.113.623.231 2.36.113-6.874.11 3.966.226-.2.224-.826.112.99.113 2.08.113-3.458.113 2.23.112-1.006.225.658.114-.172.226-3.283.224 1.792.113-.165.226.555.113-.186.114 1.358.113-3.136.112 2.1.112-.087.113.39.113-.458.227 1.665.112-2.64.112 2.134.114-1.352.113-4.095.338 5.209.113-4.537.112 2.875.113-.438.451 1.493.114 1.316.113-3.47.224 2.973.227.73.113-1.11.113 2.87.226-7.168.224 3.661.113-.605.339 3.28.113-2.967.224 2.371.226 1.293.113-.028.114 2.52.113-3.838.224 2.966.226 1.086.114-.61.225-3.086.225 2.775.113.867.113-.078.225 1.386.114 2.43.113-3.08.112 2.645.113.02.338 2.102.114 2.273.113-2.355.224 2.609.227-3.945.111 2.515.117 5.777.113-9.954.224 9.457.114-2.191.113 1.455h.113l.227 3.148.11-4.349.224 5.237.112.085.34 3.766.339-5.257.224 2.965.34 3.018.112-1.765.225 2.709.226 1.485.113-.132.114 2.22.113-2.448.224 2.668.338.968.115.136.113-5.053.11 3.313.114-.072.45 1.904.114 1.675.113-2.122.225 2.062.113.343.113-.078.228 1.085.112-1.929.112 1.605.112-.009.113.567.226-4.1.226 3.562.113-2.278.225 1.673.112-.503.34 2.078.112-2.019.225 1.24.339.191.114 1.623.112-3.335.113 1.537.113-2.562.225 1.53.112-.302.113.413.114.995.113-2.478.225 1.714.112-.837.113.577.113-.169.113 1.016.113-2.628.112 1.317.113-.592.226.345.113-.155.114.776.113-4.6.223 2.135.226-.373.115 1.848.114-2.737.114 2.581.113-5.148.111 2.925.337-2.692.226 1.445.112-2.453.112.865.113-.088.114.145.112-2.795.112 1.166.113-.58.114 1.565.113-3.692.112 1.183.225-.93.113-.382.113.238.114-.07.113-2.751.112 1.03.226-1.118.225-1.216.114.632.112-3.068.113 2.888.113-3.32.112.73.112-.075.226-.843.114 1.236.113-3.17.112.043.113.486.113-1.571.112.228.113-.6.114 1.397.113-4.067.111 1.382.113-.116.114.218.226-2.045.114 2.902.225-3.975.111.197.113 1.316.113-1.92.112.323.113-.337.114 1.957.113-4.947.112 2.153.225-1.467.226-.351.114 1.297.113-4.086.111 1.585.113-.753.113.007.114 1.86.114-4.44.225 2.347.112-3.76.112 1.404.113-.235.113.562.113-2.877.226 2.257.113-4.145.112 1.399.113-.222.113-1.088.112.333.226-1.283.114 1.71.113-5.215.112 4.135.113-4.716.112 2.197.226-1.087.116 4.47.114-9.81.223 2.313.113-.54.114.266.113-2.474.113 3.863.112-9.174.223 4.683.112-1.352.113.246.226-1.28.113 1.726.113-4.185.113 4.834.113-4.686.112 2.182.226-1.153.114 2.244.113-6.05.111 2.455.113-.517.113.266.113-.206.113-1.365.113 2.153.113-4.666.112 2.03.339-.939.113 2.839.113-4.582.113 3.553.112-4.226.112 2.563.113-1.059.113.281.225-.32.114 2.435.114-4.56.111 1.266.113-.348.112.48.113-.044.113-.252.228 1.767.113-5.023.113 3.953.113-5.315.111 2.497.113-1.291.112.234.114 3.983.113-8.007.224 4.186.113-.888.113.237.112-.468.114 2.888.114-4.835.112 1.832.225-1.133.225.54.114.115.226-6.5.111 3.2.114-.216.226.102.113-1.023.113 2.83.113-5.342.112 3.025.112-1.08.113 1.51.113-1.158.112.288.113-.088.114 3.078.113-4.883.112 1.653.113-.092.112.694.114 2.128.113-4.94.113 5.649.113-6.622.111 4.176.113-.896.113.55.115 3.466.114-3.438.114 3.732.113-8.666.11 5.155.337-1.534.339 5.06.113-4.894.113 4.289.113-6.065.224 3.3.113.31.114 2.673.113-4.193.224 2.414.113.22.226 1.06.114 2.142.113-5.017.224 3.9.113-.381.113 1.536.113-1.619.112.981.115 2.972.113-9.173.224 6.924.113-1.91.112 1.192.113-.012.114 3.022.112-4.18.112 3.007.113-.276.452 2.038.114 2.02.112-3.97.225 3.937.113-.626.114 1.471.113-5.153.113 6.138.113-5.374.336 4.864.113-.725.227 2.59.113-3.425.111 2.956.113-.563.226 1.28.225.926.115 3.118.112-4.958.113 2.109.113-4.533.112 3.764.113-.288.227 2.711.112-3.677.225 3.224.113 1.042.113-1.075.112 1.3.113-.136.113 2.708.113-3.63.112 2.75.113-.328.226 1.457.112-.17.116 3.418.113-8.56.223 4.774.338 1.69.117 6.242.112-12.79.11 10.274.115-2.247.113.428.114.906.112-.767.114 2.929.223-4.377.224 4.837.113.038.113 1.31.113-.516.113 3.355.226-4.456.225 2.294.34 4.753.112-3.574.112 3.488.113-.491.339 3.13.113.219.113 2.508.113-2.226.112 2.797.113-.667.113-1.575.339 6.34.113-2.372.225 4.108.112-.568.225 3.068.113 1.096.114 2.817.113-2.218.224 3.985.454 5.776.226-3.79.224 4.063.338 4.642.113-1.39.225 3.742.113.409.452 4.643.113-1.132.224 2.227.227-2.86.226 4.18.113-2.247.225 2.665.338 1.11.113.459.114 1.369.112-1.959.225 1.796.113-.787.113.819.112-.716.114 1.316.113-2.058.112.515.114 2.266.112-1.899.112.784.113-.08.114 1.056.113-2.608.111.503.226-.238.115 1.761.115-3.157.113.994.225-2.718.112 1.066.112-1.183.112.67.112-1.288.228 1.367.113-6.408.11 3.51.112-.805.113.14.226-.347.114 1.562.113-2.985.224.982.226-.27.112-.072.113.075.115.845.112-2.374.112.886.113-.047.114.744.113-2.517.225 1.716.113-2.707.224 1.197.226-.816.226-.604.114 1.033.113-2.387.112.273.45-.952.116 2.51.112-5.76.225 4.11.114-3.578.112 1.095.113-.844.113.893.113-2.627.111.45.112-.168.113.037.226-.985.113-.284.114.719.113-3.155.111 1.142.226-.494.226-1.438.113 1.042.226-3.244.112 1.094.225-1.034.113.136.114-.872.114.42.224-2.643.113.062.112-.154.226-1.117.113 1.134.114-3.196.111.31.113.653.113-1.302.227.215.225-3.338.112 1.698.113-1.057.113.267.112-.593.113.056.113.284.116 2.81.114-5.572.224 1.61.113-.2.113.454.113-1.525.114 2.962.111-6.963.11 4.82.113-.225.114.274.113-4.03.225 3.555.113-3.29.112 1.796.113-.5.225.293.226-.289.114 2.393.113-4.543.112 2.36.226-.862.112-.02.113.36.114.966.113-3.017.113 1.345.112-3.893.112 2.739.113-.984.113.674.113-.998.113 2.255.113-3.556.112 2.32.113-1.044.113.5.112-.498.227 1.562.113-2.976.112 1.046.112-.094.113.25.113-.098.114 1.518.226-4.942.225 2.237.113-.883.113.762.112-1.887.226 2.854.113-3.423.225 2.374.113-1.642.112.95.113-.273.114 1.984.113-3.615.112 1.992.113-.72.113.09.113-3.62.339 3.707.112-3.812.225 2.476.113-.169.113.535.113-.704.114 2.824.113-4.85.223 2.683.113.7.113-.489.227 2.042.226-3.007.224 1.863.338.535.114 2.281.113-4.024.225 2.611.113 1.009.115 2.11.114-2.696.115 3.865.112-7.32.11 4.084.113-.215.112.633.112-.522.112 2.103.114-.48.225-2.558.112 2.72.113-.595.338.987.114 2.245.114-2.646.677 4.356.112-2.97.225 2.196.113.546.114-2.943.111 1.736.113-.114.113 2.322.113-2.733.225 2.618.113-.44.113.853.113-.513.113 2.758.113-3.123.224 2.245.339 1.162.114 2.172.113-3.342.114 3.441.113-5.54.224 3.776.113.671.113-.083.113 2.07.113-2.763.225 3.714.113-1.047.225.905.114 2.106.112-2.362.225 2.507.113.194.34 1.651.225-2.606.225 2.682.339 1.69.113 1.246.113-1.982.112 2.051.113-.078.338 1 .114 1.967.112-2 .225 2.255.114-.755.113-2.172.224 2.383.114 1.35.113-1.855.225 2.107.113-.495.225.97.117 4.888.114-7.042.223 3.784.227.93.112-.555.113 1.124.224-1.252.224 2.051.114-.129.113-1.92.225 3.345.113-2.92.112 2.352.113-.515.452 2.325.113-1.829.225 1.719.113-.384.112.277.114.626.339-3.059.224 1.6.113.73.113-.685.112.53.114 1.336.113-2.184.226 1.93.112-.764.338.734.114 1.385.113-2.652.224 1.58.113.043.115 1.058.113-2.829.113 1.94.113-1.917.111 1.165.226.08.112-.22.113.044.113 1.478.113-2.363.112 1.448.451-.471.113.217.114 1.038.113-2.043.113 1.309.113-2.817.111 1.89.114-.204.112-.639.114 1.942.114-2.904.223 1.284.226-.173.227.785.112-2.317.225 1.511.226-.248.113-.582.112.274.115 2.073.113-4.765.11 2.859.114-1.127.225.435.113.006.114.975.113-2.347.224 1.002.113-.15.114 1.456.115-1.332.114.604.225-2.313.112 1.158.112-1.242.114 3.3.112-5.652.224 4.613.113-2.669.112 1.223.225-.316.226.427.114.596.112-2.208.112 1.332.113-.358.113.355.113-.145.113.145.113-.5.114 1.055.112-2.205.113 1.748.113-2.232.225 1.286.113-.695.113 1.547.113-2.61.112 1.285.112-.105.113.385.113-.43.113.355.113-.21.113 1.294.113-2.247.225 1.301.113-.206.227.496.115.48.111-4.359.111 3.717.226-.707.113.1.113.358.114 1.053.113-2.351.336 1.357.113.085.226-.184.114 1.864.113-3.145.111 1.781.113-.104.114.973.113-2.576.225 2.723.113-2.066.225 1.196.112.058.113.38.113-.014.114.19.114 1.232.113-2.818.224 1.83.112-.165.113.057.227 1.205.112-1.794.113 2.118.113-1.95.225 1.079.113.21.113.978.113-1.843.112 1.226.113-.21.45.716.116 2.618.115-3.624.224 1.347.113-.203.113.766.112-1.352.114 2.711.112-4.222.224 4.017.113-2.162.224 1.255.113-.039.114 1.342.113-2.163.112 1.396.112-.245.339.417.114 1.703.113-2.758.225 1.527.114.717.112-2.565.226 2.63.113-2.004.112 1.278.112-.4.226.689.113-.13.113.057.113 1.17.113-2.22.225 1.44.113-.172.112-.418.227 1.528.226-2.943.111 1.471.113-.053.113.39.114-.386.114 1.401.112-2.756.112 1.625.113-.397.113.647.113-.935.112.58.113-.257.113 1.311.113-2.253.225 1.218.112-.337.113.242.113-.024.115 2.152.113-4.525.11 2.658.114-.523.112.274.226-.503.112.399.115 1.2.113-2.64.224 1.301.113-.233.113.312.113-.29.114 1.057.112-2.442.224 1.27.113.302.114.695.113-2.313.113 2.316.112-2.151.225 1.444.113-.636.226.125.112-.033.114 1.362.113-2.557.339 2.862.228-1.526.115 1.588.112-4.21.113 5.185.112-6.24.221 3.86.113-.27.112.09.114 1.19.113-2.333.225 1.641.113-.532.226.05.113.957.113-1.803.224 1.021.226-.034.113.126.115 2.896.114-5.15.11 2.478.113-.03.225.344.113-.293.113.206.114.743.112-1.949.225 1.645.113-.659.113.195.112-.072.114 1.237.113-2.14.112 1.21.113-.29.112.17.114 1.42.113-2.684.227 3.177.112-3.782.112 2.722.113-.688.226.17.113-.258.113 1.41.113-2.778.224 1.653.113.28.226-.32.114 1.527.113-2.826.112 2.752.113-1.847.224 1.013.226.035.113 1.076.114-1.92.112.924.112-.13.113.338.113-.245.113.059.114.955.113-2.124.224 1.253.113-.151.113.255.225-.087.115 2.308.113-4.59.223 2.746.113-.364.226.258.114 1.07.113-1.98.112.961.112-.198.113.18.113-.15.112.301.117 3.78.115-6.589.11 2.782.113-.096.112.108.227.523.112-1.795.115 6.378.113-8.575.22 4.534.113.343.113-.129.113-.317.114 1.405.113-2.23.112 1.465.113-.42h.338l.113 1.211.113-1.832.34 2.138.112-2.086.225 1.535.114.358.112-1.79.112 1.019.113-.22.112.516.113-.422.113.212.114 1.2.113-2.113.225 1.832.113-1.363.112.586.113-.134.112.187.228 1.185.112-1.4.112 1.277.113-.034.227.574.114.363.112-1.993.225 1.18.112.063.113-.179.112.099.114 1.281.113-1.933.224 1.09.113.176.113-.251.114 3.238.113-2.22.113 2.018.112-1.993.225 1.375.113-.411.112.391.113-.105.114 1.547.113-2.538.112 1.506.226-.05.113-.066.112.51.113-.189.114.857.112-1.438.226 2.956.113-1.478.225.843.114 1.275.113-2.464.111 1.735.113-.2.338.694.114.957.113-1.423.34 2.486.113-1.154.113.3.23 1.415.111-4.102.22 2.87.113.817.113-.231.227 1.488.112-1.24.225 1.359.113.05.113.568.112-.263.113.45.114 1.058.113-1.21.224 1.12.227.425.113-1.636.113 2.105.113-1.37.337 1.475.113.539.113-.061.114.81.112-1.099.225 1.246.338.89.113.258.114.912.113-1.195.226 2.293.113-1.16.112 1.392.112-.447.114 1.774.113-1.67.225 1.35.226.473.227 1.245.112-1.123.224 1.446.113.203.226.61.112.225.114.975.226-.718.225 1.022.225.573.114.982.113-.817.337 1.446.453 1.442.113-.76.224.97.113.165.112.415.115 1.05.225-.754.224.9.453 1.072.113-.799.111.777.113.003.451.682.117 1.858.114-2.72.222 1.825.114-.386.113.3.115 1.042.223-1.499.223 1.236.226.258.113.009.113.124.114.532.112-.84.112.733.113-.182.225.404.113-.06.229 1.203.112-.452.111.62.226-.102.226.422.113-.581.224.35.113-.155.113.247.226-.316.114.623.113-1.075.224.556.113-.17.113.046.113 1.17.226-.845.112.545.113-.358.113.094.113-.069.113.107.113-.08.114.311.113-.894.111.47.113-.048.112-.22.113.326.113-.189.114.382.113-.687.224.387.114 1.737.113-.94.225.773.113-.649.225.375.113-.077.338.138.114.538.113-.917.224.558.34.23.113.29.113-.495.112 1.788.113-.59.225.595.112-.037.114.489.113-.54.225.616.113.036.452.913.113-.475.112.6.113-.065.113.672.114-.202.23.768.113-1.48.109 1.27.112-.091.336.93.227.736.113-.188.225.738.112.114.34 1.078.112-.11.339 1.542.113-.243.226.98.113-.06.337 1.023.225.488 1.13 2.375.225-.293.337.855 1.018 1.878.112.045.337.58.113.159.115-.569 1.239 1.34.903-.216.113.625 1.241-.568.225-.163.45-.32.117.095.225-.325.34-.134.114.888.446-.54.565-.652.225-.354.566-.525.113-.509.11.032 1.355-1.76.113.047.225-.413.226-.181.114.109.224-.401.114.003.224-.423.567-.444.113-.56.111.093.45-.48.114-.036.113-.473.113.503.113-.516.112.048.338-.427.114.044.113-.599.112.127.338-.412.113-.118.114.123.113-.526.112.084.45-.442.115.186.225-.673.112.226.113-.203.112.033.226-.155.114.135.113-.533.224.192.226-.132h.113l.113.206.113-.465.227.58.114-.488.115.126.112-1.105.226 1.014.112-.891.222.412.225.228.113.028.114.258.113-.432.224.345.226-.026.339.493.339-1.048.224.51.114.053.114.333.113-.465.224.495.338.354.114.287.113-.267.225.5.338.403.227-.589.112-.024.225.583.339.491.114.464.113-.274.337.734.452.847.112-.017.225.532.227-.756.226.853.112-.186.225.673.338.588.114.282.113-.083.45.895.226.277.114.268.113-.084.225-.541.225.28.339-.377 1.24 4.545.344.852.114.046.112-.805.222.039.562.805.225-.157.566-1.016.111.118.227-1.394.112.023.227.975.337 1.058.226.23.227-.311.562-1.33.226-.165.338.345.227.96.451.633.451.405.34.058.224-.065.226.168.225.166.452-.545.338-.213 1.017.702.337-.087.114-.16.451.255.45-.032.677-.03 1.018.21 1.803.033.227-.395 1.014.246.902.106.227-.375.788.184.566.086h0" clip-path="url(#p7242876ebb)" style="fill:none;stroke:#2563eb;stroke-linecap:square" id="line2d_51"/><path d="m153.96 689.068 3.244-12.066.776-2.871 2.933-10.879 3.201-11.765.734-2.65 3.398-11.982 1.524-5.096 2.566-7.955 3.173-8.23 1.086-2.258.93-1.674 1.256-1.823.93-.999.819-.637.24-.116.62-.246.508-.079.902.096.466.192.352.183 1.946 1.925.903 1.304.55.93.197.32.536 1.733.62 2.45 2.468 8.235 1.707 3.845 1.255 1.571.465.315.24.081.381.07.48-.064.352-.158.155-.07 1.679-1.926 1.085-1.986.973-2.168.635-1.525.338-.882.437-1.118.776-2.038 2.073-5.432.423-1.054.705-1.715 2.496-5.15.663-1.08.55-.807 2.03-2.018.509-.276.55-.206.38-.067.818.03.395.128.282.084.494.262 1.1.911 1.636 2.11.705 1.193.818 1.54 1.678 3.682.465 1.153.776 1.949 4.767 12.052 1.17 2.228.466.715.55.72 1.396.953 1.057-.16.635-.48.268-.291.663-.933.902-1.733.466-1.126.662-1.785 3.16-11.217 1.325-5.481.55-2.38 5.923-23.904 1.213-3.97.508-1.556.705-1.99.747-1.92.31-.719.381-.85 1.41-2.642 1.594-2.027.155-.13.79-.555.042.05.07-.072.113-.057.127-.069.028.021.24-.088.508-.08.155.057.197-.032.395.082.734.356.282.214.225.15.198.264.028-.085.043.091.281.312.043-.025.14.22.198.225.197.219.31.494.17.214.818 1.37.183.391.663 1.351 3.046 8.411.945 3.203 1.044 3.825.902 3.535.31 1.217.508 2.1.437 1.802 1.707 7.254.507 2.177 3.16 12.987 1.79 6.175.832 2.386 1.368 3.014.931 1.354.592.536.07.054 1.129.262.465-.185.127-.043.226-.134.395-.342.155-.149.902-1.15.381-.658 1.678-3.426 1.41-3.507.55-1.432.931-2.48.198-.502.55-1.448.31-.838 2.736-6.48 2.651-4.568.028.022.043-.095.084-.111 1.989-1.814.028.065.042-.085.198-.113.042.068.042-.093.155-.1.029.058.042-.025.197-.1 1.41.006.269.087.817.393.198.21.042-.05.043.058.112.105.156.121 1.128 1.185 1.833 2.81.24.448.31.586.465.953 1.791 4.102.635 1.604 1.199 3.141 1.255 3.32 3.088 7.247 1.439 2.233 1.1.935.648.166.31.018.283-.105.31-.138.592-.444.198-.263.07-.06 1.678-2.976.55-1.39.423-1.174.903-2.817.31-1.046 3.906-15.534.31-1.366.58-2.486 1.17-4.965.662-2.772.437-1.785.663-2.693.113-.404 2.341-8.595.155-.494.508-1.7.31-.898.663-1.98.127-.325 1.354-3.548.042.101.197-.52.438-.923.578-1.127.042.045.155-.382.691-1.083.085-.068.508-.737.042.042.042-.042.226-.3.155-.114.127-.174.028.058.24-.26.07.059.127-.238.042.088.029-.122.042.038.395-.265.042.005.113-.108.113-.007.282-.095.113.075.028-.176.084.078.113-.055.085-.063.042.071.466.03.197.138.028-.199.085.058.155.13.042-.092.028.267.085-.161.155.178.043-.062.155.104.112.101.043-.062.042.087 1.283 1.176.282.463.029-.108.042.164.55.788.197.391.029-.04.394.698.198.365 1.72 3.84.226.708.155.365.324.903.381 1.11.127.324.184.623.592 1.874.423 1.372.155.601.197.565.31 1.302.043-.024.24.89.225.9.085.198.155.658 3.399 13.782.507 2.234.029.022.352 1.566.466 1.987 3.793 15.208.226.745.79 2.576 1.438 3.787.042.034.155.416.155.255.268.548.043.023.197.398.55.814.55.628.028-.08.043.116.31.23.197.136.043-.08.07.098.085.018.183.092.198-.042.126.047.184-.035.127-.017.155-.11.084.021.141-.121.043.061.155-.144.437-.315.31-.32 1.904-2.997.31-.709.17-.335.507-1.129.226-.568.197-.447 2.116-5.432.183-.539.282-.738.55-1.448.07-.193.353-.932.268-.631.198-.519.24-.636.028-.008.352-.902.663-1.587.24-.537 1.057-2.266.029.039.197-.557.042.075.198-.467.197-.344.268-.525 1.946-2.753 1.016-1.033.042.054.127-.008.113-.169.028.064.042-.135.042.08.198-.174.197-.088.029-.096.042.042.042.091.042-.154.043-.017.028.089.028.023.127-.14.042.042.043-.09.197-.023.042-.094.07.06.043.1.028-.166.085.124.042-.112.113.01.042.072.043-.068.225-.008.043.08.042-.058.113.006.197.06.24-.001.113.068.507.236.029-.05.042.092.042-.045.24.182.113.073.113.067.084.102.043-.091.028.178.042-.028.042.101.085-.053.028.11.155.129.156.23.042-.086.042.054.113.253.085-.038 1.79 2.474.043-.067.028.288.085-.088.197.415.592 1.153.029-.103.042.234.042-.012.155.374.24.538.028-.052.282.71.07.065.311.745.085.118.818 1.94.112.25.438 1.132.112.223 1.791 4.702.24.629.028-.025.282.844 2.341 5.886 1.834 3.662.084.086.226.395.042-.025.043.102.38.484.86.803.198.048.113.166.042-.034.818.154.042-.106.085.055.028.04.043-.08.197-.081.042.09.028-.027.085-.167.042.033.184-.034.127-.212.042.112.028-.183.113.034.17-.28.07-.013.155-.216 1.297-2.107.198-.55.028.034.042-.115.042-.002.156-.452.55-1.424.14-.406.198-.51 2.976-10.473.38-1.55 1.256-5.248 1.325-5.727.198-.797.507-2.169.423-1.791.593-2.489.423-1.757.663-2.688.24-.909.239-.96.93-3.648.029.16.042-.35 1.678-5.883.043.027.042-.01.155-.647.042.082.156-.651.352-1.036.62-1.813.043-.029.268-.762.352-.884.198-.543.042.117.141-.54.198-.341.197-.591.042.053.198-.523.042.05.028-.083.17-.442.31-.606.07-.164.043.172.155-.505.042.105.155-.461.043.04.028-.252.084.043.226-.533.085.058.155-.308.042.04.197-.397.07-.096.043.251.085-.6.07.159.043.074.028-.287.085.095.282-.34.07-.093.113-.139.042.12.043-.214.155-.249.042.095.042.103.028-.164.043-.004.042-.166.028.214.043-.133.084-.07.155-.157.043.136.042-.23.028.075.042-.025.071.132.042-.236.043.079.042-.03.155-.267.085.3.07-.161.042-.147.029.172.042-.11.085-.018.042-.067.028.198.042-.154.043-.137.028.23.042-.099.085-.071.113.1.042-.186.085.098.14.16.085-.262.042.164.24-.003.113.171.028-.18.043.016.042.176.042-.057.043-.08.07.072.155.066.282.22.028-.148.043.134.084-.051.07.144.283.18.028.187.085-.082.225.15.127.19.043-.02.267.416.043-.224.028.26.042.056.043-.201.155.424.042-.045.028.082.085-.057.113.411.127.167.042-.104.14.363.509.68.169.45.028-.081.042.18.127.311.028-.314.043.371.07.043.17.564.028-.305.042.264.24.548.028-.078.17.587.027-.227.043.242.24.592.028-.058.042.103.155.614.042-.131.156.388 1.283 3.504.197.547.085.3.31.974.042-.077.156.663.042-.061.14.538.283 1.033.55 1.827.31 1.141.042-.014.141.776.043-.025.282 1.084.042.037.226 1.058.042.023.705 2.756.043.053.183.865.55 2.111.31 1.369 1.608 6.681.38 1.717.043-.025.24 1.2.465 2.018.028-.007.324 1.46.424 1.816 1.255 5.252.028.005.24 1.082.042.078.155.728.155.472.268 1.158.042.037.282 1.287.029-.037 2.27 7.492.226.592.24.747.084-.014.183.576.466.982 1.255 2.068.042-.053.028.12.198.141.17.176.31.28.028-.054.042.039.127.154.028-.09.437.19.043-.091.07.086.268-.03.24.008.042-.149.07.074.043.09.042-.163.183-.025.17-.219.028.153.042-.122.155-.086.437-.435.043.052.028-.073.198-.376.042.088.07-.071.17-.275.028.056.042-.148.197-.28.353-.623.028.03.042-.108.593-1.099.113-.148.197-.46.55-1.207.028-.019.311-.781.126-.31.043.056.155-.501.69-1.72.128-.335.663-1.73 2.608-6.8.127-.278.184-.515.155-.41 2.58-5.621.24-.392.226-.422.86-1.391.043.03.028-.227.084.035.198-.38.042.017.113-.15.24-.308.028.038.169-.292.028.084.043-.152.24-.323.028.111.042-.091.127-.222.028.167.042-.147.043-.209.028.24.042-.15.085-.044.155-.19.028.09.042-.123.127-.242.028.275.043-.195.084.036.043-.21.028.24.084-.22.029.072.042-.143.042.062.198-.2.113.066.042-.146.07.083.085-.234.085.071.028.051.042-.028.042-.206.043.169.042.083.028-.153.043.057.042-.15.07.12.085-.086.042.023.028.065.043-.053.084-.067.043.13.028-.176.042.07.043-.008.028.124.042-.114.042-.195.043.181.112.054.043-.21.042.153.07-.075.085.157.07-.081.128.094.112-.069.029.103.084-.036.198.056.663.275.042.19.07-.04.127-.052.113.214.042-.05.156.158.267.248.043-.072.028.15.437.383.437.641.029-.161.042.144.352.446.268.38.325.52.028-.06.042.07.155.284 1.608 2.892.113.414.028-.2.042.273.282.613.043-.022.225.646.17.358.69 1.59.24.598.268.688.043.016.225.64 2.073 5.41.043.012.112.486.043-.01.225.63 1.481 3.86" clip-path="url(#p7242876ebb)" style="fill:none;stroke-dasharray:3.7,1.6;stroke-dashoffset:0;stroke:#f97316;stroke-opacity:.8" id="line2d_52"/><path d="M52.08 689.118v-147.84" style="fill:none;stroke:#000;stroke-width:.8;stroke-linejoin:miter;stroke-linecap:square" id="patch_9"/><path d="M610.08 689.118v-147.84" style="fill:none;stroke:#000;stroke-width:.8;stroke-linejoin:miter;stroke-linecap:square" id="patch_10"/><path d="M52.08 689.118h558" style="fill:none;stroke:#000;stroke-width:.8;stroke-linejoin:miter;stroke-linecap:square" id="patch_11"/><path d="M52.08 541.278h558" style="fill:none;stroke:#000;stroke-width:.8;stroke-linejoin:miter;stroke-linecap:square" id="patch_12"/><g transform="matrix(.12 0 0 -.12 279.726 535.278)" id="text_33"><defs><path id="DejaVuSans-48" d="M628 4666h631V2753h2294v1913h631V0h-631v2222H1259V0H628v4666z" transform="scale(.01563)"/><path id="DejaVuSans-7a" d="M353 3500h2731v-525L922 459h2162V0H275v525l2163 2516H353v459z" transform="scale(.01563)"/></defs><use xlink:href="#DejaVuSans-48"/><use xlink:href="#DejaVuSans-6f" transform="translate(75.195)"/><use xlink:href="#DejaVuSans-72" transform="translate(136.377)"/><use xlink:href="#DejaVuSans-69" transform="translate(177.49)"/><use xlink:href="#DejaVuSans-7a" transform="translate(205.273)"/><use xlink:href="#DejaVuSans-6f" transform="translate(257.764)"/><use xlink:href="#DejaVuSans-6e" transform="translate(318.945)"/><use xlink:href="#DejaVuSans-74" transform="translate(382.324)"/><use xlink:href="#DejaVuSans-61" transform="translate(421.533)"/><use xlink:href="#DejaVuSans-6c" transform="translate(482.813)"/><use xlink:href="#DejaVuSans-20" transform="translate(510.596)"/><use xlink:href="#DejaVuSans-53" transform="translate(542.383)"/><use xlink:href="#DejaVuSans-70" transform="translate(605.86)"/><use xlink:href="#DejaVuSans-65" transform="translate(669.336)"/><use xlink:href="#DejaVuSans-65" transform="translate(730.86)"/><use xlink:href="#DejaVuSans-64" transform="translate(792.383)"/></g><g id="legend_2"><path d="M453.698 579.19H603.08q2 0 2-2v-28.912q0-2-2-2H453.7q-2 0-2 2v28.912q0 2 2 2z" style="fill:#fff;opacity:.8;stroke:#ccc;stroke-linejoin:miter" id="patch_13"/><path d="M455.698 554.376h20" style="fill:none;stroke:#2563eb;stroke-linecap:square" id="line2d_53"/><g transform="matrix(.1 0 0 -.1 483.698 557.876)" id="text_34"><use xlink:href="#DejaVuSans-76"/><use xlink:href="#DejaVuSans-65" transform="translate(59.18)"/><use xlink:href="#DejaVuSans-68" transform="translate(120.703)"/><use xlink:href="#DejaVuSans-69" transform="translate(184.082)"/><use xlink:href="#DejaVuSans-63" transform="translate(211.865)"/><use xlink:href="#DejaVuSans-6c" transform="translate(266.846)"/><use xlink:href="#DejaVuSans-65" transform="translate(294.629)"/><use xlink:href="#DejaVuSans-5f" transform="translate(356.152)"/><use xlink:href="#DejaVuSans-6c" transform="translate(406.152)"/><use xlink:href="#DejaVuSans-6f" transform="translate(433.936)"/><use xlink:href="#DejaVuSans-63" transform="translate(495.117)"/><use xlink:href="#DejaVuSans-61" transform="translate(550.098)"/><use xlink:href="#DejaVuSans-6c" transform="translate(611.377)"/><use xlink:href="#DejaVuSans-5f" transform="translate(639.16)"/><use xlink:href="#DejaVuSans-70" transform="translate(689.16)"/><use xlink:href="#DejaVuSans-6f" transform="translate(752.637)"/><use xlink:href="#DejaVuSans-73" transform="translate(813.818)"/><use xlink:href="#DejaVuSans-69" transform="translate(865.918)"/><use xlink:href="#DejaVuSans-74" transform="translate(893.701)"/><use xlink:href="#DejaVuSans-69" transform="translate(932.91)"/><use xlink:href="#DejaVuSans-6f" transform="translate(960.693)"/><use xlink:href="#DejaVuSans-6e" transform="translate(1021.875)"/></g><path d="M455.698 569.332h20" style="fill:none;stroke-dasharray:3.7,1.6;stroke-dashoffset:0;stroke:#f97316;stroke-opacity:.8" id="line2d_54"/><g transform="matrix(.1 0 0 -.1 483.698 572.832)" id="text_35"><use xlink:href="#DejaVuSans-72"/><use xlink:href="#DejaVuSans-61" transform="translate(41.113)"/><use xlink:href="#DejaVuSans-70" transform="translate(102.393)"/><use xlink:href="#DejaVuSans-74" transform="translate(165.87)"/><use xlink:href="#DejaVuSans-6f" transform="translate(205.078)"/><use xlink:href="#DejaVuSans-72" transform="translate(266.26)"/><use xlink:href="#DejaVuSans-5f" transform="translate(307.373)"/><use xlink:href="#DejaVuSans-73" transform="translate(357.373)"/><use xlink:href="#DejaVuSans-74" transform="translate(409.473)"/><use xlink:href="#DejaVuSans-61" transform="translate(448.682)"/><use xlink:href="#DejaVuSans-74" transform="translate(509.96)"/><use xlink:href="#DejaVuSans-75" transform="translate(549.17)"/><use xlink:href="#DejaVuSans-73" transform="translate(612.549)"/><use xlink:href="#DejaVuSans-20" transform="translate(664.648)"/><use xlink:href="#DejaVuSans-72" transform="translate(696.436)"/><use xlink:href="#DejaVuSans-65" transform="translate(735.299)"/><use xlink:href="#DejaVuSans-66" transform="translate(796.822)"/><use xlink:href="#DejaVuSans-65" transform="translate(832.027)"/><use xlink:href="#DejaVuSans-72" transform="translate(893.55)"/><use xlink:href="#DejaVuSans-65" transform="translate(932.414)"/><use xlink:href="#DejaVuSans-6e" transform="translate(993.938)"/><use xlink:href="#DejaVuSans-63" transform="translate(1057.316)"/><use xlink:href="#DejaVuSans-65" transform="translate(1112.297)"/></g></g></g></g><defs><clipPath id="p5d5eb18f86"><path d="M150.201 23.838h361.757v443.52H150.201z"/></clipPath><clipPath id="p7242876ebb"><path d="M52.079 541.278h558v147.84h-558z"/></clipPath></defs></svg>
