<svg xmlns:xlink="http://www.w3.org/1999/xlink" width="810.318" height="971.48" viewBox="0 0 607.739 728.61" xmlns="http://www.w3.org/2000/svg"><defs><style>*{stroke-linejoin:round;stroke-linecap:butt}</style></defs><g id="figure_1"><path d="M0 728.61h607.739V0H0z" style="fill:#fff" id="patch_1"/><g id="axes_1"><path d="M204.218 467.358H438.86V23.838H204.218z" style="fill:#fff" id="patch_2"/><g id="matplotlib.axis_1"><g id="xtick_1"><path d="M211.95 467.358V23.838" clip-path="url(#pd715b33a2d)" style="fill:none;stroke:#b0b0b0;stroke-opacity:.3;stroke-width:.8;stroke-linecap:square" id="line2d_1"/><g id="line2d_2"><defs><path id="m18ffefbb92" d="M0 0v3.5" style="stroke:#000;stroke-width:.8"/></defs><use xlink:href="#m18ffefbb92" x="211.95" y="467.358" style="stroke:#000;stroke-width:.8"/></g><g transform="matrix(.1 0 0 -.1 201.398 481.956)" id="text_1"><defs><path id="DejaVuSans-2212" d="M678 2272h4006v-531H678v531z" transform="scale(.01563)"/><path id="DejaVuSans-37" d="M525 4666h3000v-269L1831 0h-659l1594 4134H525v532z" transform="scale(.01563)"/><path id="DejaVuSans-30" d="M2034 4250q-487 0-733-480-245-479-245-1442 0-959 245-1439 246-480 733-480 491 0 736 480 246 480 246 1439 0 963-246 1442-245 480-736 480zm0 500q785 0 1199-621 414-620 414-1801 0-1178-414-1799Q2819-91 2034-91q-784 0-1198 620-414 621-414 1799 0 1181 414 1801 414 621 1198 621z" transform="scale(.01563)"/></defs><use xlink:href="#DejaVuSans-2212"/><use xlink:href="#DejaVuSans-37" transform="translate(83.79)"/><use xlink:href="#DejaVuSans-30" transform="translate(147.412)"/></g></g><g id="xtick_2"><path d="M261.889 467.358V23.838" clip-path="url(#pd715b33a2d)" style="fill:none;stroke:#b0b0b0;stroke-opacity:.3;stroke-width:.8;stroke-linecap:square" id="line2d_3"/><use xlink:href="#m18ffefbb92" x="261.889" y="467.358" style="stroke:#000;stroke-width:.8" id="line2d_4"/><g transform="matrix(.1 0 0 -.1 251.337 481.956)" id="text_2"><defs><path id="DejaVuSans-36" d="M2113 2584q-425 0-674-291-248-290-248-796 0-503 248-796 249-292 674-292t673 292q248 293 248 796 0 506-248 796-248 291-673 291zm1253 1979v-575q-238 112-480 171-242 60-480 60-625 0-955-422-329-422-376-1275 184 272 462 417 279 145 613 145 703 0 1111-427 408-426 408-1160 0-719-425-1154Q2819-91 2113-91q-810 0-1238 620-428 621-428 1799 0 1106 525 1764t1409 658q238 0 480-47t505-140z" transform="scale(.01563)"/></defs><use xlink:href="#DejaVuSans-2212"/><use xlink:href="#DejaVuSans-36" transform="translate(83.79)"/><use xlink:href="#DejaVuSans-30" transform="translate(147.412)"/></g></g><g id="xtick_3"><path d="M311.828 467.358V23.838" clip-path="url(#pd715b33a2d)" style="fill:none;stroke:#b0b0b0;stroke-opacity:.3;stroke-width:.8;stroke-linecap:square" id="line2d_5"/><use xlink:href="#m18ffefbb92" x="311.828" y="467.358" style="stroke:#000;stroke-width:.8" id="line2d_6"/><g transform="matrix(.1 0 0 -.1 301.276 481.956)" id="text_3"><defs><path id="DejaVuSans-35" d="M691 4666h2478v-532H1269V2991q137 47 274 70 138 23 276 23 781 0 1237-428 457-428 457-1159 0-753-469-1171Q2575-91 1722-91q-294 0-599 50Q819 9 494 109v635q281-153 581-228t634-75q541 0 856 284 316 284 316 772 0 487-316 771-315 285-856 285-253 0-505-56-251-56-513-175v2344z" transform="scale(.01563)"/></defs><use xlink:href="#DejaVuSans-2212"/><use xlink:href="#DejaVuSans-35" transform="translate(83.79)"/><use xlink:href="#DejaVuSans-30" transform="translate(147.412)"/></g></g><g id="xtick_4"><path d="M361.767 467.358V23.838" clip-path="url(#pd715b33a2d)" style="fill:none;stroke:#b0b0b0;stroke-opacity:.3;stroke-width:.8;stroke-linecap:square" id="line2d_7"/><use xlink:href="#m18ffefbb92" x="361.767" y="467.358" style="stroke:#000;stroke-width:.8" id="line2d_8"/><g transform="matrix(.1 0 0 -.1 351.215 481.956)" id="text_4"><defs><path id="DejaVuSans-34" d="M2419 4116 825 1625h1594v2491zm-166 550h794V1625h666v-525h-666V0h-628v1100H313v609l1940 2957z" transform="scale(.01563)"/></defs><use xlink:href="#DejaVuSans-2212"/><use xlink:href="#DejaVuSans-34" transform="translate(83.79)"/><use xlink:href="#DejaVuSans-30" transform="translate(147.412)"/></g></g><g id="xtick_5"><path d="M411.706 467.358V23.838" clip-path="url(#pd715b33a2d)" style="fill:none;stroke:#b0b0b0;stroke-opacity:.3;stroke-width:.8;stroke-linecap:square" id="line2d_9"/><use xlink:href="#m18ffefbb92" x="411.706" y="467.358" style="stroke:#000;stroke-width:.8" id="line2d_10"/><g transform="matrix(.1 0 0 -.1 401.154 481.956)" id="text_5"><defs><path id="DejaVuSans-33" d="M2597 2516q453-97 707-404 255-306 255-756 0-690-475-1069Q2609-91 1734-91q-293 0-604 58T488 141v609q262-153 574-231 313-78 654-78 593 0 904 234t311 681q0 413-289 645-289 233-804 233h-544v519h569q465 0 712 186t247 536q0 359-255 551-254 193-729 193-260 0-557-57-297-56-653-174v562q360 100 674 150t592 50q719 0 1137-327 419-326 419-882 0-388-222-655t-631-370z" transform="scale(.01563)"/></defs><use xlink:href="#DejaVuSans-2212"/><use xlink:href="#DejaVuSans-33" transform="translate(83.79)"/><use xlink:href="#DejaVuSans-30" transform="translate(147.412)"/></g></g><g transform="matrix(.12 0 0 -.12 279.768 497.154)" id="text_6"><defs><path id="DejaVuSans-59" d="M-13 4666h679l1293-1919 1285 1919h678L2272 2222V0h-634v2222L-13 4666z" transform="scale(.01563)"/><path id="DejaVuSans-70" d="M1159 525v-1856H581v4831h578v-531q182 312 458 463 277 152 661 152 638 0 1036-506 399-506 399-1331T3314 415Q2916-91 2278-91q-384 0-661 152-276 152-458 464zm1957 1222q0 634-261 995t-717 361q-457 0-718-361t-261-995q0-634 261-995t718-361q456 0 717 361t261 995z" transform="scale(.01563)"/><path id="DejaVuSans-6f" d="M1959 3097q-462 0-731-361t-269-989q0-628 267-989 268-361 733-361 460 0 728 362 269 363 269 988 0 622-269 986-268 364-728 364zm0 487q750 0 1178-488 429-487 429-1349 0-859-429-1349Q2709-91 1959-91q-753 0-1180 489-426 490-426 1349 0 862 426 1349 427 488 1180 488z" transform="scale(.01563)"/><path id="DejaVuSans-73" d="M2834 3397v-544q-243 125-506 187-262 63-544 63-428 0-642-131t-214-394q0-200 153-314t616-217l197-44q612-131 870-370t258-667q0-488-386-773Q2250-91 1575-91q-281 0-586 55T347 128v594q319-166 628-249 309-82 613-82 406 0 624 139 219 139 219 392 0 234-158 359-157 125-692 241l-200 47q-534 112-772 345-237 233-237 639 0 494 350 762 350 269 994 269 318 0 599-47 282-46 519-140z" transform="scale(.01563)"/><path id="DejaVuSans-69" d="M603 3500h575V0H603v3500zm0 1363h575v-729H603v729z" transform="scale(.01563)"/><path id="DejaVuSans-74" d="M1172 4494v-994h1184v-447H1172V1153q0-428 117-550t477-122h590V0h-590q-666 0-919 248-253 249-253 905v1900H172v447h422v994h578z" transform="scale(.01563)"/><path id="DejaVuSans-6e" d="M3513 2113V0h-575v2094q0 497-194 743-194 247-581 247-466 0-735-297-269-296-269-809V0H581v3500h578v-544q207 316 486 472 280 156 646 156 603 0 912-373 310-373 310-1098z" transform="scale(.01563)"/><path id="DejaVuSans-5b" d="M550 4863h1325v-447h-750V-397h750v-447H550v5707z" transform="scale(.01563)"/><path id="DejaVuSans-6d" d="M3328 2828q216 388 516 572t706 184q547 0 844-383 297-382 297-1088V0h-578v2094q0 503-179 746-178 244-543 244-447 0-707-297-259-296-259-809V0h-578v2094q0 506-178 748t-550 242q-441 0-701-298-259-298-259-808V0H581v3500h578v-544q197 322 472 475t653 153q382 0 649-194 267-193 395-562z" transform="scale(.01563)"/><path id="DejaVuSans-5d" d="M1947 4863V-844H622v447h747v4813H622v447h1325z" transform="scale(.01563)"/></defs><use xlink:href="#DejaVuSans-59"/><use xlink:href="#DejaVuSans-20" transform="translate(61.084)"/><use xlink:href="#DejaVuSans-70" transform="translate(92.871)"/><use xlink:href="#DejaVuSans-6f" transform="translate(156.348)"/><use xlink:href="#DejaVuSans-73" transform="translate(217.53)"/><use xlink:href="#DejaVuSans-69" transform="translate(269.629)"/><use xlink:href="#DejaVuSans-74" transform="translate(297.412)"/><use xlink:href="#DejaVuSans-69" transform="translate(336.621)"/><use xlink:href="#DejaVuSans-6f" transform="translate(364.404)"/><use xlink:href="#DejaVuSans-6e" transform="translate(425.586)"/><use xlink:href="#DejaVuSans-20" transform="translate(488.965)"/><use xlink:href="#DejaVuSans-5b" transform="translate(520.752)"/><use xlink:href="#DejaVuSans-6d" transform="translate(559.766)"/><use xlink:href="#DejaVuSans-5d" transform="translate(657.178)"/></g></g><g id="matplotlib.axis_2"><g id="ytick_1"><path d="M204.218 456.806H438.86" clip-path="url(#pd715b33a2d)" style="fill:none;stroke:#b0b0b0;stroke-opacity:.3;stroke-width:.8;stroke-linecap:square" id="line2d_11"/><g id="line2d_12"><defs><path id="m2f97be0ebe" d="M0 0h-3.5" style="stroke:#000;stroke-width:.8"/></defs><use xlink:href="#m2f97be0ebe" x="204.218" y="456.806" style="stroke:#000;stroke-width:.8"/></g><use xlink:href="#DejaVuSans-30" transform="matrix(.1 0 0 -.1 190.855 460.605)" id="text_7"/></g><g id="ytick_2"><path d="M204.218 406.867H438.86" clip-path="url(#pd715b33a2d)" style="fill:none;stroke:#b0b0b0;stroke-opacity:.3;stroke-width:.8;stroke-linecap:square" id="line2d_13"/><use xlink:href="#m2f97be0ebe" x="204.218" y="406.867" style="stroke:#000;stroke-width:.8" id="line2d_14"/><g transform="matrix(.1 0 0 -.1 184.493 410.666)" id="text_8"><defs><path id="DejaVuSans-31" d="M794 531h1031v3560L703 3866v575l1116 225h631V531h1031V0H794v531z" transform="scale(.01563)"/></defs><use xlink:href="#DejaVuSans-31"/><use xlink:href="#DejaVuSans-30" transform="translate(63.623)"/></g></g><g id="ytick_3"><path d="M204.218 356.928H438.86" clip-path="url(#pd715b33a2d)" style="fill:none;stroke:#b0b0b0;stroke-opacity:.3;stroke-width:.8;stroke-linecap:square" id="line2d_15"/><use xlink:href="#m2f97be0ebe" x="204.218" y="356.928" style="stroke:#000;stroke-width:.8" id="line2d_16"/><g transform="matrix(.1 0 0 -.1 184.493 360.727)" id="text_9"><defs><path id="DejaVuSans-32" d="M1228 531h2203V0H469v531q359 372 979 998 621 627 780 809 303 340 423 576 121 236 121 464 0 372-261 606-261 235-680 235-297 0-627-103-329-103-704-313v638q381 153 712 231 332 78 607 78 725 0 1156-363 431-362 431-968 0-288-108-546-107-257-392-607-78-91-497-524-418-433-1181-1211z" transform="scale(.01563)"/></defs><use xlink:href="#DejaVuSans-32"/><use xlink:href="#DejaVuSans-30" transform="translate(63.623)"/></g></g><g id="ytick_4"><path d="M204.218 306.989H438.86" clip-path="url(#pd715b33a2d)" style="fill:none;stroke:#b0b0b0;stroke-opacity:.3;stroke-width:.8;stroke-linecap:square" id="line2d_17"/><use xlink:href="#m2f97be0ebe" x="204.218" y="306.989" style="stroke:#000;stroke-width:.8" id="line2d_18"/><g transform="matrix(.1 0 0 -.1 184.493 310.788)" id="text_10"><use xlink:href="#DejaVuSans-33"/><use xlink:href="#DejaVuSans-30" transform="translate(63.623)"/></g></g><g id="ytick_5"><path d="M204.218 257.05H438.86" clip-path="url(#pd715b33a2d)" style="fill:none;stroke:#b0b0b0;stroke-opacity:.3;stroke-width:.8;stroke-linecap:square" id="line2d_19"/><use xlink:href="#m2f97be0ebe" x="204.218" y="257.05" style="stroke:#000;stroke-width:.8" id="line2d_20"/><g transform="matrix(.1 0 0 -.1 184.493 260.849)" id="text_11"><use xlink:href="#DejaVuSans-34"/><use xlink:href="#DejaVuSans-30" transform="translate(63.623)"/></g></g><g id="ytick_6"><path d="M204.218 207.11H438.86" clip-path="url(#pd715b33a2d)" style="fill:none;stroke:#b0b0b0;stroke-opacity:.3;stroke-width:.8;stroke-linecap:square" id="line2d_21"/><use xlink:href="#m2f97be0ebe" x="204.218" y="207.11" style="stroke:#000;stroke-width:.8" id="line2d_22"/><g transform="matrix(.1 0 0 -.1 184.493 210.91)" id="text_12"><use xlink:href="#DejaVuSans-35"/><use xlink:href="#DejaVuSans-30" transform="translate(63.623)"/></g></g><g id="ytick_7"><path d="M204.218 157.171H438.86" clip-path="url(#pd715b33a2d)" style="fill:none;stroke:#b0b0b0;stroke-opacity:.3;stroke-width:.8;stroke-linecap:square" id="line2d_23"/><use xlink:href="#m2f97be0ebe" x="204.218" y="157.171" style="stroke:#000;stroke-width:.8" id="line2d_24"/><g transform="matrix(.1 0 0 -.1 184.493 160.97)" id="text_13"><use xlink:href="#DejaVuSans-36"/><use xlink:href="#DejaVuSans-30" transform="translate(63.623)"/></g></g><g id="ytick_8"><path d="M204.218 107.232H438.86" clip-path="url(#pd715b33a2d)" style="fill:none;stroke:#b0b0b0;stroke-opacity:.3;stroke-width:.8;stroke-linecap:square" id="line2d_25"/><use xlink:href="#m2f97be0ebe" x="204.218" y="107.232" style="stroke:#000;stroke-width:.8" id="line2d_26"/><g transform="matrix(.1 0 0 -.1 184.493 111.032)" id="text_14"><use xlink:href="#DejaVuSans-37"/><use xlink:href="#DejaVuSans-30" transform="translate(63.623)"/></g></g><g id="ytick_9"><path d="M204.218 57.293H438.86" clip-path="url(#pd715b33a2d)" style="fill:none;stroke:#b0b0b0;stroke-opacity:.3;stroke-width:.8;stroke-linecap:square" id="line2d_27"/><use xlink:href="#m2f97be0ebe" x="204.218" y="57.293" style="stroke:#000;stroke-width:.8" id="line2d_28"/><g transform="matrix(.1 0 0 -.1 184.493 61.093)" id="text_15"><defs><path id="DejaVuSans-38" d="M2034 2216q-450 0-708-241-257-241-257-662 0-422 257-663 258-241 708-241t709 242q260 243 260 662 0 421-258 662-257 241-711 241zm-631 268q-406 100-633 378-226 279-226 679 0 559 398 884 399 325 1092 325 697 0 1094-325t397-884q0-400-227-679-226-278-629-378 456-106 710-416 255-309 255-755 0-679-414-1042Q2806-91 2034-91q-771 0-1186 362-414 363-414 1042 0 446 256 755 257 310 713 416zm-231 997q0-362 226-565 227-203 636-203 407 0 636 203 230 203 230 565 0 363-230 566-229 203-636 203-409 0-636-203-226-203-226-566z" transform="scale(.01563)"/></defs><use xlink:href="#DejaVuSans-38"/><use xlink:href="#DejaVuSans-30" transform="translate(63.623)"/></g></g><g transform="matrix(0 -.12 -.12 0 177.997 287.813)" id="text_16"><defs><path id="DejaVuSans-58" d="M403 4666h678l1160-1735 1165 1735h678L2584 2425 4184 0h-678L2194 1984 872 0H191l1665 2491L403 4666z" transform="scale(.01563)"/></defs><use xlink:href="#DejaVuSans-58"/><use xlink:href="#DejaVuSans-20" transform="translate(68.506)"/><use xlink:href="#DejaVuSans-70" transform="translate(100.293)"/><use xlink:href="#DejaVuSans-6f" transform="translate(163.77)"/><use xlink:href="#DejaVuSans-73" transform="translate(224.951)"/><use xlink:href="#DejaVuSans-69" transform="translate(277.05)"/><use xlink:href="#DejaVuSans-74" transform="translate(304.834)"/><use xlink:href="#DejaVuSans-69" transform="translate(344.043)"/><use xlink:href="#DejaVuSans-6f" transform="translate(371.826)"/><use xlink:href="#DejaVuSans-6e" transform="translate(433.008)"/><use xlink:href="#DejaVuSans-20" transform="translate(496.387)"/><use xlink:href="#DejaVuSans-5b" transform="translate(528.174)"/><use xlink:href="#DejaVuSans-6d" transform="translate(567.188)"/><use xlink:href="#DejaVuSans-5d" transform="translate(664.6)"/></g></g><path d="m320.035 270.025.037.358.149.256.096.232-.06.282-.163.858.159.015.422-.228 1.923-1.396 5.07-3.429 1.668-.735 2.532-.949-.355.251-.438.483-.597.586-.917.618.373-.063.95-.286 2.72-1.13 6.046-3.051.725-.522.018-.234-.25-.262-3.096-2.434-1.376-1.658-1.387-2.063-1.378-2.467-1.523-3.18-2.537-5.329-1.94-3.535-10.899-18.786-3.382-6.339-9.713-18.098-5.352-9.482-4.579-7.88-10.992-18.567-7.44-13.043-21.418-38.41-9.988-17.353-9.378-16.335-13.95-24.901-4.078-7.201-.687-.574-.167-.037.061.096 1.717 2.564 1.512 2.726 3.116 5.669 3.85 6.54 5.014 8.525 5.456 9.788 5.028 8.93 10.312 18.423 22.075 39.895 8.288 14.745 12.793 23.188 16.233 29.661 5.179 9.223 7.979 13.894 16.236 27.887 22.964 40.927 4.303 7.958 13.776 25.743 6.494 11.436 17.083 29.821 5.307 9.874 3.282 6.511 4.74 9.853 4.027 8.913 2.219 5.41 1.64 4.515 1.306 4.226.782 3.225.392 2.467.147 2.19-.09 2.097-.282 1.757-.465 1.506-.541 1.078-.577.712-.797.6-.936.407-.972.187-1.077-.008-1.335-.254-1.452-.49-1.887-.923-1.667-1.04-2.077-1.586-1.944-1.775-1.924-2.054-1.904-2.356-2.011-2.866-1.817-2.883-1.905-3.468-1.988-4.094-2.917-6.59-2.724-6.84-4.951-13.33-4.149-10.871-3.639-8.947-6.144-14.388-3.52-7.906-5.185-11.058-4.122-8.201-4.276-8.017-4.036-7.093-5.689-9.445-13.35-21.525-1.88-2.623-2.413-2.953-1.811-1.945-1.652-1.526-1.243-.92-.92-.497-1.242-.445-.935-.129-.95.072-1.584.338-1.612.564-.87.264-1.053.082-2.46.975-.536.289-.37.417-.142.3-.021-.127-.353-.089-.251.018h0" clip-path="url(#pd715b33a2d)" style="fill:none;stroke:#2563eb;stroke-width:1.5;stroke-linecap:square" id="line2d_29"/><path d="m338.908 263.095-1.085-1.924-121.547-215.4 168.072 297.85" clip-path="url(#pd715b33a2d)" style="fill:none;stroke-dasharray:5.55,2.4;stroke-dashoffset:0;stroke:#f97316;stroke-opacity:.8;stroke-width:1.5" id="line2d_30"/><path d="M204.218 467.358V23.838" style="fill:none;stroke:#000;stroke-width:.8;stroke-linejoin:miter;stroke-linecap:square" id="patch_3"/><path d="M438.86 467.358V23.838" style="fill:none;stroke:#000;stroke-width:.8;stroke-linejoin:miter;stroke-linecap:square" id="patch_4"/><path d="M204.218 467.358H438.86" style="fill:none;stroke:#000;stroke-width:.8;stroke-linejoin:miter;stroke-linecap:square" id="patch_5"/><path d="M204.218 23.838H438.86" style="fill:none;stroke:#000;stroke-width:.8;stroke-linejoin:miter;stroke-linecap:square" id="patch_6"/><g transform="matrix(.14 0 0 -.14 265.218 17.838)" id="text_17"><defs><path id="DejaVuSans-2f" d="M1625 4666h531L531-594H0l1625 5260z" transform="scale(.01563)"/><path id="DejaVuSans-50" d="M1259 4147V2394h794q441 0 681 228 241 228 241 650 0 419-241 647-240 228-681 228h-794zm-631 519h1425q785 0 1186-355 402-355 402-1039 0-691-402-1044-401-353-1186-353h-794V0H628v4666z" transform="scale(.01563)"/><path id="DejaVuSans-6c" d="M603 4863h575V0H603v4863z" transform="scale(.01563)"/></defs><use xlink:href="#DejaVuSans-58"/><use xlink:href="#DejaVuSans-2f" transform="translate(68.506)"/><use xlink:href="#DejaVuSans-59" transform="translate(102.197)"/><use xlink:href="#DejaVuSans-20" transform="translate(163.281)"/><use xlink:href="#DejaVuSans-50" transform="translate(195.068)"/><use xlink:href="#DejaVuSans-6f" transform="translate(251.746)"/><use xlink:href="#DejaVuSans-73" transform="translate(312.928)"/><use xlink:href="#DejaVuSans-69" transform="translate(365.027)"/><use xlink:href="#DejaVuSans-74" transform="translate(392.81)"/><use xlink:href="#DejaVuSans-69" transform="translate(432.02)"/><use xlink:href="#DejaVuSans-6f" transform="translate(459.803)"/><use xlink:href="#DejaVuSans-6e" transform="translate(520.984)"/><use xlink:href="#DejaVuSans-20" transform="translate(584.363)"/><use xlink:href="#DejaVuSans-50" transform="translate(616.15)"/><use xlink:href="#DejaVuSans-6c" transform="translate(676.453)"/><use xlink:href="#DejaVuSans-6f" transform="translate(704.236)"/><use xlink:href="#DejaVuSans-74" transform="translate(765.418)"/></g><g id="PathCollection_1"><defs><path id="m71145b0234" d="M0 5A5 5 0 1 0 0-5 5 5 0 0 0 0 5z" style="stroke:#22c55e"/></defs><g clip-path="url(#pd715b33a2d)"><use xlink:href="#m71145b0234" x="320.035" y="270.025" style="fill:#22c55e;stroke:#22c55e"/></g></g><g id="PathCollection_2"><defs><path id="me7ec05db05" d="M-5 5H5V-5H-5z" style="stroke:#ef4444"/></defs><g clip-path="url(#pd715b33a2d)"><use xlink:href="#me7ec05db05" x="313.546" y="281.231" style="fill:#ef4444;stroke:#ef4444"/></g></g><g id="legend_1"><path d="M282.479 91.107h149.38q2 0 2-2v-58.27q0-2-2-2H282.48q-2 0-2 2v58.27q0 2 2 2z" style="fill:#fff;opacity:.8;stroke:#ccc;stroke-linejoin:miter" id="patch_7"/><path d="M284.479 36.936h20" style="fill:none;stroke:#2563eb;stroke-width:1.5;stroke-linecap:square" id="line2d_31"/><g transform="matrix(.1 0 0 -.1 312.479 40.436)" id="text_18"><defs><path id="DejaVuSans-76" d="M191 3500h609L1894 563l1094 2937h609L2284 0h-781L191 3500z" transform="scale(.01563)"/><path id="DejaVuSans-65" d="M3597 1894v-281H953q38-594 358-905t892-311q331 0 642 81t618 244V178Q3153 47 2828-22t-659-69q-838 0-1327 487-489 488-489 1320 0 859 464 1363 464 505 1252 505 706 0 1117-455 411-454 411-1235zm-575 169q-6 471-264 752-258 282-683 282-481 0-770-272t-333-766l2050 4z" transform="scale(.01563)"/><path id="DejaVuSans-68" d="M3513 2113V0h-575v2094q0 497-194 743-194 247-581 247-466 0-735-297-269-296-269-809V0H581v4863h578V2956q207 316 486 472 280 156 646 156 603 0 912-373 310-373 310-1098z" transform="scale(.01563)"/><path id="DejaVuSans-63" d="M3122 3366v-538q-244 135-489 202t-495 67q-560 0-870-355-309-354-309-995t309-996q310-354 870-354 250 0 495 67t489 202V134Q2881 22 2623-34q-257-57-548-57-791 0-1257 497-465 497-465 1341 0 856 470 1346 471 491 1290 491 265 0 518-55 253-54 491-163z" transform="scale(.01563)"/><path id="DejaVuSans-5f" d="M3263-1063v-446H-63v446h3326z" transform="scale(.01563)"/><path id="DejaVuSans-61" d="M2194 1759q-697 0-966-159t-269-544q0-306 202-486 202-179 548-179 479 0 768 339t289 901v128h-572zm1147 238V0h-575v531q-197-318-491-470T1556-91q-537 0-855 302-317 302-317 808 0 590 395 890 396 300 1180 300h807v57q0 397-261 614t-733 217q-300 0-585-72-284-72-546-216v532q315 122 612 182 297 61 578 61 760 0 1135-394 375-393 375-1193z" transform="scale(.01563)"/></defs><use xlink:href="#DejaVuSans-76"/><use xlink:href="#DejaVuSans-65" transform="translate(59.18)"/><use xlink:href="#DejaVuSans-68" transform="translate(120.703)"/><use xlink:href="#DejaVuSans-69" transform="translate(184.082)"/><use xlink:href="#DejaVuSans-63" transform="translate(211.865)"/><use xlink:href="#DejaVuSans-6c" transform="translate(266.846)"/><use xlink:href="#DejaVuSans-65" transform="translate(294.629)"/><use xlink:href="#DejaVuSans-5f" transform="translate(356.152)"/><use xlink:href="#DejaVuSans-6c" transform="translate(406.152)"/><use xlink:href="#DejaVuSans-6f" transform="translate(433.936)"/><use xlink:href="#DejaVuSans-63" transform="translate(495.117)"/><use xlink:href="#DejaVuSans-61" transform="translate(550.098)"/><use xlink:href="#DejaVuSans-6c" transform="translate(611.377)"/><use xlink:href="#DejaVuSans-5f" transform="translate(639.16)"/><use xlink:href="#DejaVuSans-70" transform="translate(689.16)"/><use xlink:href="#DejaVuSans-6f" transform="translate(752.637)"/><use xlink:href="#DejaVuSans-73" transform="translate(813.818)"/><use xlink:href="#DejaVuSans-69" transform="translate(865.918)"/><use xlink:href="#DejaVuSans-74" transform="translate(893.701)"/><use xlink:href="#DejaVuSans-69" transform="translate(932.91)"/><use xlink:href="#DejaVuSans-6f" transform="translate(960.693)"/><use xlink:href="#DejaVuSans-6e" transform="translate(1021.875)"/></g><use xlink:href="#m71145b0234" x="294.479" y="52.767" style="fill:#22c55e;stroke:#22c55e" id="PathCollection_3"/><g transform="matrix(.1 0 0 -.1 312.479 55.392)" id="text_19"><defs><path id="DejaVuSans-53" d="M3425 4513v-616q-359 172-678 256-319 85-616 85-515 0-795-200t-280-569q0-310 186-468 186-157 705-254l381-78q706-135 1042-474t336-907q0-679-455-1029Q2797-91 1919-91q-331 0-705 75-373 75-773 222v650q384-215 753-325 369-109 725-109 540 0 834 212 294 213 294 607 0 343-211 537t-692 291l-385 75q-706 140-1022 440-315 300-315 835 0 619 436 975t1201 356q329 0 669-60 341-59 697-177z" transform="scale(.01563)"/><path id="DejaVuSans-72" d="M2631 2963q-97 56-211 82-114 27-251 27-488 0-749-317t-261-911V0H581v3500h578v-544q182 319 472 473 291 155 707 155 59 0 131-8 72-7 159-23l3-590z" transform="scale(.01563)"/></defs><use xlink:href="#DejaVuSans-53"/><use xlink:href="#DejaVuSans-74" transform="translate(63.477)"/><use xlink:href="#DejaVuSans-61" transform="translate(102.686)"/><use xlink:href="#DejaVuSans-72" transform="translate(163.965)"/><use xlink:href="#DejaVuSans-74" transform="translate(205.078)"/></g><use xlink:href="#me7ec05db05" x="294.479" y="67.446" style="fill:#ef4444;stroke:#ef4444" id="PathCollection_4"/><g transform="matrix(.1 0 0 -.1 312.479 70.07)" id="text_20"><defs><path id="DejaVuSans-45" d="M628 4666h2950v-532H1259V2753h2222v-531H1259V531h2375V0H628v4666z" transform="scale(.01563)"/><path id="DejaVuSans-64" d="M2906 2969v1894h575V0h-575v525q-181-312-458-464-276-152-664-152-634 0-1033 506-398 507-398 1332t398 1331q399 506 1033 506 388 0 664-152 277-151 458-463zM947 1747q0-634 261-995t717-361q456 0 718 361 263 361 263 995t-263 995q-262 361-718 361t-717-361q-261-361-261-995z" transform="scale(.01563)"/></defs><use xlink:href="#DejaVuSans-45"/><use xlink:href="#DejaVuSans-6e" transform="translate(63.184)"/><use xlink:href="#DejaVuSans-64" transform="translate(126.563)"/></g><path d="M284.479 81.249h20" style="fill:none;stroke-dasharray:5.55,2.4;stroke-dashoffset:0;stroke:#f97316;stroke-opacity:.8;stroke-width:1.5" id="line2d_32"/><g transform="matrix(.1 0 0 -.1 312.479 84.749)" id="text_21"><defs><path id="DejaVuSans-75" d="M544 1381v2119h575V1403q0-497 193-746 194-248 582-248 465 0 735 297 271 297 271 810v1984h575V0h-575v538q-209-319-486-474-276-155-642-155-603 0-916 375-312 375-312 1097zm1447 2203z" transform="scale(.01563)"/><path id="DejaVuSans-66" d="M2375 4863v-479h-550q-309 0-430-125-120-125-120-450v-309h947v-447h-947V0H697v3053H147v447h550v244q0 584 272 851 272 268 862 268h544z" transform="scale(.01563)"/></defs><use xlink:href="#DejaVuSans-72"/><use xlink:href="#DejaVuSans-61" transform="translate(41.113)"/><use xlink:href="#DejaVuSans-70" transform="translate(102.393)"/><use xlink:href="#DejaVuSans-74" transform="translate(165.87)"/><use xlink:href="#DejaVuSans-6f" transform="translate(205.078)"/><use xlink:href="#DejaVuSans-72" transform="translate(266.26)"/><use xlink:href="#DejaVuSans-5f" transform="translate(307.373)"/><use xlink:href="#DejaVuSans-73" transform="translate(357.373)"/><use xlink:href="#DejaVuSans-74" transform="translate(409.473)"/><use xlink:href="#DejaVuSans-61" transform="translate(448.682)"/><use xlink:href="#DejaVuSans-74" transform="translate(509.96)"/><use xlink:href="#DejaVuSans-75" transform="translate(549.17)"/><use xlink:href="#DejaVuSans-73" transform="translate(612.549)"/><use xlink:href="#DejaVuSans-20" transform="translate(664.648)"/><use xlink:href="#DejaVuSans-72" transform="translate(696.436)"/><use xlink:href="#DejaVuSans-65" transform="translate(735.299)"/><use xlink:href="#DejaVuSans-66" transform="translate(796.822)"/><use xlink:href="#DejaVuSans-65" transform="translate(832.027)"/><use xlink:href="#DejaVuSans-72" transform="translate(893.55)"/><use xlink:href="#DejaVuSans-65" transform="translate(932.414)"/><use xlink:href="#DejaVuSans-6e" transform="translate(993.938)"/><use xlink:href="#DejaVuSans-63" transform="translate(1057.316)"/><use xlink:href="#DejaVuSans-65" transform="translate(1112.297)"/></g></g></g><g id="axes_2"><path d="M42.539 689.118h558v-147.84h-558z" style="fill:#fff" id="patch_8"/><g id="matplotlib.axis_3"><g id="xtick_6"><path d="M42.539 689.118v-147.84" clip-path="url(#p09cd11e766)" style="fill:none;stroke:#b0b0b0;stroke-opacity:.3;stroke-width:.8;stroke-linecap:square" id="line2d_33"/><use xlink:href="#m18ffefbb92" x="42.539" y="689.118" style="stroke:#000;stroke-width:.8" id="line2d_34"/><use xlink:href="#DejaVuSans-30" transform="matrix(.1 0 0 -.1 39.358 703.716)" id="text_22"/></g><g id="xtick_7"><path d="M119.976 689.118v-147.84" clip-path="url(#p09cd11e766)" style="fill:none;stroke:#b0b0b0;stroke-opacity:.3;stroke-width:.8;stroke-linecap:square" id="line2d_35"/><use xlink:href="#m18ffefbb92" x="119.976" y="689.118" style="stroke:#000;stroke-width:.8" id="line2d_36"/><use xlink:href="#DejaVuSans-35" transform="matrix(.1 0 0 -.1 116.794 703.716)" id="text_23"/></g><g id="xtick_8"><path d="M197.412 689.118v-147.84" clip-path="url(#p09cd11e766)" style="fill:none;stroke:#b0b0b0;stroke-opacity:.3;stroke-width:.8;stroke-linecap:square" id="line2d_37"/><use xlink:href="#m18ffefbb92" x="197.412" y="689.118" style="stroke:#000;stroke-width:.8" id="line2d_38"/><g transform="matrix(.1 0 0 -.1 191.05 703.716)" id="text_24"><use xlink:href="#DejaVuSans-31"/><use xlink:href="#DejaVuSans-30" transform="translate(63.623)"/></g></g><g id="xtick_9"><path d="M274.85 689.118v-147.84" clip-path="url(#p09cd11e766)" style="fill:none;stroke:#b0b0b0;stroke-opacity:.3;stroke-width:.8;stroke-linecap:square" id="line2d_39"/><use xlink:href="#m18ffefbb92" x="274.849" y="689.118" style="stroke:#000;stroke-width:.8" id="line2d_40"/><g transform="matrix(.1 0 0 -.1 268.487 703.716)" id="text_25"><use xlink:href="#DejaVuSans-31"/><use xlink:href="#DejaVuSans-35" transform="translate(63.623)"/></g></g><g id="xtick_10"><path d="M352.286 689.118v-147.84" clip-path="url(#p09cd11e766)" style="fill:none;stroke:#b0b0b0;stroke-opacity:.3;stroke-width:.8;stroke-linecap:square" id="line2d_41"/><use xlink:href="#m18ffefbb92" x="352.286" y="689.118" style="stroke:#000;stroke-width:.8" id="line2d_42"/><g transform="matrix(.1 0 0 -.1 345.924 703.716)" id="text_26"><use xlink:href="#DejaVuSans-32"/><use xlink:href="#DejaVuSans-30" transform="translate(63.623)"/></g></g><g id="xtick_11"><path d="M429.723 689.118v-147.84" clip-path="url(#p09cd11e766)" style="fill:none;stroke:#b0b0b0;stroke-opacity:.3;stroke-width:.8;stroke-linecap:square" id="line2d_43"/><use xlink:href="#m18ffefbb92" x="429.723" y="689.118" style="stroke:#000;stroke-width:.8" id="line2d_44"/><g transform="matrix(.1 0 0 -.1 423.36 703.716)" id="text_27"><use xlink:href="#DejaVuSans-32"/><use xlink:href="#DejaVuSans-35" transform="translate(63.623)"/></g></g><g id="xtick_12"><path d="M507.16 689.118v-147.84" clip-path="url(#p09cd11e766)" style="fill:none;stroke:#b0b0b0;stroke-opacity:.3;stroke-width:.8;stroke-linecap:square" id="line2d_45"/><use xlink:href="#m18ffefbb92" x="507.16" y="689.118" style="stroke:#000;stroke-width:.8" id="line2d_46"/><g transform="matrix(.1 0 0 -.1 500.797 703.716)" id="text_28"><use xlink:href="#DejaVuSans-33"/><use xlink:href="#DejaVuSans-30" transform="translate(63.623)"/></g></g><g id="xtick_13"><path d="M584.597 689.118v-147.84" clip-path="url(#p09cd11e766)" style="fill:none;stroke:#b0b0b0;stroke-opacity:.3;stroke-width:.8;stroke-linecap:square" id="line2d_47"/><use xlink:href="#m18ffefbb92" x="584.597" y="689.118" style="stroke:#000;stroke-width:.8" id="line2d_48"/><g transform="matrix(.1 0 0 -.1 578.234 703.716)" id="text_29"><use xlink:href="#DejaVuSans-33"/><use xlink:href="#DejaVuSans-35" transform="translate(63.623)"/></g></g><g transform="matrix(.12 0 0 -.12 297.144 718.914)" id="text_30"><defs><path id="DejaVuSans-54" d="M-19 4666h3947v-532H2272V0h-634v4134H-19v532z" transform="scale(.01563)"/></defs><use xlink:href="#DejaVuSans-54"/><use xlink:href="#DejaVuSans-69" transform="translate(57.959)"/><use xlink:href="#DejaVuSans-6d" transform="translate(85.742)"/><use xlink:href="#DejaVuSans-65" transform="translate(183.154)"/><use xlink:href="#DejaVuSans-20" transform="translate(244.678)"/><use xlink:href="#DejaVuSans-5b" transform="translate(276.465)"/><use xlink:href="#DejaVuSans-73" transform="translate(315.479)"/><use xlink:href="#DejaVuSans-5d" transform="translate(367.578)"/></g></g><g id="matplotlib.axis_4"><g id="ytick_10"><path d="M42.539 689.118h558" clip-path="url(#p09cd11e766)" style="fill:none;stroke:#b0b0b0;stroke-opacity:.3;stroke-width:.8;stroke-linecap:square" id="line2d_49"/><use xlink:href="#m2f97be0ebe" x="42.539" y="689.118" style="stroke:#000;stroke-width:.8" id="line2d_50"/><use xlink:href="#DejaVuSans-30" transform="matrix(.1 0 0 -.1 29.176 692.917)" id="text_31"/></g><g id="ytick_11"><path d="M42.539 654.625h558" clip-path="url(#p09cd11e766)" style="fill:none;stroke:#b0b0b0;stroke-opacity:.3;stroke-width:.8;stroke-linecap:square" id="line2d_51"/><use xlink:href="#m2f97be0ebe" x="42.539" y="654.625" style="stroke:#000;stroke-width:.8" id="line2d_52"/><use xlink:href="#DejaVuSans-35" transform="matrix(.1 0 0 -.1 29.176 658.425)" id="text_32"/></g><g id="ytick_12"><path d="M42.539 620.133h558" clip-path="url(#p09cd11e766)" style="fill:none;stroke:#b0b0b0;stroke-opacity:.3;stroke-width:.8;stroke-linecap:square" id="line2d_53"/><use xlink:href="#m2f97be0ebe" x="42.539" y="620.133" style="stroke:#000;stroke-width:.8" id="line2d_54"/><g transform="matrix(.1 0 0 -.1 22.814 623.932)" id="text_33"><use xlink:href="#DejaVuSans-31"/><use xlink:href="#DejaVuSans-30" transform="translate(63.623)"/></g></g><g id="ytick_13"><path d="M42.539 585.64h558" clip-path="url(#p09cd11e766)" style="fill:none;stroke:#b0b0b0;stroke-opacity:.3;stroke-width:.8;stroke-linecap:square" id="line2d_55"/><use xlink:href="#m2f97be0ebe" x="42.539" y="585.641" style="stroke:#000;stroke-width:.8" id="line2d_56"/><g transform="matrix(.1 0 0 -.1 22.814 589.44)" id="text_34"><use xlink:href="#DejaVuSans-31"/><use xlink:href="#DejaVuSans-35" transform="translate(63.623)"/></g></g><g id="ytick_14"><path d="M42.539 551.149h558" clip-path="url(#p09cd11e766)" style="fill:none;stroke:#b0b0b0;stroke-opacity:.3;stroke-width:.8;stroke-linecap:square" id="line2d_57"/><use xlink:href="#m2f97be0ebe" x="42.539" y="551.149" style="stroke:#000;stroke-width:.8" id="line2d_58"/><g transform="matrix(.1 0 0 -.1 22.814 554.948)" id="text_35"><use xlink:href="#DejaVuSans-32"/><use xlink:href="#DejaVuSans-30" transform="translate(63.623)"/></g></g><g transform="matrix(0 -.12 -.12 0 16.318 651.589)" id="text_36"><use xlink:href="#DejaVuSans-53"/><use xlink:href="#DejaVuSans-70" transform="translate(63.477)"/><use xlink:href="#DejaVuSans-65" transform="translate(126.953)"/><use xlink:href="#DejaVuSans-65" transform="translate(188.477)"/><use xlink:href="#DejaVuSans-64" transform="translate(250)"/><use xlink:href="#DejaVuSans-20" transform="translate(313.477)"/><use xlink:href="#DejaVuSans-5b" transform="translate(345.264)"/><use xlink:href="#DejaVuSans-6d" transform="translate(384.277)"/><use xlink:href="#DejaVuSans-2f" transform="translate(481.69)"/><use xlink:href="#DejaVuSans-73" transform="translate(515.38)"/><use xlink:href="#DejaVuSans-5d" transform="translate(567.48)"/></g></g><path d="m42.62 689.043 7.364-.12.157-.014.158.186 2.506-.127 1.097.059 1.57-.012 7.057-.114.313-.135.936.038 8.15.07.315-.15 2.192.162 6.74.094.316-.152 1.878.097 7.054.026.316-.102 2.825.017.162-.174 11.117.153 1.098-.016.317.058 1.408-.03 1.253-.015.32-.066.627-.03.777.035 4.702-.02.317-.285.78.06 8.314-.1.159-.153.309-.005 1.406-.377 1.1-.546.311-.134.941-.361 1.097-.278 1.097-.24.158.296.312-.089.158.054.312-.067 2.351.39.47.2.94.368.473.256.312.026.942.232.782-.303.627-.41 2.045-1.976.156-.418.62-.447 1.254-1.14.158.42.47-.57.785-.546.156-.377.155.024.785-.44.157-.376.155.065.315-.188.158.465.156-.374.313.038.157-.458.155.08.471-.406.157-.103.159.101.157-.545.155.087.784-.577.157.03.313-.727.155.07.629-.293.156-.41.156.11.627-.375.158.155.155-.64.155.436.158-.185.157.036.157-.176.157.072.472-.794.155.183.47-.053.156-.013.158.235.157-.461.156.313.314-.012.156-.014.157.18.156-.03.314.123.157.039.158.341.157-.322.476.833.157-.83.153.579.625.347.158.51.156-.518.311.592.314.18.313.288.158.278.158-.533.156-.018.312.499.157.006.315.58.157-.235.468.568.314.237.158.25.157-.209.312.369.626.344.317-1.362.153.523.628.362.158.229.157-.186.311.29.788.46.156-.273.312.254.314-.267.313.33.156-.207.313.25.47.14.158.161.157-.218.156.253.156-.076.156.11.156-.061.157.232.158-.044.158.211.47-.81.312.327.315.24.157-.167.312.304.627.26.158.196.156-.175.313.249.313.166.16.494.161.116.155-.482.31.665.159-.055.313.212.16.204.157-.244.463.43 1.097.61.316-.31.313.358.156-.04.469.347 1.412.852.47.2.157-.28.312.111.94.54.627.395.16.13.157-.023.469.281.313.14.159.366.31.1 1.724.46.943-.214.311-.067.315-.04 3.136-.874.319-.117.622-.223.47-.055.156-.176.468-.068.314-.08.16.37.157-.178.466-.07 2.352-.719.158.012.157-.141.156.08.313-.186 1.411-.352.47-.14.159.04.157-.165.155.028.314-.375.312.102 2.192-.276.318.185.157-.348.31.228.627.03.158.084.157-.096.47.125.312.07.158.093.157-.137.312.13.157.055.315-.414.316.416.159-.18.312.181.155.01.157.21.158.018.16.158.155-.205.308.317 1.097.625.158.255.157.016.94.738.94.705.627.415.158.39.313-.2.94-.857.47-.532 1.254-1.32.159.875.311-.46.158-.123.311-.467 1.881-2.429.159-.046.468-.563.63-.764.31-.464.627-.758.159.01.157-.53.155.023.47-.436.313-.298.16.948.157-.886.154.195.313-.211.16.152.158-.47.16.363.157-1.001.153.379.624-.417.158.182.157-.493.155.185.156-.14.157.055.158.603.157-.437.313.287.157-.432.156.257.313-.156.313-.11.159.299.157-.498.155.179.313-.119.314.069.157-.184.158.289.156-.418.155.173.157-.038.158.523.157-.48.314.33.156-.376.156.246.314-.166.312-.003.159.178.157-.429.311.156.315-.042.474-.175.156-.878.154.429.312-.031.314-.049.158.241.157-.49.155.205.47-.103.471.232.158-.415.312.181.156-.074.315-.64.158.447.156-.553.155.318.47.026.315.252.156-.382.156.26.783.16.159.273.156-.431.158.823.156-.57.155.392.314.03.166 1.31.157-2.8.148 1.97.159-.022.314.454.157.196.158.44.157-.145.153.23.311.736.47.868.16.224.156-.3.312.903.313.512 1.57 2.996.782.392 1.096-2.087.784-2.038.787-2.455.157-1.447.155.574.469-2.167.156-.684.158-.142.157-1.273.155-.353 1.41-6.302.158-.394.313-1.375.158-.14.313-2.916.155.767.315-1.43.313-.796.159-.155.157-1.54.154-.034.314-.677.313-1.044.158.141.157-1.477.312-.342.314-1.07.158.601.313-2.347.156.18.313-1.113.159.532.158-1.401.16.536.313-2.71.153-.685.156.55.156-.937.156.049.157-.891.158.636.157-2.148.155.232.159.562.157-2.666.155.244.156-.286.158.281.157-2.097.155.47.313-1.087.471-1.324.159.472.157-2.856.155.583.626-1.746.316.325.156-1.437.155.632.47-1.728.157-.076.158.644.157-2.349.155.741.314-.721.157-.083.157-.687.158.972.157-2.712.312 1.162.157-.778.157-.185.158 3.17.314-2.718.31.578.47-.938.158-.668.157.883.157-2.493.155.758.157-.196.314-.878.157-.551.158.607.156-2.43.156.964.315-1.051.157-3.258.154.21.157 1.569.16.062.156-3.191.155.897.156-.002.157-.691.156.138.157-.825.158 1.172.157-3.108.155.986.314-.527.313-1.333.159 1.587.157-3.732.156 1.587.157-2.81.155.465.47-.598.161 3.136.16-5.926.154 1.547.157-.633.156-.052.157-.505.158.379.158-.528.154-4.397.153 2.605.314-.139.157-.516.158.143.313-3.615.155 1.204.157-.305.313-1.001.314-.69.158 1.18.158-2.973.155-.256.157.658.157-1.064.156-.163.157-.474.158 1.678.157-4.354.155 1.871.157-.944.158 1.824.157-3.462.311.444.158 1.283.157-3.498.156 2.141.157-.373.156-.696.156.251.157-.005.16 1.67.156-5.28.155 2.867.156-1.189.157.346.157-.479.316 1.33.314-4.507.155 1.726.16 3.417.156-7.622.153 4.104.157-.588.158 1.747.156-3.6.156 2.047.156-.386.158 1.22.157-2.2.314 2.112.157-3.472.155 2.031.314-.335.314-1.174.157-3.931.157 4.487.158-4.96.154 1 .156 1.948.157-.974.157.149.157-.178.158 1.223.157-3.408.155 1.246.156-.329.157-1.152.158-.203.156-1.51.158 2.352.156-3.457.156 1.82.157.223.158-.906.156-3.94.156 2.104.157.179.158 1.4.157-3.738.311 1.234.16 2.967.159-2.978.157-.45.16 5.126.157-11.007.152 6.018.156-1.929.155.38.156 1.173.157-.962.157 2.654.157-3.945.157 3.013.157-4.208.155 2.222.314-.645.315 2.262.157-3.918.155 2.731.157-1.16.156 1.257.157-.35.156.498.159 2.6.157-4.161.155 1.905.47 1.432.158.235.156-.237.16 3.91.156-7.37.153 4.676.314 1.074.157-.261.157 1.024.158 1.975.157-3.439.312 3.09.156-.285.157.85.157-.107.158 3.526.157-5.226.155 3.468.158.859.159.046.156-3.328.312 2.989.158 1.832.156-3.898.155 3.13.313.646.158 1.263.157-.883.158 2.745.156-3.678.155 2.442.314 1.193.156-.331.313.985.16 2.431.158-7.193.154 3.698.47 1.546.155-1.037.159 4.782.158-4.782.155 2.092.626 2 .158 1.332.157-2.364.155 2.039.314 1.062.156-.11.158 1.001.157-3 .157 4.372.157-3.946.156 3.134.156-1.128.156 1.4.157.184.157.578.161 5.272.16-7.008.31 3.342.47.453.158 2.864.155-5.651.153 4.413.315 1.013.157-2.6.47 4.165.157-2.526.312 2.51.157-.215.313 1.032.158 1.927.157-2.583.156 1.968.314.813h.157l.156.324.157.779.158 1.4.313-3.771.155 2.37.47 1.05.159 2.472.157-3.21.155 2.182.627 1.505.158 1.758.156-2.385.156 1.994.157-.02.156.853.157.09.158.983.157-.305.16 2.082.156-5.082.154 3.312.157.643.157.108.156.34.315 1.919.156-1.566.312 2.208.157.521.156.114.472 2.785.156-1.74.156 1.982.157-.107.158.695.157-2.075.313 3.664.158-1.324.94 5.328.156-2.125.155 2.099.784 3 .158 1.865.157-1.5.157 1.978.157-.95.626 4.742.157-1.052.155 1.985.157.509.635 5.288.157-2.248.153 2.14.155.372.468 3.376.472.783.155 1.681.157.413.313 1.767.315 2.27.157-.126.312 2.236.786 3.95.156-.328.312 1.734.158-1.374.157-.156.314 1.898.156.166.468 2.04.472 1.98.157-.056.47 1.81.469 1.253.159.537.16-.905.154.004.156.815.156.128.472 1.349.156-.252.311 1.03.785 1.746.157-.028.313.846.784.715.312.73 1.568 3.382.784 1.369.158.723 1.41-4.12.16-.113.314-1.326.469-1.538.312-1.151.158-.232.157-1.056.155.28.312-1.305.471-1.38.157-1.029.155-.262 1.882-6.737.16 1.583.157-2.551.153.36.626-2.156.158-.05.157-1.438.155-.034.784-2.64.158.254.157-1.587.155.21.157-.71.157-.163.16.483.157-1.865.156.693.157-1.469.155-.005.313-.647.47-1.034.158.23.156-1.49.156.265.627-1.247.158.098.157-1.622.155.27.158.85.157-2.04.155.614.156-.314.16.593.156-1.963.156.632.312-1.459.157.764.158-1.117.156-.17.158.14.156-1.687.156.452.47-1.053.472-3.947.155.643.314-.807.313-.75.156-.413.159.732.157-2.25.156.308.158.862.159-1.969h.156l.157-.641.16 1.945.157-5.214.152 1.598.155-.547.159 2.092.156-4.147.155 1.642.157.037.157-2.169.155.587.784-2.282.158.793.157-2.707.156 1.064.157-1.603.156.578.157-1.074.156.158.159.388.157-2.474.155.457.158 1.946.157-2.836.155.4.157-.131.158.47.156-2.549.155.753.157-.24.157-.647.157.11.157-1.03.157.118.158.565.156-2.594.313 1.087.156-1.35.156.266.157-.33.16 1.582.159-.82.155-2.197.155 1.226.157-.18.47-1.094.157.017.156-1.898.155 1.002.314-.729.157.286.157-1.014.158 1.606.157-3.865.155 1.595.313-.216.159-.721.156-3.634.157 3.54.157-4.163.155 2.41.157-1.23.157.416.157-.811.313-.384.158.631.156-2.223.156.69.156-.581.314-.222.157-.493.159 1.558.156-4.254.155 1.617.158.38.157-3.02.155.9.313-.524.159 1.043.156-3.337.156 1.585.157-1.087.156-.183.157-.422.157-.088.162 4.674.16-7.671.153.173.156 1.237.156-.503.157-.929.155-.09.162 4.692.156-11.918.15 5.667.157.115.156-.356.157-.018.157-1.022.157-.06.158 1.414.157-3.211.156.843.157.072.156-1.131.156.494.157-.339.158 1.696.157-4.168.156 2.363.157-1.138.156-.054.159 1.406.157-4.223.156 3.724.157-4.109.311 1.733.157-.283.313.138.157-.765.158 2.173.158-4.085.155 1.931.157-1.644.156 1.068.157-.843.156.422.158 1.68.157-3.333.156 1.365.16 2.77.156-7.068.155 4.237.314-1.418.158 2.468.157-4.365.155 1.866.312-.811.157.342.157.913.159-.176.156-3.62.155 1.72.156.432.314-.306.157-.793.158 1.98.313-5.255.156 2.365.157-1.243.156.21.157-.492.156.072.159 2.04.157-3.89.312 1.784.157-1.692.157 2.498.157-2.121.158 2.193.156-4.814.155 2.358.157-.194.157.09.157.547.158 1.401.156-4.099.157 4.213.157-4.409.156 1.748.157.314.156-1.486.157.876.156-1.12.159 3.259.157-5.718.155 3.61.159.639.158-1.8.156-.024.157.338.16 3.73.157-9.328.31 5.792.156-7.725.154 4.344.157.797.157-1.798.157 2.768.157-4.293.156 2.381.157-.179.157.47.156-2.062.156 1.104.159 2.06.156-4.368.155 2.148.158.28.156-.645.157.136.157 1.054.158-.923.158 1.947.312-6.47.156 2.237.156-.252.157.133.157.434.158 1.252.157-3.5.155 1.6.314-.059.156.173.157-.331.158 1.959.157-3.81.155 1.95.157.47.157-.736.313.716.16.537.313-5.195.312 1.656.157-.209.157.647.157-.719.157 1.769.157-3.642.155 1.402.156.266.157-.046.156.58.157-.756.158 2.552.157-4.367.155 2.088.158-.605.157-4.537.156 2.13.157-.137.156.353.158 1.332.157-3.95.156 3.372.157-2.548.156 1.654.157-.73.157.226.158 3.06.156-7.557.155 6.217.158-2.225.47.881.156-.842.158 2.465.314-5.074.155 2.379.158-.006.156-.797.315 2.09.156-3.636.312 2.386.157-.954.314.848.162 6.609.159-10.793.154 4.27.313 1.38.156-3.113.158 4.26.155-8.878.155 7.8.157-5.059.155 3.296.157.345.157-1.056.157.845.156-1.294.158 3.038.156-3.907.156 2.152.157-.345.157-.615.156.247.157.587.157-.233.158 2.685.158-4.75.313 3.14.156-3.921.156 1.836.156-.16.159 3.6.157-7.058.312 5.526.157-3.41.156 2.515.157-.126.157 2.77.157-4.16.155 2.084.157.08.157.724.157-.784.313 1.301.158 1.777.314-6.418.312 5.203.158-.887.157.166.158 1.816.156-3.698.156 2.372.156-.846.47 2.37.158 1.565.156-4.273.155 2.087.314-.17.157.812.157-.78.159 1.306.312-5.151.155 2.533.157.389.157-1.186.156.632.157-.004.159 2.523.157-4.093.156 1.846.156.05.157.353.155-1.919.157 3.06.158-.815.158 1.788.156-4.845.155 2.64.159-.93.157-5.142.155 3.172.157-1.174.158 2.174.156-4.937.156 2.109.157-.099.156-.404.314.585.159 3.526.157-6.537.157 7.554.159-5.79.312 1.71.313.47.164 7.461.156-24.294.148 13.895.156.01.157 1.402.156-.322.316 2.27.156-4.292.155 3.848.157-.993.157 1.05.156-.292.314 1.264.158 1.487.157-4.126.155 3.22.157-.747.157 1.255.157-.296.157.486.16 3.878.157-8.527.153 4.37.157.725.156.101.157 1.305.157.2.158 2.065.157-3.814.155 2.902.47 1.847.157-.243.156 1.011.159 2.858.157-3.916.313 4.402.314-4.39.313 6.473.158-4.17.312 3.029.314 1.323.313 1.068.157 2.142.157-2.69.155 2.897.313 1.263.314 1.059.158 3.132.157-3.184.157 3.252.157-4.162.311 3.938.157.732.158 2.525.157-2.956.313 3.977.157.008.314 1.56.156.453.158 3.123.155-4.46.155 4.858.158.042.63 3.594.157-6.02.153 4.205.314 1.932.313 1.262.158 2.155.157-2.384.312 3.733.158-.258.156.81.158 2.72.159-1.213.16 3.717.157-5.37.31 4.635.16.503.155-5.351.31 6.94.157-3.61.154 3.103.314 1.157.157.728.156.164.157.764.158 2.221.158-2.578.312 2.738.156-.189.472 3.263.157-2.21.157 2.756.156-2.446.312 2.632.157.28.16 2.254.155-3.483.155 2.66.784 2.3.158 1.66.157-1.957.155 1.675.156.238.158 1.317.157-.894.155 1.103.16 2.899.158-5.178.153 3.507.157.125.157 1.081.157-.122.157.753.157-.008.159 2.035.156-2.802.31 2.498.47 1.454.159 1.05.157-1.262.155 1.436.157.36.158 1.342.157-1.636.313 2.705.157-1.002.312 1.597.157.202.314 1.082.157.374.158 1.153.156-1.078.313 1.782.156-.075.155.09.317 2.473.157-1.584.157 1.709.156-1.338.312 1.862.157.176.156.413.158 1.254.157-1.21.313 1.894.157-.03.313.862.161 2.91.157-4.75.155 4.476.159-1.49.312 1.229.157.452.163 3.267.156-6.33.148 3.934.469 1.381.314.575.158 1.049.157-.821.312 1.276.47.739.158 1.009.157-.776.155.989.157.137.314.697.315.877.158-.132.156-.4.31 1.217.471 1.024.158.566.157-.47.312 1.039.47.73.158.828.157-.676.157 1.277.157-.765.155.793.314.385.316.83.156-.554.312.808.47.39.158 1 .157-.93.154.855.471.485.158 1.6.313-.352.312.687.786 1.159.157-.616.155.715.157-.12.628.995.31-.402.157.935.158-.169.159.074.156-.393.313.921.157-.44.312.595.158.28.157-.077.314.562.157-.406.312.627.156.003.159.537.159-.252.16.649.157-.875.313.736.155-1.262.153.853.156-.023.314.362.157-.388.155.308.627.003.158.212.157-.468.155.226.945-.165.157-1.364.153.52.47-.063.157-.247.158.226.156-.744.155.27.628-.46.158-.028.156-.626.155.082.472-.695.157-.783.314.296.156-.97.157.453.157-.677.156-.044.313-.421.159.191.312-1.156.156-.028.626-.934.158.192.157-1 .157.141.157-1.107.155.267.314-.462.158.182.157-1.26.155.235.157-.135.313-.46.157-.248.158.067.157-.994.155.065.47-.725.156-.684.157.7.16-.413.157-2.316.154.95.157-.15.156-.436.157-.025.157-.4.158.452.157-1.406.155.369.157-.321.156-.027.313-.554.157-.211.16 1.223.16-1.995.156.117.156-.412.16.496.156-2.82.313 2.125.155-3.38.152 1.957.47-.614.316.13.156-1.346.155.38.157-.002.627-.737.158.44.157-1.474.156.812.158-.797.157-1.535.155.469.156-.043.159.496.157-1.462.155.323.156-.152.157.051.157-.424.157.067.157-.146.158.208.156-1.574.155.723.314-.324.157-.417.156-.068.16.995.157-3.278.154 1.4.157.142.156-.94.157.471.157-.201.159.321.156-1.885.156.814.157-.473.156.111.158-.226.156-.792.314.544.156-1.557.155.608.157-.057.157-.399.159.357.157-2.975.156 2.153.157-1.937.155.678.314-.353.312-.257.159.807.157-2.344.155 1.26.157-.659.157.028.157-.416.313-.114.159.88.156-2.781.153.4.158 1.049.158-2.867.155.787.157.044.159.701.157-2.085.155.793.313-.382.157-.032.157-.433.156-.057.159.751.156-2.217.156 1.1.156-.565.16 1.52.158-1.633.157-.18.163 2.786.157-8.165.15 3.744.156-.428.31-.135.157.327.159 1.08.157-2.739.155.636.156.043.157-.128.156.201.157-.69.157.088.158.779.157-1.918.312.725.157-.665.158 1.026.158-2.281.156 1.355.156-1.753.156.789.157-.454.156.063.157-.184.157.084.156-.204.159.524.156-2.33.155.809.313-.18.158.394.157-1.055.157 1.221.157-2.349.314 1.442.157-2.64.155.563.156-.102.158 1.306.157-2.403.313 1.534.157-1.105.157-.013.157.151.157-.426.158 1.12.157-3.062.154 1.301.157-.466.156.309.156-.235.157.199.16 1.216.157-5.167.153 2.795.314-.577.157-.097.156-.401.157-.02.158 1.119.157-2.386.312 1.181.157-.593.157.293.157-.31.158.903.157-2.513.155.892.157.126.156-.172.158.927.156-3.57.157 4.854.158-4.192.156 1.422.156-.38.313-.136.157.356.157-.619.158 1.38.157-2.703.312 1.86.157-1.337.157.624.156-.115.162 4.078.158-6.784.155 3.252.16.162.156-4.515.154 2.12.313.49.157-.016.154-1.933.155 2.228.157-.148.157.334.157-.495.156.23.159 1.871.156-3.29.155 1.944.157-.039.157.549.314-.158.158 1.498.156-2.556.314 2.65.157-3.214.155 1.626.157.367.156.047.16 1.96.156-3.083.155 1.583.157.334.157.606.156-.625.315 1.842.156-2.001.155 1.502.314.433.157.665.159-1.005.156-2.129.157 2.64.156-2.096.155 1.75.314.262.158.814.157-.342.158 1.614.157-1.974.312 1.009.156.617.156-.407.156.793.159 1.664.157-2.613.313 2.277.157-2.44.313 2.235.156-.948.158 2.006.156-2.019.156 1.399.157.399.156-.173.157.72.157-.245.158 1.96.158-2.57.155 1.913.157-.805.313 1.197.157.069.16 1.915.156-5.34.153 2.89.155-.433.157 2.301.159-.95.156.36.157-.033.158 1.51.156-1.97.156 1.353.627.819.159 1.68.157-2.719.311 2.169.159 1.129.161.285.157-4.517.155 3.745.159-.497.156-1.19.936 3.241.156-1.693.155 1.117.314.5.157.523.157-.367.158 1.368.156-1.964.314 1.983.157-1.686.312 1.343.157.068.158 1.2.157-1.693.155.987.313.311.157.518.157-.22.158 1.47.157-2.318.154 1.519.47.515.158.367.156-.2.159 1.445.314-2.526.155 1.387.156.124.157.438.157-.23.158 1.873.157-2.636.156 2.072.157-.414.157.469.157-.064.156.286.158.886.156-1.43.155.998.628 1.151.157-1.466.157 1.873.157-1.552.155 1.392.157-.35.156.817.157-.182.157.41.158 1.153.157-1.474.155 1.36.314.214.47.874.158 1.154.157-1.287.313 1.325.157-1.429.155 1.199.156.05.159 1.963.158-1.746.31 1.455.471.963.158 1.149.157-1.286.312 1.675.314.498.156.312.157.572.165 3.17.159-6.122.15 3.18.158.823.157-.286.156.622.155-.268.158 2.24.156-2.672.153 2.19.784 1.693.158 1.118.157-.915.313 1.334.156.296.158.57.157-.735.157 1.866.157-1.455.155 1.478.157.056.314.7.314 1.163.157-.545.311 1.08.786 1.948.156-.575.156.827.315-1.122.47 1.676.156-.597.313 1.08.156.095.158.744.158-.212.158.689.156-.592.156.714.156.115.156.333.157-.002.312.611.16-.433.158-1.77.153 1.231.627 1.034.159.312.156-.516.312.838.47.502.157.185.158.507.157-.547.156.553.313.292.158.354.158-.433.156.612.157-.429.155.357.155-.062.156.592.158-.05.157.184.158.377.157-.497.312.626.314.345.157-.085.156.227.158.523.157-.652.317 1.292.159-1.762.153.898.157.202.16.699.155-1.475.153 1.106.312.168.629.922.156-.536.312.704.47.412.158.419.314-.596.155.486.313.257.317.658.156-.471.155.524.157.07.785 1.098.156-.453.312.556.314.227.471-.362.156.537.157-.016.313.324.314.23.158.424.157-.38.156.326.313.23.314.214.158.348.156-.308.155.39.159-.12.156-.387.312.427.158.24.156-.29.312.36.786.704.157-.334.312.333.157-.074.471.307.314-.416.312.322.313.079.155-.114.159.42.158-.519.155.151.47-.184.158-.053.158.158.156-.325.312.11.157.007.157-.137.161.133.316-1.172.154.428.314-.111.156-.053.156-.24.154.104.158.47.157-.748.154.377.628-.006.158.103.156-.324.155.205.157.014.159.148.157-.427.155.195.156-.005.159.306.157-.472.156.241.156-.089.628.332.157-.445.312.28.313-.02.157.02.158.173.157-.433.156.17.157-.424.312.294.314.016.158.19.157-.422.312.277.157.087.314-.11.158.258.157-.453.156.336.312-.142.156.047.159.414.158.957.155-.09.312 1.038.47.637.158-.097.158.335.157-.375.154.178.47-.223.157-.079.158.074.157-.442.156.03.157-.128.315-1.417.155.149.156-.196.158.29.157-.515.155.14.156-.186.156.245.316-.235.158.127.157-.453.155.227.156-.08.157.052.313-.067.158.178.163 1.352.156-1.228.154.948.158-.365.469.033.16.342.156-.791.153.296.155.003.313.331.315 1.898.468.217.156-.156.156.239.475-.445.155-.105.313.526.628.186.157-.248.312.009.313-.031.157.088.158.41.157.03.311 1.038.157.286.158-1.075.157-.17.155.129.159.348.157.059.155.875.314 3.008 1.112 2.358.156.125 1.083-.939.629.193 1.096-.063.313-.129.47-.061.158-.938.312.233.314.117.469.056 1.882-.07.161.23.157-.19.154.147.315.012.16.062.156-.1.31.024 1.88-.02.156-.069.157.708 2.663.167.159-.448.47.139.94.325.47.108h0" clip-path="url(#p09cd11e766)" style="fill:none;stroke:#2563eb;stroke-linecap:square" id="line2d_59"/><path d="m233.775 689.071 1.685-4.493 10.404-27.69 4.33-11.454 7.21-18.698 6.72-16.383.921-2.097 1.254-2.824.49-1.06 1.234-2.641 1.568-3.22 1.684-3.232 1.803-3.21 2.214-3.5 3.252-4.13.49-.495 1.195-1.045.53.768 1.312 2.038.803 1.277 3.155 5.37.705 1.29 1.137 2.098 5.525 11.139.705 1.537 1.47 3.223 1.077 2.468.216.493.705 1.59.705 1.668.647 1.514.881 2.113 1.666 4.047 4.173 10.555 6.407 17.129 2.978 8.266.803 2.235 8.895 25.342.059-.057 5.643-16.139 4.114-11.615 1.352-3.784.549-1.482.92-2.559.98-2.671 1.195-3.288.098-.231 2.332-6.217 1.783-4.69.45-1.142 1.235-3.181.548-1.383 1.02-2.57.98-2.43.704-1.72 2.39-5.735 3.312-7.566.744-1.634.98-2.131 1.195-2.504.372-.806.392-.775.529-1.101 6.407-11.998.548-.903.314-.543 1.47-2.383.92-1.416.274-.459.098-.123.98-1.455 1.685-2.363.157-.205 2.704-3.413.176-.206.372-.439.764-.896.04.025.391-.462 1.509-1.57.059.015.215-.287.06.02.215-.251.607-.588.255-.21.274-.239 2.978-2.355.118-.077.372-.253 3.958-2.081.156-.039.49-.205.176-.066 2.92-.695 2.39-.18.157.016.862.039.548.046.157.008 1.626.303.549.16.215.046.49.16.216.042.157.068.215.06 3.801 1.795.216.175.176.102.157.113.098.035 1.038.736.098.052.92.67.334.275 1.136.957 3.037 2.907" clip-path="url(#p09cd11e766)" style="fill:none;stroke-dasharray:3.7,1.6;stroke-dashoffset:0;stroke:#f97316;stroke-opacity:.8" id="line2d_60"/><path d="M42.539 689.118v-147.84" style="fill:none;stroke:#000;stroke-width:.8;stroke-linejoin:miter;stroke-linecap:square" id="patch_9"/><path d="M600.539 689.118v-147.84" style="fill:none;stroke:#000;stroke-width:.8;stroke-linejoin:miter;stroke-linecap:square" id="patch_10"/><path d="M42.539 689.118h558" style="fill:none;stroke:#000;stroke-width:.8;stroke-linejoin:miter;stroke-linecap:square" id="patch_11"/><path d="M42.539 541.278h558" style="fill:none;stroke:#000;stroke-width:.8;stroke-linejoin:miter;stroke-linecap:square" id="patch_12"/><g transform="matrix(.12 0 0 -.12 270.185 535.278)" id="text_37"><defs><path id="DejaVuSans-48" d="M628 4666h631V2753h2294v1913h631V0h-631v2222H1259V0H628v4666z" transform="scale(.01563)"/><path id="DejaVuSans-7a" d="M353 3500h2731v-525L922 459h2162V0H275v525l2163 2516H353v459z" transform="scale(.01563)"/></defs><use xlink:href="#DejaVuSans-48"/><use xlink:href="#DejaVuSans-6f" transform="translate(75.195)"/><use xlink:href="#DejaVuSans-72" transform="translate(136.377)"/><use xlink:href="#DejaVuSans-69" transform="translate(177.49)"/><use xlink:href="#DejaVuSans-7a" transform="translate(205.273)"/><use xlink:href="#DejaVuSans-6f" transform="translate(257.764)"/><use xlink:href="#DejaVuSans-6e" transform="translate(318.945)"/><use xlink:href="#DejaVuSans-74" transform="translate(382.324)"/><use xlink:href="#DejaVuSans-61" transform="translate(421.533)"/><use xlink:href="#DejaVuSans-6c" transform="translate(482.813)"/><use xlink:href="#DejaVuSans-20" transform="translate(510.596)"/><use xlink:href="#DejaVuSans-53" transform="translate(542.383)"/><use xlink:href="#DejaVuSans-70" transform="translate(605.86)"/><use xlink:href="#DejaVuSans-65" transform="translate(669.336)"/><use xlink:href="#DejaVuSans-65" transform="translate(730.86)"/><use xlink:href="#DejaVuSans-64" transform="translate(792.383)"/></g><g id="legend_2"><path d="M444.158 579.19h149.38q2 0 2-2v-28.912q0-2-2-2h-149.38q-2 0-2 2v28.912q0 2 2 2z" style="fill:#fff;opacity:.8;stroke:#ccc;stroke-linejoin:miter" id="patch_13"/><path d="M446.158 554.376h20" style="fill:none;stroke:#2563eb;stroke-linecap:square" id="line2d_61"/><g transform="matrix(.1 0 0 -.1 474.158 557.876)" id="text_38"><use xlink:href="#DejaVuSans-76"/><use xlink:href="#DejaVuSans-65" transform="translate(59.18)"/><use xlink:href="#DejaVuSans-68" transform="translate(120.703)"/><use xlink:href="#DejaVuSans-69" transform="translate(184.082)"/><use xlink:href="#DejaVuSans-63" transform="translate(211.865)"/><use xlink:href="#DejaVuSans-6c" transform="translate(266.846)"/><use xlink:href="#DejaVuSans-65" transform="translate(294.629)"/><use xlink:href="#DejaVuSans-5f" transform="translate(356.152)"/><use xlink:href="#DejaVuSans-6c" transform="translate(406.152)"/><use xlink:href="#DejaVuSans-6f" transform="translate(433.936)"/><use xlink:href="#DejaVuSans-63" transform="translate(495.117)"/><use xlink:href="#DejaVuSans-61" transform="translate(550.098)"/><use xlink:href="#DejaVuSans-6c" transform="translate(611.377)"/><use xlink:href="#DejaVuSans-5f" transform="translate(639.16)"/><use xlink:href="#DejaVuSans-70" transform="translate(689.16)"/><use xlink:href="#DejaVuSans-6f" transform="translate(752.637)"/><use xlink:href="#DejaVuSans-73" transform="translate(813.818)"/><use xlink:href="#DejaVuSans-69" transform="translate(865.918)"/><use xlink:href="#DejaVuSans-74" transform="translate(893.701)"/><use xlink:href="#DejaVuSans-69" transform="translate(932.91)"/><use xlink:href="#DejaVuSans-6f" transform="translate(960.693)"/><use xlink:href="#DejaVuSans-6e" transform="translate(1021.875)"/></g><path d="M446.158 569.332h20" style="fill:none;stroke-dasharray:3.7,1.6;stroke-dashoffset:0;stroke:#f97316;stroke-opacity:.8" id="line2d_62"/><g transform="matrix(.1 0 0 -.1 474.158 572.832)" id="text_39"><use xlink:href="#DejaVuSans-72"/><use xlink:href="#DejaVuSans-61" transform="translate(41.113)"/><use xlink:href="#DejaVuSans-70" transform="translate(102.393)"/><use xlink:href="#DejaVuSans-74" transform="translate(165.87)"/><use xlink:href="#DejaVuSans-6f" transform="translate(205.078)"/><use xlink:href="#DejaVuSans-72" transform="translate(266.26)"/><use xlink:href="#DejaVuSans-5f" transform="translate(307.373)"/><use xlink:href="#DejaVuSans-73" transform="translate(357.373)"/><use xlink:href="#DejaVuSans-74" transform="translate(409.473)"/><use xlink:href="#DejaVuSans-61" transform="translate(448.682)"/><use xlink:href="#DejaVuSans-74" transform="translate(509.96)"/><use xlink:href="#DejaVuSans-75" transform="translate(549.17)"/><use xlink:href="#DejaVuSans-73" transform="translate(612.549)"/><use xlink:href="#DejaVuSans-20" transform="translate(664.648)"/><use xlink:href="#DejaVuSans-72" transform="translate(696.436)"/><use xlink:href="#DejaVuSans-65" transform="translate(735.299)"/><use xlink:href="#DejaVuSans-66" transform="translate(796.822)"/><use xlink:href="#DejaVuSans-65" transform="translate(832.027)"/><use xlink:href="#DejaVuSans-72" transform="translate(893.55)"/><use xlink:href="#DejaVuSans-65" transform="translate(932.414)"/><use xlink:href="#DejaVuSans-6e" transform="translate(993.938)"/><use xlink:href="#DejaVuSans-63" transform="translate(1057.316)"/><use xlink:href="#DejaVuSans-65" transform="translate(1112.297)"/></g></g></g></g><defs><clipPath id="pd715b33a2d"><path d="M204.218 23.838H438.86v443.52H204.218z"/></clipPath><clipPath id="p09cd11e766"><path d="M42.539 541.278h558v147.84h-558z"/></clipPath></defs></svg>
