<svg style="fill-opacity:1;color-rendering:auto;color-interpolation:auto;text-rendering:auto;stroke:#000;stroke-linecap:square;stroke-miterlimit:10;shape-rendering:auto;stroke-opacity:1;fill:#000;stroke-dasharray:none;font-weight:400;stroke-width:1;font-family:'Dialog';font-style:normal;stroke-linejoin:miter;font-size:12px;stroke-dashoffset:0;image-rendering:auto" width="560" height="420" xmlns="http://www.w3.org/2000/svg"><defs><clipPath clipPathUnits="userSpaceOnUse" id="a"><path d="M0 0h560v420H0V0Z"/></clipPath></defs><g style="fill:#fff;stroke:#fff"><path style="clip-path:url(#a);stroke:none" d="M0 0h560v420H0z" stroke="none"/></g><g style="fill:#fff;text-rendering:optimizeSpeed;color-rendering:optimizeSpeed;image-rendering:optimizeSpeed;shape-rendering:crispEdges;stroke:#fff;color-interpolation:sRGB" stroke="none"><path style="stroke:none" d="M0 0h560v420H0z"/><path style="stroke:none" d="M73 374h434V31H73Z"/></g><g style="fill-opacity:.251;color-rendering:optimizeQuality;color-interpolation:linearRGB;text-rendering:geometricPrecision;stroke:#1a1a1a;stroke-linecap:butt;stroke-miterlimit:1;stroke-opacity:.251;fill:#1a1a1a;stroke-dasharray:1,3;stroke-width:.6667;stroke-linejoin:bevel;image-rendering:optimizeQuality"><path style="fill:none" d="M81.68 374V31m8.68 343V31m8.68 343V31m8.68 343V31m17.36 343V31m8.68 343V31m8.68 343V31m8.68 343V31m17.36 343V31m8.68 343V31m8.68 343V31m8.68 343V31m17.36 343V31m8.68 343V31m8.68 343V31m8.68 343V31m17.36 343V31m8.68 343V31m8.68 343V31m8.68 343V31m17.36 343V31m8.68 343V31m8.68 343V31m8.68 343V31m17.36 343V31m8.68 343V31m8.68 343V31m8.68 343V31m17.36 343V31m8.68 343V31m8.68 343V31m8.68 343V31m17.36 343V31m8.68 343V31m8.68 343V31m8.68 343V31m17.36 343V31m8.68 343V31m8.68 343V31m8.68 343V31"/></g><g style="stroke-linecap:butt;fill-opacity:.149;fill:#262626;text-rendering:geometricPrecision;image-rendering:optimizeQuality;color-rendering:optimizeQuality;stroke-linejoin:round;stroke:#262626;color-interpolation:linearRGB;stroke-width:.6667;stroke-opacity:.149"><path style="fill:none" d="M73 374V31m43.4 343V31m43.4 343V31m43.4 343V31m43.4 343V31M290 374V31m43.4 343V31m43.4 343V31m43.4 343V31m43.4 343V31M507 374V31"/></g><g style="fill-opacity:.251;color-rendering:optimizeQuality;color-interpolation:linearRGB;text-rendering:geometricPrecision;stroke:#1a1a1a;stroke-linecap:butt;stroke-miterlimit:1;stroke-opacity:.251;fill:#1a1a1a;stroke-dasharray:1,3;stroke-width:.6667;stroke-linejoin:bevel;image-rendering:optimizeQuality"><path style="fill:none" d="M507 367.14H73m434-6.86H73m434-6.86H73m434-6.86H73m434-13.72H73m434-6.86H73m434-6.86H73m434-6.86H73m434-13.72H73m434-6.86H73m434-6.86H73m434-6.86H73m434-13.72H73m434-6.86H73m434-6.86H73m434-6.86H73m434-13.72H73m434-6.86H73m434-6.86H73m434-6.86H73m434-13.72H73m434-6.86H73m434-6.86H73m434-6.86H73m434-13.72H73m434-6.86H73m434-6.86H73m434-6.86H73m434-13.72H73m434-6.86H73m434-6.86H73m434-6.86H73m434-13.72H73m434-6.86H73m434-6.86H73m434-6.86H73m434-13.72H73m434-6.86H73m434-6.86H73m434-6.86H73"/></g><g style="stroke-linecap:butt;fill-opacity:.149;fill:#262626;text-rendering:geometricPrecision;image-rendering:optimizeQuality;color-rendering:optimizeQuality;stroke-linejoin:round;stroke:#262626;color-interpolation:linearRGB;stroke-width:.6667;stroke-opacity:.149"><path style="fill:none" d="M507 374H73m434-34.3H73m434-34.3H73m434-34.3H73m434-34.3H73m434-34.3H73m434-34.3H73m434-34.3H73m434-34.3H73m434-34.3H73M507 31H73"/><path style="stroke-linecap:square;fill-opacity:1;fill:none;stroke-opacity:1" d="M73 374h434m-434 0v-4.34m43.4 4.34v-4.34m43.4 4.34v-4.34m43.4 4.34v-4.34m43.4 4.34v-4.34M290 374v-4.34m43.4 4.34v-4.34m43.4 4.34v-4.34m43.4 4.34v-4.34m43.4 4.34v-4.34M507 374v-4.34"/></g><g style="font-size:13.3333px;fill:#262626;text-rendering:geometricPrecision;image-rendering:optimizeQuality;color-rendering:optimizeQuality;font-family:'SansSerif';stroke:#262626;color-interpolation:linearRGB"><text x="-4" xml:space="preserve" y="14" style="stroke:none" transform="translate(73 379.333)">0</text></g><g style="font-size:13.3333px;fill:#262626;text-rendering:geometricPrecision;image-rendering:optimizeQuality;color-rendering:optimizeQuality;font-family:'SansSerif';stroke:#262626;color-interpolation:linearRGB"><text x="-9.5" xml:space="preserve" y="14" style="stroke:none" transform="translate(116.4 379.333)">0.1</text></g><g style="font-size:13.3333px;fill:#262626;text-rendering:geometricPrecision;image-rendering:optimizeQuality;color-rendering:optimizeQuality;font-family:'SansSerif';stroke:#262626;color-interpolation:linearRGB"><text x="-9.5" xml:space="preserve" y="14" style="stroke:none" transform="translate(159.8 379.333)">0.2</text></g><g style="font-size:13.3333px;fill:#262626;text-rendering:geometricPrecision;image-rendering:optimizeQuality;color-rendering:optimizeQuality;font-family:'SansSerif';stroke:#262626;color-interpolation:linearRGB"><text x="-9.5" xml:space="preserve" y="14" style="stroke:none" transform="translate(203.2 379.333)">0.3</text></g><g style="font-size:13.3333px;fill:#262626;text-rendering:geometricPrecision;image-rendering:optimizeQuality;color-rendering:optimizeQuality;font-family:'SansSerif';stroke:#262626;color-interpolation:linearRGB"><text x="-9.5" xml:space="preserve" y="14" style="stroke:none" transform="translate(246.6 379.333)">0.4</text></g><g style="font-size:13.3333px;fill:#262626;text-rendering:geometricPrecision;image-rendering:optimizeQuality;color-rendering:optimizeQuality;font-family:'SansSerif';stroke:#262626;color-interpolation:linearRGB"><text x="-9.5" xml:space="preserve" y="14" style="stroke:none" transform="translate(290 379.333)">0.5</text></g><g style="font-size:13.3333px;fill:#262626;text-rendering:geometricPrecision;image-rendering:optimizeQuality;color-rendering:optimizeQuality;font-family:'SansSerif';stroke:#262626;color-interpolation:linearRGB"><text x="-9.5" xml:space="preserve" y="14" style="stroke:none" transform="translate(333.4 379.333)">0.6</text></g><g style="font-size:13.3333px;fill:#262626;text-rendering:geometricPrecision;image-rendering:optimizeQuality;color-rendering:optimizeQuality;font-family:'SansSerif';stroke:#262626;color-interpolation:linearRGB"><text x="-9.5" xml:space="preserve" y="14" style="stroke:none" transform="translate(376.8 379.333)">0.7</text></g><g style="font-size:13.3333px;fill:#262626;text-rendering:geometricPrecision;image-rendering:optimizeQuality;color-rendering:optimizeQuality;font-family:'SansSerif';stroke:#262626;color-interpolation:linearRGB"><text x="-9.5" xml:space="preserve" y="14" style="stroke:none" transform="translate(420.2 379.333)">0.8</text></g><g style="font-size:13.3333px;fill:#262626;text-rendering:geometricPrecision;image-rendering:optimizeQuality;color-rendering:optimizeQuality;font-family:'SansSerif';stroke:#262626;color-interpolation:linearRGB"><text x="-9.5" xml:space="preserve" y="14" style="stroke:none" transform="translate(463.6 379.333)">0.9</text></g><g style="font-size:13.3333px;fill:#262626;text-rendering:geometricPrecision;image-rendering:optimizeQuality;color-rendering:optimizeQuality;font-family:'SansSerif';stroke:#262626;color-interpolation:linearRGB"><text x="-4" xml:space="preserve" y="14" style="stroke:none" transform="translate(507 379.333)">1</text></g><g style="font-size:14.6667px;fill:#262626;text-rendering:geometricPrecision;image-rendering:optimizeQuality;color-rendering:optimizeQuality;font-family:'SansSerif';stroke:#262626;color-interpolation:linearRGB"><text x="-68" xml:space="preserve" y="15" style="stroke:none" transform="translate(290 397.667)">Relative Pulse Width</text></g><g style="fill:#262626;text-rendering:geometricPrecision;image-rendering:optimizeQuality;color-rendering:optimizeQuality;stroke-linejoin:round;stroke:#262626;color-interpolation:linearRGB;stroke-width:.6667"><path style="fill:none" d="M73 374V31m0 343h4.34M73 339.7h4.34M73 305.4h4.34M73 271.1h4.34M73 236.8h4.34M73 202.5h4.34M73 168.2h4.34M73 133.9h4.34M73 99.6h4.34M73 65.3h4.34M73 31h4.34"/></g><g style="font-size:13.3333px;fill:#262626;text-rendering:geometricPrecision;image-rendering:optimizeQuality;color-rendering:optimizeQuality;font-family:'SansSerif';stroke:#262626;color-interpolation:linearRGB"><text x="-8" xml:space="preserve" y="5.5" style="stroke:none" transform="translate(67.667 374)">0</text></g><g style="font-size:13.3333px;fill:#262626;text-rendering:geometricPrecision;image-rendering:optimizeQuality;color-rendering:optimizeQuality;font-family:'SansSerif';stroke:#262626;color-interpolation:linearRGB"><text x="-19" xml:space="preserve" y="5.5" style="stroke:none" transform="translate(67.667 339.7)">0.1</text></g><g style="font-size:13.3333px;fill:#262626;text-rendering:geometricPrecision;image-rendering:optimizeQuality;color-rendering:optimizeQuality;font-family:'SansSerif';stroke:#262626;color-interpolation:linearRGB"><text x="-19" xml:space="preserve" y="5.5" style="stroke:none" transform="translate(67.667 305.4)">0.2</text></g><g style="font-size:13.3333px;fill:#262626;text-rendering:geometricPrecision;image-rendering:optimizeQuality;color-rendering:optimizeQuality;font-family:'SansSerif';stroke:#262626;color-interpolation:linearRGB"><text x="-19" xml:space="preserve" y="5.5" style="stroke:none" transform="translate(67.667 271.1)">0.3</text></g><g style="font-size:13.3333px;fill:#262626;text-rendering:geometricPrecision;image-rendering:optimizeQuality;color-rendering:optimizeQuality;font-family:'SansSerif';stroke:#262626;color-interpolation:linearRGB"><text x="-19" xml:space="preserve" y="5.5" style="stroke:none" transform="translate(67.667 236.8)">0.4</text></g><g style="font-size:13.3333px;fill:#262626;text-rendering:geometricPrecision;image-rendering:optimizeQuality;color-rendering:optimizeQuality;font-family:'SansSerif';stroke:#262626;color-interpolation:linearRGB"><text x="-19" xml:space="preserve" y="5.5" style="stroke:none" transform="translate(67.667 202.5)">0.5</text></g><g style="font-size:13.3333px;fill:#262626;text-rendering:geometricPrecision;image-rendering:optimizeQuality;color-rendering:optimizeQuality;font-family:'SansSerif';stroke:#262626;color-interpolation:linearRGB"><text x="-19" xml:space="preserve" y="5.5" style="stroke:none" transform="translate(67.667 168.2)">0.6</text></g><g style="font-size:13.3333px;fill:#262626;text-rendering:geometricPrecision;image-rendering:optimizeQuality;color-rendering:optimizeQuality;font-family:'SansSerif';stroke:#262626;color-interpolation:linearRGB"><text x="-19" xml:space="preserve" y="5.5" style="stroke:none" transform="translate(67.667 133.9)">0.7</text></g><g style="font-size:13.3333px;fill:#262626;text-rendering:geometricPrecision;image-rendering:optimizeQuality;color-rendering:optimizeQuality;font-family:'SansSerif';stroke:#262626;color-interpolation:linearRGB"><text x="-19" xml:space="preserve" y="5.5" style="stroke:none" transform="translate(67.667 99.6)">0.8</text></g><g style="font-size:13.3333px;fill:#262626;text-rendering:geometricPrecision;image-rendering:optimizeQuality;color-rendering:optimizeQuality;font-family:'SansSerif';stroke:#262626;color-interpolation:linearRGB"><text x="-19" xml:space="preserve" y="5.5" style="stroke:none" transform="translate(67.667 65.3)">0.9</text></g><g style="font-size:13.3333px;fill:#262626;text-rendering:geometricPrecision;image-rendering:optimizeQuality;color-rendering:optimizeQuality;font-family:'SansSerif';stroke:#262626;color-interpolation:linearRGB"><text x="-8" xml:space="preserve" y="5.5" style="stroke:none" transform="translate(67.667 31)">1</text></g><g style="font-size:14.6667px;fill:#262626;text-rendering:geometricPrecision;image-rendering:optimizeQuality;color-rendering:optimizeQuality;font-family:'SansSerif';stroke:#262626;color-interpolation:linearRGB"><text x="-49.5" xml:space="preserve" y="-4" style="stroke:none" transform="rotate(-90 123.583 78.917)">Relative Thrust</text></g><g style="font-size:14.6667px;text-rendering:geometricPrecision;image-rendering:optimizeQuality;color-rendering:optimizeQuality;font-family:'SansSerif';color-interpolation:linearRGB;font-weight:700"><text x="-109" xml:space="preserve" y="-4" style="stroke:none" transform="translate(290 28.25)">Relative Scale Raw Data Points</text></g><g transform="translate(73 374)" style="stroke-linecap:butt;fill:#0072bd;text-rendering:geometricPrecision;color-rendering:optimizeQuality;image-rendering:optimizeQuality;color-interpolation:linearRGB;stroke:#0072bd"><circle r="4" style="fill:none"/><circle r="4" style="fill:none"/><circle r="4" style="fill:none" transform="translate(8.346)"/><circle r="4" style="fill:none" transform="translate(12.52)"/><circle r="4" style="fill:none" transform="translate(14.606)"/><circle r="4" style="fill:none" transform="translate(25.038)"/><circle r="4" style="fill:none" transform="translate(22.952)"/><circle r="4" style="fill:none" transform="translate(27.125)"/><circle r="4" style="fill:none" transform="translate(27.125 -.35)"/><circle r="4" style="fill:none" transform="translate(27.125 -2.795)"/><circle r="4" style="fill:none" transform="translate(27.125 -5.59)"/><circle r="4" style="fill:none" transform="translate(37.558 -6.376)"/><circle r="4" style="fill:none" transform="translate(37.558 -6.638)"/><circle r="4" style="fill:none" transform="translate(39.644 -6.114)"/><circle r="4" style="fill:none" transform="translate(39.644 -5.59)"/><circle r="4" style="fill:none" transform="translate(39.644 -5.415)"/><circle r="4" style="fill:none" transform="translate(41.73 -5.503)"/><circle r="4" style="fill:none" transform="translate(41.73 -5.59)"/><circle r="4" style="fill:none" transform="translate(41.73 -6.201)"/><circle r="4" style="fill:none" transform="translate(52.163 -7.599)"/><circle r="4" style="fill:none" transform="translate(56.337 -8.56)"/><circle r="4" style="fill:none" transform="translate(56.337 -9.084)"/><circle r="4" style="fill:none" transform="translate(58.423 -9.608)"/><circle r="4" style="fill:none" transform="translate(66.77 -10.918)"/><circle r="4" style="fill:none" transform="translate(68.856 -13.102)"/><circle r="4" style="fill:none" transform="translate(68.856 -15.023)"/><circle r="4" style="fill:none" transform="translate(68.856 -16.071)"/><circle r="4" style="fill:none" transform="translate(70.942 -16.595)"/><circle r="4" style="fill:none" transform="translate(73.029 -17.032)"/><circle r="4" style="fill:none" transform="translate(77.202 -17.73)"/><circle r="4" style="fill:none" transform="translate(83.462 -18.954)"/><circle r="4" style="fill:none" transform="translate(81.375 -20.788)"/><circle r="4" style="fill:none" transform="translate(83.462 -22.36)"/><circle r="4" style="fill:none" transform="translate(83.462 -23.32)"/><circle r="4" style="fill:none" transform="translate(87.635 -23.932)"/><circle r="4" style="fill:none" transform="translate(89.721 -24.718)"/><circle r="4" style="fill:none" transform="translate(91.808 -25.767)"/><circle r="4" style="fill:none" transform="translate(93.894 -26.99)"/><circle r="4" style="fill:none" transform="translate(93.894 -28.387)"/><circle r="4" style="fill:none" transform="translate(93.894 -29.435)"/><circle r="4" style="fill:none" transform="translate(93.894 -30.134)"/><circle r="4" style="fill:none" transform="translate(93.894 -30.396)"/><circle r="4" style="fill:none" transform="translate(93.894 -30.483)"/><circle r="4" style="fill:none" transform="translate(93.894 -30.483)"/><circle r="4" style="fill:none" transform="translate(91.808 -30.57)"/><circle r="4" style="fill:none" transform="translate(95.98 -30.658)"/><circle r="4" style="fill:none" transform="translate(95.98 -31.27)"/><circle r="4" style="fill:none" transform="translate(98.067 -32.055)"/><circle r="4" style="fill:none" transform="translate(100.154 -32.58)"/><circle r="4" style="fill:none" transform="translate(98.067 -33.453)"/><circle r="4" style="fill:none" transform="translate(98.067 -34.064)"/><circle r="4" style="fill:none" transform="translate(98.067 -34.326)"/><circle r="4" style="fill:none" transform="translate(100.154 -34.413)"/><circle r="4" style="fill:none" transform="translate(98.067 -34.413)"/><circle r="4" style="fill:none" transform="translate(100.154 -34.588)"/><circle r="4" style="fill:none" transform="translate(102.24 -34.938)"/><circle r="4" style="fill:none" transform="translate(102.24 -35.287)"/><circle r="4" style="fill:none" transform="translate(102.24 -35.636)"/><circle r="4" style="fill:none" transform="translate(104.327 -36.422)"/><circle r="4" style="fill:none" transform="translate(108.5 -37.558)"/><circle r="4" style="fill:none" transform="translate(108.5 -39.13)"/><circle r="4" style="fill:none" transform="translate(112.673 -40.353)"/><circle r="4" style="fill:none" transform="translate(110.587 -40.877)"/><circle r="4" style="fill:none" transform="translate(108.5 -41.052)"/><circle r="4" style="fill:none" transform="translate(110.587 -41.139)"/><circle r="4" style="fill:none" transform="translate(108.5 -41.139)"/><circle r="4" style="fill:none" transform="translate(108.5 -41.052)"/><circle r="4" style="fill:none" transform="translate(110.587 -40.964)"/><circle r="4" style="fill:none" transform="translate(114.76 -41.226)"/><circle r="4" style="fill:none" transform="translate(114.76 -42.275)"/><circle r="4" style="fill:none" transform="translate(114.76 -43.585)"/><circle r="4" style="fill:none" transform="translate(112.673 -44.196)"/><circle r="4" style="fill:none" transform="translate(118.933 -44.458)"/><circle r="4" style="fill:none" transform="translate(127.279 -45.768)"/><circle r="4" style="fill:none" transform="translate(125.192 -49)"/><circle r="4" style="fill:none" transform="translate(129.365 -51.27)"/><circle r="4" style="fill:none" transform="translate(127.279 -52.669)"/><circle r="4" style="fill:none" transform="translate(131.452 -53.63)"/><circle r="4" style="fill:none" transform="translate(133.538 -54.59)"/><circle r="4" style="fill:none" transform="translate(135.625 -56.075)"/><circle r="4" style="fill:none" transform="translate(141.885 -57.647)"/><circle r="4" style="fill:none" transform="translate(143.971 -60.093)"/><circle r="4" style="fill:none" transform="translate(143.971 -62.451)"/><circle r="4" style="fill:none" transform="translate(143.971 -63.587)"/><circle r="4" style="fill:none" transform="translate(143.971 -64.023)"/><circle r="4" style="fill:none" transform="translate(143.971 -64.198)"/><circle r="4" style="fill:none" transform="translate(143.971 -64.198)"/><circle r="4" style="fill:none" transform="translate(135.625 -64.198)"/><circle r="4" style="fill:none" transform="translate(112.673 -62.713)"/><circle r="4" style="fill:none" transform="translate(112.673 -56.424)"/><circle r="4" style="fill:none" transform="translate(110.587 -48.738)"/><circle r="4" style="fill:none" transform="translate(112.673 -44.72)"/><circle r="4" style="fill:none" transform="translate(114.76 -43.672)"/><circle r="4" style="fill:none" transform="translate(127.279 -45.244)"/><circle r="4" style="fill:none" transform="translate(129.365 -49.786)"/><circle r="4" style="fill:none" transform="translate(127.279 -52.669)"/><circle r="4" style="fill:none" transform="translate(135.625 -53.542)"/><circle r="4" style="fill:none" transform="translate(143.971 -55.55)"/><circle r="4" style="fill:none" transform="translate(148.144 -59.918)"/><circle r="4" style="fill:none" transform="translate(158.577 -63.936)"/><circle r="4" style="fill:none" transform="translate(160.663 -68.827)"/><circle r="4" style="fill:none" transform="translate(160.663 -72.758)"/><circle r="4" style="fill:none" transform="translate(158.577 -74.155)"/><circle r="4" style="fill:none" transform="translate(160.663 -74.592)"/><circle r="4" style="fill:none" transform="translate(158.577 -74.766)"/><circle r="4" style="fill:none" transform="translate(160.663 -74.854)"/><circle r="4" style="fill:none" transform="translate(158.577 -74.854)"/><circle r="4" style="fill:none" transform="translate(166.923 -74.766)"/><circle r="4" style="fill:none" transform="translate(171.096 -75.553)"/><circle r="4" style="fill:none" transform="translate(175.27 -78.435)"/><circle r="4" style="fill:none" transform="translate(173.183 -81.492)"/><circle r="4" style="fill:none" transform="translate(173.183 -83.413)"/><circle r="4" style="fill:none" transform="translate(173.183 -84.287)"/><circle r="4" style="fill:none" transform="translate(175.27 -84.549)"/><circle r="4" style="fill:none" transform="translate(179.442 -85.684)"/><circle r="4" style="fill:none" transform="translate(179.442 -88.567)"/><circle r="4" style="fill:none" transform="translate(187.788 -91.275)"/><circle r="4" style="fill:none" transform="translate(187.788 -97.389)"/><circle r="4" style="fill:none" transform="translate(187.788 -105.162)"/><circle r="4" style="fill:none" transform="translate(189.875 -109.093)"/><circle r="4" style="fill:none" transform="translate(189.875 -110.316)"/><circle r="4" style="fill:none" transform="translate(191.962 -110.752)"/><circle r="4" style="fill:none" transform="translate(202.394 -100.778)"/><circle r="4" style="fill:none" transform="translate(204.48 -105.101)"/><circle r="4" style="fill:none" transform="translate(204.48 -110.761)"/><circle r="4" style="fill:none" transform="translate(217 -114.691)"/><circle r="4" style="fill:none" transform="translate(219.087 -120.351)"/><circle r="4" style="fill:none" transform="translate(221.173 -125.304)"/><circle r="4" style="fill:none" transform="translate(231.606 -128.841)"/><circle r="4" style="fill:none" transform="translate(231.606 -133.872)"/><circle r="4" style="fill:none" transform="translate(231.606 -137.488)"/><circle r="4" style="fill:none" transform="translate(231.606 -138.589)"/><circle r="4" style="fill:none" transform="translate(244.125 -139.846)"/><circle r="4" style="fill:none" transform="translate(242.038 -143.856)"/><circle r="4" style="fill:none" transform="translate(242.038 -148.1)"/><circle r="4" style="fill:none" transform="translate(244.125 -149.673)"/><circle r="4" style="fill:none" transform="translate(252.471 -151.01)"/><circle r="4" style="fill:none" transform="translate(256.644 -155.175)"/><circle r="4" style="fill:none" transform="translate(256.644 -160.285)"/><circle r="4" style="fill:none" transform="translate(262.904 -162.722)"/><circle r="4" style="fill:none" transform="translate(260.817 -164.609)"/><circle r="4" style="fill:none" transform="translate(269.163 -167.753)"/><circle r="4" style="fill:none" transform="translate(269.163 -171.762)"/><circle r="4" style="fill:none" transform="translate(271.25 -174.592)"/><circle r="4" style="fill:none" transform="translate(269.163 -175.928)"/><circle r="4" style="fill:none" transform="translate(271.25 -176.479)"/><circle r="4" style="fill:none" transform="translate(271.25 -177.186)"/><circle r="4" style="fill:none" transform="translate(283.77 -180.173)"/><circle r="4" style="fill:none" transform="translate(287.942 -184.654)"/><circle r="4" style="fill:none" transform="translate(296.288 -188.427)"/><circle r="4" style="fill:none" transform="translate(296.288 -193.38)"/><circle r="4" style="fill:none" transform="translate(300.462 -197.782)"/><circle r="4" style="fill:none" transform="translate(310.894 -201.162)"/><circle r="4" style="fill:none" transform="translate(312.98 -206.98)"/><circle r="4" style="fill:none" transform="translate(321.327 -212.01)"/><circle r="4" style="fill:none" transform="translate(323.413 -216.727)"/><circle r="4" style="fill:none" transform="translate(325.5 -220.972)"/><circle r="4" style="fill:none" transform="translate(325.5 -223.173)"/><circle r="4" style="fill:none" transform="translate(333.846 -224.98)"/><circle r="4" style="fill:none" transform="translate(338.02 -228.361)"/><circle r="4" style="fill:none" transform="translate(340.106 -232.527)"/><circle r="4" style="fill:none" transform="translate(346.365 -234.728)"/><circle r="4" style="fill:none" transform="translate(350.538 -237.951)"/><circle r="4" style="fill:none" transform="translate(350.538 -241.882)"/><circle r="4" style="fill:none" transform="translate(365.144 -245.105)"/><circle r="4" style="fill:none" transform="translate(377.663 -251.472)"/><circle r="4" style="fill:none" transform="translate(400.615 -261.456)"/><circle r="4" style="fill:none" transform="translate(413.135 -305.005)"/><circle r="4" style="fill:none" transform="translate(413.135 -318.107)"/><circle r="4" style="fill:none" transform="translate(415.221 -324.832)"/><circle r="4" style="fill:none" transform="translate(421.48 -327.453)"/><circle r="4" style="fill:none" transform="translate(423.567 -330.248)"/><circle r="4" style="fill:none" transform="translate(429.827 -334.09)"/><circle r="4" style="fill:none" transform="translate(434 -339.332)"/><circle r="4" style="fill:none" transform="translate(429.827 -342.563)"/><circle r="4" style="fill:none" transform="translate(427.74 -343)"/><circle r="4" style="fill:none" transform="translate(429.827 -342.65)"/><circle r="4" style="fill:none" transform="translate(417.308 -340.73)"/><circle r="4" style="fill:none" transform="translate(413.135 -334.353)"/><circle r="4" style="fill:none" transform="translate(394.356 -293.45)"/><circle r="4" style="fill:none" transform="translate(396.442 -284.331)"/><circle r="4" style="fill:none" transform="translate(386.01 -277.65)"/><circle r="4" style="fill:none" transform="translate(388.096 -273.09)"/><circle r="4" style="fill:none" transform="translate(386.01 -269.867)"/><circle r="4" style="fill:none" transform="translate(367.23 -268.373)"/><circle r="4" style="fill:none" transform="translate(381.837 -267.666)"/><circle r="4" style="fill:none" transform="translate(381.837 -266.094)"/><circle r="4" style="fill:none" transform="translate(375.577 -264.286)"/><circle r="4" style="fill:none" transform="translate(373.49 -262.163)"/><circle r="4" style="fill:none" transform="translate(375.577 -259.097)"/><circle r="4" style="fill:none" transform="translate(373.49 -257.368)"/><circle r="4" style="fill:none" transform="translate(373.49 -256.739)"/><circle r="4" style="fill:none" transform="translate(373.49 -256.503)"/><circle r="4" style="fill:none" transform="translate(371.404 -256.189)"/><circle r="4" style="fill:none" transform="translate(363.058 -254.774)"/><circle r="4" style="fill:none" transform="translate(360.971 -251.236)"/><circle r="4" style="fill:none" transform="translate(360.971 -247.62)"/><circle r="4" style="fill:none" transform="translate(360.971 -245.97)"/><circle r="4" style="fill:none" transform="translate(360.971 -245.262)"/><circle r="4" style="fill:none" transform="translate(358.885 -244.319)"/><circle r="4" style="fill:none" transform="translate(350.538 -242.825)"/><circle r="4" style="fill:none" transform="translate(348.452 -239.366)"/><circle r="4" style="fill:none" transform="translate(344.279 -236.065)"/><circle r="4" style="fill:none" transform="translate(344.279 -234.1)"/><circle r="4" style="fill:none" transform="translate(346.365 -232.291)"/><circle r="4" style="fill:none" transform="translate(344.279 -231.505)"/><circle r="4" style="fill:none" transform="translate(333.846 -230.562)"/><circle r="4" style="fill:none" transform="translate(335.933 -227.182)"/><circle r="4" style="fill:none" transform="translate(333.846 -224.195)"/><circle r="4" style="fill:none" transform="translate(333.846 -222.701)"/><circle r="4" style="fill:none" transform="translate(333.846 -221.68)"/></g><g style="stroke-linecap:butt;fill:#d95319;text-rendering:geometricPrecision;image-rendering:optimizeQuality;color-rendering:optimizeQuality;stroke-linejoin:round;stroke:#d95319;color-interpolation:linearRGB;stroke-width:2.6667"><path d="m73 374 .434-.086.435-.087.434-.087.435-.088.434-.088.435-.088.434-.09.434-.09.435-.09.434-.09.435-.091.434-.092.435-.092.434-.093.434-.094.435-.093.434-.095.435-.095.434-.095.435-.096.434-.096.435-.097.434-.098.434-.098.435-.098.434-.099.435-.1.434-.1.435-.1.434-.101.434-.102.435-.102.434-.102.435-.103.434-.104.435-.104.434-.105.434-.105.435-.106.434-.106.435-.107.434-.107.435-.108.434-.108.435-.109.434-.109.434-.11.435-.11.434-.11.435-.112.434-.112.435-.113.434-.112.434-.114.435-.114.434-.114.435-.115.434-.116.435-.116.434-.116.434-.117.435-.118.434-.118.435-.118.434-.12.435-.119.434-.12.434-.12.435-.122.434-.122.435-.122.434-.122.435-.124.434-.123.435-.125.434-.124.434-.126.435-.125.434-.127.435-.127.434-.127.435-.128.434-.128.434-.129.435-.13.434-.13.435-.13.434-.13.435-.132.434-.132.434-.133.435-.133.434-.133.435-.134.434-.135.435-.135.434-.135.435-.137.434-.136.434-.137.435-.138.434-.138.435-.139.434-.139.435-.14.434-.14.434-.14.435-.142.434-.142.435-.142.434-.143.435-.143.434-.144.434-.144.435-.145.434-.145.435-.146.434-.147.435-.147.434-.147.435-.148.434-.149.434-.149.435-.15.434-.149.435-.15.434-.152.435-.151.434-.152.434-.153.435-.153.434-.154.435-.154.434-.154.435-.156.434-.155.435-.157.434-.156.434-.157.435-.158.434-.159.435-.158.434-.16.435-.16.434-.16.434-.16.435-.162.434-.162.435-.162.434-.163.435-.163.434-.164.435-.165.434-.165.434-.165.435-.166.434-.167.435-.167.434-.167.435-.168.434-.17.434-.168.435-.17.434-.17.435-.17.434-.172.435-.171.434-.173.434-.172.435-.173.434-.174.435-.175.434-.174.435-.175.434-.176.434-.177.435-.177.434-.177.435-.178.434-.178.435-.179.434-.18.434-.18.435-.18.434-.18.435-.182.434-.182.435-.183.434-.183.434-.183.435-.184.434-.185.435-.185.434-.185.435-.186.434-.187.435-.187.434-.188.434-.188.435-.189.434-.189.435-.19.434-.19.435-.19.434-.192.435-.192.434-.192.434-.193.435-.193.434-.194.435-.194.434-.195.435-.196.434-.195.434-.197.435-.197.434-.197.435-.198.434-.199.435-.199.434-.2.434-.2.435-.2.434-.2.435-.202.434-.202.435-.203.434-.203.435-.204.434-.204.434-.205.435-.205.434-.206.435-.206.434-.207.434-.207.435-.208.434-.208.435-.209.434-.209.435-.21.434-.21.435-.21.434-.212.434-.212.435-.212.434-.214.435-.213.434-.214.435-.214.434-.215.434-.216.435-.216.434-.216.435-.217.434-.218.435-.218.434-.219.434-.219.435-.22.434-.22.435-.22.434-.221.435-.222.434-.222.435-.223.434-.223.434-.224.435-.224.434-.225.435-.225.434-.226.435-.226.434-.227.435-.227.434-.228.434-.229.435-.228.434-.23.435-.23.434-.23.435-.231.434-.232.434-.232.435-.232.434-.233.435-.234.434-.234.435-.234.434-.236.434-.235.435-.236.434-.237.435-.237.434-.238.435-.238.434-.238.435-.24.434-.24.434-.24.435-.24.434-.242.435-.241.434-.243.434-.243.435-.243.434-.244.435-.244.434-.245.435-.245.434-.246.434-.247.435-.247.434-.247.435-.248.434-.248.435-.25.434-.25.435-.25.434-.25.434-.25.435-.252.434-.252.435-.253.434-.253.435-.254.434-.254.434-.255.435-.255.434-.255.435-.257.434-.256.435-.258.434-.257.435-.259.434-.259.434-.259.435-.26.434-.26.435-.26.434-.262.435-.262.434-.262.434-.263.435-.264.434-.264.435-.264.434-.265.435-.266.434-.266.435-.266.434-.267.434-.268.435-.268.434-.269.435-.269.434-.27.435-.27.434-.27.434-.271.435-.272.434-.272.435-.273.434-.273.435-.274.434-.274.434-.275.435-.275.434-.276.435-.276.434-.277.435-.277.434-.278.434-.279.435-.279.434-.28.435-.279.434-.28.435-.281.434-.282.434-.282.435-.282.434-.284.435-.283.434-.284.435-.285.434-.285.435-.285.434-.286.434-.287.435-.287.434-.288.435-.288.434-.289.435-.289.434-.29.434-.29.435-.29.434-.292.435-.292.434-.292.435-.293.434-.293.435-.294.434-.294.434-.295.435-.296.434-.296.435-.296.434-.297.435-.297.434-.298.434-.299.435-.299.434-.3.435-.3.434-.3.435-.301.434-.302.435-.302.434-.303.434-.303.435-.303.434-.304.435-.305.434-.305.434-.306.435-.306.434-.307.435-.307.434-.308.435-.308.434-.31.435-.308.434-.31.434-.31.435-.311.434-.312.435-.312.434-.312.435-.313.434-.314.435-.313.434-.315.434-.315.435-.315.434-.316.435-.317.434-.317.435-.318.434-.318.434-.318.435-.32.434-.319.435-.32.434-.32.435-.322.434-.322.434-.322.435-.323.434-.323.435-.324.434-.324.435-.325.434-.325.434-.326.435-.326.434-.327.435-.327.434-.328.435-.329.434-.328.435-.33.434-.33.434-.33.435-.331.434-.332.435-.332.434-.332.435-.333.434-.334.434-.334.435-.334.434-.336.435-.335.434-.336.435-.337.434-.337.434-.338.435-.338.434-.339.435-.339.434-.34.435-.34.434-.34.434-.342.435-.342.434-.342.435-.343.434-.343.435-.344.434-.345.435-.344.434-.346.434-.346.435-.346.434-.347.435-.348.434-.348.435-.348.434-.349.434-.35.435-.35.434-.35.435-.351.434-.352.435-.352.434-.353.435-.353.434-.353.434-.354.435-.355.434-.355.435-.356.434-.356.435-.357.434-.357.434-.358.435-.358.434-.36.435-.359.434-.36.435-.36.434-.36.434-.362.435-.362.434-.362.435-.363.434-.364.435-.364.434-.364.434-.365.435-.366.434-.366.435-.366.434-.367.435-.368.434-.368.435-.369.434-.369.434-.37.435-.37.434-.37.435-.371.434-.372.435-.372.434-.373.434-.373.435-.374.434-.374.435-.375.434-.375.435-.376.434-.376.434-.377.435-.378.434-.378.435-.378.434-.379.435-.38.434-.38.435-.38.434-.38.434-.382.435-.382.434-.383.435-.383.434-.383.435-.384.434-.385.434-.385.435-.386.434-.386.435-.387.434-.387.435-.387.434-.389.434-.388.435-.39.434-.39.435-.39.434-.39.435-.392.434-.391.435-.393.434-.392.434-.394.435-.394.434-.394.435-.395.434-.395.434-.396.435-.397.434-.397.435-.397.434-.398.435-.399.434-.399.435-.4.434-.4.434-.4.435-.401.434-.402.435-.402.434-.402.435-.403.434-.404.435-.404.434-.405.434-.405.435-.406.434-.406.435-.407.434-.407.435-.408.434-.408.434-.41.435-.408.434-.41.435-.41.434-.411.435-.412.434-.412.434-.412.435-.413.434-.414.435-.414.434-.414.435-.415.434-.416.435-.416.434-.416.434-.417.435-.418.434-.418.435-.418.434-.42.435-.42.434-.42.434-.42.435-.421.434-.422.435-.422.434-.423.435-.423.434-.424.434-.424.435-.425.434-.425.435-.426.434-.427.435-.426.434-.428.435-.428.434-.428.434-.429.435-.43.434-.43.435-.43.434-.43.434-.432.435-.432.434-.433.435-.433.434-.434.435-.434.434-.434.434-.435.435-.436.434-.436.435-.437.434-.437.435-.438.434-.438.435-.439.434-.439.435-.44.434-.44.434-.44.435-.442.434-.442.435-.442.434-.443.435-.443.434-.444.434-.444.435-.445.434-.446.435-.446.434-.446.435-.447.434-.448.434-.447.435-.449.434-.45.435-.449.434-.45.435-.45.434-.451.435-.452.434-.452.434-.453.435-.453.434-.453.435-.455.434-.454.435-.456.434-.455.434-.457.435-.456.434-.458.435-.457.434-.459.435-.459.434-.459.434-.46.435-.46.434-.46.435-.462.434-.462.435-.463.434-.463.434-.463.435-.464.434-.465.435-.465.434-.465.435-.466.434-.467.434-.467.435-.467.434-.469.435-.468.434-.47.435-.469.434-.47.434-.47.435-.472.434-.472.435-.472.434-.473.435-.473.434-.474.435-.474.434-.475.434-.475.435-.476.434-.476.435-.477.434-.477.435-.478.434-.479.435-.479.434-.48.434-.48.435-.48.434-.48.435-.482.434-.482.435-.483.434-.483.434-.483.435-.484.434-.485.435-.485.434-.486.435-.486.434-.487.434-.487.435-.487.434-.488.435-.49.434-.489.435-.49.434-.49.435-.49.434-.492.434-.491.435-.493.434-.493.435-.493.434-.494.435-.494.434-.495.434-.496.435-.495.434-.497.435-.497.434-.497.435-.498.434-.499.434-.499.435-.5.434-.5.435-.5.434-.501.435-.502.434-.502.434-.503.435-.503.434-.504.435-.504.434-.504.435-.506.434-.505.434-.507.435-.506.434-.508.435-.507.434-.509.435-.509.434-.509.434-.51.435-.51.434-.511.435-.511.434-.512.435-.513.434-.513.435-.513.434-.514.434-.515.435-.515.434-.515.435-.516.434-.517.435-.517.434-.518.435-.518.434-.518.434-.52.435-.52.434-.52.435-.52.434-.521.435-.522.434-.522.434-.523.435-.523.434-.524.435-.524.434-.525.435-.525.434-.526.435-.526.434-.527.434-.528.435-.528.434-.528.435-.529.434-.53.435-.53.434-.53.434-.53.435-.532.434-.532.435-.533.434-.533.435-.534.434-.534.434-.534.435-.535.434-.536.435-.536.434-.537.435-.537.434-.538.434-.538.435-.539.434-.539.435-.54.434-.54.435-.54.434-.542.434-.542.435-.542.434-.543.435-.543.434-.544.435-.545.434-.545.434-.545.435-.546.434-.546.435-.547.434-.548.435-.548.434-.549.435-.549.434-.55.434-.55.435-.55.434-.55.435-.553.434-.552.435-.552.434-.553.435-.554.434-.554.434-.555.435-.555.434-.556.435-.556.434-.557.435-.557.434-.558.434-.558.435-.56.434-.559.435-.56.434-.56.435-.56.434-.562.434-.562.435-.563.434-.563.435-.563.434-.564.435-.565.434-.565.434-.565.435-.566.434-.567.435-.567.434-.567.435-.569.434-.568.435-.57.434-.569.434-.57.435-.57.434-.572.435-.572.434-.572.435-.573.434-.573.434-.574.435-.574.434-.575.435-.575.434-.576.435-.576.434-.577.434-.578.435-.578.434-.578.435-.579.434-.58.435-.58.434-.58.434-.58.435-.582.434-.582.435-.583.434-.583.435-.584.434-.584.435-.584.434-.585.434-.586.435-.586.434-.587.435-.587.434-.588.435-.588.434-.589.434-.589.435-.59.434-.59.435-.59.434-.592.435-.592.434-.592.435-.593.434-.594.434-.593.435-.595.434-.595.435-.595.434-.596.435-.597.434-.597.434-.597.435-.598.434-.599.435-.599.434-.6.435-.6.434-.6" style="fill:none;fill-rule:evenodd"/></g><g style="fill:#fff;text-rendering:optimizeSpeed;color-rendering:optimizeSpeed;image-rendering:optimizeSpeed;shape-rendering:crispEdges;stroke:#fff;color-interpolation:sRGB"><path style="stroke:none" d="M271 86V49H101v37Z" stroke="none"/></g><g style="text-rendering:geometricPrecision;font-family:'SansSerif';color-interpolation:linearRGB;color-rendering:optimizeQuality;image-rendering:optimizeQuality"><text xml:space="preserve" y="5" style="stroke:none" transform="translate(148 59.137)">Collected Data</text></g><g style="stroke-linecap:butt;fill:#0072bd;text-rendering:geometricPrecision;color-rendering:optimizeQuality;image-rendering:optimizeQuality;color-interpolation:linearRGB;stroke:#0072bd"><circle r="4" style="fill:none" transform="translate(125 59.137)"/></g><g style="text-rendering:geometricPrecision;font-family:'SansSerif';color-interpolation:linearRGB;color-rendering:optimizeQuality;image-rendering:optimizeQuality"><text xml:space="preserve" y="5" style="stroke:none" transform="translate(148 75.863)">THR-MDL-FAC 0.7 Fit</text></g><g style="stroke-linecap:butt;fill:#d95319;text-rendering:geometricPrecision;image-rendering:optimizeQuality;color-rendering:optimizeQuality;stroke-linejoin:round;stroke:#d95319;color-interpolation:linearRGB;stroke-width:2.6667"><path style="fill:none" d="M105 75.863h40"/></g><g style="stroke-linecap:butt;fill:#262626;text-rendering:geometricPrecision;color-rendering:optimizeQuality;image-rendering:optimizeQuality;stroke:#262626;color-interpolation:linearRGB;stroke-width:.6667"><path d="M101 86V49h170v37Z" style="fill:none;fill-rule:evenodd"/></g></svg>