<?xml version="1.0" encoding="utf-8"?>
<!-- Generator: Adobe Illustrator 24.2.3, SVG Export Plug-In . SVG Version: 6.00 Build 0)  -->
<svg version="1.1" id="Layer_1" xmlns="http://www.w3.org/2000/svg" xmlns:xlink="http://www.w3.org/1999/xlink" x="0px" y="0px"
	 viewBox="0 0 612 335.8" style="enable-background:new 0 0 612 335.8;" xml:space="preserve">
<style type="text/css">
	.st0{fill:#4D4E4E;}
	.st1{fill:#27B373;}
	.st2{fill:#5DC4CD;}
	.st3{fill:#1E8756;}
</style>
<g>
	<g>
		<path class="st0" d="M66.1,232.6l-0.4-95.9h24c16.3,0,25.6,6.5,28,19.4c0.6,3,0.9,12.3,1,27.9c0.1,16.7-0.3,27-1.4,30.7
			c-1.8,6.3-4.8,10.8-9.1,13.6c-4.2,2.8-10.2,4.2-18.1,4.2H66.1z M72.5,226h17.7c6.8,0,11.8-1.1,15-3.3c2.7-1.9,4.6-5.1,5.9-9.8
			c0.9-2.9,1.3-12.2,1.3-27.9c0-15.1-0.3-24.4-1-27.7c-0.9-5-3.1-8.6-6.5-10.8c-3.4-2.2-8.5-3.3-15.2-3.3H72.2L72.5,226z"/>
		<path class="st0" d="M129.1,232.6v-63.2h6.5v1c0,0.7,0.2,1.3,0.7,1.8c0.4,0.4,0.9,0.7,1.5,0.7c0.5,0,1-0.1,1.5-0.4
			c3.9-1.9,7.2-3.1,9.9-3.7c1.4-0.3,2.7-0.4,4.1-0.4c4.9,0,9.3,2.2,13.4,6.6l-4.9,4.2c-2.7-2.9-5.5-4.3-8.5-4.3
			c-0.8,0-1.6,0.1-2.6,0.3c-4,0.9-8.8,3.1-14.5,6.5l-0.7,0.4v50.6H129.1z"/>
		<path class="st0" d="M176.4,229.2c-4.2-3.2-7.1-7.5-8.6-13c-2.3-8.2-2.4-17.9-0.4-29c1.2-6.3,3.7-11.1,7.7-14.4
			c3.9-3.3,9-5,15.3-5c6,0,11.2,1.8,15.6,5.4c4.4,3.6,7.1,8.3,8.2,14.1c2.1,11.1,2,20.7-0.4,29c-1.6,5.6-4.4,9.9-8.5,13.1
			c-4,3.1-8.8,4.7-14.4,4.7C185.4,234.1,180.5,232.5,176.4,229.2z M173.7,188.5c-1.9,10.1-1.8,18.7,0.3,25.9
			c1.1,4.1,3.2,7.3,6.2,9.6c3,2.3,6.6,3.5,10.6,3.5c8.6,0,14.1-4.4,16.6-13.1c2.1-7.2,2.2-15.8,0.3-25.9c-0.8-4.3-2.8-7.7-5.9-10.3
			c-3.1-2.5-7-3.8-11.5-3.8C181,174.5,175.5,179.1,173.7,188.5z"/>
		<path class="st0" d="M262.2,232.6V189c0-5.9-1.2-9.9-3.5-12.1c-1.7-1.6-4.3-2.5-7.7-2.5c-0.4,0-0.9,0-1.4,0.1
			c-6.1,0.3-12,2.3-17.8,6l-0.7,0.4v51.7h-6.5v-63.2h6.7c0.1,0.5,0.4,0.9,0.7,1.3c0.5,0.6,1.2,0.9,2.1,0.9c0.4,0,0.9-0.1,1.5-0.3
			c5.6-1.9,10.2-3,13.6-3.2c0.6,0,1.2-0.1,1.8-0.1c5.2,0,9.2,1.4,12.2,4.2c3.6,3.5,5.5,9.1,5.5,16.8v43.5H262.2z"/>
		<path class="st0" d="M289.4,229.2c-4.1-3.2-6.9-7.6-8.2-13c-2.6-10.4-2.7-19.8-0.3-28.1c1.8-6.5,4.9-11.5,9.1-15
			c4.3-3.6,9.4-5.4,15.3-5.4c5.5,0,10,1.7,13.6,5c3.6,3.3,5.9,7.9,6.9,13.8c0.6,3.5,0.7,6.4,0.4,8.7l-0.3,2.3l-40,7.5l0.1,1.3
			c0.2,2.8,0.7,5.6,1.4,8.3c1,4,2.9,7.2,5.9,9.5c2.9,2.3,6.5,3.5,10.6,3.5c5.9,0,10.7-1.9,14.5-5.6l4.9,4.2
			c-5,5.3-11.5,7.9-19.4,7.9C298.4,234.1,293.5,232.4,289.4,229.2z M287.1,189.8c-0.5,2-0.9,4.2-1.1,6.7l-0.1,1.9l34.1-6.4l-0.1-1.3
			c-0.1-1-0.2-2.1-0.4-3.2c-1.5-8.9-6.2-13.4-14.2-13.4C296.2,174.1,290.1,179.3,287.1,189.8z"/>
		<path class="st0" d="M345.2,229.2c-4.2-3.2-7.1-7.5-8.6-13c-2.3-8.2-2.4-17.9-0.4-29c1.2-6.3,3.7-11.1,7.7-14.4
			c3.9-3.3,9-5,15.3-5c8.4,0,14.9,3.2,19.5,9.5l-5.5,3.6c-3.3-4.3-8-6.5-14.1-6.5c-9.3,0-14.8,4.7-16.6,14.1
			c-1.9,10.1-1.8,18.7,0.3,25.9c1.1,4.1,3.2,7.3,6.2,9.6c3,2.3,6.6,3.5,10.6,3.5c5.7,0,10.1-2.1,13.3-6.3l5.5,3.6
			c-4.5,6.2-10.7,9.2-18.7,9.2C354.1,234.1,349.3,232.5,345.2,229.2z"/>
		<path class="st0" d="M394.9,229.2c-4.2-3.2-7.1-7.5-8.6-13c-2.3-8.2-2.4-17.9-0.4-29c1.2-6.3,3.7-11.1,7.7-14.4
			c3.9-3.3,9-5,15.3-5c6,0,11.2,1.8,15.6,5.4c4.4,3.6,7.1,8.3,8.2,14.1c2.1,11.1,2,20.7-0.4,29c-1.6,5.6-4.4,9.9-8.5,13.1
			c-4,3.1-8.8,4.7-14.4,4.7C403.9,234.1,399.1,232.5,394.9,229.2z M392.3,188.5c-1.9,10.1-1.8,18.7,0.3,25.9
			c1.1,4.1,3.2,7.3,6.2,9.6c3,2.3,6.6,3.5,10.6,3.5c8.6,0,14.1-4.4,16.6-13.1c2.1-7.2,2.2-15.8,0.3-25.9c-0.8-4.3-2.8-7.7-5.9-10.3
			c-3.1-2.5-7-3.8-11.5-3.8C399.6,174.5,394,179.1,392.3,188.5z"/>
		<path class="st0" d="M452.2,228.6c-3.9-3.7-6.5-8.6-7.6-14.6c-2.1-10.9-1.8-20.7,0.7-29.5c2.9-10.1,10.1-15.6,21.5-16.5
			c0.8,0,1.7-0.1,2.6-0.1c4.3,0,8.3,0.8,12.1,2.4l1.9,0.8v-39h6.5v100.4h-6.7c-0.4-0.9-1.2-1.4-2.3-1.4c-0.4,0-0.9,0.1-1.3,0.2
			c-4.6,1.9-9.1,2.8-13.5,2.8C460.7,234.1,456.1,232.2,452.2,228.6z M467.3,174.5c-8.5,0.6-13.7,4.6-15.8,11.8
			c-2.3,7.8-2.5,16.7-0.6,26.6c0.8,4.5,2.6,8,5.4,10.7c2.8,2.7,6,4,9.7,4c5.9,0,11.5-1.8,16.7-5.4l0.6-0.4v-42.9l-0.6-0.4
			c-3.9-2.6-8.4-3.9-13.4-3.9C468.6,174.4,468,174.4,467.3,174.5z"/>
		<path class="st0" d="M508.6,229.2c-4.1-3.2-6.9-7.6-8.2-13c-2.6-10.4-2.7-19.8-0.3-28.1c1.8-6.5,4.9-11.5,9.1-15
			c4.3-3.6,9.4-5.4,15.3-5.4c5.5,0,10,1.7,13.6,5c3.6,3.3,5.9,7.9,6.9,13.8c0.6,3.5,0.7,6.4,0.4,8.7l-0.3,2.3l-40,7.5l0.1,1.3
			c0.2,2.8,0.7,5.6,1.4,8.3c1,4,2.9,7.2,5.9,9.5c2.9,2.3,6.5,3.5,10.6,3.5c5.9,0,10.7-1.9,14.5-5.6l4.9,4.2
			c-5,5.3-11.5,7.9-19.4,7.9C517.6,234.1,512.7,232.4,508.6,229.2z M506.3,189.8c-0.5,2-0.9,4.2-1.1,6.7l-0.1,1.9l34.1-6.4l-0.1-1.3
			c-0.1-1-0.2-2.1-0.4-3.2c-1.5-8.9-6.2-13.4-14.2-13.4C515.3,174.1,509.2,179.3,506.3,189.8z"/>
	</g>
	<g>
		<path class="st1" d="M387.5,38.8c-1.5-2.3-6.1-3.2-10.6-1.4c0,0-58.1,21.9-58.3,22c-1.2,0.3-1.6,1.4-1.6,1.4l-13.8,28.2
			c0,0-0.1,0.3-0.3,0.3c-0.2,0-0.3-0.3-0.3-0.3l-14-28.5c0,0-0.3-0.9-1.5-1.2c-0.3-0.1-58.3-22-58.3-22c-4.5-1.8-9.1-0.9-10.6,1.4
			c-2.8,4.4,1.9,9,2.4,9.6l70.7,77.2c0,0,0,0.1,0.1,0.1l0,0c0,0,4.5,6.3,11.5,6.2c7,0.1,11.5-6.2,11.5-6.2l70.7-77.2
			C385.5,47.7,390.3,43.2,387.5,38.8z"/>
		<path class="st2" d="M287.5,121.3c0,0,1.6,2,3.8,4.2c1.8,2.6,5.9,6.2,11.5,6.3c7,0.1,11.5-6.2,11.5-6.2L385,48.4
			c0.5-0.7,5.2-5.3,2.4-9.6c-1.5-2.3-6.1-3.2-10.6-1.4c0,0-58.1,21.9-58.3,22c-1.2,0.3-1.6,1.4-1.6,1.4L303.2,89
			c0,0-0.1,0.3-0.4,0.3"/>
		<path class="st3" d="M302.6,88.9c0,0,0.1,0.3,0.2,0.3s-15.3,32.1-15.3,32.1l-19.8-21.6l20.7-39.6L302.6,88.9z"/>
	</g>
	<g>
		<path class="st3" d="M75.5,299h-6.8v-42.1h23.8v5.8H75.5v13.2h15.9v5.8H75.5V299z"/>
		<path class="st3" d="M148,277.8c0,6.9-1.7,12.2-5.1,16c-3.4,3.8-8.3,5.7-14.6,5.7c-6.4,0-11.2-1.9-14.6-5.7
			c-3.4-3.8-5.1-9.1-5.1-16.1s1.7-12.3,5.1-16c3.4-3.7,8.3-5.6,14.7-5.6c6.3,0,11.1,1.9,14.5,5.7C146.3,265.6,148,271,148,277.8z
			 M115.8,277.8c0,5.2,1,9.1,3.1,11.8c2.1,2.7,5.2,4,9.3,4c4.1,0,7.2-1.3,9.3-4s3.1-6.6,3.1-11.8c0-5.2-1-9.1-3.1-11.8s-5.1-4-9.2-4
			c-4.1,0-7.2,1.3-9.3,4C116.9,268.8,115.8,272.7,115.8,277.8z"/>
		<path class="st3" d="M200.5,256.8v27.3c0,3.1-0.7,5.8-2,8.2c-1.3,2.3-3.3,4.1-5.8,5.4s-5.5,1.9-9.1,1.9c-5.2,0-9.3-1.4-12.2-4.1
			c-2.9-2.8-4.4-6.6-4.4-11.4v-27.1h6.9v26.6c0,3.5,0.8,6,2.4,7.7c1.6,1.7,4.1,2.5,7.4,2.5c6.5,0,9.7-3.4,9.7-10.2v-26.6H200.5z"/>
		<path class="st3" d="M256.9,299h-8.4l-20.7-33.6h-0.2l0.1,1.9c0.3,3.6,0.4,6.8,0.4,9.8V299h-6.3v-42.1h8.4l20.7,33.4h0.2
			c0-0.4-0.1-2-0.2-4.8c-0.1-2.8-0.2-4.9-0.2-6.5v-22.1h6.3V299z"/>
		<path class="st3" d="M312.8,277.5c0,7-1.9,12.3-5.8,15.9c-3.9,3.7-9.4,5.5-16.7,5.5h-11.8v-42.1h13c6.7,0,11.9,1.8,15.6,5.4
			C310.9,265.9,312.8,271,312.8,277.5z M305.5,277.7c0-10.1-4.7-15.1-14.1-15.1h-6v30.6h4.9C300.4,293.2,305.5,288,305.5,277.7z"/>
		<path class="st3" d="M358.5,299l-4.2-11.7h-16.1L334,299h-7.3l15.8-42.3h7.5l15.8,42.3H358.5z M352.4,281.3l-3.9-11.5
			c-0.3-0.8-0.7-2-1.2-3.6c-0.5-1.7-0.9-2.9-1.1-3.6c-0.5,2.4-1.3,4.9-2.3,7.8l-3.8,11H352.4z"/>
		<path class="st3" d="M396.4,299h-6.9v-36.2h-12.4v-5.9h31.7v5.9h-12.4V299z"/>
		<path class="st3" d="M425.7,299v-42.1h6.9V299H425.7z"/>
		<path class="st3" d="M491.6,277.8c0,6.9-1.7,12.2-5.1,16c-3.4,3.8-8.3,5.7-14.6,5.7c-6.4,0-11.2-1.9-14.6-5.7
			c-3.4-3.8-5.1-9.1-5.1-16.1s1.7-12.3,5.1-16c3.4-3.7,8.3-5.6,14.7-5.6c6.3,0,11.1,1.9,14.5,5.7C489.9,265.6,491.6,271,491.6,277.8
			z M459.5,277.8c0,5.2,1,9.1,3.1,11.8c2.1,2.7,5.2,4,9.3,4c4.1,0,7.2-1.3,9.3-4c2.1-2.7,3.1-6.6,3.1-11.8c0-5.2-1-9.1-3.1-11.8
			s-5.1-4-9.2-4c-4.1,0-7.2,1.3-9.3,4C460.5,268.8,459.5,272.7,459.5,277.8z"/>
		<path class="st3" d="M546.3,299h-8.4l-20.7-33.6h-0.2l0.1,1.9c0.3,3.6,0.4,6.8,0.4,9.8V299h-6.3v-42.1h8.4l20.7,33.4h0.2
			c0-0.4-0.1-2-0.2-4.8c-0.1-2.8-0.2-4.9-0.2-6.5v-22.1h6.3V299z"/>
	</g>
</g>
</svg>
