<?xml version="1.0" encoding="utf-8"?>
<!-- Generator: Adobe Illustrator 25.0.1, SVG Export Plug-In . SVG Version: 6.00 Build 0)  -->
<svg version="1.1" id="Layer_1" xmlns="http://www.w3.org/2000/svg" xmlns:xlink="http://www.w3.org/1999/xlink" x="0px" y="0px"
	 viewBox="0 0 650 500" style="enable-background:new 0 0 650 500;" xml:space="preserve">
<style type="text/css">
	.st0{fill:#FFFFFF;}
</style>
<g>
	<path class="st0" d="M294.82,401.96c79.74,0,159.48,0.01,239.23-0.02c6.4,0,12.77-0.41,19.02-1.96
		c11.51-2.86,21.12-8.67,28.49-18.07c6.12-7.8,10.16-16.62,12.59-26.13c4.11-16.08,7.95-32.24,11.87-48.37
		c6.04-24.86,12.03-49.73,18.07-74.59c5.79-23.87,11.56-47.75,17.43-71.6c2.28-9.24,3.48-18.47,1.43-27.91
		c-2.17-9.98-6.96-18.42-14.89-24.93c-8.8-7.22-19.09-10.24-30.31-10.24C436.83,98.12,275.92,98.12,115,98.13
		c-5.72,0-11.38,0.69-16.93,2.1c-9.92,2.52-18.51,7.36-25.46,14.93c-6.72,7.32-11.33,15.91-14.11,25.36
		c-2.76,9.38-5.02,18.91-7.39,28.4c-7.21,28.91-14.37,57.83-21.54,86.75c-6.83,27.54-13.6,55.09-20.52,82.61
		c-2.3,9.16-3.73,18.31-1.82,27.71c2.34,11.58,8.11,20.96,17.84,27.77c8.69,6.08,18.54,8.21,28.97,8.21
		C134.31,401.96,214.56,401.96,294.82,401.96z"/>
	<path d="M294.82,401.96c-80.26,0-160.52,0-240.77,0c-10.43,0-20.28-2.14-28.97-8.21c-9.73-6.8-15.5-16.19-17.84-27.77
		c-1.91-9.41-0.48-18.55,1.82-27.71c6.92-27.52,13.69-55.07,20.52-82.61c7.17-28.92,14.33-57.84,21.54-86.75
		c2.37-9.49,4.63-19.02,7.39-28.4c2.79-9.45,7.39-18.04,14.11-25.36c6.95-7.57,15.54-12.41,25.46-14.93
		c5.55-1.41,11.21-2.1,16.93-2.1c160.92-0.01,321.83-0.02,482.75,0.01c11.22,0,21.51,3.02,30.31,10.24
		c7.93,6.51,12.72,14.95,14.89,24.93c2.05,9.43,0.84,18.67-1.43,27.91c-5.88,23.85-11.64,47.73-17.43,71.6
		c-6.03,24.86-12.03,49.73-18.07,74.59c-3.92,16.13-7.75,32.29-11.87,48.37c-2.43,9.51-6.47,18.33-12.59,26.13
		c-7.37,9.4-16.98,15.21-28.49,18.07c-6.25,1.55-12.63,1.96-19.02,1.96C454.31,401.97,374.56,401.96,294.82,401.96z M347.77,220.94
		c0.2-0.26,0.25-0.37,0.33-0.44c21.16-16.45,42.32-32.89,63.48-49.34c1.51-1.17,2.99-2.45,2.37-4.68c-0.67-2.39-2.7-2.47-4.68-2.56
		c-0.11,0-0.23-0.01-0.34-0.01c-6.75,0-13.51-0.14-20.26,0.09c-1.88,0.06-4.05,0.75-5.53,1.89c-12.16,9.41-24.18,18.99-36.25,28.52
		c-3.71,2.93-7.42,5.85-11.18,8.81c-0.33-0.44-0.58-0.74-0.8-1.07c-7.85-11.51-15.75-22.98-23.48-34.56
		c-1.81-2.71-4.04-3.73-7.14-3.7c-8.64,0.06-17.29,0.02-25.93,0.03c-1.03,0-2.07,0.01-3.09,0.13c-4.3,0.51-5.95,4.08-3.52,7.56
		c8.94,12.84,17.89,25.67,26.84,38.51c3.42,4.91,6.83,9.83,10.3,14.82c-0.51,0.43-0.93,0.82-1.38,1.16
		c-15.71,12-31.42,24-47.17,35.95c-0.75,0.57-1.84,0.96-2.77,0.97c-7.9,0.08-15.8,0.05-23.7,0.04c-0.47,0-0.95-0.07-1.31-0.1
		c1.17-3.58,2.5-6.98,3.38-10.49c4.3-17.27,8.52-34.56,12.69-51.87c1.41-5.86,3.06-11.67,3.26-17.78
		c0.28-8.53-3.37-14.09-11.46-16.73c-6.09-1.99-12.43-2.36-18.77-2.37c-34.34-0.04-68.69-0.03-103.03-0.03
		c-0.52,0-1.03-0.02-1.54,0.02c-2.8,0.2-5.09,2.01-5.74,4.6c-0.73,2.92-1.44,5.85-2.09,8.8c-0.61,2.76,0.6,4.42,3.42,4.77
		c0.62,0.08,1.26,0.03,1.89,0.03c32.97,0,65.94,0,98.91,0c0.92,0,1.84-0.04,2.75,0.03c2.51,0.19,3.34,1.1,3.22,3.62
		c-0.05,1.01-0.26,2.03-0.5,3.03c-4.87,20.06-9.74,40.12-14.65,60.17c-0.84,3.42-1.74,6.83-2.72,10.21
		c-0.64,2.21-2.08,3.64-4.54,3.74c-0.91,0.04-1.82,0.21-2.73,0.21c-6.3,0.02-12.59,0.01-18.89,0.01c-11.28,0-22.55-0.01-33.83,0.01
		c-3.53,0.01-5.66,1.69-6.51,5.1c-0.71,2.87-1.39,5.75-2.06,8.63c-0.47,2.05,0.45,3.63,2.51,4.15c0.87,0.22,1.8,0.32,2.71,0.32
		c18.15,0.02,36.29,0.08,54.44-0.03c4.56-0.03,9.13-0.42,13.66-0.98c3.45-0.43,6.84-1.38,10.27-2.11c0.63,2.3,1.8,3.2,4.43,3.2
		c15.68-0.01,31.37,0.01,47.05-0.14c1.7-0.02,3.68-0.68,5.05-1.69c13.71-10.09,27.33-20.31,40.97-30.49
		c3.09-2.31,6.18-4.6,9.32-6.94c0.34,0.49,0.58,0.81,0.79,1.14c7.53,11.71,15.09,23.4,22.54,35.17c1.34,2.11,3.02,2.9,5.38,2.89
		c8.76-0.03,17.52,0,26.27-0.03c1.08,0,2.18-0.1,3.22-0.36c3.8-0.93,4.96-4.06,2.75-7.25c-6.1-8.77-12.21-17.52-18.31-26.28
		C359.98,238.49,353.89,229.73,347.77,220.94z M489.13,228.49c-0.09,0.67-0.1,1.12-0.21,1.55c-3.7,15.25-7.4,30.5-11.1,45.75
		c-0.84,3.47,0.48,5.31,4.08,5.35c7.38,0.07,14.77,0.07,22.15,0c3.47-0.03,5.87-2.13,6.68-5.49c3.63-15.03,7.31-30.05,10.85-45.11
		c0.41-1.76,1.13-2.08,2.73-2.08c16.2,0.05,32.4,0.03,48.59,0.02c1.03,0,2.06-0.04,3.08-0.19c2.4-0.34,4.29-2.22,4.87-4.58
		c0.73-2.98,1.67-5.91,2.25-8.91c0.19-0.96-0.15-2.5-0.82-3.03c-1.02-0.8-2.56-1.3-3.88-1.3c-16.6-0.08-33.2-0.05-49.8-0.05
		c-0.68,0-1.36,0-2.11,0c0.05-0.55,0.05-0.95,0.14-1.33c3.21-13.09,6.42-26.18,9.65-39.26c0.9-3.67-0.67-5.86-4.43-5.89
		c-7.1-0.06-14.2-0.05-21.29,0c-3.76,0.03-6.17,2.09-7.06,5.74c-3.2,13.15-6.43,26.29-9.64,39.44c-0.18,0.74-0.33,1.33-1.39,1.33
		c-12.99-0.04-25.99-0.02-38.98-0.05c-2.14,0-3.59-1.27-3.84-3.4c-0.14-1.17-0.13-2.43,0.14-3.57c2.68-11.29,5.42-22.56,8.15-33.83
		c0.84-3.47-0.73-5.64-4.29-5.67c-7.1-0.06-14.2-0.05-21.29,0c-3.65,0.02-5.98,1.87-6.87,5.46c-2.88,11.59-5.78,23.17-8.51,34.8
		c-0.93,3.97-1.82,8.03-1.99,12.08c-0.26,6.08,3.83,10.83,9.68,11.89c1.95,0.35,3.99,0.31,5.99,0.32
		c18.72,0.02,37.43,0.01,56.15,0.01C487.55,228.49,488.27,228.49,489.13,228.49z M89.55,322.76c3.72,0,7.44,0.02,11.16-0.01
		c2.91-0.02,5.42-2.04,6.1-4.81c8.58-35.29,17.16-70.58,25.74-105.88c0.93-3.81-0.89-6.08-4.85-6.09c-6.52-0.01-13.04-0.01-19.57,0
		c-4.38,0-6.83,2.01-7.87,6.29c-5.09,20.99-10.21,41.97-15.32,62.96c-3.46,14.19-6.92,28.38-10.36,42.58
		c-0.77,3.18,0.65,4.93,3.98,4.95C82.23,322.78,85.89,322.76,89.55,322.76z M345.36,342.26c0.77,0,1.45,0,2.13,0
		c9.78,0,19.57,0.02,29.35-0.01c4.94-0.01,8.85-3.05,9.86-7.62c1.73-7.83,3.44-15.66,5.13-23.5c1.01-4.66-1.4-7.83-6.17-7.86
		c-11.38-0.07-22.77-0.08-34.15,0c-4.84,0.04-8.44,3.17-9.46,7.83c-1.91,8.72-3.84,17.44-5.74,26.16
		c-1.05,4.82-2.06,9.65-3.08,14.48C339.59,352.7,343.88,349.37,345.36,342.26z M178.96,303.44c-0.38-0.09-0.54-0.17-0.7-0.17
		c-13.84-0.01-27.68-0.09-41.52,0.03c-4.83,0.04-8.29,3.27-9.31,8.02c-1.65,7.67-3.3,15.34-4.99,23c-1.03,4.66,1.32,7.89,6.07,7.92
		c13.56,0.07,27.11,0.01,40.67,0.05c1.08,0,1.42-0.36,1.64-1.42c0.98-4.85,2.1-9.66,3.16-14.49
		C175.63,318.77,177.28,311.17,178.96,303.44z M308.09,303.25c-5.55,0-11.1,0-16.65,0c-0.06,0-0.11,0-0.17,0
		c-5.2,0.07-8.89,3.09-9.96,8.13c-1.63,7.68-3.28,15.35-4.95,23.02c-1,4.58,1.32,7.8,5.98,7.83c11.45,0.08,22.89,0.07,34.34,0
		c4.63-0.03,8.34-3.13,9.33-7.57c1.8-8.05,3.58-16.1,5.3-24.16c0.21-0.96,0.16-2.07-0.1-3.03c-0.74-2.8-2.94-4.2-6.46-4.21
		C319.19,303.23,313.64,303.25,308.09,303.25z M473.33,342.26c5.55,0,11.1,0.02,16.65-0.01c5.04-0.02,8.77-2.91,9.87-7.79
		c1.75-7.77,3.42-15.55,5.09-23.34c1.02-4.76-1.27-7.82-6.09-7.85c-11.39-0.08-22.78-0.08-34.17,0c-4.85,0.03-8.45,3.06-9.51,7.8
		c-1.55,6.94-3.03,13.89-4.54,20.84c-0.17,0.78-0.29,1.57-0.46,2.34c-1.09,4.82,1.36,7.95,6.33,7.99
		C462.11,342.29,467.72,342.26,473.33,342.26z M192.74,332.26c0-0.42-0.06-0.77,0.01-1.1c1.31-5.94,2.64-11.87,3.97-17.81
		c0.12-0.55,0.24-1.11,0.37-1.67c1.23-5.49-1.4-8.62-7.03-8.45c-0.95,0.03-1.35,0.27-1.57,1.3c-2.12,10.01-4.34,20-6.48,30.01
		c-0.98,4.58,1.42,7.66,6.12,7.69c11.38,0.07,22.77,0.07,34.15,0c4.81-0.03,8.56-3.33,9.56-7.99c1.65-7.73,3.37-15.44,5.04-23.16
		c0.55-2.53,1.06-5.07,1.59-7.62c-5.73-0.93-10.51,2.17-11.71,7.47c-0.88,3.88-1.66,7.78-2.51,11.67c-0.71,3.25-1.45,6.49-2.15,9.65
		C212.16,332.26,202.45,332.26,192.74,332.26z M525.75,303.27c0.14-1.77,0.54-3.38,0.33-4.91c-0.43-3.22-3.32-4.94-7.39-4.81
		c-0.92,0.03-1.28,0.33-1.47,1.23c-2.88,13.45-5.79,26.9-8.69,40.34c-0.73,3.4,1.19,6.56,4.64,6.84c4.08,0.33,8.24,0.44,12.31,0.05
		c4.97-0.47,8.23-4.55,8.31-9.7c-4.79,0-9.58,0-14.41,0c-0.02-0.35-0.08-0.58-0.03-0.79c1.26-5.83,2.5-11.67,3.84-17.49
		c0.09-0.38,0.86-0.84,1.33-0.87c2.05-0.1,4.12-0.03,6.18-0.04c5.14-0.03,9.45-4.43,9.48-9.87
		C535.34,303.27,530.51,303.27,525.75,303.27z M255.24,313.14c2.68,0,5.19,0.03,7.71-0.01c4.88-0.07,9.22-4.75,9.02-9.91
		c-4.76,0-9.54,0-14.47,0c0.15-0.83,0.26-1.44,0.38-2.04c0.64-3.29-0.58-6.14-3.37-7.03c-1.52-0.49-3.3-0.64-4.83-0.3
		c-0.55,0.12-0.7,2.09-1.02,3.22c-0.05,0.16-0.06,0.34-0.09,0.5c-2.69,12.28-5.4,24.55-8.07,36.83c-0.93,4.31,1.01,7.39,5.2,7.72
		c3.81,0.3,7.68,0.33,11.48-0.04c5.08-0.5,8.69-4.86,8.49-9.78c-4.82,0-9.66,0-14.61,0C252.47,325.81,253.85,319.5,255.24,313.14z
		 M425.9,332.34c1.58-7.21,3.12-14.26,4.67-21.3c0.72-3.28-0.39-6.1-3.13-7.16c-1.24-0.48-2.67-0.42-4.02-0.64
		c-1.06-0.17-1.41,0.44-1.6,1.31c-2.18,10.05-4.42,20.1-6.54,30.17c-0.88,4.17,1.23,7.15,5.38,7.44c3.64,0.25,7.33,0.29,10.97,0
		c5.27-0.42,8.89-4.55,8.91-9.81C435.7,332.34,430.86,332.34,425.9,332.34z M401.48,317.9c-2.43-0.01-2.46-0.02-2.96,2.31
		c-0.99,4.6-1.94,9.22-2.93,13.82c-1.13,5.22,1.23,8.17,6.53,8.27c1.35,0.03,1.89-0.41,2.16-1.7c1.03-5.06,2.12-10.11,3.24-15.15
		C408.48,321.04,406,317.91,401.48,317.9z M400.15,312.96c0.26,0.08,0.37,0.15,0.48,0.15c1.94,0.01,3.89,0.03,5.83,0.03
		c3.78,0,3.8,0.01,4.59-3.66c0.43-2.01,0.79-4.04,1.21-6.15c-3.51,0-6.69,0-9.99,0C401.56,306.55,400.87,309.7,400.15,312.96z"/>
	<path class="st0" d="M347.77,220.94c6.11,8.79,12.21,17.55,18.31,26.31c6.1,8.76,12.21,17.52,18.31,26.28
		c2.22,3.19,1.05,6.31-2.75,7.25c-1.04,0.26-2.15,0.35-3.22,0.36c-8.76,0.03-17.52,0-26.27,0.03c-2.36,0.01-4.04-0.78-5.38-2.89
		c-7.45-11.77-15.01-23.46-22.54-35.17c-0.21-0.33-0.45-0.65-0.79-1.14c-3.14,2.34-6.24,4.63-9.32,6.94
		c-13.64,10.18-27.26,20.4-40.97,30.49c-1.37,1.01-3.35,1.67-5.05,1.69c-15.68,0.15-31.37,0.13-47.05,0.14
		c-2.63,0-3.79-0.9-4.43-3.2c-3.43,0.72-6.82,1.68-10.27,2.11c-4.53,0.56-9.1,0.96-13.66,0.98c-18.14,0.11-36.29,0.05-54.44,0.03
		c-0.9,0-1.83-0.09-2.71-0.32c-2.05-0.52-2.98-2.1-2.51-4.15c0.67-2.88,1.34-5.76,2.06-8.63c0.84-3.4,2.98-5.09,6.51-5.1
		c11.28-0.02,22.55-0.01,33.83-0.01c6.3,0,12.59,0.01,18.89-0.01c0.91,0,1.82-0.17,2.73-0.21c2.47-0.1,3.9-1.52,4.54-3.74
		c0.98-3.38,1.89-6.79,2.72-10.21c4.9-20.05,9.78-40.11,14.65-60.17c0.24-0.99,0.45-2.01,0.5-3.03c0.12-2.52-0.71-3.43-3.22-3.62
		c-0.91-0.07-1.83-0.03-2.75-0.03c-32.97,0-65.94,0-98.91,0c-0.63,0-1.27,0.04-1.89-0.03c-2.82-0.34-4.03-2-3.42-4.77
		c0.65-2.94,1.36-5.87,2.09-8.8c0.65-2.59,2.93-4.39,5.74-4.6c0.51-0.04,1.03-0.02,1.54-0.02c34.34,0,68.69-0.01,103.03,0.03
		c6.34,0.01,12.68,0.38,18.77,2.37c8.09,2.65,11.74,8.2,11.46,16.73c-0.2,6.11-1.85,11.92-3.26,17.78
		c-4.17,17.3-8.39,34.6-12.69,51.87c-0.88,3.51-2.21,6.91-3.38,10.49c0.36,0.03,0.84,0.1,1.31,0.1c7.9,0.01,15.8,0.04,23.7-0.04
		c0.94-0.01,2.02-0.4,2.77-0.97c15.75-11.95,31.46-23.95,47.17-35.95c0.45-0.34,0.86-0.72,1.38-1.16
		c-3.47-4.99-6.88-9.91-10.3-14.82c-8.94-12.84-17.89-25.67-26.84-38.51c-2.43-3.48-0.77-7.05,3.52-7.56
		c1.02-0.12,2.06-0.13,3.09-0.13c8.64-0.01,17.29,0.04,25.93-0.03c3.1-0.02,5.33,0.99,7.14,3.7c7.73,11.59,15.64,23.05,23.48,34.56
		c0.22,0.33,0.47,0.63,0.8,1.07c3.76-2.96,7.47-5.88,11.18-8.81c12.07-9.53,24.09-19.11,36.25-28.52c1.47-1.14,3.65-1.83,5.53-1.89
		c6.75-0.22,13.51-0.09,20.26-0.09c0.11,0,0.23,0,0.34,0.01c1.98,0.08,4.01,0.17,4.68,2.56c0.62,2.22-0.86,3.5-2.37,4.68
		c-21.16,16.45-42.32,32.9-63.48,49.34C348.02,220.57,347.97,220.68,347.77,220.94z"/>
	<path class="st0" d="M489.13,228.49c-0.86,0-1.59,0-2.32,0c-18.72,0-37.43,0.01-56.15-0.01c-2,0-4.04,0.04-5.99-0.32
		c-5.85-1.06-9.94-5.81-9.68-11.89c0.17-4.05,1.06-8.11,1.99-12.08c2.73-11.62,5.63-23.21,8.51-34.8c0.89-3.59,3.22-5.44,6.87-5.46
		c7.1-0.05,14.2-0.05,21.29,0c3.56,0.03,5.13,2.2,4.29,5.67c-2.73,11.27-5.47,22.55-8.15,33.83c-0.27,1.14-0.28,2.4-0.14,3.57
		c0.26,2.13,1.7,3.39,3.84,3.4c12.99,0.03,25.99,0,38.98,0.05c1.05,0,1.2-0.58,1.39-1.33c3.21-13.15,6.43-26.29,9.64-39.44
		c0.89-3.65,3.3-5.71,7.06-5.74c7.1-0.05,14.2-0.05,21.29,0c3.76,0.03,5.34,2.22,4.43,5.89c-3.22,13.09-6.44,26.17-9.65,39.26
		c-0.09,0.38-0.09,0.79-0.14,1.33c0.75,0,1.43,0,2.11,0c16.6,0,33.2-0.03,49.8,0.05c1.32,0.01,2.85,0.51,3.88,1.3
		c0.68,0.53,1.01,2.07,0.82,3.03c-0.58,3-1.52,5.93-2.25,8.91c-0.58,2.36-2.47,4.24-4.87,4.58c-1.01,0.15-2.05,0.19-3.08,0.19
		c-16.2,0.01-32.4,0.03-48.59-0.02c-1.6-0.01-2.32,0.32-2.73,2.08c-3.54,15.06-7.22,30.08-10.85,45.11
		c-0.81,3.36-3.21,5.46-6.68,5.49c-7.38,0.07-14.77,0.07-22.15,0c-3.6-0.03-4.92-1.88-4.08-5.35c3.7-15.25,7.41-30.5,11.1-45.75
		C489.03,229.6,489.05,229.15,489.13,228.49z"/>
	<path class="st0" d="M89.55,322.76c-3.66,0-7.32,0.02-10.98,0c-3.33-0.02-4.75-1.77-3.98-4.95c3.44-14.2,6.9-28.39,10.36-42.58
		c5.11-20.99,10.23-41.97,15.32-62.96c1.04-4.29,3.49-6.29,7.87-6.29c6.52,0,13.04-0.01,19.57,0c3.96,0.01,5.77,2.28,4.85,6.09
		c-8.58,35.29-17.16,70.59-25.74,105.88c-0.67,2.77-3.19,4.79-6.1,4.81C96.99,322.78,93.27,322.76,89.55,322.76z"/>
	<path class="st0" d="M345.36,342.26c-1.47,7.11-5.76,10.44-12.14,9.48c1.03-4.83,2.03-9.66,3.08-14.48
		c1.9-8.72,3.83-17.44,5.74-26.16c1.02-4.67,4.62-7.8,9.46-7.83c11.38-0.08,22.77-0.08,34.15,0c4.77,0.03,7.18,3.2,6.17,7.86
		c-1.69,7.84-3.4,15.67-5.13,23.5c-1.01,4.57-4.92,7.61-9.86,7.62c-9.78,0.02-19.57,0.01-29.35,0.01
		C346.81,342.26,346.13,342.26,345.36,342.26z M381.26,313.22c-9.88,0-19.63,0-29.58,0c-1.37,6.28-2.75,12.59-4.16,19.03
		c9.9,0,19.66,0,29.58,0C378.48,325.96,379.86,319.65,381.26,313.22z"/>
	<path class="st0" d="M178.96,303.44c-1.68,7.73-3.33,15.33-4.99,22.93c-1.06,4.83-2.17,9.65-3.16,14.49
		c-0.21,1.06-0.56,1.42-1.64,1.42c-13.56-0.03-27.11,0.02-40.67-0.05c-4.76-0.02-7.1-3.25-6.07-7.92c1.69-7.66,3.34-15.33,4.99-23
		c1.02-4.75,4.48-7.98,9.31-8.02c13.84-0.11,27.68-0.03,41.52-0.03C178.42,303.27,178.58,303.35,178.96,303.44z M132.95,332.35
		c9.64,0,19.14,0.01,28.63-0.05c0.4,0,1.05-0.61,1.15-1.04c0.88-3.71,1.66-7.44,2.47-11.16c0.49-2.26,1-4.52,1.52-6.88
		c-9.99,0-19.76,0-29.56,0C135.77,319.55,134.39,325.82,132.95,332.35z"/>
	<path class="st0" d="M308.09,303.25c5.55,0,11.1-0.02,16.65,0.01c3.52,0.02,5.72,1.41,6.46,4.21c0.25,0.96,0.3,2.06,0.1,3.03
		c-1.72,8.07-3.5,16.12-5.3,24.16c-0.99,4.44-4.7,7.54-9.33,7.57c-11.45,0.07-22.89,0.08-34.34,0c-4.66-0.03-6.98-3.26-5.98-7.83
		c1.68-7.67,3.32-15.34,4.95-23.02c1.07-5.03,4.76-8.06,9.96-8.13c0.06,0,0.11,0,0.17,0C296.99,303.25,302.54,303.25,308.09,303.25z
		 M286.85,332.35c9.64,0,19.08,0.02,28.52-0.05c0.44,0,1.14-0.64,1.26-1.1c0.76-2.97,1.41-5.98,2.07-8.98
		c0.65-2.97,1.27-5.95,1.9-8.97c-9.98,0-19.74,0-29.52,0C289.66,319.61,288.28,325.88,286.85,332.35z"/>
	<path class="st0" d="M473.33,342.26c-5.61,0-11.22,0.03-16.83-0.01c-4.98-0.04-7.42-3.17-6.33-7.99c0.17-0.78,0.3-1.57,0.46-2.34
		c1.51-6.95,2.99-13.9,4.54-20.84c1.06-4.74,4.66-7.76,9.51-7.8c11.39-0.08,22.78-0.08,34.17,0c4.82,0.03,7.11,3.09,6.09,7.85
		c-1.67,7.78-3.33,15.57-5.09,23.34c-1.1,4.88-4.82,7.76-9.87,7.79C484.43,342.28,478.88,342.26,473.33,342.26z M460.65,332.34
		c9.65,0,19.19,0.01,28.73-0.05c0.36,0,0.93-0.68,1.05-1.14c0.74-2.92,1.39-5.86,2.03-8.8c0.66-3.02,1.28-6.05,1.94-9.14
		c-9.97,0-19.73,0-29.54,0C463.46,319.59,462.07,325.9,460.65,332.34z"/>
	<path class="st0" d="M192.74,332.26c9.71,0,19.42,0,29.36,0c0.71-3.16,1.45-6.4,2.15-9.65c0.85-3.89,1.63-7.79,2.51-11.67
		c1.21-5.3,5.98-8.4,11.71-7.47c-0.53,2.54-1.04,5.08-1.59,7.62c-1.68,7.72-3.39,15.43-5.04,23.16c-1,4.66-4.75,7.96-9.56,7.99
		c-11.38,0.07-22.77,0.07-34.15,0c-4.71-0.03-7.1-3.1-6.12-7.69c2.14-10.01,4.36-20,6.48-30.01c0.22-1.03,0.62-1.27,1.57-1.3
		c5.63-0.16,8.25,2.97,7.03,8.45c-0.12,0.55-0.24,1.11-0.37,1.67c-1.33,5.94-2.66,11.87-3.97,17.81
		C192.68,331.49,192.74,331.84,192.74,332.26z"/>
	<path class="st0" d="M525.75,303.27c4.76,0,9.59,0,14.42,0c-0.03,5.44-4.33,9.84-9.48,9.87c-2.06,0.01-4.12-0.05-6.18,0.04
		c-0.47,0.02-1.24,0.48-1.33,0.87c-1.33,5.82-2.58,11.65-3.84,17.49c-0.04,0.21,0.02,0.44,0.03,0.79c4.83,0,9.62,0,14.41,0
		c-0.08,5.15-3.33,9.23-8.31,9.7c-4.07,0.38-8.23,0.27-12.31-0.05c-3.45-0.28-5.38-3.43-4.64-6.84c2.9-13.45,5.81-26.89,8.69-40.34
		c0.19-0.9,0.55-1.2,1.47-1.23c4.07-0.13,6.95,1.59,7.39,4.81C526.29,299.89,525.89,301.5,525.75,303.27z"/>
	<path class="st0" d="M255.24,313.14c-1.39,6.36-2.77,12.67-4.19,19.16c4.95,0,9.78,0,14.61,0c0.2,4.92-3.41,9.28-8.49,9.78
		c-3.8,0.37-7.67,0.33-11.48,0.04c-4.2-0.33-6.14-3.42-5.2-7.72c2.66-12.28,5.37-24.56,8.07-36.83c0.04-0.17,0.05-0.34,0.09-0.5
		c0.33-1.13,0.48-3.1,1.02-3.22c1.53-0.33,3.32-0.18,4.83,0.3c2.79,0.89,4.01,3.75,3.37,7.03c-0.12,0.6-0.22,1.21-0.38,2.04
		c4.93,0,9.71,0,14.47,0c0.21,5.16-4.13,9.84-9.02,9.91C260.43,313.16,257.92,313.14,255.24,313.14z"/>
	<path class="st0" d="M425.9,332.34c4.97,0,9.81,0,14.65,0c-0.02,5.26-3.64,9.39-8.91,9.81c-3.64,0.29-7.33,0.26-10.97,0
		c-4.15-0.29-6.26-3.27-5.38-7.44c2.12-10.07,4.35-20.11,6.54-30.17c0.19-0.87,0.54-1.49,1.6-1.31c1.34,0.22,2.78,0.17,4.02,0.64
		c2.74,1.06,3.85,3.88,3.13,7.16C429.01,318.09,427.47,325.13,425.9,332.34z"/>
	<path class="st0" d="M401.48,317.9c4.53,0.02,7.01,3.15,6.03,7.55c-1.11,5.04-2.21,10.09-3.24,15.15c-0.26,1.29-0.81,1.73-2.16,1.7
		c-5.3-0.1-7.66-3.05-6.53-8.27c1-4.6,1.94-9.22,2.93-13.82C399.02,317.88,399.05,317.89,401.48,317.9z"/>
	<path class="st0" d="M400.15,312.96c0.71-3.26,1.41-6.41,2.11-9.62c3.3,0,6.49,0,9.99,0c-0.41,2.11-0.77,4.14-1.21,6.15
		c-0.79,3.66-0.81,3.66-4.59,3.66c-1.94,0-3.89-0.01-5.83-0.03C400.52,313.11,400.41,313.04,400.15,312.96z"/>
	<path d="M381.26,313.22c-1.4,6.42-2.78,12.73-4.15,19.03c-9.92,0-19.68,0-29.58,0c1.41-6.43,2.78-12.74,4.16-19.03
		C361.63,313.22,371.38,313.22,381.26,313.22z"/>
	<path d="M132.95,332.35c1.44-6.52,2.82-12.79,4.22-19.13c9.8,0,19.57,0,29.56,0c-0.52,2.36-1.03,4.62-1.52,6.88
		c-0.81,3.72-1.59,7.45-2.47,11.16c-0.1,0.43-0.75,1.04-1.15,1.04C152.09,332.36,142.6,332.35,132.95,332.35z"/>
	<path d="M286.85,332.35c1.43-6.47,2.82-12.74,4.23-19.1c9.78,0,19.55,0,29.52,0c-0.64,3.02-1.25,6-1.9,8.97
		c-0.66,3-1.31,6.01-2.07,8.98c-0.12,0.46-0.82,1.1-1.26,1.1C305.93,332.36,296.49,332.35,286.85,332.35z"/>
	<path d="M460.65,332.34c1.42-6.44,2.81-12.75,4.21-19.13c9.82,0,19.58,0,29.54,0c-0.65,3.08-1.27,6.11-1.94,9.14
		c-0.64,2.94-1.3,5.88-2.03,8.8c-0.11,0.46-0.69,1.14-1.05,1.14C479.85,332.36,470.3,332.34,460.65,332.34z"/>
</g>
</svg>
