<?xml version="1.0" encoding="UTF-8"?>
<svg xmlns="http://www.w3.org/2000/svg" xmlns:xlink="http://www.w3.org/1999/xlink" width="64" height="56.32" viewBox="0 0 64 56.32">
<path fill-rule="nonzero" fill="rgb(3.137255%, 58.431375%, 80.392158%)" fill-opacity="1" d="M 33.921875 0.257812 C 33.023438 0.449219 32.277344 1.128906 23.507812 9.878906 C 18.046875 15.316406 13.84375 19.667969 13.589844 20.160156 C 12.90625 21.441406 12.949219 23.296875 13.695312 24.535156 C 14.507812 25.921875 25.941406 37.226562 26.921875 37.652344 C 27.96875 38.078125 29.910156 38.058594 30.785156 37.632812 C 31.742188 37.140625 32.617188 36.289062 33.089844 35.371094 C 33.578125 34.390625 33.621094 32.511719 33.152344 31.402344 C 32.960938 30.910156 31.273438 29.054688 28.628906 26.390625 L 24.425781 22.1875 L 35.070312 11.542969 L 39.574219 15.980469 C 42.988281 19.371094 44.246094 20.480469 44.90625 20.691406 C 46.101562 21.097656 59.710938 21.140625 60.820312 20.734375 C 62.484375 20.160156 63.785156 18.21875 63.808594 16.363281 C 63.828125 14.976562 63.53125 14.164062 62.65625 13.269531 C 61.246094 11.777344 61.011719 11.734375 54.441406 11.585938 L 48.535156 11.476562 L 43.09375 6.078125 C 37.589844 0.640625 37.332031 0.425781 35.519531 0.148438 C 35.179688 0.0859375 34.453125 0.128906 33.921875 0.257812 Z M 33.921875 0.257812 "/>
<path fill-rule="nonzero" fill="rgb(3.529412%, 28.235295%, 49.411765%)" fill-opacity="1" d="M 34.238281 17.472656 C 31.980469 18.046875 30.507812 19.882812 30.507812 22.121094 C 30.527344 23.980469 31.0625 24.746094 35.691406 29.398438 L 40 33.707031 L 34.558594 39.148438 C 31.574219 42.132812 29.054688 44.585938 28.96875 44.585938 C 28.886719 44.585938 26.835938 42.625 24.425781 40.234375 C 20.800781 36.652344 19.839844 35.820312 19.03125 35.542969 C 18.21875 35.265625 16.832031 35.199219 10.792969 35.199219 L 3.519531 35.199219 L 2.410156 35.839844 C 0.832031 36.734375 0.105469 38.039062 0.105469 39.894531 C 0.105469 41.75 0.832031 43.050781 2.410156 43.945312 L 3.519531 44.585938 L 15.253906 44.585938 L 20.585938 49.941406 C 23.53125 52.886719 26.28125 55.464844 26.710938 55.703125 C 27.902344 56.320312 29.207031 56.425781 30.441406 56.019531 C 31.382812 55.703125 32.46875 54.675781 41.214844 45.910156 C 48.9375 38.164062 50.988281 35.988281 51.199219 35.347656 C 51.625 34.027344 51.390625 31.980469 50.710938 30.996094 C 49.726562 29.566406 38.121094 18.175781 37.332031 17.855469 C 36.332031 17.429688 35.03125 17.28125 34.238281 17.472656 Z M 34.238281 17.472656 "/>
</svg>
